<?xml version="1.0" encoding="UTF-8"?>
<svg xmlns="http://www.w3.org/2000/svg" xmlns:xlink="http://www.w3.org/1999/xlink" width="64px" height="64px" viewBox="0 0 64 64" version="1.1">
<g id="surface1">
<path style=" stroke:none;fill-rule:nonzero;fill:rgb(20%,0%,0%);fill-opacity:1;" d="M 4 24.265625 C 4 17.171875 4 13.625 5.378906 10.917969 C 6.59375 8.53125 8.53125 6.59375 10.917969 5.378906 C 13.625 4 17.171875 4 24.265625 4 L 39.734375 4 C 46.828125 4 50.375 4 53.082031 5.378906 C 55.46875 6.59375 57.40625 8.53125 58.621094 10.917969 C 60 13.625 60 17.171875 60 24.265625 L 60 39.734375 C 60 46.828125 60 50.375 58.621094 53.082031 C 57.40625 55.46875 55.46875 57.40625 53.082031 58.621094 C 50.375 60 46.828125 60 39.734375 60 L 24.265625 60 C 17.171875 60 13.625 60 10.917969 58.621094 C 8.53125 57.40625 6.59375 55.46875 5.378906 53.082031 C 4 50.375 4 46.828125 4 39.734375 Z M 4 24.265625 "/>
<path style=" stroke:none;fill-rule:nonzero;fill:rgb(100%,60.392157%,0%);fill-opacity:1;" d="M 31.136719 39.191406 L 22.460938 39.191406 L 20.695312 44.816406 C 20.644531 45.027344 20.453125 45.175781 20.242188 45.164062 L 15.847656 45.164062 C 15.597656 45.164062 15.507812 45.023438 15.585938 44.742188 L 23.097656 22.546875 C 23.171875 22.316406 23.25 22.054688 23.324219 21.757812 C 23.421875 21.242188 23.472656 20.722656 23.472656 20.199219 C 23.453125 20.042969 23.589844 19.90625 23.738281 19.925781 L 29.710938 19.925781 C 29.886719 19.925781 29.984375 19.992188 30.011719 20.121094 L 38.539062 44.78125 C 38.613281 45.035156 38.539062 45.164062 38.3125 45.164062 L 33.429688 45.164062 C 33.257812 45.183594 33.09375 45.066406 33.054688 44.894531 Z M 23.8125 34.335938 L 29.746094 34.335938 C 28.773438 31.003906 27.671875 27.71875 26.78125 24.359375 C 25.816406 27.722656 24.765625 31.074219 23.8125 34.335938 Z M 23.8125 34.335938 "/>
<path style=" stroke:none;fill-rule:nonzero;fill:rgb(100%,60.392157%,0%);fill-opacity:1;" d="M 43.609375 24.011719 C 43.226562 24.027344 42.84375 23.960938 42.488281 23.8125 C 42.132812 23.667969 41.808594 23.445312 41.542969 23.164062 C 41.277344 22.871094 41.070312 22.523438 40.933594 22.148438 C 40.800781 21.769531 40.738281 21.371094 40.753906 20.96875 C 40.738281 20.570312 40.808594 20.175781 40.953125 19.804688 C 41.101562 19.4375 41.320312 19.105469 41.597656 18.828125 C 41.875 18.558594 42.203125 18.34375 42.5625 18.199219 C 42.917969 18.058594 43.300781 17.992188 43.683594 18 C 44.585938 18 45.292969 18.277344 45.804688 18.828125 C 46.066406 19.117188 46.265625 19.453125 46.398438 19.820312 C 46.53125 20.1875 46.59375 20.578125 46.578125 20.96875 C 46.59375 21.371094 46.527344 21.773438 46.390625 22.148438 C 46.25 22.527344 46.039062 22.871094 45.769531 23.164062 C 45.484375 23.449219 45.148438 23.671875 44.777344 23.820312 C 44.402344 23.964844 44.007812 24.03125 43.609375 24.011719 Z M 41.015625 44.777344 L 41.015625 26.363281 C 41.015625 26.128906 41.117188 26.015625 41.316406 26.015625 L 45.9375 26.015625 C 46.136719 26.015625 46.238281 26.128906 46.238281 26.363281 L 46.238281 44.777344 C 46.238281 45.035156 46.136719 45.164062 45.9375 45.164062 L 41.355469 45.164062 C 41.128906 45.164062 41.015625 45.035156 41.015625 44.777344 Z M 41.015625 44.777344 "/>
</g>
</svg>
