<?xml version="1.0" encoding="UTF-8"?>
<svg xmlns="http://www.w3.org/2000/svg" xmlns:xlink="http://www.w3.org/1999/xlink" width="64px" height="64px" viewBox="0 0 64 64" version="1.1">
<defs>
<linearGradient id="linear0" gradientUnits="userSpaceOnUse" x1="-118.318" y1="45.638" x2="-116.751" y2="45.638" gradientTransform="matrix(0,22.972,22.972,0,-1021.778,2726.614)">
<stop offset="0" style="stop-color:rgb(59.215686%,85.098039%,96.470588%);stop-opacity:1;"/>
<stop offset="0.92" style="stop-color:rgb(5.882353%,50.196078%,80%);stop-opacity:1;"/>
<stop offset="1" style="stop-color:rgb(5.882353%,50.196078%,80%);stop-opacity:1;"/>
</linearGradient>
</defs>
<g id="surface1">
<path style=" stroke:none;fill-rule:nonzero;fill:rgb(5.882353%,50.196078%,80%);fill-opacity:1;" d="M 46.382812 6.484375 L 11.246094 6.484375 C 8.882812 6.492188 6.96875 8.402344 6.964844 10.765625 L 6.964844 49.519531 C 6.96875 51.878906 8.882812 53.792969 11.246094 53.800781 L 34.390625 53.800781 C 34.125 42.285156 38.058594 19.9375 46.382812 6.484375 Z M 46.382812 6.484375 "/>
<path style=" stroke:none;fill-rule:nonzero;fill:url(#linear0);" d="M 45.109375 7.734375 L 11.246094 7.734375 C 9.574219 7.734375 8.214844 9.09375 8.214844 10.765625 L 8.214844 46.691406 C 16.902344 43.414062 26.070312 41.597656 35.351562 41.320312 C 37.804688 29.910156 41.066406 18.683594 45.109375 7.734375 Z M 45.109375 7.734375 "/>
<path style=" stroke:none;fill-rule:nonzero;fill:rgb(0%,23.137255%,34.117647%);fill-opacity:1;" d="M 54.578125 5.214844 C 52.179688 3.070312 49.261719 3.933594 46.378906 6.484375 C 45.953125 6.863281 45.527344 7.285156 45.105469 7.734375 C 39.6875 14.140625 35.941406 21.792969 34.199219 30 C 34.738281 31.171875 35.160156 32.390625 35.46875 33.644531 C 35.539062 33.925781 35.605469 34.1875 35.667969 34.410156 C 35.792969 34.941406 35.867188 35.285156 35.867188 35.285156 C 35.867188 35.285156 35.824219 35.121094 35.640625 34.59375 L 35.523438 34.253906 C 35.503906 34.199219 35.476562 34.136719 35.449219 34.066406 C 35.128906 33.320312 34.246094 31.746094 33.847656 31.066406 C 33.515625 32.050781 33.21875 32.972656 32.972656 33.808594 C 33.800781 35.59375 34.414062 37.472656 34.789062 39.40625 C 34.789062 39.40625 34.726562 39.179688 34.445312 38.378906 C 33.902344 37.210938 33.304688 36.070312 32.644531 34.960938 C 32.222656 36.058594 32.039062 37.234375 32.117188 38.410156 C 32.558594 39.289062 32.890625 40.21875 33.105469 41.175781 C 33.773438 43.742188 34.234375 46.867188 34.234375 46.867188 C 34.234375 46.867188 34.253906 47.066406 34.277344 47.394531 C 34.1875 49.53125 34.230469 51.671875 34.40625 53.804688 C 34.503906 55.914062 34.898438 58 35.574219 60.003906 L 35.933594 59.804688 C 35.097656 56.792969 34.773438 53.664062 34.976562 50.546875 C 35.355469 43.941406 36.660156 37.417969 38.855469 31.171875 C 42.875 20.554688 48.453125 12.035156 53.554688 7.972656 C 48.902344 12.171875 42.605469 25.773438 40.71875 30.808594 C 38.734375 35.992188 37.226562 41.347656 36.210938 46.808594 C 37.417969 43.761719 39.777344 41.3125 42.78125 40 C 42.78125 40 45.246094 36.957031 48.128906 32.613281 C 46.265625 33.003906 44.425781 33.492188 42.617188 34.078125 C 41.21875 34.667969 40.839844 34.867188 40.839844 34.867188 C 43.511719 33.257812 46.335938 31.914062 49.269531 30.855469 C 54.621094 22.425781 60.453125 10.453125 54.582031 5.207031 "/>
</g>
</svg>
