<?xml version="1.0" encoding="UTF-8"?>
<svg xmlns="http://www.w3.org/2000/svg" xmlns:xlink="http://www.w3.org/1999/xlink" width="64px" height="64px" viewBox="0 0 64 64" version="1.1">
<g id="surface1">
<path style=" stroke:none;fill-rule:nonzero;fill:rgb(85.882353%,21.960784%,5.490196%);fill-opacity:1;" d="M 31.683594 11.859375 C 28.726562 13.9375 25.375 16.296875 23.578125 20.195312 C 20.460938 27 29.960938 34.421875 30.367188 34.734375 C 30.460938 34.808594 30.574219 34.84375 30.6875 34.84375 C 30.808594 34.84375 30.925781 34.804688 31.023438 34.722656 C 31.210938 34.5625 31.265625 34.296875 31.152344 34.078125 C 31.117188 34.011719 27.707031 27.386719 27.835938 22.632812 C 27.878906 20.976562 30.195312 19.101562 32.648438 17.113281 C 34.894531 15.292969 37.441406 13.226562 38.929688 10.8125 C 42.199219 5.5 38.566406 0.273438 38.527344 0.21875 C 38.382812 0.0195312 38.117188 -0.0546875 37.890625 0.0429688 C 37.664062 0.144531 37.535156 0.390625 37.589844 0.632812 C 37.597656 0.667969 38.304688 4.125 36.335938 7.683594 C 35.527344 9.15625 33.746094 10.410156 31.683594 11.859375 Z M 31.683594 11.859375 "/>
<path style=" stroke:none;fill-rule:nonzero;fill:rgb(85.882353%,21.960784%,5.490196%);fill-opacity:1;" d="M 44.140625 14.203125 C 44.351562 14.046875 44.414062 13.757812 44.285156 13.53125 C 44.160156 13.300781 43.882812 13.199219 43.640625 13.292969 C 43.136719 13.484375 31.339844 18.03125 31.339844 23.527344 C 31.339844 27.316406 32.957031 29.316406 34.136719 30.777344 C 34.601562 31.351562 35 31.847656 35.132812 32.269531 C 35.503906 33.488281 34.625 35.6875 34.253906 36.433594 C 34.148438 36.648438 34.203125 36.910156 34.382812 37.066406 C 34.480469 37.148438 34.601562 37.191406 34.726562 37.191406 C 34.828125 37.191406 34.933594 37.160156 35.023438 37.097656 C 35.226562 36.957031 39.984375 33.59375 39.128906 29.542969 C 38.8125 28.003906 38.054688 26.878906 37.386719 25.886719 C 36.355469 24.347656 35.605469 23.238281 36.742188 21.1875 C 38.066406 18.792969 44.082031 14.246094 44.140625 14.203125 Z M 44.140625 14.203125 "/>
<path style=" stroke:none;fill-rule:nonzero;fill:rgb(45.098039%,63.137255%,98.431373%);fill-opacity:1;" d="M 13.425781 37.28125 C 13.226562 37.886719 13.320312 38.484375 13.703125 39.015625 C 14.980469 40.792969 19.511719 41.769531 26.460938 41.769531 C 27.402344 41.769531 28.398438 41.753906 29.417969 41.714844 C 40.527344 41.320312 44.644531 37.859375 44.816406 37.710938 C 45 37.550781 45.050781 37.28125 44.9375 37.066406 C 44.820312 36.851562 44.570312 36.742188 44.335938 36.808594 C 40.421875 37.875 33.117188 38.253906 28.046875 38.253906 C 22.378906 38.253906 19.492188 37.847656 18.785156 37.546875 C 19.144531 37.046875 21.382812 36.15625 24.15625 35.613281 C 24.421875 35.558594 24.605469 35.316406 24.578125 35.046875 C 24.550781 34.777344 24.324219 34.574219 24.054688 34.574219 C 22.429688 34.574219 14.28125 34.703125 13.425781 37.28125 Z M 13.425781 37.28125 "/>
<path style=" stroke:none;fill-rule:nonzero;fill:rgb(45.098039%,63.137255%,98.431373%);fill-opacity:1;" d="M 50.601562 33.714844 C 48.308594 33.714844 46.136719 34.863281 46.046875 34.910156 C 45.835938 35.027344 45.726562 35.269531 45.785156 35.503906 C 45.84375 35.734375 46.050781 35.898438 46.292969 35.898438 C 46.339844 35.898438 51.179688 35.9375 51.617188 38.703125 C 52.007812 41.089844 47.039062 44.953125 45.09375 46.242188 C 44.882812 46.382812 44.800781 46.648438 44.898438 46.882812 C 44.984375 47.078125 45.175781 47.203125 45.382812 47.203125 C 45.417969 47.203125 45.457031 47.199219 45.492188 47.191406 C 45.953125 47.09375 56.792969 44.703125 55.648438 38.394531 C 54.949219 34.527344 52.515625 33.714844 50.601562 33.714844 Z M 50.601562 33.714844 "/>
<path style=" stroke:none;fill-rule:nonzero;fill:rgb(45.098039%,63.137255%,98.431373%);fill-opacity:1;" d="M 43.167969 45.46875 C 43.207031 45.265625 43.121094 45.0625 42.953125 44.945312 L 40.355469 43.125 C 40.226562 43.035156 40.066406 43.007812 39.917969 43.046875 C 39.890625 43.054688 37.175781 43.765625 33.230469 44.207031 C 31.664062 44.382812 29.910156 44.472656 28.15625 44.472656 C 24.210938 44.472656 21.632812 44.011719 21.257812 43.671875 C 21.207031 43.574219 21.222656 43.53125 21.230469 43.507812 C 21.300781 43.316406 21.664062 43.09375 21.902344 43.003906 C 22.160156 42.90625 22.300781 42.625 22.222656 42.359375 C 22.140625 42.09375 21.867188 41.9375 21.597656 42 C 18.988281 42.628906 17.714844 43.511719 17.808594 44.617188 C 17.972656 46.578125 22.511719 47.582031 26.351562 47.847656 C 26.90625 47.886719 27.5 47.90625 28.125 47.90625 C 28.128906 47.90625 28.128906 47.90625 28.128906 47.90625 C 34.511719 47.90625 42.695312 45.902344 42.777344 45.882812 C 42.976562 45.832031 43.128906 45.671875 43.167969 45.46875 Z M 43.167969 45.46875 "/>
<path style=" stroke:none;fill-rule:nonzero;fill:rgb(45.098039%,63.137255%,98.431373%);fill-opacity:1;" d="M 23.574219 49.675781 C 23.773438 49.550781 23.859375 49.304688 23.789062 49.082031 C 23.71875 48.859375 23.511719 48.710938 23.273438 48.714844 C 22.925781 48.722656 19.855469 48.863281 19.640625 50.816406 C 19.578125 51.398438 19.742188 51.933594 20.140625 52.402344 C 21.242188 53.707031 24.214844 54.484375 29.230469 54.773438 C 29.824219 54.808594 30.425781 54.828125 31.023438 54.828125 C 37.398438 54.828125 41.695312 52.832031 41.875 52.746094 C 42.050781 52.664062 42.164062 52.492188 42.175781 52.300781 C 42.183594 52.109375 42.089844 51.925781 41.925781 51.824219 L 38.640625 49.820312 C 38.527344 49.75 38.390625 49.726562 38.257812 49.753906 C 38.238281 49.757812 36.152344 50.191406 33.007812 50.617188 C 32.410156 50.699219 31.664062 50.738281 30.789062 50.738281 C 27.644531 50.738281 24.148438 50.226562 23.476562 49.890625 C 23.46875 49.828125 23.480469 49.746094 23.574219 49.675781 Z M 23.574219 49.675781 "/>
<path style=" stroke:none;fill-rule:nonzero;fill:rgb(45.098039%,63.137255%,98.431373%);fill-opacity:1;" d="M 28.050781 60.855469 C 42.65625 60.84375 50.496094 58.246094 52.007812 56.613281 C 52.542969 56.035156 52.601562 55.484375 52.554688 55.128906 C 52.441406 54.25 51.640625 53.710938 51.550781 53.652344 C 51.332031 53.511719 51.035156 53.546875 50.867188 53.746094 C 50.695312 53.941406 50.691406 54.230469 50.863281 54.425781 C 50.953125 54.546875 51.007812 54.742188 50.738281 55.011719 C 50.132812 55.578125 44.046875 57.289062 33.90625 57.804688 C 32.515625 57.875 31.058594 57.910156 29.578125 57.914062 C 20.5 57.914062 13.855469 56.667969 12.984375 55.945312 C 13.320312 55.460938 15.667969 54.691406 18.167969 54.253906 C 18.449219 54.203125 18.640625 53.9375 18.597656 53.65625 C 18.554688 53.375 18.292969 53.179688 18.007812 53.214844 C 17.9375 53.226562 17.699219 53.238281 17.421875 53.257812 C 13.296875 53.507812 8.53125 54.070312 8.285156 56.195312 C 8.207031 56.84375 8.402344 57.429688 8.855469 57.941406 C 9.96875 59.191406 13.171875 60.855469 28.050781 60.855469 Z M 28.050781 60.855469 "/>
<path style=" stroke:none;fill-rule:nonzero;fill:rgb(45.098039%,63.137255%,98.431373%);fill-opacity:1;" d="M 54.875 57.074219 C 54.671875 56.976562 54.425781 57.023438 54.273438 57.191406 C 54.25 57.214844 52.054688 59.511719 45.453125 60.859375 C 42.925781 61.367188 38.179688 61.621094 31.347656 61.621094 C 24.503906 61.621094 17.992188 61.355469 17.929688 61.351562 C 17.65625 61.335938 17.425781 61.535156 17.386719 61.804688 C 17.351562 62.070312 17.523438 62.324219 17.785156 62.386719 C 17.851562 62.402344 24.675781 64 34.007812 64 C 38.484375 64 42.835938 63.636719 46.953125 62.917969 C 54.621094 61.574219 55.160156 57.773438 55.175781 57.609375 C 55.203125 57.386719 55.082031 57.167969 54.875 57.074219 Z M 54.875 57.074219 "/>
</g>
</svg>
