<?xml version="1.0" encoding="UTF-8"?>
<svg xmlns="http://www.w3.org/2000/svg" xmlns:xlink="http://www.w3.org/1999/xlink" width="64px" height="64px" viewBox="0 0 64 64" version="1.1">
<g id="surface1">
<path style=" stroke:none;fill-rule:nonzero;fill:rgb(0%,47.843137%,80%);fill-opacity:1;" d="M 37 31.949219 C 37 34.710938 34.761719 36.949219 32 36.949219 C 29.238281 36.949219 27 34.710938 27 31.949219 C 27 29.1875 29.238281 26.949219 32 26.949219 C 34.761719 26.949219 37 29.1875 37 31.949219 Z M 37 31.949219 "/>
<path style=" stroke:none;fill-rule:nonzero;fill:rgb(0%,47.843137%,80%);fill-opacity:1;" d="M 32 43.410156 C 25.992188 43.558594 19.996094 42.746094 14.238281 41.011719 C 11.582031 40.167969 9.101562 38.839844 6.925781 37.097656 C 5.246094 35.890625 4.175781 34.007812 4 31.949219 C 4 28.640625 7.632812 25.402344 13.714844 23.28125 C 19.625 21.402344 25.800781 20.492188 32 20.585938 C 38.117188 20.5 44.210938 21.394531 50.042969 23.234375 C 52.605469 24.050781 55 25.3125 57.121094 26.964844 C 58.773438 28.117188 59.828125 29.941406 60 31.949219 C 60 35.382812 55.941406 38.867188 49.398438 41.03125 C 43.753906 42.707031 37.886719 43.511719 32 43.410156 Z M 32 22.976562 C 26.066406 22.898438 20.160156 23.765625 14.503906 25.542969 C 8.902344 27.496094 6.390625 30.167969 6.390625 31.941406 C 6.390625 33.796875 9.089844 36.714844 15.015625 38.742188 C 20.519531 40.394531 26.253906 41.164062 32 41.019531 C 37.632812 41.121094 43.246094 40.359375 48.648438 38.761719 C 54.800781 36.722656 57.601562 33.800781 57.601562 31.949219 C 57.394531 30.664062 56.664062 29.523438 55.578125 28.800781 C 53.683594 27.335938 51.542969 26.214844 49.257812 25.492188 C 43.675781 23.742188 37.851562 22.890625 32 22.976562 Z M 32 22.976562 "/>
<path style=" stroke:none;fill-rule:nonzero;fill:rgb(0%,47.843137%,80%);fill-opacity:1;" d="M 20.640625 56.886719 C 19.707031 56.90625 18.785156 56.679688 17.96875 56.230469 C 15.105469 54.578125 14.113281 49.8125 15.3125 43.484375 C 16.640625 37.425781 18.9375 31.621094 22.113281 26.296875 C 25.09375 20.957031 28.914062 16.125 33.421875 11.988281 C 35.40625 10.179688 37.699219 8.734375 40.1875 7.722656 C 42.011719 6.871094 44.121094 6.871094 45.945312 7.722656 C 48.921875 9.441406 49.90625 14.695312 48.519531 21.441406 C 47.152344 27.171875 44.914062 32.65625 41.886719 37.707031 C 39.007812 42.988281 35.3125 47.773438 30.933594 51.894531 C 28.875 53.777344 26.488281 55.261719 23.886719 56.273438 C 22.847656 56.65625 21.75 56.867188 20.640625 56.886719 Z M 24.1875 27.484375 C 21.152344 32.585938 18.953125 38.132812 17.664062 43.925781 C 16.558594 49.753906 17.621094 53.261719 19.164062 54.152344 C 20.765625 55.078125 24.648438 54.199219 29.367188 50.078125 C 33.546875 46.132812 37.074219 41.550781 39.820312 36.5 C 42.722656 31.671875 44.867188 26.425781 46.183594 20.949219 C 47.488281 14.597656 46.359375 10.710938 44.757812 9.785156 C 43.539062 9.320312 42.1875 9.386719 41.019531 9.964844 C 38.804688 10.878906 36.765625 12.175781 35 13.800781 C 30.691406 17.761719 27.046875 22.386719 24.199219 27.496094 Z M 24.1875 27.484375 "/>
<path style=" stroke:none;fill-rule:nonzero;fill:rgb(0%,47.843137%,80%);fill-opacity:1;" d="M 43.355469 56.910156 C 40.644531 56.910156 37.203125 55.273438 33.617188 52.191406 C 29.03125 48.015625 25.148438 43.128906 22.125 37.714844 C 18.984375 32.464844 16.707031 26.746094 15.375 20.773438 C 14.796875 18.148438 14.691406 15.4375 15.058594 12.773438 C 15.230469 10.773438 16.28125 8.953125 17.929688 7.800781 C 20.902344 6.078125 25.949219 7.847656 31.097656 12.421875 C 35.378906 16.464844 39.015625 21.140625 41.878906 26.289062 C 45.015625 31.417969 47.316406 37.011719 48.699219 42.863281 C 49.300781 45.585938 49.394531 48.398438 48.972656 51.152344 C 48.769531 53.210938 47.679688 55.078125 45.984375 56.265625 C 45.179688 56.710938 44.273438 56.933594 43.355469 56.910156 Z M 24.195312 36.511719 C 27.097656 41.683594 30.804688 46.363281 35.179688 50.371094 C 39.675781 54.238281 43.242188 55.070312 44.777344 54.171875 C 46.378906 53.238281 47.558594 49.445312 46.34375 43.300781 C 45.007812 37.714844 42.800781 32.375 39.800781 27.480469 C 37.066406 22.554688 33.597656 18.074219 29.511719 14.199219 C 24.660156 9.894531 20.730469 8.933594 19.128906 9.863281 C 18.117188 10.683594 17.5 11.886719 17.417969 13.1875 C 17.101562 15.5625 17.203125 17.976562 17.722656 20.316406 C 19.003906 26.027344 21.191406 31.496094 24.195312 36.515625 Z M 24.195312 36.511719 "/>
</g>
</svg>
