<?xml version="1.0" encoding="UTF-8"?>
<svg xmlns="http://www.w3.org/2000/svg" xmlns:xlink="http://www.w3.org/1999/xlink" width="64px" height="64px" viewBox="0 0 64 64" version="1.1">
<defs>
<linearGradient id="linear0" gradientUnits="userSpaceOnUse" x1="0" y1="0.5" x2="0.997987" y2="0.5" gradientTransform="matrix(29.800781,0,0,26.5,0.699219,23.398438)">
<stop offset="0.26" style="stop-color:rgb(97.647059%,47.843137%,7.058824%);stop-opacity:1;"/>
<stop offset="0.46" style="stop-color:rgb(69.019608%,48.235294%,34.509804%);stop-opacity:1;"/>
<stop offset="0.72" style="stop-color:rgb(34.117647%,48.235294%,68.235294%);stop-opacity:1;"/>
<stop offset="0.91" style="stop-color:rgb(11.764706%,48.627451%,89.803922%);stop-opacity:1;"/>
<stop offset="1" style="stop-color:rgb(3.137255%,48.627451%,98.039216%);stop-opacity:1;"/>
</linearGradient>
<linearGradient id="linear1" gradientUnits="userSpaceOnUse" x1="0.00344828" y1="0.345397" x2="1.211823" y2="0.77619" gradientTransform="matrix(40.601562,0,0,63,23.398438,1)">
<stop offset="0" style="stop-color:rgb(97.647059%,47.843137%,7.058824%);stop-opacity:1;"/>
<stop offset="0.07" style="stop-color:rgb(79.607843%,47.843137%,24.313725%);stop-opacity:1;"/>
<stop offset="0.15" style="stop-color:rgb(61.960784%,48.235294%,41.568627%);stop-opacity:1;"/>
<stop offset="0.24" style="stop-color:rgb(45.882353%,48.235294%,56.862745%);stop-opacity:1;"/>
<stop offset="0.33" style="stop-color:rgb(32.54902%,48.235294%,69.411765%);stop-opacity:1;"/>
<stop offset="0.43" style="stop-color:rgb(21.960784%,48.627451%,80%);stop-opacity:1;"/>
<stop offset="0.54" style="stop-color:rgb(13.72549%,48.627451%,87.843137%);stop-opacity:1;"/>
<stop offset="0.66" style="stop-color:rgb(7.843137%,48.627451%,93.72549%);stop-opacity:1;"/>
<stop offset="0.79" style="stop-color:rgb(4.313725%,48.627451%,96.862745%);stop-opacity:1;"/>
<stop offset="1" style="stop-color:rgb(3.137255%,48.627451%,98.039216%);stop-opacity:1;"/>
</linearGradient>
<linearGradient id="linear2" gradientUnits="userSpaceOnUse" x1="0.78169" y1="0.977494" x2="0.301056" y2="-0.0662404" gradientTransform="matrix(28.398438,0,0,39.101562,35.601562,1)">
<stop offset="0" style="stop-color:rgb(99.607843%,19.215686%,36.470588%);stop-opacity:1;"/>
<stop offset="0.08" style="stop-color:rgb(79.607843%,25.490196%,49.411765%);stop-opacity:1;"/>
<stop offset="0.16" style="stop-color:rgb(61.960784%,30.588235%,60.784314%);stop-opacity:1;"/>
<stop offset="0.25" style="stop-color:rgb(45.882353%,35.686275%,70.588235%);stop-opacity:1;"/>
<stop offset="0.34" style="stop-color:rgb(32.54902%,39.607843%,79.215686%);stop-opacity:1;"/>
<stop offset="0.44" style="stop-color:rgb(21.960784%,42.745098%,85.882353%);stop-opacity:1;"/>
<stop offset="0.54" style="stop-color:rgb(13.72549%,45.490196%,91.372549%);stop-opacity:1;"/>
<stop offset="0.66" style="stop-color:rgb(7.843137%,47.058824%,95.294118%);stop-opacity:1;"/>
<stop offset="0.79" style="stop-color:rgb(4.313725%,48.235294%,97.254902%);stop-opacity:1;"/>
<stop offset="1" style="stop-color:rgb(3.137255%,48.627451%,98.039216%);stop-opacity:1;"/>
</linearGradient>
<linearGradient id="linear3" gradientUnits="userSpaceOnUse" x1="0.2" y1="0.240865" x2="1.034216" y2="1.326763" gradientTransform="matrix(49.101562,0,0,62.398438,0,0)">
<stop offset="0" style="stop-color:rgb(99.607843%,19.215686%,36.470588%);stop-opacity:1;"/>
<stop offset="0.04" style="stop-color:rgb(96.470588%,20.392157%,38.431373%);stop-opacity:1;"/>
<stop offset="0.1" style="stop-color:rgb(87.45098%,22.745098%,44.313725%);stop-opacity:1;"/>
<stop offset="0.17" style="stop-color:rgb(76.078431%,26.27451%,51.372549%);stop-opacity:1;"/>
<stop offset="0.29" style="stop-color:rgb(67.843137%,29.019608%,56.862745%);stop-opacity:1;"/>
<stop offset="0.55" style="stop-color:rgb(45.882353%,35.686275%,70.588235%);stop-opacity:1;"/>
<stop offset="0.92" style="stop-color:rgb(11.372549%,46.27451%,92.941176%);stop-opacity:1;"/>
<stop offset="1" style="stop-color:rgb(3.137255%,48.627451%,98.039216%);stop-opacity:1;"/>
</linearGradient>
</defs>
<g id="surface1">
<path style=" stroke:none;fill-rule:nonzero;fill:url(#linear0);" d="M 16.199219 49.898438 L 0.699219 37.699219 L 8.398438 23.398438 L 30.5 32 Z M 16.199219 49.898438 "/>
<path style=" stroke:none;fill-rule:nonzero;fill:url(#linear1);" d="M 64 17.101562 L 62.800781 54.101562 L 38.199219 64 L 23.398438 54.398438 L 45 32 L 35.601562 11.199219 L 44.101562 1 Z M 64 17.101562 "/>
<path style=" stroke:none;fill-rule:nonzero;fill:url(#linear2);" d="M 64 17.101562 L 44.5 40.101562 L 35.601562 11.199219 L 44.101562 1 Z M 64 17.101562 "/>
<path style=" stroke:none;fill-rule:nonzero;fill:url(#linear3);" d="M 30.800781 53.101562 L 5.199219 62.398438 L 9.300781 48 L 14.601562 30.199219 L 0 25.300781 L 9.300781 0 L 29.300781 2.398438 L 49.101562 25 Z M 30.800781 53.101562 "/>
<path style=" stroke:none;fill-rule:nonzero;fill:rgb(0%,0%,0%);fill-opacity:1;" d="M 12 12 L 52 12 L 52 52 L 12 52 Z M 12 12 "/>
<path style=" stroke:none;fill-rule:nonzero;fill:rgb(100%,100%,100%);fill-opacity:1;" d="M 15.800781 44.5 L 30.800781 44.5 L 30.800781 47 L 15.800781 47 Z M 26.5 20.199219 L 26.5 17.199219 L 18.300781 17.199219 L 18.300781 20.199219 L 20.601562 20.199219 L 20.601562 30.699219 L 18.300781 30.699219 L 18.300781 33.800781 L 26.5 33.800781 L 26.5 30.699219 L 24.199219 30.699219 L 24.199219 20.199219 Z M 34.5 34 C 33.359375 34.050781 32.222656 33.8125 31.199219 33.300781 C 30.363281 32.839844 29.617188 32.230469 29 31.5 L 31.300781 28.898438 C 31.714844 29.355469 32.1875 29.757812 32.699219 30.101562 C 33.183594 30.382812 33.738281 30.523438 34.300781 30.5 C 34.917969 30.546875 35.515625 30.285156 35.898438 29.800781 C 36.363281 29.203125 36.578125 28.449219 36.5 27.699219 L 36.5 17 L 40.199219 17 L 40.199219 27.800781 C 40.238281 28.683594 40.101562 29.566406 39.800781 30.398438 C 39.535156 31.246094 39.054688 32.003906 38.398438 32.601562 C 37.265625 33.441406 35.910156 33.929688 34.5 34 Z M 34.5 34 "/>
</g>
</svg>
