<?xml version="1.0" encoding="UTF-8"?>
<svg xmlns="http://www.w3.org/2000/svg" xmlns:xlink="http://www.w3.org/1999/xlink" width="64px" height="64px" viewBox="0 0 64 64" version="1.1">
<g id="surface1">
<path style=" stroke:none;fill-rule:nonzero;fill:rgb(1.568628%,58.823532%,53.333336%);fill-opacity:1;" d="M 28.40625 63.792969 C 27.453125 63.679688 26.457031 63.53125 26.191406 63.46875 C 25.796875 63.375 25.398438 63.289062 25.003906 63.21875 C 24.546875 63.128906 24.097656 63.023438 23.652344 62.902344 C 21.578125 62.304688 21.429688 62.257812 19.867188 61.617188 C 18.429688 61.03125 15.78125 59.664062 14.875 59.039062 C 14.628906 58.867188 14.394531 58.730469 14.359375 58.730469 C 14.324219 58.730469 13.746094 58.324219 13.070312 57.824219 C 8.785156 54.652344 5.570312 50.800781 3.242188 46.058594 C 2.84375 45.246094 2.515625 44.523438 2.515625 44.457031 C 2.515625 44.386719 2.445312 44.203125 2.359375 44.046875 C 2.175781 43.722656 1.917969 43.023438 1.710938 42.300781 C 1.621094 41.992188 1.515625 41.691406 1.398438 41.394531 C 1.300781 41.164062 1.21875 40.882812 1.21875 40.773438 C 1.21875 40.65625 1.121094 40.289062 1.003906 39.949219 C 0.886719 39.613281 0.789062 39.214844 0.789062 39.0625 C 0.789062 38.914062 0.695312 38.402344 0.578125 37.925781 C 0.300781 36.746094 0 33.691406 0 31.976562 C 0 30.265625 0.300781 27.210938 0.578125 26.03125 C 0.695312 25.550781 0.789062 25.03125 0.789062 24.871094 C 0.789062 24.710938 0.863281 24.394531 0.949219 24.167969 C 1.039062 23.945312 1.152344 23.542969 1.207031 23.277344 C 1.261719 23.007812 1.386719 22.546875 1.488281 22.246094 L 1.785156 21.386719 C 2 20.738281 2.199219 20.191406 2.296875 19.976562 C 2.351562 19.859375 2.566406 19.375 2.777344 18.898438 C 3.113281 18.132812 3.839844 16.683594 4.261719 15.925781 C 4.414062 15.648438 4.472656 15.554688 5.308594 14.25 C 6.636719 12.175781 8.898438 9.59375 11.003906 7.757812 C 11.746094 7.109375 14.226562 5.222656 14.339844 5.222656 C 14.371094 5.222656 14.605469 5.085938 14.863281 4.910156 C 15.535156 4.460938 16.195312 4.078125 17.054688 3.648438 C 17.367188 3.492188 17.671875 3.335938 17.972656 3.171875 C 18.117188 3.089844 18.382812 2.964844 19.757812 2.351562 C 20.058594 2.214844 20.386719 2.09375 21.324219 1.761719 C 21.53125 1.691406 21.949219 1.539062 22.246094 1.425781 C 22.546875 1.316406 22.898438 1.222656 23.027344 1.222656 C 23.15625 1.222656 23.496094 1.132812 23.78125 1.023438 C 24.066406 0.910156 24.585938 0.785156 24.933594 0.742188 C 25.28125 0.699219 25.742188 0.601562 25.960938 0.527344 C 26.175781 0.453125 26.765625 0.355469 27.273438 0.316406 C 27.929688 0.253906 28.585938 0.175781 29.242188 0.0820312 C 30.585938 -0.113281 33.507812 -0.113281 34.839844 0.0820312 C 35.464844 0.171875 36.097656 0.246094 36.726562 0.304688 C 37.203125 0.34375 37.8125 0.445312 38.078125 0.527344 C 38.347656 0.605469 38.808594 0.707031 39.109375 0.742188 C 39.40625 0.78125 39.90625 0.90625 40.21875 1.015625 C 40.535156 1.132812 40.890625 1.222656 41.011719 1.222656 C 41.136719 1.222656 41.390625 1.292969 41.574219 1.378906 C 41.761719 1.464844 42.160156 1.601562 42.460938 1.691406 C 42.757812 1.78125 43.265625 1.960938 43.59375 2.089844 C 43.921875 2.21875 44.359375 2.390625 44.566406 2.46875 C 44.953125 2.617188 47.796875 4.039062 48.183594 4.28125 C 51.324219 6.238281 52.941406 7.519531 55.113281 9.761719 C 57.730469 12.46875 59.46875 15.046875 61.238281 18.84375 C 61.363281 19.113281 61.554688 19.507812 61.664062 19.722656 C 61.773438 19.941406 61.863281 20.195312 61.863281 20.289062 C 61.863281 20.382812 61.953125 20.667969 62.0625 20.921875 C 62.363281 21.613281 62.621094 22.402344 62.742188 23.003906 C 62.800781 23.296875 62.914062 23.660156 62.988281 23.8125 C 63.066406 23.960938 63.15625 24.34375 63.191406 24.65625 C 63.226562 24.96875 63.328125 25.480469 63.417969 25.789062 C 63.929688 27.554688 64.179688 32.757812 63.871094 35.058594 C 63.78125 35.742188 63.679688 36.570312 63.644531 36.894531 C 63.585938 37.453125 63.289062 38.898438 63.035156 39.867188 L 62.777344 40.894531 C 62.285156 42.871094 61.074219 45.691406 59.597656 48.300781 C 59.011719 49.335938 57.046875 52.132812 56.675781 52.460938 C 56.640625 52.488281 56.476562 52.6875 56.308594 52.890625 C 56.140625 53.101562 55.601562 53.683594 55.113281 54.191406 C 52.964844 56.410156 51.226562 57.78125 48.183594 59.675781 C 47.824219 59.898438 44.761719 61.394531 44.1875 61.628906 C 43.890625 61.746094 43.394531 61.945312 43.085938 62.070312 C 42.78125 62.195312 42.4375 62.300781 42.328125 62.300781 C 42.222656 62.300781 41.941406 62.398438 41.699219 62.511719 C 41.464844 62.628906 41.160156 62.722656 41.027344 62.726562 C 40.890625 62.726562 40.503906 62.824219 40.160156 62.933594 C 39.820312 63.050781 39.34375 63.175781 39.105469 63.210938 C 38.867188 63.246094 38.359375 63.347656 37.972656 63.433594 C 37.585938 63.523438 36.417969 63.691406 35.378906 63.808594 C 33.0625 64.078125 30.722656 64.074219 28.40625 63.792969 Z M 30.757812 57.542969 C 30.90625 57.425781 31.0625 57.191406 31.101562 57.03125 C 31.195312 56.667969 45.71875 27.542969 45.992188 27.179688 C 46.222656 26.871094 46.246094 26.378906 46.035156 26.203125 C 45.925781 26.109375 44.53125 26.078125 40.820312 26.085938 C 38.035156 26.09375 35.695312 26.09375 35.617188 26.09375 C 35.503906 26.089844 35.480469 24.226562 35.492188 16.257812 C 35.5 10.847656 35.472656 6.371094 35.433594 6.3125 C 35.398438 6.246094 35.242188 6.199219 35.09375 6.199219 C 34.886719 6.199219 34.789062 6.289062 34.660156 6.601562 C 34.417969 7.183594 33.746094 8.511719 30.488281 14.84375 C 29.808594 16.15625 29.132812 17.472656 28.460938 18.789062 C 27.882812 19.921875 26.96875 21.695312 26.433594 22.734375 C 25 25.527344 23.566406 28.320312 22.136719 31.113281 C 19.671875 35.929688 19.371094 36.507812 19.265625 36.632812 C 19.058594 36.882812 18.949219 37.453125 19.066406 37.667969 C 19.167969 37.863281 19.378906 37.871094 24.585938 37.863281 C 27.5625 37.863281 30.015625 37.878906 30.042969 37.898438 C 30.113281 37.96875 30.085938 56.554688 30.015625 56.996094 C 29.96875 57.289062 30 57.441406 30.132812 57.574219 C 30.363281 57.804688 30.425781 57.804688 30.757812 57.542969 Z M 30.757812 57.542969 "/>
</g>
</svg>
