<?xml version="1.0" encoding="UTF-8"?>
<svg xmlns="http://www.w3.org/2000/svg" xmlns:xlink="http://www.w3.org/1999/xlink" width="64px" height="64px" viewBox="0 0 64 64" version="1.1">
<defs>
<linearGradient id="linear0" gradientUnits="userSpaceOnUse" x1="0.551171" y1="0.586795" x2="0.636802" y2="0.395972" gradientTransform="matrix(49.214844,0,0,32.6875,7.324219,31.1875)">
<stop offset="0" style="stop-color:rgb(100%,59.215686%,0%);stop-opacity:1;"/>
<stop offset="0.53" style="stop-color:rgb(95.686275%,55.686275%,0%);stop-opacity:1;"/>
<stop offset="1" style="stop-color:rgb(81.568627%,43.529412%,0%);stop-opacity:1;"/>
</linearGradient>
</defs>
<g id="surface1">
<path style=" stroke:none;fill-rule:nonzero;fill:url(#linear0);" d="M 56.539062 32.152344 C 56.539062 31.402344 55.984375 30.972656 55.304688 31.1875 L 8.558594 46.007812 C 7.878906 46.226562 7.324219 47.007812 7.324219 47.757812 L 7.324219 62.90625 C 7.324219 63.65625 7.878906 64.089844 8.558594 63.875 L 55.304688 49.050781 C 55.984375 48.835938 56.539062 48.050781 56.539062 47.304688 Z M 56.539062 32.152344 "/>
<path style=" stroke:none;fill-rule:nonzero;fill:rgb(100%,59.607843%,0%);fill-opacity:1;" d="M 7.324219 31.671875 C 7.324219 32.417969 7.878906 33.203125 8.558594 33.417969 L 55.3125 48.242188 C 55.992188 48.460938 56.542969 48.027344 56.542969 47.277344 L 56.542969 32.128906 C 56.542969 31.378906 55.992188 30.597656 55.3125 30.378906 L 8.558594 15.554688 C 7.878906 15.339844 7.324219 15.769531 7.324219 16.519531 Z M 7.324219 31.671875 "/>
<path style=" stroke:none;fill-rule:nonzero;fill:rgb(100%,59.607843%,0%);fill-opacity:1;" d="M 56.539062 1.023438 C 56.539062 0.273438 55.984375 -0.160156 55.304688 0.0546875 L 8.558594 14.878906 C 7.878906 15.09375 7.324219 15.875 7.324219 16.625 L 7.324219 31.777344 C 7.324219 32.523438 7.878906 32.957031 8.558594 32.742188 L 55.304688 17.917969 C 55.984375 17.703125 56.539062 16.917969 56.539062 16.171875 Z M 56.539062 1.023438 "/>
</g>
</svg>
