<?xml version="1.0" encoding="UTF-8"?>
<svg xmlns="http://www.w3.org/2000/svg" xmlns:xlink="http://www.w3.org/1999/xlink" width="64px" height="64px" viewBox="0 0 64 64" version="1.1">
<g id="surface1">
<path style=" stroke:none;fill-rule:nonzero;fill:rgb(15.686275%,74.901961%,79.215686%);fill-opacity:1;" d="M 63.949219 32 C 63.949219 49.644531 49.644531 63.949219 32 63.949219 C 14.355469 63.949219 0.0507812 49.644531 0.0507812 32 C 0.0507812 14.355469 14.355469 0.0507812 32 0.0507812 C 49.644531 0.0507812 63.949219 14.355469 63.949219 32 Z M 63.949219 32 "/>
<path style=" stroke:none;fill-rule:nonzero;fill:rgb(100%,100%,100%);fill-opacity:1;" d="M 45.574219 43.078125 C 43.878906 45.375 41.683594 47.769531 38.785156 49.566406 C 35.988281 51.367188 32.792969 52.761719 29 52.761719 C 25.503906 52.761719 22.609375 50.964844 21.011719 49.464844 C 18.617188 47.167969 17.320312 43.871094 16.914062 40.78125 C 15.71875 31.199219 21.605469 18.515625 30.695312 13.03125 C 32.792969 11.730469 35.085938 11.136719 37.285156 11.136719 C 41.675781 11.136719 44.972656 14.234375 45.371094 18.023438 C 45.765625 21.414062 44.472656 24.3125 40.679688 26.207031 C 38.785156 27.207031 37.785156 27.105469 37.484375 26.707031 C 37.285156 26.40625 37.382812 25.90625 37.785156 25.605469 C 41.28125 22.714844 41.382812 20.3125 40.980469 16.921875 C 40.679688 14.726562 39.28125 13.324219 37.683594 13.324219 C 30.796875 13.324219 20.8125 28.800781 22.207031 39.980469 C 22.714844 44.378906 25.40625 49.472656 31 49.472656 C 32.800781 49.472656 34.796875 48.972656 36.492188 48.078125 C 40.382812 46.078125 42.085938 44.683594 44.378906 41.484375 C 44.679688 41.089844 44.980469 40.589844 45.273438 40.1875 C 45.472656 39.789062 45.875 39.6875 46.167969 39.6875 C 46.464844 39.6875 46.867188 39.988281 46.867188 40.488281 C 46.867188 40.789062 46.765625 41.382812 46.367188 41.882812 C 46.277344 42.078125 45.976562 42.679688 45.574219 43.078125 Z M 45.574219 43.078125 "/>
</g>
</svg>
