<?xml version="1.0" encoding="UTF-8"?>
<svg xmlns="http://www.w3.org/2000/svg" xmlns:xlink="http://www.w3.org/1999/xlink" width="64px" height="64px" viewBox="0 0 64 64" version="1.1">
<defs>
<radialGradient id="radial0" gradientUnits="userSpaceOnUse" cx="0.5" cy="0" fx="0.5" fy="0" r="1.0011" gradientTransform="matrix(0,60.983625,-70.596,0,31.96875,-29.048828)">
<stop offset="0" style="stop-color:rgb(12.54902%,77.647059%,71.764706%);stop-opacity:1;"/>
<stop offset="1" style="stop-color:rgb(30.196078%,60.392157%,74.901961%);stop-opacity:1;"/>
</radialGradient>
</defs>
<g id="surface1">
<path style=" stroke:none;fill-rule:nonzero;fill:url(#radial0);" d="M 45.742188 22.617188 L 45.71875 22.605469 C 45.707031 22.601562 45.695312 22.597656 45.683594 22.585938 C 45.644531 22.546875 45.628906 22.492188 45.636719 22.4375 L 46.875 14.875 L 52.675781 20.675781 L 46.644531 23.242188 C 46.625 23.25 46.609375 23.253906 46.589844 23.253906 L 46.566406 23.253906 C 46.558594 23.246094 46.550781 23.242188 46.535156 23.226562 C 46.308594 22.976562 46.042969 22.769531 45.742188 22.617188 Z M 54.15625 22.15625 L 60.355469 28.355469 C 61.644531 29.644531 62.289062 30.289062 62.523438 31.035156 C 62.558594 31.144531 62.589844 31.257812 62.609375 31.371094 L 47.789062 25.09375 C 47.78125 25.089844 47.773438 25.085938 47.765625 25.082031 C 47.707031 25.058594 47.636719 25.03125 47.636719 24.972656 C 47.636719 24.910156 47.707031 24.882812 47.769531 24.859375 L 47.789062 24.847656 Z M 62.359375 33.359375 C 62.039062 33.960938 61.414062 34.585938 60.359375 35.644531 L 53.367188 42.632812 L 44.324219 40.75 L 44.273438 40.742188 C 44.195312 40.726562 44.109375 40.714844 44.109375 40.640625 C 44.039062 39.886719 43.660156 39.195312 43.0625 38.734375 C 43.027344 38.695312 43.035156 38.636719 43.046875 38.585938 C 43.046875 38.578125 43.046875 38.570312 43.050781 38.5625 L 44.75 28.121094 L 44.757812 28.085938 C 44.765625 28.007812 44.78125 27.914062 44.851562 27.914062 C 45.589844 27.820312 46.257812 27.4375 46.707031 26.847656 C 46.722656 26.832031 46.734375 26.816406 46.753906 26.804688 C 46.804688 26.78125 46.863281 26.804688 46.917969 26.828125 L 62.355469 33.359375 Z M 51.757812 44.242188 L 40.261719 55.738281 L 42.230469 43.644531 L 42.230469 43.628906 C 42.234375 43.609375 42.238281 43.59375 42.242188 43.582031 C 42.257812 43.542969 42.300781 43.527344 42.339844 43.511719 L 42.359375 43.503906 C 42.789062 43.320312 43.171875 43.035156 43.46875 42.675781 C 43.507812 42.628906 43.554688 42.585938 43.613281 42.578125 C 43.628906 42.578125 43.644531 42.578125 43.660156 42.578125 Z M 37.828125 58.171875 L 36.53125 59.46875 L 22.203125 38.761719 C 22.199219 38.753906 22.191406 38.746094 22.1875 38.738281 C 22.164062 38.707031 22.140625 38.679688 22.144531 38.644531 C 22.148438 38.617188 22.164062 38.59375 22.179688 38.574219 L 22.195312 38.554688 C 22.238281 38.492188 22.277344 38.425781 22.316406 38.359375 L 22.347656 38.300781 L 22.355469 38.296875 C 22.375 38.257812 22.398438 38.222656 22.433594 38.203125 C 22.46875 38.1875 22.515625 38.191406 22.550781 38.199219 L 38.425781 41.472656 C 38.46875 41.480469 38.511719 41.5 38.546875 41.527344 C 38.566406 41.546875 38.574219 41.570312 38.578125 41.59375 C 38.800781 42.445312 39.410156 43.140625 40.222656 43.476562 C 40.265625 43.496094 40.246094 43.546875 40.226562 43.601562 C 40.21875 43.625 40.207031 43.648438 40.203125 43.671875 C 40.003906 44.886719 38.289062 55.347656 37.828125 58.171875 Z M 35.121094 60.878906 C 34.164062 61.824219 33.601562 62.324219 32.964844 62.527344 C 32.335938 62.726562 31.664062 62.726562 31.035156 62.527344 C 30.289062 62.289062 29.644531 61.644531 28.355469 60.355469 L 13.96875 45.96875 L 17.726562 40.140625 C 17.742188 40.109375 17.761719 40.085938 17.789062 40.0625 C 17.832031 40.035156 17.886719 40.046875 17.9375 40.0625 C 18.796875 40.324219 19.726562 40.277344 20.558594 39.929688 C 20.601562 39.914062 20.644531 39.902344 20.675781 39.933594 C 20.695312 39.949219 20.707031 39.96875 20.722656 39.984375 Z M 12.582031 44.582031 L 9.28125 41.28125 L 15.796875 38.5 C 15.816406 38.492188 15.832031 38.488281 15.851562 38.488281 C 15.90625 38.488281 15.9375 38.542969 15.964844 38.59375 C 16.03125 38.691406 16.101562 38.789062 16.175781 38.886719 L 16.195312 38.910156 C 16.214844 38.9375 16.203125 38.964844 16.183594 38.992188 Z M 7.820312 39.820312 L 3.644531 35.644531 C 2.933594 34.933594 2.417969 34.417969 2.058594 33.972656 L 14.757812 36.609375 C 14.773438 36.609375 14.789062 36.613281 14.804688 36.617188 C 14.882812 36.628906 14.96875 36.644531 14.96875 36.71875 C 14.96875 36.796875 14.875 36.832031 14.796875 36.863281 L 14.757812 36.878906 Z M 1.328125 31.828125 C 1.34375 31.558594 1.390625 31.292969 1.472656 31.035156 C 1.710938 30.289062 2.355469 29.644531 3.644531 28.355469 L 8.988281 23.011719 C 11.449219 26.582031 13.914062 30.148438 16.390625 33.710938 C 16.433594 33.769531 16.480469 33.832031 16.429688 33.882812 C 16.195312 34.140625 15.964844 34.421875 15.796875 34.726562 C 15.78125 34.765625 15.753906 34.800781 15.71875 34.824219 C 15.699219 34.839844 15.675781 34.832031 15.652344 34.828125 L 15.648438 34.828125 L 1.328125 31.824219 Z M 10.417969 21.582031 L 17.601562 14.398438 C 18.277344 14.691406 20.734375 15.730469 22.933594 16.660156 C 24.597656 17.363281 26.113281 18.003906 26.59375 18.210938 C 26.640625 18.230469 26.683594 18.25 26.703125 18.296875 C 26.71875 18.328125 26.710938 18.363281 26.703125 18.394531 C 26.472656 19.445312 26.789062 20.546875 27.539062 21.320312 C 27.589844 21.367188 27.539062 21.433594 27.5 21.496094 L 27.476562 21.527344 L 20.179688 32.828125 C 20.160156 32.859375 20.144531 32.886719 20.113281 32.910156 C 20.074219 32.933594 20.019531 32.921875 19.972656 32.910156 C 19.691406 32.835938 19.398438 32.796875 19.105469 32.792969 C 18.84375 32.792969 18.558594 32.839844 18.269531 32.894531 C 18.238281 32.898438 18.207031 32.902344 18.183594 32.886719 C 18.152344 32.863281 18.128906 32.835938 18.109375 32.804688 Z M 19.054688 12.945312 L 28.355469 3.644531 C 29.644531 2.355469 30.289062 1.710938 31.035156 1.476562 C 31.664062 1.277344 32.335938 1.277344 32.964844 1.476562 C 33.710938 1.710938 34.355469 2.355469 35.644531 3.644531 L 37.660156 5.660156 L 31.042969 15.90625 C 31.027344 15.933594 31.003906 15.960938 30.976562 15.980469 C 30.9375 16.007812 30.882812 16 30.832031 15.980469 C 29.773438 15.660156 28.625 15.882812 27.761719 16.574219 C 27.71875 16.621094 27.65625 16.59375 27.601562 16.570312 C 26.734375 16.195312 20.015625 13.355469 19.054688 12.945312 Z M 39.0625 7.0625 L 45.171875 13.171875 L 43.699219 22.289062 L 43.699219 22.3125 C 43.699219 22.335938 43.695312 22.355469 43.6875 22.375 C 43.671875 22.40625 43.640625 22.414062 43.609375 22.421875 C 43.292969 22.519531 42.996094 22.664062 42.730469 22.859375 C 42.71875 22.867188 42.710938 22.875 42.699219 22.886719 C 42.679688 22.90625 42.664062 22.921875 42.636719 22.925781 C 42.613281 22.925781 42.589844 22.921875 42.566406 22.914062 L 33.257812 18.960938 L 33.238281 18.953125 C 33.179688 18.929688 33.109375 18.898438 33.109375 18.839844 C 33.054688 18.320312 32.886719 17.820312 32.613281 17.375 C 32.570312 17.300781 32.519531 17.222656 32.558594 17.148438 Z M 32.773438 20.832031 L 41.5 24.53125 C 41.546875 24.550781 41.601562 24.574219 41.621094 24.621094 C 41.628906 24.652344 41.628906 24.683594 41.621094 24.714844 C 41.59375 24.839844 41.574219 24.988281 41.574219 25.132812 L 41.574219 25.378906 C 41.574219 25.441406 41.511719 25.464844 41.453125 25.488281 L 41.433594 25.496094 C 40.054688 26.085938 22.027344 33.773438 22 33.773438 C 21.972656 33.773438 21.945312 33.773438 21.917969 33.746094 C 21.867188 33.699219 21.917969 33.628906 21.960938 33.570312 C 21.96875 33.558594 21.976562 33.546875 21.980469 33.539062 L 29.152344 22.433594 L 29.167969 22.414062 C 29.207031 22.347656 29.257812 22.273438 29.332031 22.273438 L 29.40625 22.28125 C 29.566406 22.304688 29.710938 22.328125 29.859375 22.328125 C 30.945312 22.328125 31.953125 21.796875 32.5625 20.890625 C 32.574219 20.867188 32.59375 20.84375 32.617188 20.828125 C 32.660156 20.796875 32.722656 20.8125 32.773438 20.832031 Z M 22.777344 35.53125 L 42.425781 27.152344 C 42.425781 27.152344 42.457031 27.152344 42.484375 27.175781 C 42.589844 27.285156 42.679688 27.355469 42.769531 27.425781 L 42.8125 27.453125 C 42.851562 27.472656 42.894531 27.5 42.894531 27.539062 C 42.894531 27.558594 42.894531 27.566406 42.894531 27.582031 L 41.210938 37.921875 L 41.203125 37.960938 C 41.191406 38.042969 41.179688 38.132812 41.105469 38.132812 C 40.195312 38.195312 39.371094 38.703125 38.910156 39.488281 L 38.902344 39.5 C 38.878906 39.539062 38.859375 39.574219 38.820312 39.59375 C 38.789062 39.609375 38.742188 39.601562 38.707031 39.59375 L 23.039062 36.363281 C 23.023438 36.359375 22.796875 35.53125 22.777344 35.53125 Z M 22.777344 35.53125 "/>
</g>
</svg>
