<?xml version="1.0" encoding="UTF-8"?>
<svg xmlns="http://www.w3.org/2000/svg" xmlns:xlink="http://www.w3.org/1999/xlink" width="64px" height="64px" viewBox="0 0 64 64" version="1.1">
<g id="surface1">
<path style=" stroke:none;fill-rule:nonzero;fill:rgb(94.901961%,94.901961%,94.901961%);fill-opacity:1;" d="M 40.460938 19.546875 L 39.375 20.40625 L 37.558594 21.726562 C 37.160156 21.976562 36.878906 22.300781 36.925781 22.453125 C 36.976562 22.605469 38.222656 23.054688 39.703125 23.445312 C 42.183594 24.105469 47.015625 26.144531 46.742188 26.429688 C 46.675781 26.496094 45.21875 26.132812 43.5 25.648438 C 38.027344 24.070312 35.296875 23.753906 29 23.925781 C 24.320312 24.058594 22.902344 24.203125 20.507812 24.835938 C 14.628906 26.378906 8.78125 29.5625 5.394531 33.0625 C 4.480469 34.007812 3.347656 35.027344 2.875 35.328125 C 1.863281 35.566406 1.539062 35.375 1.195312 35.195312 C 1.054688 35.109375 0.964844 35 0.910156 34.855469 C 0.796875 35.273438 0.667969 35.644531 0.53125 35.941406 C 0.6875 35.910156 0.84375 35.898438 1.003906 35.894531 C 1.519531 35.878906 2.042969 35.988281 2.34375 36.121094 L 3.667969 37.09375 C 9.238281 41.210938 12.246094 42.65625 15.371094 42.703125 C 17.007812 42.730469 17.574219 42.601562 18.761719 41.902344 C 19.445312 41.5 20.121094 40.980469 20.386719 40.664062 C 20.417969 40.625 20.445312 40.585938 20.46875 40.542969 C 20.644531 40.230469 20.808594 40.136719 20.914062 40.191406 C 23.425781 39.546875 27.851562 40.25 34.816406 42.703125 C 36.21875 42.746094 38.324219 43.355469 41.136719 44.535156 C 41.546875 44.710938 41.667969 44.609375 41.667969 44.09375 C 41.667969 42.511719 43.511719 40.4375 45.125 39.976562 L 45.125 39.964844 C 47.90625 38.378906 51.324219 38.019531 54.34375 37.945312 L 54.214844 37.898438 L 55.554688 37.804688 C 57.554688 37.660156 59.308594 38.464844 60.765625 40.203125 C 61.457031 41.019531 62.128906 41.6875 62.269531 41.6875 C 62.6875 41.6875 62.5625 39.835938 61.929688 36.820312 C 61.457031 34.570312 61.375 33.347656 61.523438 30.929688 C 61.636719 29.035156 61.59375 27.800781 61.410156 27.6875 C 61.246094 27.589844 60.03125 27.761719 58.71875 28.074219 C 55.113281 28.929688 53.457031 29.128906 53.457031 28.707031 C 53.457031 28.6875 53.476562 28.65625 53.503906 28.621094 C 51.71875 29.238281 49.128906 28.304688 47.996094 27.226562 C 46.792969 26.074219 47.394531 24.425781 46.796875 23.210938 C 46.796875 23.589844 46.726562 23.585938 46.269531 23.191406 C 45.976562 22.941406 45.074219 22.554688 44.257812 22.332031 C 43.242188 22.058594 42.398438 21.554688 41.609375 20.742188 Z M 40.460938 19.546875 "/>
<path style=" stroke:none;fill-rule:nonzero;fill:rgb(99.607843%,73.72549%,35.686275%);fill-opacity:1;" d="M 24.933594 34.046875 L 24.554688 28.90625 C 24.453125 28.261719 24.5 27.773438 24.652344 27.773438 C 24.945312 27.773438 25.738281 29.410156 26.109375 30.796875 C 26.222656 31.210938 26.523438 31.789062 26.78125 32.078125 C 27.199219 32.558594 27.195312 32.664062 26.746094 33.160156 C 26.46875 33.464844 26.246094 34.179688 26.242188 34.75 C 26.242188 36.015625 25.699219 38.050781 25.367188 38.050781 C 25.230469 38.050781 25.03125 36.246094 24.921875 34.042969 Z M 28.847656 36.484375 C 28.777344 36.265625 28.652344 34.34375 28.5625 32.210938 C 28.429688 28.941406 28.46875 28.386719 28.820312 28.679688 C 29.050781 28.878906 29.328125 29.457031 29.4375 29.988281 C 29.546875 30.515625 29.84375 31.269531 30.09375 31.667969 C 30.433594 32.203125 30.46875 32.546875 30.234375 33.027344 C 30.0625 33.382812 29.835938 34.3125 29.734375 35.097656 C 29.546875 36.519531 29.082031 37.242188 28.847656 36.484375 Z M 32.535156 32.546875 L 32.515625 28.6875 C 32.707031 28.460938 33.179688 29.335938 33.570312 30.644531 C 33.769531 31.308594 34.0625 31.941406 34.21875 32.050781 C 34.382812 32.164062 34.398438 32.484375 34.253906 32.804688 C 34.113281 33.113281 33.855469 33.964844 33.679688 34.699219 C 33.074219 37.222656 32.6875 36.496094 32.535156 32.546875 Z M 36.507812 34.195312 C 36.484375 33.082031 36.402344 31.964844 36.257812 30.859375 C 36.132812 29.976562 36.128906 29.199219 36.246094 29.121094 C 36.570312 28.921875 37.0625 29.628906 37.300781 30.648438 C 37.417969 31.144531 37.800781 31.785156 38.15625 32.070312 L 38.796875 32.589844 L 38.117188 33.070312 C 37.742188 33.335938 37.4375 33.871094 37.4375 34.265625 C 37.4375 35.164062 37.136719 35.9375 36.800781 35.9375 C 36.652344 35.9375 36.519531 35.152344 36.507812 34.199219 Z M 40.15625 33.46875 C 40.152344 32.414062 40.066406 31.019531 39.957031 30.371094 C 39.695312 28.792969 40.21875 29.132812 41.199219 31.179688 C 41.835938 32.515625 41.886719 32.808594 41.53125 33.203125 C 41.304688 33.460938 41.074219 33.996094 41.015625 34.398438 C 40.960938 34.800781 40.742188 35.1875 40.535156 35.257812 C 40.261719 35.347656 40.15625 34.859375 40.15625 33.457031 Z M 43.484375 32.242188 C 43.484375 29.707031 43.527344 29.5 43.960938 29.933594 C 44.613281 30.589844 44.839844 32.613281 44.402344 33.933594 C 43.800781 35.757812 43.484375 35.175781 43.484375 32.242188 Z M 46.644531 32.757812 C 46.078125 32.316406 46.09375 32.300781 46.960938 32.378906 C 47.460938 32.421875 47.84375 32.59375 47.8125 32.753906 C 47.726562 33.246094 47.269531 33.246094 46.644531 32.757812 Z M 46.644531 32.757812 "/>
<path style=" stroke:none;fill-rule:nonzero;fill:rgb(0%,0%,0%);fill-opacity:1;" d="M 40.300781 17.816406 C 39.796875 17.816406 39.207031 18.027344 38.410156 18.410156 C 37.714844 18.746094 36.160156 19.371094 34.953125 19.800781 C 33.746094 20.230469 32.207031 20.882812 31.554688 21.257812 C 30.578125 21.804688 29.824219 21.957031 27.660156 21.984375 C 19.519531 22.121094 11.007812 24.914062 4.992188 29.417969 C 1.882812 31.742188 0.078125 34.503906 1.203125 35.195312 C 1.550781 35.378906 1.871094 35.570312 2.882812 35.328125 C 3.355469 35.027344 4.492188 34.007812 5.40625 33.0625 C 8.792969 29.5625 14.636719 26.382812 20.519531 24.835938 C 22.910156 24.203125 24.328125 24.058594 29.011719 23.929688 C 35.304688 23.753906 38.039062 24.070312 43.511719 25.648438 C 45.226562 26.140625 46.683594 26.496094 46.75 26.433594 C 47.023438 26.15625 42.191406 24.105469 39.714844 23.445312 C 38.234375 23.054688 36.984375 22.605469 36.9375 22.453125 C 36.886719 22.304688 37.167969 21.976562 37.570312 21.726562 C 37.96875 21.480469 38.785156 20.882812 39.382812 20.40625 L 40.46875 19.546875 L 41.632812 20.746094 C 42.417969 21.554688 43.261719 22.058594 44.277344 22.332031 C 45.097656 22.554688 45.996094 22.933594 46.289062 23.191406 C 46.753906 23.59375 46.816406 23.59375 46.816406 23.203125 C 46.816406 22.621094 45.746094 21.695312 44.351562 21.066406 C 43.746094 20.792969 42.996094 20.207031 42.691406 19.765625 C 41.753906 18.410156 41.152344 17.828125 40.3125 17.828125 Z M 62.5625 24.445312 C 61.488281 24.445312 53.457031 28.195312 53.457031 28.695312 C 53.457031 29.117188 55.113281 28.917969 58.71875 28.0625 C 60.03125 27.75 61.246094 27.574219 61.410156 27.675781 C 61.59375 27.789062 61.636719 29.023438 61.523438 30.914062 C 61.375 33.335938 61.457031 34.558594 61.929688 36.808594 C 62.5625 39.820312 62.6875 41.675781 62.269531 41.675781 C 62.128906 41.675781 61.457031 41.007812 60.765625 40.191406 C 59.308594 38.460938 57.554688 37.660156 55.554688 37.792969 L 54.214844 37.886719 L 56.207031 38.585938 C 58.402344 39.347656 59.089844 39.957031 61.042969 42.882812 C 61.761719 43.964844 62.492188 44.953125 62.667969 45.074219 C 63.125 45.398438 63.316406 45.359375 63.734375 44.855469 C 63.910156 44.644531 63.992188 44.042969 63.988281 42.75 C 64.019531 41.824219 63.984375 40.640625 63.894531 39.152344 L 63.828125 38.074219 C 63.632812 33.351562 63.648438 32.425781 63.875 29.28125 C 64.152344 25.429688 63.886719 24.445312 62.5625 24.445312 Z M 13.511719 30.226562 C 12.722656 30.195312 11.867188 30.640625 11.292969 31.519531 C 10.769531 32.320312 10.953125 33.019531 12.011719 34.222656 C 12.652344 34.957031 14.085938 34.675781 14.996094 33.644531 C 15.828125 32.699219 15.832031 32.421875 15.070312 31.171875 C 14.699219 30.5625 14.128906 30.25 13.511719 30.226562 Z M 12.605469 31.71875 C 12.945312 31.660156 13.652344 32.117188 13.804688 32.546875 C 13.984375 33.085938 12.671875 32.984375 12.464844 32.445312 C 12.367188 32.1875 12.382812 31.882812 12.492188 31.773438 C 12.523438 31.742188 12.566406 31.722656 12.617188 31.71875 Z M 1.003906 35.894531 C 0.835938 35.894531 0.667969 35.914062 0.503906 35.949219 C 0.484375 35.96875 0.46875 35.988281 0.445312 36.007812 C 0.101562 36.140625 -0.046875 36.453125 0.0117188 36.941406 C -0.0078125 37.355469 0.136719 37.761719 0.417969 38.066406 C 1.886719 39.6875 9.394531 43.539062 12.140625 44.082031 C 13.964844 44.441406 14.84375 44.441406 16.550781 44.074219 C 18.273438 43.703125 20.363281 42.3125 20.867188 41.210938 C 21.257812 40.351562 20.90625 39.757812 20.46875 40.539062 C 20.308594 40.828125 19.542969 41.441406 18.769531 41.902344 C 17.582031 42.597656 17.015625 42.730469 15.378906 42.703125 C 12.253906 42.652344 9.246094 41.210938 3.675781 37.09375 L 2.355469 36.121094 C 2.050781 35.988281 1.527344 35.878906 1.015625 35.894531 Z M 45.777344 39.871094 C 44.058594 39.839844 41.667969 42.296875 41.667969 44.09375 C 41.667969 44.609375 41.550781 44.710938 41.136719 44.535156 C 37.03125 42.8125 34.433594 42.304688 33.363281 43.007812 C 32.488281 43.582031 32.355469 44.585938 33.128906 44.808594 C 33.417969 44.894531 35.019531 45.121094 36.679688 45.308594 C 38.34375 45.496094 39.90625 45.785156 40.15625 45.925781 C 40.476562 46.105469 40.921875 46.183594 41.367188 46.171875 C 41.390625 46.171875 41.410156 46.171875 41.433594 46.171875 C 41.832031 46.167969 42.164062 46.09375 42.394531 45.933594 L 42.414062 45.925781 C 42.503906 45.875 42.585938 45.835938 42.652344 45.78125 C 43.015625 45.503906 43.179688 44.953125 43.179688 44.015625 C 43.179688 42.574219 43.640625 41.875 45.449219 40.539062 C 46.191406 39.988281 46.253906 39.867188 45.777344 39.859375 Z M 45.777344 39.871094 "/>
<path style=" stroke:none;fill-rule:nonzero;fill:rgb(44.313725%,62.745098%,99.607843%);fill-opacity:1;" d="M 13.867188 41.285156 L 12.808594 40.964844 L 14.691406 40.609375 C 17.1875 40.136719 17.796875 39.558594 17.796875 37.683594 C 17.796875 36.085938 18.109375 35.847656 18.839844 36.890625 C 19.890625 38.390625 19.164062 40.464844 17.3125 41.238281 C 16.152344 41.722656 15.355469 41.734375 13.867188 41.285156 Z M 55.417969 34.78125 C 55.558594 33.992188 55.464844 33.179688 55.148438 32.441406 C 54.558594 31.035156 54.554688 31.078125 55.253906 31.078125 C 56.105469 31.078125 57.457031 32.808594 57.226562 33.609375 C 56.980469 34.464844 56.09375 35.695312 55.605469 35.859375 C 55.304688 35.957031 55.261719 35.703125 55.417969 34.78125 Z M 44.546875 27.410156 C 38.574219 25.480469 28.003906 25.429688 20.878906 27.289062 C 19.421875 27.667969 19.097656 27.671875 18.746094 27.320312 C 18.144531 26.722656 19.230469 26.09375 22.199219 25.320312 C 28.007812 24.207031 42.203125 23.761719 47.117188 27.890625 C 47.117188 28.15625 46.492188 28.039062 44.546875 27.410156 Z M 44.546875 27.410156 "/>
</g>
</svg>
