<?xml version="1.0" encoding="UTF-8"?>
<svg xmlns="http://www.w3.org/2000/svg" xmlns:xlink="http://www.w3.org/1999/xlink" width="64px" height="64px" viewBox="0 0 64 64" version="1.1">
<defs>
<filter id="alpha" filterUnits="objectBoundingBox" x="0%" y="0%" width="100%" height="100%">
  <feColorMatrix type="matrix" in="SourceGraphic" values="0 0 0 0 1 0 0 0 0 1 0 0 0 0 1 0 0 0 1 0"/>
</filter>
<mask id="mask0">
  <g filter="url(#alpha)">
<rect x="0" y="0" width="64" height="64" style="fill:rgb(0%,0%,0%);fill-opacity:0.101961;stroke:none;"/>
  </g>
</mask>
<clipPath id="clip1">
  <rect x="0" y="0" width="64" height="64"/>
</clipPath>
<g id="surface5" clip-path="url(#clip1)">
<path style=" stroke:none;fill-rule:nonzero;fill:rgb(0%,0%,0%);fill-opacity:1;" d="M 32.867188 16.398438 L 17.023438 16.398438 L 17.023438 48.898438 L 32.867188 48.898438 C 34.183594 48.894531 35.246094 47.832031 35.257812 46.519531 L 35.257812 18.78125 C 35.246094 17.46875 34.183594 16.40625 32.867188 16.398438 Z M 32.867188 16.398438 "/>
</g>
<mask id="mask1">
  <g filter="url(#alpha)">
<rect x="0" y="0" width="64" height="64" style="fill:rgb(0%,0%,0%);fill-opacity:0.2;stroke:none;"/>
  </g>
</mask>
<clipPath id="clip2">
  <rect x="0" y="0" width="64" height="64"/>
</clipPath>
<g id="surface8" clip-path="url(#clip2)">
<path style=" stroke:none;fill-rule:nonzero;fill:rgb(0%,0%,0%);fill-opacity:1;" d="M 31.566406 17.699219 L 17.023438 17.699219 L 17.023438 50.199219 L 31.566406 50.199219 C 32.878906 50.195312 33.945312 49.132812 33.953125 47.816406 L 33.953125 20.082031 C 33.945312 18.769531 32.878906 17.707031 31.566406 17.699219 Z M 31.566406 17.699219 "/>
</g>
<mask id="mask2">
  <g filter="url(#alpha)">
<rect x="0" y="0" width="64" height="64" style="fill:rgb(0%,0%,0%);fill-opacity:0.2;stroke:none;"/>
  </g>
</mask>
<clipPath id="clip3">
  <rect x="0" y="0" width="64" height="64"/>
</clipPath>
<g id="surface11" clip-path="url(#clip3)">
<path style=" stroke:none;fill-rule:nonzero;fill:rgb(0%,0%,0%);fill-opacity:1;" d="M 31.566406 17.699219 L 17.023438 17.699219 L 17.023438 47.601562 L 31.566406 47.601562 C 32.878906 47.59375 33.945312 46.53125 33.953125 45.21875 L 33.953125 20.082031 C 33.945312 18.769531 32.878906 17.707031 31.566406 17.699219 Z M 31.566406 17.699219 "/>
</g>
<mask id="mask3">
  <g filter="url(#alpha)">
<rect x="0" y="0" width="64" height="64" style="fill:rgb(0%,0%,0%);fill-opacity:0.2;stroke:none;"/>
  </g>
</mask>
<clipPath id="clip4">
  <rect x="0" y="0" width="64" height="64"/>
</clipPath>
<g id="surface14" clip-path="url(#clip4)">
<path style=" stroke:none;fill-rule:nonzero;fill:rgb(0%,0%,0%);fill-opacity:1;" d="M 30.265625 17.699219 L 17.023438 17.699219 L 17.023438 47.601562 L 30.265625 47.601562 C 31.578125 47.59375 32.640625 46.53125 32.652344 45.21875 L 32.652344 20.082031 C 32.640625 18.769531 31.578125 17.707031 30.265625 17.699219 Z M 30.265625 17.699219 "/>
</g>
<linearGradient id="linear0" gradientUnits="userSpaceOnUse" x1="4.494" y1="-1712.086" x2="13.832" y2="-1695.914" gradientTransform="matrix(2,0,0,2,0,3440)">
<stop offset="0" style="stop-color:rgb(13.72549%,40.784314%,76.862745%);stop-opacity:1;"/>
<stop offset="0.5" style="stop-color:rgb(10.196078%,36.470588%,74.509804%);stop-opacity:1;"/>
<stop offset="1" style="stop-color:rgb(6.666667%,27.45098%,67.45098%);stop-opacity:1;"/>
</linearGradient>
</defs>
<g id="surface1">
<path style=" stroke:none;fill-rule:nonzero;fill:rgb(25.490196%,64.705882%,93.333333%);fill-opacity:1;" d="M 57.613281 6 L 19.410156 6 C 18.09375 6 17.023438 7.066406 17.023438 8.382812 L 17.023438 19 L 39.160156 25.5 L 60 19 L 60 8.382812 C 60 7.066406 58.929688 5.996094 57.613281 6 Z M 57.613281 6 "/>
<path style=" stroke:none;fill-rule:nonzero;fill:rgb(16.862745%,48.627451%,82.745098%);fill-opacity:1;" d="M 60 19 L 17.023438 19 L 17.023438 32 L 39.160156 35.898438 L 60 32 Z M 60 19 "/>
<path style=" stroke:none;fill-rule:nonzero;fill:rgb(9.411765%,35.294118%,74.117647%);fill-opacity:1;" d="M 17.023438 32 L 17.023438 45 L 37.859375 47.601562 L 60 45 L 60 32 Z M 17.023438 32 "/>
<path style=" stroke:none;fill-rule:nonzero;fill:rgb(6.27451%,24.705882%,56.862745%);fill-opacity:1;" d="M 19.410156 58 L 57.609375 58 C 58.242188 58 58.851562 57.75 59.300781 57.304688 C 59.746094 56.859375 60 56.25 60 55.617188 L 60 45 L 17.023438 45 L 17.023438 55.617188 C 17.023438 56.933594 18.09375 58 19.410156 58 Z M 19.410156 58 "/>
<use xlink:href="#surface5" mask="url(#mask0)"/>
<use xlink:href="#surface8" mask="url(#mask1)"/>
<use xlink:href="#surface11" mask="url(#mask2)"/>
<use xlink:href="#surface14" mask="url(#mask3)"/>
<path style=" stroke:none;fill-rule:nonzero;fill:url(#linear0);" d="M 6.386719 17.699219 L 30.265625 17.699219 C 31.582031 17.699219 32.648438 18.765625 32.652344 20.082031 L 32.652344 43.917969 C 32.648438 45.234375 31.582031 46.300781 30.265625 46.300781 L 6.386719 46.300781 C 5.070312 46.300781 4 45.234375 4 43.917969 L 4 20.082031 C 4 18.765625 5.070312 17.699219 6.386719 17.699219 Z M 6.386719 17.699219 "/>
<path style=" stroke:none;fill-rule:nonzero;fill:rgb(100%,100%,100%);fill-opacity:1;" d="M 13.800781 35.976562 C 13.847656 36.34375 13.878906 36.664062 13.890625 36.9375 L 13.949219 36.9375 C 13.96875 36.679688 14.011719 36.363281 14.078125 35.996094 C 14.144531 35.632812 14.203125 35.320312 14.257812 35.066406 L 16.765625 24.253906 L 20.015625 24.253906 L 22.613281 34.90625 C 22.765625 35.566406 22.875 36.234375 22.9375 36.90625 L 22.980469 36.90625 C 23.03125 36.25 23.121094 35.597656 23.253906 34.957031 L 25.328125 24.238281 L 28.285156 24.238281 L 24.636719 39.734375 L 21.183594 39.734375 L 18.707031 29.484375 C 18.636719 29.1875 18.554688 28.800781 18.464844 28.328125 C 18.375 27.851562 18.316406 27.507812 18.296875 27.289062 L 18.253906 27.289062 C 18.226562 27.539062 18.171875 27.914062 18.085938 28.410156 C 18.003906 28.90625 17.9375 29.273438 17.886719 29.515625 L 15.558594 39.742188 L 12.046875 39.742188 L 8.378906 24.253906 L 11.378906 24.253906 L 13.640625 35.089844 C 13.710938 35.382812 13.761719 35.679688 13.800781 35.976562 Z M 13.800781 35.976562 "/>
</g>
</svg>
