<?xml version="1.0" encoding="UTF-8"?>
<svg xmlns="http://www.w3.org/2000/svg" xmlns:xlink="http://www.w3.org/1999/xlink" width="64px" height="64px" viewBox="0 0 64 64" version="1.1">
<g id="surface1">
<path style=" stroke:none;fill-rule:nonzero;fill:rgb(0%,11.764706%,21.176471%);fill-opacity:1;" d="M 4 24.265625 C 4 17.171875 4 13.625 5.378906 10.917969 C 6.59375 8.53125 8.53125 6.59375 10.917969 5.378906 C 13.625 4 17.171875 4 24.265625 4 L 39.734375 4 C 46.828125 4 50.375 4 53.082031 5.378906 C 55.46875 6.59375 57.40625 8.53125 58.621094 10.917969 C 60 13.625 60 17.171875 60 24.265625 L 60 39.734375 C 60 46.828125 60 50.375 58.621094 53.082031 C 57.40625 55.46875 55.46875 57.40625 53.082031 58.621094 C 50.375 60 46.828125 60 39.734375 60 L 24.265625 60 C 17.171875 60 13.625 60 10.917969 58.621094 C 8.53125 57.40625 6.59375 55.46875 5.378906 53.082031 C 4 50.375 4 46.828125 4 39.734375 Z M 4 24.265625 "/>
<path style=" stroke:none;fill-rule:nonzero;fill:rgb(19.215686%,65.882353%,100%);fill-opacity:1;" d="M 16 45.03125 L 16 20.40625 C 16 20.238281 16.070312 20.144531 16.234375 20.144531 C 18.644531 20.144531 21.054688 20 23.464844 20 C 27.378906 20 31.617188 21.339844 33.101562 25.433594 C 33.453125 26.4375 33.640625 27.464844 33.640625 28.542969 C 33.640625 30.601562 33.171875 32.300781 32.238281 33.640625 C 29.632812 37.382812 25.113281 37.328125 21.0625 37.328125 L 21.0625 45.007812 C 21.09375 45.234375 20.902344 45.34375 20.714844 45.34375 L 16.28125 45.34375 C 16.09375 45.34375 16 45.246094 16 45.03125 Z M 21.085938 24.761719 L 21.085938 32.804688 C 22.691406 32.921875 24.375 32.933594 25.917969 32.421875 C 27.621094 31.929688 28.554688 30.453125 28.554688 28.6875 C 28.601562 27.179688 27.78125 25.738281 26.382812 25.191406 C 24.859375 24.558594 22.730469 24.519531 21.085938 24.761719 Z M 21.085938 24.761719 "/>
<path style=" stroke:none;fill-rule:nonzero;fill:rgb(19.215686%,65.882353%,100%);fill-opacity:1;" d="M 48.195312 31.214844 C 47.488281 30.84375 46.734375 30.570312 45.957031 30.40625 C 44.960938 30.171875 41.019531 29.347656 41.019531 31.40625 C 41.054688 32.558594 42.878906 33.121094 43.683594 33.449219 C 46.515625 34.421875 49.722656 36.160156 49.660156 39.652344 C 49.746094 44 45.53125 45.738281 41.917969 45.742188 C 40.039062 45.761719 38.082031 45.46875 36.359375 44.660156 C 36.195312 44.574219 36.089844 44.390625 36.097656 44.199219 L 36.097656 40.039062 C 36.078125 39.871094 36.257812 39.726562 36.398438 39.84375 C 38.082031 40.863281 40.082031 41.359375 42.03125 41.386719 C 42.894531 41.386719 44.601562 41.304688 44.585938 40.039062 C 44.585938 38.824219 42.546875 38.265625 41.730469 37.957031 C 40.550781 37.535156 39.433594 36.953125 38.40625 36.222656 C 36.972656 35.199219 36.074219 33.558594 36.097656 31.753906 C 36.089844 27.660156 39.96875 25.820312 43.460938 25.820312 C 45.09375 25.808594 46.847656 25.929688 48.367188 26.589844 C 48.585938 26.65625 48.628906 26.886719 48.628906 27.09375 L 48.628906 30.984375 C 48.644531 31.226562 48.375 31.308594 48.195312 31.214844 Z M 48.195312 31.214844 "/>
</g>
</svg>
