<?xml version="1.0" encoding="UTF-8"?>
<svg xmlns="http://www.w3.org/2000/svg" xmlns:xlink="http://www.w3.org/1999/xlink" width="64px" height="64px" viewBox="0 0 64 64" version="1.1">
<g id="surface1">
<path style=" stroke:none;fill-rule:evenodd;fill:rgb(98.431373%,47.843137%,14.117647%);fill-opacity:1;" d="M 31.980469 0 C 40.226562 0 48.46875 0 56.710938 0 C 57.742188 0 58.769531 0.0898438 59.761719 0.390625 C 61.914062 1.046875 63.050781 2.589844 63.5 4.71875 C 63.675781 5.5625 63.726562 6.421875 63.726562 7.28125 C 63.742188 13.054688 63.75 18.824219 63.75 24.597656 C 63.753906 35.113281 63.753906 45.625 63.730469 56.140625 C 63.730469 57.613281 63.652344 59.101562 62.925781 60.441406 C 62.117188 61.925781 61.015625 63.105469 59.339844 63.621094 C 59.035156 63.714844 58.71875 63.820312 58.410156 63.820312 C 57.695312 63.820312 57 64 56.285156 64 C 40.144531 63.996094 24.003906 64.007812 7.867188 63.980469 C 6.550781 63.980469 5.21875 63.882812 3.972656 63.351562 C 3.722656 63.242188 3.472656 63.152344 3.253906 62.988281 C 1.667969 61.777344 0.589844 60.269531 0.359375 58.226562 C 0.273438 57.492188 0.25 56.757812 0.25 56.023438 C 0.25 39.660156 0.253906 23.300781 0.261719 6.941406 C 0.261719 5.992188 0.269531 5.027344 0.5625 4.117188 C 1.339844 1.699219 3.042969 0.375 5.5625 0.109375 C 6.148438 0.046875 6.742188 0.00390625 7.328125 0.00390625 C 15.546875 0 23.765625 0 31.980469 0 Z M 31.980469 0 "/>
<path style=" stroke:none;fill-rule:evenodd;fill:rgb(100%,100%,100%);fill-opacity:1;" d="M 32.191406 40.710938 C 32.011719 41.816406 31.886719 42.8125 31.488281 43.734375 C 29.628906 48.046875 26.464844 50.675781 21.714844 51.195312 C 16.105469 51.816406 10.921875 48.351562 9.363281 42.972656 C 8.796875 41.023438 8.855469 39.035156 9.058594 37.050781 C 9.277344 34.933594 9.902344 32.921875 10.878906 31.027344 C 11.019531 30.753906 11.015625 30.550781 10.839844 30.289062 C 9.34375 28.035156 8.761719 25.546875 8.972656 22.863281 C 9.085938 21.425781 9.433594 20.054688 10.085938 18.769531 C 11.992188 15 16.179688 11.804688 21.789062 12.335938 C 26.71875 12.800781 31.289062 17.054688 32 21.839844 C 32.035156 22.078125 32.105469 22.316406 32.183594 22.671875 C 32.300781 22.027344 32.386719 21.5 32.496094 20.976562 C 33.414062 16.628906 37.667969 12.082031 43.699219 12.023438 C 49.8125 11.96875 54.339844 16.761719 55.191406 21.214844 C 55.554688 23.09375 55.492188 24.976562 55.191406 26.855469 C 54.894531 28.730469 54.34375 30.535156 53.539062 32.253906 C 53.359375 32.632812 53.378906 32.90625 53.605469 33.261719 C 54.921875 35.300781 55.503906 37.539062 55.429688 39.972656 C 55.273438 45.046875 51.683594 49.597656 46.746094 50.789062 C 39.851562 52.449219 34.570312 48.324219 32.789062 43.335938 C 32.5 42.527344 32.363281 41.679688 32.191406 40.710938 Z M 44.714844 31.792969 C 44.789062 31.507812 45.011719 31.335938 45.171875 31.125 C 46.902344 28.828125 47.808594 26.261719 47.605469 23.371094 C 47.460938 21.261719 45.726562 19.777344 43.625 19.855469 C 41.523438 19.933594 39.941406 21.554688 39.914062 23.65625 C 39.910156 23.828125 39.921875 24 39.910156 24.171875 C 39.765625 26.414062 38.527344 27.640625 36.65625 27.777344 C 36.3125 27.800781 35.972656 27.832031 35.628906 27.832031 C 33.195312 27.839844 30.765625 27.839844 28.335938 27.835938 C 27.273438 27.835938 26.21875 27.949219 25.210938 28.261719 C 20.488281 29.71875 17.738281 32.945312 16.824219 37.757812 C 16.644531 38.707031 16.484375 39.695312 16.796875 40.675781 C 17.242188 42.078125 18.078125 43.121094 19.554688 43.46875 C 21.085938 43.828125 22.421875 43.429688 23.480469 42.226562 C 24.164062 41.449219 24.378906 40.523438 24.433594 39.511719 C 24.5625 36.902344 25.984375 35.597656 28.355469 35.617188 C 31.988281 35.648438 35.621094 35.625 39.257812 35.628906 C 39.902344 35.628906 39.90625 35.636719 39.910156 36.273438 C 39.917969 37.453125 39.878906 38.632812 39.925781 39.808594 C 40 41.730469 41.691406 43.328125 43.652344 43.386719 C 45.671875 43.441406 47.472656 41.949219 47.605469 39.996094 C 47.71875 38.308594 47.710938 36.609375 47.601562 34.917969 C 47.515625 33.609375 46.808594 32.675781 45.605469 32.132812 C 45.320312 32.003906 45.015625 31.910156 44.714844 31.792969 Z M 21.9375 27.828125 C 22.71875 27.828125 23.355469 27.824219 23.992188 27.832031 C 24.308594 27.839844 24.425781 27.703125 24.425781 27.390625 C 24.414062 26.167969 24.476562 24.9375 24.398438 23.714844 C 24.296875 22.101562 23.4375 20.9375 21.9375 20.351562 C 20.398438 19.746094 18.992188 20.089844 17.800781 21.226562 C 16.605469 22.371094 16.445312 23.765625 16.863281 25.292969 C 17.25 26.699219 18.15625 27.496094 19.585938 27.738281 C 20.414062 27.875 21.25 27.808594 21.9375 27.828125 Z M 21.9375 27.828125 "/>
</g>
</svg>
