<?xml version="1.0" encoding="UTF-8"?>
<svg xmlns="http://www.w3.org/2000/svg" xmlns:xlink="http://www.w3.org/1999/xlink" width="64px" height="64px" viewBox="0 0 64 64" version="1.1">
<defs>
<filter id="alpha" filterUnits="objectBoundingBox" x="0%" y="0%" width="100%" height="100%">
  <feColorMatrix type="matrix" in="SourceGraphic" values="0 0 0 0 1 0 0 0 0 1 0 0 0 0 1 0 0 0 1 0"/>
</filter>
<mask id="mask0">
  <g filter="url(#alpha)">
<rect x="0" y="0" width="64" height="64" style="fill:rgb(0%,0%,0%);fill-opacity:0.101961;stroke:none;"/>
  </g>
</mask>
<clipPath id="clip1">
  <rect x="0" y="0" width="64" height="64"/>
</clipPath>
<g id="surface5" clip-path="url(#clip1)">
<path style=" stroke:none;fill-rule:nonzero;fill:rgb(0%,0%,0%);fill-opacity:1;" d="M 35.257812 18.777344 L 35.257812 46.519531 C 35.25 47.484375 34.664062 48.351562 33.773438 48.71875 C 33.488281 48.839844 33.179688 48.902344 32.871094 48.902344 L 14.054688 48.902344 C 13.691406 48.484375 13.339844 48.042969 13.011719 47.601562 C 9.695312 43.1875 7.902344 37.8125 7.90625 32.289062 L 7.90625 31.714844 C 7.898438 26.734375 9.359375 21.859375 12.101562 17.699219 C 12.386719 17.257812 12.6875 16.816406 13.011719 16.398438 L 32.871094 16.398438 C 34.183594 16.410156 35.242188 17.46875 35.257812 18.777344 Z M 35.257812 18.777344 "/>
</g>
<mask id="mask1">
  <g filter="url(#alpha)">
<rect x="0" y="0" width="64" height="64" style="fill:rgb(0%,0%,0%);fill-opacity:0.2;stroke:none;"/>
  </g>
</mask>
<clipPath id="clip2">
  <rect x="0" y="0" width="64" height="64"/>
</clipPath>
<g id="surface8" clip-path="url(#clip2)">
<path style=" stroke:none;fill-rule:nonzero;fill:rgb(0%,0%,0%);fill-opacity:1;" d="M 33.953125 20.078125 L 33.953125 47.820312 C 33.953125 48.128906 33.890625 48.433594 33.773438 48.71875 C 33.402344 49.609375 32.535156 50.191406 31.570312 50.199219 L 15.238281 50.199219 C 14.828125 49.78125 14.433594 49.347656 14.054688 48.898438 C 13.691406 48.484375 13.339844 48.042969 13.011719 47.601562 C 9.695312 43.183594 7.902344 37.808594 7.90625 32.285156 L 7.90625 31.714844 C 7.898438 26.734375 9.359375 21.859375 12.101562 17.699219 L 31.570312 17.699219 C 32.882812 17.707031 33.941406 18.769531 33.953125 20.078125 Z M 33.953125 20.078125 "/>
</g>
<mask id="mask2">
  <g filter="url(#alpha)">
<rect x="0" y="0" width="64" height="64" style="fill:rgb(0%,0%,0%);fill-opacity:0.2;stroke:none;"/>
  </g>
</mask>
<clipPath id="clip3">
  <rect x="0" y="0" width="64" height="64"/>
</clipPath>
<g id="surface11" clip-path="url(#clip3)">
<path style=" stroke:none;fill-rule:nonzero;fill:rgb(0%,0%,0%);fill-opacity:1;" d="M 33.953125 20.078125 L 33.953125 45.222656 C 33.941406 46.53125 32.878906 47.589844 31.570312 47.601562 L 13.011719 47.601562 C 9.695312 43.183594 7.902344 37.808594 7.90625 32.285156 L 7.90625 31.714844 C 7.898438 26.734375 9.359375 21.859375 12.101562 17.699219 L 31.570312 17.699219 C 32.882812 17.707031 33.941406 18.769531 33.953125 20.078125 Z M 33.953125 20.078125 "/>
</g>
<mask id="mask3">
  <g filter="url(#alpha)">
<rect x="0" y="0" width="64" height="64" style="fill:rgb(0%,0%,0%);fill-opacity:0.2;stroke:none;"/>
  </g>
</mask>
<clipPath id="clip4">
  <rect x="0" y="0" width="64" height="64"/>
</clipPath>
<g id="surface14" clip-path="url(#clip4)">
<path style=" stroke:none;fill-rule:nonzero;fill:rgb(0%,0%,0%);fill-opacity:1;" d="M 32.652344 20.078125 L 32.652344 45.222656 C 32.640625 46.53125 31.578125 47.589844 30.269531 47.601562 L 13.011719 47.601562 C 9.695312 43.183594 7.902344 37.808594 7.90625 32.285156 L 7.90625 31.714844 C 7.898438 26.734375 9.359375 21.859375 12.101562 17.699219 L 30.269531 17.699219 C 31.578125 17.707031 32.640625 18.769531 32.652344 20.078125 Z M 32.652344 20.078125 "/>
</g>
<linearGradient id="linear0" gradientUnits="userSpaceOnUse" x1="4.494" y1="-1748.086" x2="13.832" y2="-1731.914" gradientTransform="matrix(2,0,0,2,0,3512)">
<stop offset="0" style="stop-color:rgb(79.215686%,29.803922%,15.686275%);stop-opacity:1;"/>
<stop offset="0.5" style="stop-color:rgb(77.254902%,25.098039%,11.764706%);stop-opacity:1;"/>
<stop offset="1" style="stop-color:rgb(71.372549%,18.431373%,7.843137%);stop-opacity:1;"/>
</linearGradient>
</defs>
<g id="surface1">
<path style=" stroke:none;fill-rule:nonzero;fill:rgb(92.941176%,42.352941%,27.843137%);fill-opacity:1;" d="M 37.859375 34.601562 L 33.953125 6 L 33.660156 6 C 19.464844 6.023438 7.957031 17.511719 7.90625 31.707031 L 7.90625 32 Z M 37.859375 34.601562 "/>
<path style=" stroke:none;fill-rule:nonzero;fill:rgb(100%,56.078431%,41.960784%);fill-opacity:1;" d="M 34.246094 6 L 33.953125 6 L 33.953125 32 L 46.976562 37.199219 L 60 32 L 60 31.707031 C 59.949219 17.511719 48.441406 6.023438 34.246094 6 Z M 34.246094 6 "/>
<path style=" stroke:none;fill-rule:nonzero;fill:rgb(82.745098%,32.156863%,18.823529%);fill-opacity:1;" d="M 60 32 L 60 32.285156 C 59.945312 46.484375 48.4375 57.972656 34.238281 58 L 33.664062 58 C 19.46875 57.96875 7.960938 46.484375 7.90625 32.285156 L 7.90625 32 Z M 60 32 "/>
<use xlink:href="#surface5" mask="url(#mask0)"/>
<use xlink:href="#surface8" mask="url(#mask1)"/>
<use xlink:href="#surface11" mask="url(#mask2)"/>
<use xlink:href="#surface14" mask="url(#mask3)"/>
<path style=" stroke:none;fill-rule:nonzero;fill:url(#linear0);" d="M 6.386719 17.699219 L 30.265625 17.699219 C 31.582031 17.699219 32.648438 18.765625 32.652344 20.082031 L 32.652344 43.917969 C 32.648438 45.234375 31.582031 46.300781 30.265625 46.300781 L 6.386719 46.300781 C 5.070312 46.300781 4 45.234375 4 43.917969 L 4 20.082031 C 4 18.765625 5.070312 17.699219 6.386719 17.699219 Z M 6.386719 17.699219 "/>
<path style=" stroke:none;fill-rule:nonzero;fill:rgb(100%,100%,100%);fill-opacity:1;" d="M 18.585938 24.054688 C 20.140625 23.953125 21.679688 24.402344 22.933594 25.328125 C 23.976562 26.257812 24.535156 27.617188 24.445312 29.011719 C 24.464844 29.980469 24.203125 30.933594 23.699219 31.761719 C 23.1875 32.578125 22.453125 33.226562 21.582031 33.632812 C 20.585938 34.09375 19.496094 34.324219 18.398438 34.300781 L 15.375 34.300781 L 15.375 39.898438 L 12.28125 39.898438 L 12.28125 24.054688 Z M 15.371094 31.878906 L 18.035156 31.878906 C 18.878906 31.941406 19.714844 31.691406 20.386719 31.179688 C 20.945312 30.648438 21.238281 29.894531 21.1875 29.128906 C 21.1875 27.382812 20.171875 26.507812 18.136719 26.507812 L 15.371094 26.507812 Z M 15.371094 31.878906 "/>
</g>
</svg>
