<?xml version="1.0" encoding="UTF-8"?>
<svg xmlns="http://www.w3.org/2000/svg" xmlns:xlink="http://www.w3.org/1999/xlink" width="64px" height="64px" viewBox="0 0 64 66" version="1.1">
<g id="surface1">
<path style="fill-rule:nonzero;fill:rgb(0%,0%,0%);fill-opacity:1;stroke-width:37.395302;stroke-linecap:butt;stroke-linejoin:miter;stroke:rgb(0%,0%,0%);stroke-opacity:1;stroke-miterlimit:4;" d="M 323.208984 324.230966 C 326.030273 300.627036 325.186523 297.172159 342.773438 300.996259 L 347.229492 301.391856 C 360.755859 301.998438 378.421875 299.202888 388.810547 294.37661 C 411.169922 284.011979 424.432617 266.684848 402.389648 271.221023 C 352.081055 281.612027 348.626953 264.575 348.626953 264.575 C 401.756836 185.772159 423.958008 85.738968 404.789062 61.264725 C 352.50293 -5.538352 262.037109 26.056629 260.53418 26.874195 L 260.033203 26.953314 C 250.092773 24.896212 238.992188 23.656676 226.494141 23.472064 C 203.712891 23.076468 186.442383 29.432386 173.364258 39.375047 C 173.364258 39.375047 11.944336 -27.137926 19.458984 123.004167 C 21.041016 154.941998 65.232422 364.660938 117.914062 301.312737 C 137.188477 278.130777 155.803711 258.561932 155.803711 258.561932 C 165.032227 264.706866 176.106445 267.818892 187.708008 266.711222 L 188.604492 265.946402 C 188.314453 268.82107 188.446289 271.616619 188.973633 274.966004 C 175.394531 290.13054 179.375977 292.794223 152.244141 298.385322 C 124.795898 304.029167 140.90625 314.103693 151.453125 316.741004 C 164.214844 319.93215 193.746094 324.468324 213.706055 296.512831 L 212.915039 299.703977 C 218.241211 303.97642 217.87207 330.323153 218.636719 349.153551 C 219.401367 367.983949 220.640625 385.574811 224.490234 395.939441 C 228.339844 406.277699 232.848633 432.967282 268.523438 425.345455 C 298.344727 418.93679 321.125977 409.758949 323.208984 324.230966 " transform="matrix(0.148148,0,0,0.148115,0,0)"/>
<path style=" stroke:none;fill-rule:nonzero;fill:rgb(20%,40.392157%,56.862748%);fill-opacity:1;" d="M 59.613281 40.171875 C 52.160156 41.710938 51.648438 39.1875 51.648438 39.1875 C 59.519531 27.515625 62.808594 12.699219 59.96875 9.070312 C 52.226562 -0.820312 38.820312 3.859375 38.597656 3.980469 L 38.523438 3.992188 C 37.050781 3.6875 35.40625 3.503906 33.550781 3.476562 C 30.179688 3.417969 27.621094 4.359375 25.683594 5.832031 C 25.683594 5.832031 1.769531 -4.019531 2.882812 18.21875 C 3.117188 22.949219 9.664062 54.011719 17.46875 44.628906 C 20.324219 41.195312 23.078125 38.296875 23.078125 38.296875 C 24.449219 39.207031 26.089844 39.667969 27.808594 39.503906 L 27.941406 39.390625 C 27.898438 39.816406 27.917969 40.230469 27.992188 40.726562 C 25.984375 42.972656 26.574219 43.367188 22.554688 44.195312 C 18.484375 45.03125 20.875 46.523438 22.4375 46.914062 C 24.328125 47.386719 28.703125 48.058594 31.660156 43.917969 L 31.542969 44.390625 C 32.332031 45.023438 32.882812 48.496094 32.789062 51.644531 C 32.699219 54.792969 32.636719 56.953125 33.257812 58.644531 C 33.878906 60.332031 34.496094 64.128906 39.78125 63 C 44.199219 62.050781 46.488281 59.601562 46.804688 55.511719 C 47.03125 52.601562 47.542969 53.03125 47.574219 50.433594 L 47.984375 49.203125 C 48.457031 45.261719 48.058594 43.988281 50.78125 44.582031 L 51.441406 44.636719 C 53.445312 44.730469 56.066406 44.316406 57.601562 43.601562 C 60.914062 42.066406 62.878906 39.5 59.613281 40.171875 Z M 59.613281 40.171875 "/>
<path style="fill:none;stroke-width:12.4651;stroke-linecap:round;stroke-linejoin:round;stroke:rgb(100%,100%,100%);stroke-opacity:1;stroke-miterlimit:4;" d="M 215.868164 286.491051 C 214.470703 335.993371 216.210938 385.864915 221.0625 397.97017 C 225.914062 410.101799 236.276367 433.679356 271.951172 426.031155 C 301.772461 419.622491 312.609375 407.279877 317.329102 379.983712 C 320.783203 359.887405 327.454102 304.108286 328.324219 292.688731 " transform="matrix(0.148148,0,0,0.148115,0,0)"/>
<path style="fill:none;stroke-width:12.4651;stroke-linecap:round;stroke-linejoin:round;stroke:rgb(100%,100%,100%);stroke-opacity:1;stroke-miterlimit:4;" d="M 173.100586 38.267377 C 173.100586 38.267377 11.575195 -27.770881 19.089844 122.371212 C 20.698242 154.309044 64.863281 364.027983 117.571289 300.679782 C 136.819336 277.524195 154.248047 259.353125 154.248047 259.353125 " transform="matrix(0.148148,0,0,0.148115,0,0)"/>
<path style="fill:none;stroke-width:12.4651;stroke-linecap:round;stroke-linejoin:round;stroke:rgb(100%,100%,100%);stroke-opacity:1;stroke-miterlimit:4;" d="M 260.349609 26.214867 C 254.759766 27.955492 350.208984 -8.676752 404.446289 60.631771 C 423.588867 85.106013 401.387695 185.139205 348.28418 263.942045 " transform="matrix(0.148148,0,0,0.148115,0,0)"/>
<path style="fill:none;stroke-width:12.4651;stroke-linecap:round;stroke-linejoin:bevel;stroke:rgb(100%,100%,100%);stroke-opacity:1;stroke-miterlimit:4;" d="M 348.28418 263.942045 C 348.28418 263.942045 351.738281 280.979072 402.046875 270.614441 C 424.089844 266.051894 410.827148 283.379025 388.467773 293.770028 C 370.116211 302.262169 328.983398 304.451136 328.324219 292.688731 C 326.583984 262.333286 349.97168 271.563873 348.28418 263.942045 C 346.754883 257.111411 336.313477 250.386269 329.378906 233.612973 C 323.34082 218.9759 246.585938 106.758333 350.683594 123.426136 C 354.480469 122.634943 323.525391 24.421496 226.125 22.83911 C 128.750977 21.23035 131.941406 142.599384 131.941406 142.599384 " transform="matrix(0.148148,0,0,0.148115,0,0)"/>
<path style="fill:none;stroke-width:12.4651;stroke-linecap:round;stroke-linejoin:round;stroke:rgb(100%,100%,100%);stroke-opacity:1;stroke-miterlimit:4;" d="M 188.604492 274.333049 C 175.025391 289.497585 179.006836 292.161269 151.875 297.752367 C 124.426758 303.422585 140.563477 313.497112 151.083984 316.108049 C 163.845703 319.299195 193.40332 323.835369 213.336914 295.879877 C 219.427734 287.387737 213.310547 273.805587 204.952148 270.35071 C 200.917969 268.662831 195.539062 266.579356 188.604492 274.333049 Z M 188.604492 274.333049 " transform="matrix(0.148148,0,0,0.148115,0,0)"/>
<path style="fill:none;stroke-width:12.4651;stroke-linecap:round;stroke-linejoin:round;stroke:rgb(100%,100%,100%);stroke-opacity:1;stroke-miterlimit:4;" d="M 187.708008 274.069318 C 186.336914 265.155208 190.634766 254.55322 195.249023 242.131487 C 202.183594 223.512074 218.135742 204.866288 205.374023 145.79053 C 195.855469 101.747443 131.967773 136.612689 131.941406 142.599384 C 131.888672 148.559706 134.81543 172.849337 130.860352 201.14768 C 125.692383 238.043655 154.353516 269.269413 187.338867 266.078267 " transform="matrix(0.148148,0,0,0.148115,0,0)"/>
<path style="fill-rule:nonzero;fill:rgb(100%,100%,100%);fill-opacity:1;stroke-width:4.155;stroke-linecap:butt;stroke-linejoin:miter;stroke:rgb(100%,100%,100%);stroke-opacity:1;stroke-miterlimit:4;" d="M 172.520508 141.702699 C 172.230469 143.733428 176.238281 149.192661 181.485352 149.904735 C 186.732422 150.643182 191.214844 146.397112 191.478516 144.340009 C 191.768555 142.30928 187.760742 140.067566 182.513672 139.329119 C 177.266602 138.590672 172.78418 139.67197 172.520508 141.702699 Z M 172.520508 141.702699 " transform="matrix(0.148148,0,0,0.148115,0,0)"/>
<path style="fill-rule:nonzero;fill:rgb(100%,100%,100%);fill-opacity:1;stroke-width:2.0775;stroke-linecap:butt;stroke-linejoin:miter;stroke:rgb(100%,100%,100%);stroke-opacity:1;stroke-miterlimit:4;" d="M 331.936523 137.535748 C 332.226562 139.59285 328.21875 145.02571 322.97168 145.737784 C 317.724609 146.476231 313.242188 142.230161 312.952148 140.199432 C 312.688477 138.14233 316.696289 135.900616 321.943359 135.188542 C 327.19043 134.450095 331.646484 135.505019 331.936523 137.535748 Z M 331.936523 137.535748 " transform="matrix(0.148148,0,0,0.148115,0,0)"/>
<path style="fill:none;stroke-width:12.4651;stroke-linecap:round;stroke-linejoin:round;stroke:rgb(100%,100%,100%);stroke-opacity:1;stroke-miterlimit:4;" d="M 350.683594 123.426136 C 351.527344 139.434612 347.229492 150.326705 346.675781 167.337358 C 345.884766 192.101705 358.488281 220.42642 339.503906 248.777509 " transform="matrix(0.148148,0,0,0.148115,0,0)"/>
</g>
</svg>
