<?xml version="1.0" encoding="UTF-8"?>
<svg xmlns="http://www.w3.org/2000/svg" xmlns:xlink="http://www.w3.org/1999/xlink" width="64px" height="64px" viewBox="0 0 64 64" version="1.1">
<g id="surface1">
<path style=" stroke:none;fill-rule:nonzero;fill:rgb(91.764706%,26.27451%,20.784314%);fill-opacity:1;" d="M 42.5625 20.453125 L 48.125 14.890625 L 48.496094 12.550781 C 38.359375 3.332031 22.242188 4.375 13.105469 14.730469 C 10.566406 17.605469 8.683594 21.191406 7.679688 24.894531 L 9.671875 24.613281 L 20.796875 22.777344 L 21.65625 21.898438 C 26.605469 16.464844 34.972656 15.730469 40.6875 20.355469 Z M 42.5625 20.453125 "/>
<path style=" stroke:none;fill-rule:nonzero;fill:rgb(25.882353%,52.156863%,95.686275%);fill-opacity:1;" d="M 56.050781 24.730469 C 54.773438 20.019531 52.148438 15.789062 48.496094 12.550781 L 40.6875 20.355469 C 43.984375 23.050781 45.863281 27.109375 45.785156 31.367188 L 45.785156 32.753906 C 49.621094 32.753906 52.734375 35.863281 52.734375 39.703125 C 52.734375 43.539062 49.621094 46.574219 45.785156 46.574219 L 31.867188 46.574219 L 30.5 48.054688 L 30.5 56.390625 L 31.867188 57.699219 L 45.785156 57.699219 C 55.765625 57.777344 63.921875 49.824219 64 39.84375 C 64.046875 33.792969 61.0625 28.121094 56.050781 24.730469 "/>
<path style=" stroke:none;fill-rule:nonzero;fill:rgb(20.392157%,65.882353%,32.54902%);fill-opacity:1;" d="M 17.96875 57.699219 L 31.867188 57.699219 L 31.867188 46.574219 L 17.96875 46.574219 C 16.976562 46.570312 16.019531 46.359375 15.117188 45.949219 L 13.144531 46.554688 L 7.542969 52.117188 L 7.054688 54.007812 C 10.199219 56.382812 14.03125 57.714844 17.96875 57.699219 "/>
<path style=" stroke:none;fill-rule:nonzero;fill:rgb(98.431373%,73.72549%,1.960784%);fill-opacity:1;" d="M 17.96875 21.605469 C 7.984375 21.664062 -0.0585938 29.808594 0 39.789062 C 0.0351562 45.363281 2.636719 50.613281 7.054688 54.007812 L 15.117188 45.949219 C 11.621094 44.367188 10.066406 40.25 11.644531 36.753906 C 13.226562 33.257812 17.34375 31.703125 20.839844 33.28125 C 22.382812 33.976562 23.617188 35.210938 24.3125 36.753906 L 32.375 28.691406 C 28.941406 24.207031 23.613281 21.585938 17.96875 21.605469 "/>
</g>
</svg>
