<?xml version="1.0" encoding="UTF-8"?>
<svg xmlns="http://www.w3.org/2000/svg" xmlns:xlink="http://www.w3.org/1999/xlink" width="64px" height="64px" viewBox="0 0 64 64" version="1.1">
<g id="surface1">
<path style=" stroke:none;fill-rule:nonzero;fill:rgb(0%,16.862745%,39.215686%);fill-opacity:1;" d="M 62.59375 10.75 C 61.605469 10.78125 61.917969 11.066406 59.78125 11.59375 C 57.625 12.125 54.988281 11.960938 52.664062 12.9375 C 45.726562 15.847656 44.332031 25.789062 38.027344 29.351562 C 33.3125 32.015625 28.554688 32.226562 24.28125 33.566406 C 21.46875 34.449219 18.394531 36.257812 15.847656 38.449219 C 13.871094 40.15625 13.820312 41.652344 11.757812 43.789062 C 9.546875 46.074219 2.976562 43.828125 0 47.328125 C 0.960938 48.296875 1.378906 48.566406 3.269531 48.316406 C 2.878906 49.058594 0.570312 49.683594 1.023438 50.773438 C 1.5 51.921875 7.074219 52.699219 12.144531 49.640625 C 14.507812 48.214844 16.386719 46.160156 20.0625 45.667969 C 24.824219 45.035156 30.304688 46.074219 35.8125 46.871094 C 34.996094 49.304688 33.355469 50.925781 32.042969 52.867188 C 31.636719 53.304688 32.859375 53.351562 34.257812 53.085938 C 36.769531 52.464844 38.578125 51.964844 40.472656 50.863281 C 42.800781 49.507812 43.15625 46.03125 46.011719 45.28125 C 47.605469 47.726562 51.933594 48.304688 54.621094 46.347656 C 52.261719 45.679688 51.613281 40.664062 52.40625 38.449219 C 53.160156 36.359375 53.90625 33.007812 54.664062 30.242188 C 55.480469 27.269531 55.78125 23.527344 56.769531 22.011719 C 58.25 19.734375 59.890625 18.953125 61.316406 17.667969 C 62.738281 16.382812 64.042969 15.132812 64 12.195312 C 63.984375 11.25 63.496094 10.722656 62.59375 10.75 Z M 62.59375 10.75 "/>
<path style=" stroke:none;fill-rule:nonzero;fill:rgb(76.862745%,60.392157%,42.352941%);fill-opacity:1;" d="M 60.476562 12.492188 C 60.714844 13.300781 61.085938 13.671875 62.6875 13.820312 C 62.453125 15.851562 61.097656 16.964844 59.578125 18.03125 C 58.238281 18.96875 56.773438 19.871094 55.832031 21.335938 C 54.867188 22.839844 54.253906 27.976562 52.757812 33.050781 C 51.464844 37.4375 49.511719 41.773438 46.101562 43.671875 C 45.746094 42.773438 46.148438 41.121094 45.4375 40.574219 C 44.980469 41.882812 44.460938 43.132812 43.855469 44.289062 C 41.855469 48.117188 38.890625 50.980469 33.941406 51.855469 C 36.289062 48.675781 38.535156 45.390625 38.585938 39.914062 C 36.929688 40.269531 36.964844 44.175781 35.265625 45.21875 C 34.179688 45.339844 33.074219 45.335938 31.964844 45.269531 C 27.40625 44.996094 22.726562 43.628906 18.460938 44.996094 C 15.554688 45.929688 13.179688 48.128906 10.722656 49.195312 C 7.832031 50.449219 5.640625 50.964844 2.042969 50.449219 C 1.585938 49.832031 4.675781 49.039062 4.492188 47.699219 C 3.082031 47.546875 2.265625 47.886719 1.039062 47.328125 C 1.175781 47.082031 1.375 46.875 1.625 46.699219 C 3.867188 45.148438 10.246094 46.332031 11.949219 44.65625 C 13.003906 43.625 13.695312 42.542969 14.410156 41.492188 C 15.105469 40.472656 15.820312 39.480469 16.914062 38.585938 C 17.316406 38.253906 17.753906 37.929688 18.222656 37.609375 C 20.082031 36.335938 22.386719 35.179688 24.652344 34.382812 C 27.742188 33.300781 30.871094 33.210938 34.160156 31.953125 C 36.195312 31.175781 38.40625 30.214844 40.207031 28.871094 C 40.636719 28.550781 41.042969 28.210938 41.414062 27.847656 C 46.5625 22.832031 47.582031 13.980469 55.613281 13.15625 C 56.582031 13.054688 57.378906 13.089844 58.101562 13.066406 C 58.9375 13.042969 59.671875 12.945312 60.476562 12.492188 Z M 50.6875 40.816406 C 50.785156 42.351562 51.675781 45.394531 52.460938 46.132812 C 50.921875 46.507812 48.269531 45.890625 47.589844 44.804688 C 47.9375 43.234375 49.757812 41.800781 50.6875 40.816406 Z M 50.6875 40.816406 "/>
<path style=" stroke:none;fill-rule:nonzero;fill:rgb(0%,16.862745%,39.215686%);fill-opacity:1;" d="M 61.054688 14.210938 C 60.746094 14.859375 60.152344 15.695312 60.152344 17.347656 C 60.148438 17.632812 59.9375 17.824219 59.933594 17.386719 C 59.949219 15.773438 60.378906 15.074219 60.832031 14.15625 C 61.042969 13.78125 61.167969 13.9375 61.054688 14.210938 Z M 60.742188 13.964844 C 60.378906 14.585938 59.5 15.714844 59.355469 17.359375 C 59.328125 17.640625 59.097656 17.816406 59.132812 17.378906 C 59.289062 15.773438 59.992188 14.769531 60.527344 13.894531 C 60.769531 13.539062 60.882812 13.703125 60.742188 13.964844 Z M 60.457031 13.640625 C 60.042969 14.226562 58.691406 15.582031 58.40625 17.210938 C 58.355469 17.492188 58.113281 17.644531 58.183594 17.214844 C 58.476562 15.625 59.644531 14.378906 60.25 13.550781 C 60.519531 13.21875 60.617188 13.390625 60.457031 13.640625 Z M 60.207031 13.28125 L 60.070312 13.425781 C 59.464844 14.074219 58.058594 15.65625 57.589844 17.105469 C 57.5 17.371094 57.238281 17.492188 57.367188 17.074219 C 57.882812 15.542969 59.292969 13.894531 60.007812 13.160156 C 60.324219 12.867188 60.398438 13.054688 60.207031 13.28125 Z M 52.941406 16.558594 C 53.257812 15.210938 54.304688 14.597656 56.113281 14.746094 C 56.546875 16.757812 54.105469 17.566406 52.941406 16.558594 Z M 52.941406 16.558594 "/>
</g>
</svg>
