<?xml version="1.0" encoding="UTF-8"?>
<svg xmlns="http://www.w3.org/2000/svg" xmlns:xlink="http://www.w3.org/1999/xlink" width="64px" height="64px" viewBox="0 0 64 64" version="1.1">
<g id="surface1">
<path style=" stroke:none;fill-rule:nonzero;fill:rgb(26.666668%,71.764708%,54.509807%);fill-opacity:1;" d="M 28.269531 8 L 36.199219 8 L 36.199219 44.339844 C 32.816406 45.03125 29.371094 45.390625 25.914062 45.40625 C 16.230469 45.398438 11.191406 41.070312 11.191406 32.765625 C 11.191406 24.765625 16.535156 19.5625 24.820312 19.5625 C 25.984375 19.542969 27.144531 19.675781 28.269531 19.964844 Z M 28.269531 26.285156 C 27.40625 26 26.503906 25.863281 25.597656 25.882812 C 21.597656 25.882812 19.269531 28.328125 19.269531 32.617188 C 19.269531 36.789062 21.484375 39.09375 25.546875 39.09375 C 26.457031 39.09375 27.367188 39.027344 28.269531 38.894531 Z M 28.269531 26.285156 "/>
<path style=" stroke:none;fill-rule:nonzero;fill:rgb(26.666668%,71.764708%,54.509807%);fill-opacity:1;" d="M 48.800781 20.117188 L 48.800781 38.316406 C 48.800781 44.585938 48.328125 47.597656 46.953125 50.195312 C 45.550781 52.835938 43.253906 54.894531 40.472656 56 L 33.117188 52.535156 C 35.789062 51.617188 38.027344 49.746094 39.398438 47.277344 C 40.53125 45.035156 40.890625 42.4375 40.890625 35.601562 L 40.890625 20.117188 Z M 48.800781 20.117188 "/>
<path style=" stroke:none;fill-rule:nonzero;fill:rgb(26.666668%,71.764708%,54.509807%);fill-opacity:1;" d="M 40.882812 8.039062 L 48.808594 8.039062 L 48.808594 16.097656 L 40.882812 16.097656 Z M 40.882812 8.039062 "/>
</g>
</svg>
