<?xml version="1.0" encoding="UTF-8"?>
<svg xmlns="http://www.w3.org/2000/svg" xmlns:xlink="http://www.w3.org/1999/xlink" width="64px" height="64px" viewBox="0 0 64 64" version="1.1">
<defs>
<linearGradient id="linear0" gradientUnits="userSpaceOnUse" x1="0.499997" y1="10.893962" x2="0.499997" y2="-1.594997" gradientTransform="matrix(38.980469,0,0,3.457031,15.847656,26.878906)">
<stop offset="0.3033" style="stop-color:rgb(27.843137%,21.568627%,53.333333%);stop-opacity:1;"/>
<stop offset="0.872" style="stop-color:rgb(17.254902%,13.333333%,33.333333%);stop-opacity:1;"/>
</linearGradient>
<linearGradient id="linear1" gradientUnits="userSpaceOnUse" x1="0.499989" y1="8.965366" x2="0.499989" y2="-3.523592" gradientTransform="matrix(38.980469,0,0,3.453125,15.847656,33.542969)">
<stop offset="0.3033" style="stop-color:rgb(27.843137%,21.568627%,53.333333%);stop-opacity:1;"/>
<stop offset="0.872" style="stop-color:rgb(17.254902%,13.333333%,33.333333%);stop-opacity:1;"/>
</linearGradient>
<linearGradient id="linear2" gradientUnits="userSpaceOnUse" x1="0.499988" y1="2.151699" x2="0.499988" y2="-1.667154" gradientTransform="matrix(35.460938,0,0,11.296875,17.605469,40.203125)">
<stop offset="0.3033" style="stop-color:rgb(27.843137%,21.568627%,53.333333%);stop-opacity:1;"/>
<stop offset="0.8631" style="stop-color:rgb(17.254902%,13.333333%,33.333333%);stop-opacity:1;"/>
</linearGradient>
</defs>
<g id="surface1">
<path style=" stroke:none;fill-rule:nonzero;fill:rgb(17.254902%,13.333333%,33.333333%);fill-opacity:1;" d="M 62.871094 40.203125 C 61.5625 44.660156 59.132812 48.65625 55.582031 52.183594 L 55.425781 52.339844 C 50.992188 56.746094 45.828125 59.386719 39.9375 60.277344 C 38.449219 60.5 36.917969 60.617188 35.335938 60.617188 C 27.425781 60.617188 20.660156 57.808594 15.035156 52.183594 C 11.507812 48.652344 9.097656 44.660156 7.796875 40.203125 Z M 63.976562 33.542969 C 63.921875 34.605469 63.8125 35.640625 63.65625 36.660156 L 63.601562 36.996094 L 7.074219 36.996094 C 6.90625 35.984375 6.785156 34.953125 6.71875 33.894531 L 6.699219 33.542969 Z M 63.597656 26.882812 C 63.769531 27.894531 63.890625 28.925781 63.953125 29.984375 L 63.972656 30.335938 L 6.699219 30.335938 C 6.753906 29.273438 6.863281 28.238281 7.019531 27.21875 L 7.074219 26.882812 Z M 63.597656 26.882812 "/>
<path style=" stroke:none;fill-rule:nonzero;fill:rgb(17.254902%,13.333333%,33.333333%);fill-opacity:1;" d="M 62.871094 23.671875 C 61.5625 19.203125 59.136719 15.191406 55.582031 11.640625 C 51.125 7.179688 45.921875 4.507812 39.984375 3.605469 C 38.480469 3.378906 36.933594 3.257812 35.335938 3.257812 C 27.425781 3.257812 20.660156 6.054688 15.035156 11.640625 C 11.507812 15.191406 9.09375 19.203125 7.796875 23.671875 "/>
<path style=" stroke:none;fill-rule:nonzero;fill:rgb(96.862745%,58.039216%,11.764706%);fill-opacity:1;" d="M 4.996094 31.941406 C 4.996094 16.808594 16.359375 4.238281 31.144531 2.027344 C 30.777344 2.015625 30.40625 2 30.039062 2 C 13.449219 2 0 15.40625 0 31.941406 C 0 48.476562 13.449219 61.878906 30.039062 61.878906 C 30.410156 61.878906 30.777344 61.867188 31.144531 61.851562 C 16.359375 59.640625 4.996094 47.070312 4.996094 31.941406 Z M 4.996094 31.941406 "/>
<path style=" stroke:none;fill-rule:nonzero;fill:url(#linear0);" d="M 54.828125 30.335938 C 54.730469 29.152344 54.53125 27.996094 54.234375 26.878906 L 16.441406 26.878906 C 16.144531 27.996094 15.941406 29.148438 15.847656 30.335938 Z M 54.828125 30.335938 "/>
<path style=" stroke:none;fill-rule:nonzero;fill:url(#linear1);" d="M 54.828125 33.542969 L 15.847656 33.542969 C 15.945312 34.726562 16.140625 35.882812 16.441406 36.996094 L 54.234375 36.996094 C 54.535156 35.882812 54.730469 34.726562 54.828125 33.542969 Z M 54.828125 33.542969 "/>
<path style=" stroke:none;fill-rule:nonzero;fill:url(#linear2);" d="M 35.335938 51.5 C 43.1875 51.5 49.953125 46.875 53.066406 40.203125 L 17.605469 40.203125 C 20.722656 46.875 27.488281 51.5 35.335938 51.5 Z M 35.335938 51.5 "/>
<path style=" stroke:none;fill-rule:nonzero;fill:rgb(100%,100%,100%);fill-opacity:1;" d="M 63.59375 36.996094 C 63.398438 38.089844 63.148438 39.160156 62.832031 40.203125 L 7.796875 40.203125 C 7.484375 39.160156 7.265625 38.089844 7.074219 36.996094 Z M 63.925781 30.335938 C 63.957031 30.886719 63.976562 31.441406 63.976562 32 C 63.976562 32.519531 63.960938 33.03125 63.933594 33.542969 L 6.691406 33.542969 C 6.664062 33.03125 6.648438 32.519531 6.648438 32 C 6.648438 31.441406 6.667969 30.886719 6.699219 30.335938 Z M 62.644531 23.671875 C 62.964844 24.71875 63.21875 25.789062 63.417969 26.882812 L 7.074219 26.882812 C 7.269531 25.789062 7.476562 24.71875 7.796875 23.671875 Z M 62.644531 23.671875 "/>
</g>
</svg>
