<?xml version="1.0" encoding="UTF-8"?>
<svg xmlns="http://www.w3.org/2000/svg" xmlns:xlink="http://www.w3.org/1999/xlink" width="64px" height="64px" viewBox="0 0 64 64" version="1.1">
<g id="surface1">
<path style=" stroke:none;fill-rule:evenodd;fill:rgb(100%,36.470588%,0.392157%);fill-opacity:1;" d="M 11.800781 37.695312 C 11.105469 39.359375 10.71875 41.136719 10.65625 42.941406 C 10.75 44.054688 11.132812 45.125 11.757812 46.046875 C 12.9375 47.414062 14.355469 48.554688 15.945312 49.410156 L 26.199219 56.238281 C 27.460938 57.242188 28.882812 58.03125 30.398438 58.574219 C 31.386719 58.808594 32.414062 58.808594 33.398438 58.574219 C 34.929688 58.039062 36.359375 57.253906 37.632812 56.253906 L 48 49.421875 C 49.605469 48.5625 51.039062 47.417969 52.234375 46.046875 C 52.867188 45.117188 53.246094 44.039062 53.335938 42.921875 C 53.265625 41.101562 52.867188 39.308594 52.160156 37.632812 L 43.09375 9.101562 C 42.890625 8.179688 42.527344 7.296875 42.015625 6.503906 C 41.640625 6.050781 41.160156 5.699219 40.613281 5.480469 C 39.703125 5.234375 38.753906 5.152344 37.8125 5.238281 L 26.011719 5.238281 C 25.070312 5.152344 24.121094 5.238281 23.210938 5.488281 C 22.664062 5.703125 22.179688 6.054688 21.808594 6.511719 C 21.300781 7.308594 20.9375 8.1875 20.738281 9.113281 Z M 38.28125 11.292969 C 38.703125 11.964844 39 12.703125 39.160156 13.480469 L 46.945312 39.046875 C 44.023438 37.53125 40.882812 36.46875 37.640625 35.902344 L 32.582031 18.78125 C 32.519531 18.578125 32.359375 18.414062 32.15625 18.347656 C 31.953125 18.28125 31.730469 18.316406 31.554688 18.445312 C 31.441406 18.527344 31.359375 18.644531 31.316406 18.78125 L 26.316406 35.894531 C 23.058594 36.464844 19.90625 37.527344 16.96875 39.054688 L 24.785156 13.484375 C 24.945312 12.710938 25.246094 11.96875 25.671875 11.296875 C 25.980469 10.917969 26.378906 10.621094 26.835938 10.4375 C 27.597656 10.230469 28.394531 10.164062 29.183594 10.238281 L 34.769531 10.238281 C 35.558594 10.164062 36.355469 10.230469 37.121094 10.4375 C 37.578125 10.621094 37.980469 10.921875 38.289062 11.300781 Z M 32.253906 42.121094 C 34.660156 42.257812 37.046875 41.613281 39.054688 40.273438 C 39.515625 41.722656 39.367188 43.300781 38.640625 44.636719 C 37.902344 45.890625 36.832031 46.917969 35.546875 47.601562 C 34.199219 48.457031 33.039062 49.199219 33.039062 51.175781 C 33.035156 51.808594 33.179688 52.433594 33.457031 53.003906 C 31.597656 52.230469 30.386719 50.414062 30.386719 48.402344 L 30.386719 48.28125 C 30.386719 46.914062 30.386719 45.230469 28.460938 45.230469 C 28.195312 45.230469 27.929688 45.285156 27.679688 45.386719 C 27.179688 45.59375 26.785156 45.988281 26.574219 46.488281 C 26.472656 46.734375 26.417969 47 26.417969 47.269531 C 25.097656 45.828125 24.390625 43.933594 24.441406 41.980469 C 24.433594 41.136719 24.550781 40.296875 24.792969 39.484375 C 25.59375 41 28.632812 42.125 32.253906 42.125 Z M 32.253906 42.121094 "/>
</g>
</svg>
