<?xml version="1.0" encoding="UTF-8"?>
<svg xmlns="http://www.w3.org/2000/svg" xmlns:xlink="http://www.w3.org/1999/xlink" width="px" height="64px" viewBox="0 0 64 64" version="1.1">
<g id="surface1">
<path style=" stroke:none;fill-rule:nonzero;fill:rgb(100%,42.352942%,21.568628%);fill-opacity:1;" d="M 52.457031 7.367188 C 58.542969 12.5 62.632812 19.632812 63.683594 27.5625 C 64.367188 37.445312 62.347656 45.679688 55.898438 53.324219 C 50.6875 59.089844 43.246094 63.253906 35.394531 63.75 C 34.28125 63.777344 33.171875 63.789062 32.058594 63.78125 C 31.667969 63.78125 31.273438 63.777344 30.867188 63.777344 C 28.15625 63.742188 25.71875 63.585938 23.128906 62.734375 C 22.933594 62.667969 22.734375 62.605469 22.53125 62.542969 C 14.035156 59.78125 7.480469 54.203125 3.316406 46.285156 C -0.195312 38.84375 -1.109375 29.726562 1.585938 21.863281 C 4.613281 13.445312 10.554688 6.753906 18.617188 2.878906 C 29.9375 -2.253906 42.828125 -0.191406 52.457031 7.367188 Z M 52.457031 7.367188 "/>
<path style=" stroke:none;fill-rule:nonzero;fill:rgb(100%,98.823529%,98.431373%);fill-opacity:1;" d="M 30.851562 35.664062 C 32.035156 35.859375 32.507812 36.492188 33.265625 37.386719 C 31.617188 41.671875 23.839844 44.554688 19.960938 46.574219 C 20.066406 47.621094 20.167969 48.664062 20.277344 49.742188 C 19.113281 49.160156 18.542969 48.710938 17.664062 47.800781 C 17.441406 47.574219 17.214844 47.34375 16.984375 47.105469 C 16.816406 46.929688 16.648438 46.753906 16.476562 46.574219 C 18.132812 44.578125 19.902344 42.695312 21.710938 40.839844 C 22.0625 40.476562 22.410156 40.113281 22.753906 39.746094 C 26.222656 36.050781 26.222656 36.050781 29.058594 35.820312 C 29.84375 35.8125 29.84375 35.8125 30.851562 35.664062 Z M 30.851562 35.664062 "/>
<path style=" stroke:none;fill-rule:nonzero;fill:rgb(100%,98.823529%,98.431373%);fill-opacity:1;" d="M 41.820312 19.644531 C 41.820312 20.59375 41.820312 20.59375 41.351562 21.089844 C 41.136719 21.261719 40.925781 21.4375 40.703125 21.613281 C 39.363281 22.738281 38.125 23.933594 36.890625 25.175781 C 36.570312 25.5 36.570312 25.5 36.242188 25.828125 C 35.566406 26.503906 34.890625 27.183594 34.21875 27.863281 C 33.757812 28.324219 33.292969 28.789062 32.832031 29.25 C 31.710938 30.378906 30.585938 31.503906 29.464844 32.632812 C 29.09375 32.347656 28.722656 32.054688 28.355469 31.761719 C 28.046875 31.519531 28.046875 31.519531 27.734375 31.273438 C 27.246094 30.734375 27.246094 30.734375 27.246094 29.464844 C 27.839844 28.824219 28.414062 28.269531 29.070312 27.703125 C 29.449219 27.363281 29.832031 27.027344 30.210938 26.6875 C 30.402344 26.519531 30.597656 26.347656 30.796875 26.171875 C 31.328125 25.695312 31.847656 25.210938 32.363281 24.71875 C 35.191406 22.023438 37.824219 19.578125 41.820312 19.644531 Z M 41.820312 19.644531 "/>
<path style=" stroke:none;fill-rule:nonzero;fill:rgb(100%,98.039216%,97.254902%);fill-opacity:1;" d="M 43.40625 20.910156 C 44 21.265625 44 21.265625 44.355469 21.863281 C 44.292969 22.992188 44.179688 23.597656 43.4375 24.472656 C 43.179688 24.6875 42.921875 24.90625 42.652344 25.128906 C 42.367188 25.375 42.078125 25.617188 41.78125 25.871094 C 40.628906 26.8125 39.476562 27.75 38.316406 28.683594 C 37.070312 29.730469 35.878906 30.832031 34.695312 31.949219 C 33.722656 32.859375 32.734375 33.71875 31.683594 34.535156 C 30.679688 34.101562 30.417969 33.90625 29.78125 32.949219 C 31.460938 31.230469 33.148438 29.515625 34.839844 27.804688 C 35.414062 27.222656 35.988281 26.640625 36.558594 26.054688 C 37.378906 25.214844 38.207031 24.378906 39.035156 23.542969 C 39.289062 23.28125 39.542969 23.019531 39.808594 22.746094 C 40.167969 22.386719 40.167969 22.386719 40.535156 22.015625 C 40.746094 21.800781 40.957031 21.589844 41.175781 21.367188 C 41.980469 20.796875 42.4375 20.792969 43.40625 20.910156 Z M 43.40625 20.910156 "/>
<path style=" stroke:none;fill-rule:nonzero;fill:rgb(100%,98.039216%,97.254902%);fill-opacity:1;" d="M 47.367188 12.136719 C 47.734375 12.175781 47.734375 12.175781 48.109375 12.214844 C 48.792969 12.355469 48.792969 12.355469 49.742188 12.988281 C 49.238281 14.226562 48.433594 14.996094 47.484375 15.921875 C 47.195312 16.203125 46.910156 16.484375 46.613281 16.777344 C 46.28125 17.097656 46.28125 17.097656 45.941406 17.425781 C 46.386719 18.445312 46.914062 19.085938 47.722656 19.839844 C 48.328125 20.410156 48.328125 20.410156 48.792969 20.910156 C 48.792969 21.121094 48.792969 21.328125 48.792969 21.542969 C 47.644531 21.925781 46.832031 21.964844 45.625 21.863281 C 43.953125 20.976562 42.746094 19.875 42.136719 18.058594 C 41.980469 16.117188 42.105469 15.167969 43.40625 13.625 C 44.714844 12.445312 45.605469 11.941406 47.367188 12.136719 Z M 47.367188 12.136719 "/>
<path style=" stroke:none;fill-rule:nonzero;fill:rgb(100%,97.647059%,96.862745%);fill-opacity:1;" d="M 44.039062 24.078125 C 44.355469 25.03125 44.355469 25.03125 44.105469 25.730469 C 42.105469 29.464844 39.195312 32.453125 36.238281 35.445312 C 36.046875 35.640625 35.855469 35.835938 35.65625 36.035156 C 34.296875 37.386719 34.296875 37.386719 33.585938 37.386719 C 33.039062 36.765625 32.511719 36.132812 32 35.484375 C 32.488281 34.277344 33.230469 33.59375 34.199219 32.734375 C 34.351562 32.59375 34.507812 32.457031 34.667969 32.3125 C 35.6875 31.40625 36.738281 30.539062 37.800781 29.683594 C 39.984375 27.925781 42.003906 26 44.039062 24.078125 Z M 44.039062 24.078125 "/>
<path style=" stroke:none;fill-rule:nonzero;fill:rgb(100%,93.333334%,90.980393%);fill-opacity:1;" d="M 50.058594 13.941406 C 51.289062 14.496094 51.289062 14.496094 51.644531 15.207031 C 51.886719 17.394531 51.632812 18.789062 50.375 20.59375 C 49.109375 20.59375 49.109375 20.59375 48.429688 20.039062 C 48.210938 19.804688 47.988281 19.570312 47.761719 19.328125 C 47.539062 19.089844 47.316406 18.855469 47.085938 18.613281 C 46.832031 18.339844 46.832031 18.339844 46.574219 18.058594 C 47.0625 16.894531 47.773438 16.164062 48.671875 15.289062 C 48.933594 15.035156 49.191406 14.78125 49.457031 14.519531 C 49.753906 14.234375 49.753906 14.234375 50.058594 13.941406 Z M 50.058594 13.941406 "/>
<path style=" stroke:none;fill-rule:nonzero;fill:rgb(100%,49.019608%,30.588236%);fill-opacity:1;" d="M 41.820312 20.59375 C 41.386719 21.574219 40.886719 22.242188 40.128906 22.992188 C 39.910156 23.210938 39.695312 23.425781 39.472656 23.648438 C 39.242188 23.875 39.007812 24.105469 38.769531 24.339844 C 38.53125 24.578125 38.292969 24.816406 38.046875 25.0625 C 37.289062 25.816406 36.523438 26.570312 35.761719 27.328125 C 35.246094 27.839844 34.730469 28.351562 34.214844 28.867188 C 32.949219 30.125 31.683594 31.378906 30.414062 32.632812 C 30.207031 32.425781 29.996094 32.214844 29.78125 32 C 31.394531 30.375 33.003906 28.75 34.621094 27.125 C 35.171875 26.574219 35.71875 26.019531 36.265625 25.46875 C 37.054688 24.671875 37.84375 23.882812 38.632812 23.089844 C 39 22.714844 39 22.714844 39.378906 22.332031 C 39.605469 22.105469 39.832031 21.875 40.070312 21.640625 C 40.371094 21.335938 40.371094 21.335938 40.679688 21.027344 C 41.1875 20.59375 41.1875 20.59375 41.820312 20.59375 Z M 41.820312 20.59375 "/>
<path style=" stroke:none;fill-rule:nonzero;fill:rgb(100%,48.627451%,30.19608%);fill-opacity:1;" d="M 44.039062 23.445312 C 44.25 23.550781 44.457031 23.65625 44.671875 23.761719 C 44.320312 24.464844 43.988281 24.746094 43.386719 25.246094 C 42.585938 25.917969 41.792969 26.597656 41.011719 27.289062 C 39.816406 28.332031 38.613281 29.363281 37.40625 30.394531 C 34.476562 32.867188 34.476562 32.867188 31.683594 35.484375 C 31.683594 35.277344 31.683594 35.066406 31.683594 34.851562 C 31.472656 34.746094 31.265625 34.640625 31.050781 34.535156 C 31.238281 34.386719 31.425781 34.242188 31.621094 34.089844 C 33.421875 32.671875 35.128906 31.183594 36.816406 29.628906 C 37.960938 28.601562 39.148438 27.636719 40.34375 26.671875 C 41.609375 25.632812 42.828125 24.542969 44.039062 23.445312 Z M 44.039062 23.445312 "/>
<path style=" stroke:none;fill-rule:nonzero;fill:rgb(100%,94.117647%,91.764706%);fill-opacity:1;" d="M 15.839844 46.890625 C 16.199219 47.179688 16.554688 47.46875 16.910156 47.761719 C 17.109375 47.925781 17.308594 48.085938 17.511719 48.253906 C 18.058594 48.792969 18.058594 48.792969 18.691406 50.058594 C 17.019531 50.058594 15.347656 50.058594 13.625 50.058594 C 13.625 49.109375 13.625 49.109375 14.109375 48.53125 C 14.316406 48.335938 14.519531 48.140625 14.734375 47.941406 C 14.9375 47.742188 15.144531 47.546875 15.355469 47.34375 C 15.597656 47.121094 15.597656 47.121094 15.839844 46.890625 Z M 15.839844 46.890625 "/>
<path style=" stroke:none;fill-rule:nonzero;fill:rgb(100%,92.941177%,90.588236%);fill-opacity:1;" d="M 25.980469 30.734375 C 27.03125 31.226562 27.742188 31.75 28.515625 32.632812 C 28.515625 32.84375 28.515625 33.050781 28.515625 33.265625 C 27.796875 33.425781 27.074219 33.585938 26.355469 33.742188 C 25.957031 33.832031 25.554688 33.917969 25.140625 34.011719 C 24.078125 34.21875 24.078125 34.21875 23.128906 34.21875 C 23.574219 33.199219 24.113281 32.53125 24.910156 31.761719 C 25.109375 31.566406 25.3125 31.375 25.515625 31.171875 C 25.746094 30.957031 25.746094 30.957031 25.980469 30.734375 Z M 25.980469 30.734375 "/>
<path style=" stroke:none;fill-rule:nonzero;fill:rgb(100%,46.666667%,27.058825%);fill-opacity:1;" d="M 49.742188 12.988281 C 49.847656 13.199219 49.953125 13.410156 50.058594 13.625 C 50.269531 13.726562 50.476562 13.832031 50.691406 13.941406 C 50.523438 14.085938 50.355469 14.230469 50.183594 14.382812 C 49.050781 15.363281 47.929688 16.34375 46.890625 17.425781 C 47.324219 18.375 47.824219 19.101562 48.515625 19.882812 C 48.6875 20.074219 48.855469 20.269531 49.03125 20.46875 C 49.160156 20.617188 49.292969 20.761719 49.425781 20.910156 C 49.214844 21.121094 49.007812 21.328125 48.792969 21.542969 C 48.644531 21.371094 48.492188 21.199219 48.339844 21.023438 C 48.144531 20.796875 47.945312 20.570312 47.742188 20.335938 C 47.546875 20.113281 47.351562 19.886719 47.152344 19.65625 C 46.660156 19.105469 46.152344 18.578125 45.625 18.058594 C 46.125 16.832031 46.914062 16.078125 47.863281 15.167969 C 48.9375 14.179688 48.9375 14.179688 49.742188 12.988281 Z M 49.742188 12.988281 "/>
<path style=" stroke:none;fill-rule:nonzero;fill:rgb(100%,94.509804%,92.54902%);fill-opacity:1;" d="M 28.832031 33.902344 C 29.445312 34 29.445312 34 30.097656 34.21875 C 30.203125 34.53125 30.308594 34.84375 30.414062 35.167969 C 29.003906 35.324219 29.003906 35.324219 27.5625 35.484375 C 27.984375 34.960938 28.402344 34.441406 28.832031 33.902344 Z M 28.832031 33.902344 "/>
</g>
</svg>
