<?xml version="1.0" encoding="UTF-8"?>
<svg xmlns="http://www.w3.org/2000/svg" xmlns:xlink="http://www.w3.org/1999/xlink" width="px" height="64px" viewBox="0 0 64 64" version="1.1">
<g id="surface1">
<path style=" stroke:none;fill-rule:nonzero;fill:rgb(99.215686%,99.215686%,99.215686%);fill-opacity:1;" d="M 47.40625 3.90625 C 47.4375 3.921875 47.46875 3.941406 47.5 3.957031 C 48.015625 4.238281 48.523438 4.535156 49.023438 4.84375 C 49.117188 4.902344 49.207031 4.957031 49.296875 5.011719 C 49.730469 5.273438 50.148438 5.554688 50.5625 5.84375 C 50.585938 5.859375 50.613281 5.878906 50.640625 5.898438 C 51.304688 6.359375 51.941406 6.847656 52.570312 7.359375 C 52.617188 7.402344 52.667969 7.441406 52.714844 7.480469 C 53.054688 7.753906 53.378906 8.039062 53.699219 8.332031 C 53.765625 8.390625 53.832031 8.453125 53.902344 8.511719 C 54.3125 8.871094 54.695312 9.257812 55.082031 9.640625 C 55.105469 9.664062 55.125 9.683594 55.148438 9.707031 C 55.214844 9.769531 55.277344 9.835938 55.339844 9.898438 C 55.359375 9.917969 55.378906 9.9375 55.398438 9.957031 C 55.515625 10.074219 55.625 10.191406 55.730469 10.316406 C 55.816406 10.414062 55.90625 10.507812 55.996094 10.601562 C 56.148438 10.765625 56.296875 10.933594 56.433594 11.109375 C 56.5 11.1875 56.566406 11.261719 56.636719 11.335938 C 56.765625 11.476562 56.878906 11.621094 56.996094 11.773438 C 57.085938 11.886719 57.179688 12 57.273438 12.113281 C 57.644531 12.554688 57.976562 13.03125 58.3125 13.5 C 58.332031 13.523438 58.347656 13.550781 58.367188 13.578125 C 58.617188 13.929688 58.863281 14.289062 59.09375 14.65625 C 59.113281 14.683594 59.128906 14.710938 59.148438 14.738281 C 59.59375 15.445312 60.011719 16.167969 60.40625 16.90625 C 60.421875 16.933594 60.4375 16.964844 60.453125 16.992188 C 61.300781 18.578125 61.992188 20.234375 62.5625 21.9375 C 62.574219 21.972656 62.574219 21.972656 62.585938 22.007812 C 63.363281 24.332031 64.011719 26.847656 64.007812 29.308594 C 64.007812 29.378906 64.007812 29.445312 64.007812 29.515625 C 64.007812 29.699219 64.007812 29.882812 64.007812 30.066406 C 64.007812 30.21875 64.007812 30.375 64.007812 30.527344 C 64.011719 30.894531 64.011719 31.257812 64.011719 31.621094 C 64.007812 31.996094 64.011719 32.367188 64.011719 32.742188 C 64.011719 33.066406 64.011719 33.386719 64.011719 33.710938 C 64.011719 33.902344 64.011719 34.09375 64.011719 34.285156 C 64.019531 37.171875 63.386719 39.9375 60.238281 47.691406 C 60.183594 47.785156 60.132812 47.878906 60.082031 47.972656 C 59.546875 48.941406 58.953125 49.878906 58.3125 50.78125 C 58.285156 50.820312 58.253906 50.863281 58.226562 50.902344 C 57.835938 51.453125 57.433594 51.992188 57.003906 52.511719 C 56.960938 52.566406 56.914062 52.621094 56.871094 52.675781 C 56.609375 52.996094 56.339844 53.3125 56.0625 53.617188 C 56.003906 53.679688 55.949219 53.746094 55.894531 53.808594 C 55.746094 53.980469 55.589844 54.144531 55.4375 54.3125 C 55.417969 54.332031 55.402344 54.351562 55.382812 54.371094 C 55.121094 54.65625 54.851562 54.933594 54.578125 55.207031 C 54.550781 55.234375 54.519531 55.265625 54.492188 55.292969 C 54.347656 55.4375 54.203125 55.574219 54.050781 55.703125 C 53.988281 55.757812 53.933594 55.816406 53.875 55.875 C 53.777344 55.976562 53.675781 56.066406 53.570312 56.160156 C 53.488281 56.226562 53.410156 56.300781 53.335938 56.371094 C 53.195312 56.5 53.050781 56.617188 52.90625 56.738281 C 52.800781 56.820312 52.699219 56.910156 52.601562 56.996094 C 52.402344 57.167969 52.199219 57.328125 51.992188 57.488281 C 51.9375 57.53125 51.886719 57.570312 51.832031 57.613281 C 51.554688 57.835938 51.269531 58.046875 50.980469 58.257812 C 50.914062 58.308594 50.847656 58.355469 50.78125 58.40625 C 49.628906 59.261719 48.378906 60 47.113281 60.675781 C 47.042969 60.714844 46.972656 60.75 46.902344 60.789062 C 44.507812 62.109375 41.707031 62.933594 37.679688 63.824219 C 37.660156 63.828125 37.636719 63.832031 37.617188 63.835938 C 37.480469 63.859375 37.34375 63.875 37.207031 63.894531 C 37.152344 63.902344 37.097656 63.910156 37.042969 63.917969 C 36.246094 64.03125 35.441406 64.015625 34.636719 64.015625 C 34.488281 64.011719 34.339844 64.011719 34.191406 64.015625 C 34.167969 64.015625 34.148438 64.015625 34.125 64.015625 C 34.082031 64.015625 34.039062 64.015625 33.996094 64.015625 C 33.589844 64.015625 33.183594 64.015625 32.777344 64.015625 C 32.410156 64.011719 32.042969 64.015625 31.675781 64.015625 C 31.292969 64.015625 30.914062 64.015625 30.53125 64.015625 C 30.320312 64.015625 30.105469 64.015625 29.894531 64.015625 C 29.03125 64.019531 28.183594 64.011719 27.332031 63.890625 C 27.179688 63.871094 27.027344 63.851562 26.871094 63.832031 C 24.265625 63.511719 21.667969 62.601562 16.90625 60.34375 C 16.871094 60.324219 16.839844 60.304688 16.804688 60.285156 C 16.285156 59.996094 15.78125 59.695312 15.28125 59.375 C 15.257812 59.359375 15.234375 59.34375 15.207031 59.328125 C 13.980469 58.546875 12.8125 57.675781 11.707031 56.730469 C 11.652344 56.6875 11.601562 56.640625 11.546875 56.597656 C 11.328125 56.410156 11.117188 56.222656 10.90625 56.023438 C 10.820312 55.945312 10.734375 55.867188 10.648438 55.789062 C 10.527344 55.679688 10.410156 55.566406 10.292969 55.449219 C 10.230469 55.386719 10.167969 55.332031 10.101562 55.273438 C 9.960938 55.152344 9.832031 55.023438 9.703125 54.890625 C 9.667969 54.859375 9.667969 54.859375 9.632812 54.824219 C 9.507812 54.699219 9.386719 54.566406 9.269531 54.429688 C 9.203125 54.355469 9.132812 54.289062 9.0625 54.21875 C 8.953125 54.109375 8.847656 53.996094 8.746094 53.878906 C 8.675781 53.800781 8.605469 53.722656 8.535156 53.648438 C 8.40625 53.503906 8.285156 53.359375 8.164062 53.210938 C 8.09375 53.125 8.023438 53.046875 7.953125 52.96875 C 7.839844 52.84375 7.734375 52.71875 7.632812 52.585938 C 7.582031 52.523438 7.53125 52.460938 7.480469 52.398438 C 7.070312 51.894531 6.6875 51.371094 6.3125 50.84375 C 6.285156 50.804688 6.285156 50.804688 6.257812 50.769531 C 5.667969 49.9375 5.128906 49.074219 4.625 48.1875 C 4.597656 48.136719 4.597656 48.136719 4.566406 48.085938 C 4.011719 47.109375 3.503906 46.097656 3.0625 45.0625 C 3.046875 45.03125 3.035156 44.996094 3.019531 44.960938 C 2.914062 44.714844 2.816406 44.46875 2.71875 44.21875 C 2.707031 44.183594 2.707031 44.183594 2.691406 44.152344 C 2.238281 42.984375 1.847656 41.804688 1.53125 40.59375 C 1.523438 40.570312 1.519531 40.546875 1.511719 40.523438 C 1.09375 38.921875 0.882812 37.304688 0.75 35.65625 C 0.75 35.632812 0.746094 35.613281 0.746094 35.589844 C 0.621094 34.097656 0.605469 32.589844 0.625 31.09375 C 0.625 31.066406 0.625 31.039062 0.625 31.011719 C 0.65625 28.1875 0.992188 25.460938 4.46875 16.46875 C 4.484375 16.441406 4.5 16.410156 4.515625 16.382812 C 4.902344 15.6875 5.316406 15.015625 5.757812 14.355469 C 5.78125 14.324219 5.78125 14.324219 5.804688 14.285156 C 6.109375 13.832031 6.417969 13.378906 6.753906 12.945312 C 6.773438 12.917969 6.796875 12.890625 6.816406 12.863281 C 6.859375 12.808594 6.902344 12.753906 6.945312 12.699219 C 6.992188 12.632812 7.042969 12.570312 7.089844 12.503906 C 7.320312 12.203125 7.5625 11.910156 7.808594 11.621094 C 7.898438 11.515625 7.988281 11.40625 8.074219 11.296875 C 8.203125 11.140625 8.335938 10.996094 8.476562 10.847656 C 8.5625 10.757812 8.644531 10.664062 8.726562 10.570312 C 9.089844 10.15625 9.480469 9.765625 9.867188 9.378906 C 9.953125 9.292969 10.035156 9.210938 10.117188 9.125 C 10.171875 9.074219 10.226562 9.019531 10.28125 8.964844 C 10.304688 8.941406 10.332031 8.914062 10.355469 8.890625 C 10.484375 8.761719 10.621094 8.636719 10.757812 8.515625 C 10.820312 8.460938 10.878906 8.40625 10.9375 8.351562 C 10.957031 8.332031 10.980469 8.3125 11 8.292969 C 11.019531 8.273438 11.042969 8.253906 11.0625 8.234375 C 11.226562 8.078125 11.390625 7.929688 11.5625 7.78125 C 11.582031 7.765625 11.597656 7.75 11.617188 7.734375 C 11.855469 7.527344 12.097656 7.324219 12.34375 7.125 C 12.382812 7.09375 12.421875 7.0625 12.457031 7.03125 C 12.726562 6.808594 13 6.597656 13.28125 6.390625 C 13.34375 6.34375 13.402344 6.296875 13.464844 6.253906 C 14.230469 5.667969 15.035156 5.121094 15.867188 4.632812 C 15.933594 4.59375 16 4.554688 16.066406 4.515625 C 17.066406 3.921875 18.09375 3.378906 19.15625 2.90625 C 19.1875 2.890625 19.1875 2.890625 19.21875 2.878906 C 21.089844 2.050781 23.023438 1.402344 25 0.875 C 25.023438 0.867188 25.046875 0.863281 25.070312 0.855469 C 26.582031 0.457031 28.09375 0.324219 29.648438 0.296875 C 29.683594 0.292969 29.71875 0.292969 29.75 0.292969 C 36.476562 0.167969 36.476562 0.167969 47.40625 3.90625 Z M 47.40625 3.90625 "/>
<path style=" stroke:none;fill-rule:nonzero;fill:rgb(27.058825%,20.784314%,18.431373%);fill-opacity:1;" d="M 39.195312 7.246094 C 39.234375 7.246094 39.277344 7.246094 39.316406 7.246094 C 39.40625 7.246094 39.492188 7.246094 39.578125 7.246094 C 39.664062 7.246094 39.75 7.242188 39.839844 7.242188 C 41.503906 7.234375 42.902344 7.523438 44.164062 8.691406 C 44.21875 8.75 44.21875 8.75 44.21875 8.8125 C 43.820312 8.824219 43.453125 8.714844 43.070312 8.617188 C 42.613281 8.5 42.160156 8.382812 41.6875 8.34375 C 41.65625 8.339844 41.621094 8.339844 41.589844 8.335938 C 41.328125 8.3125 41.066406 8.308594 40.804688 8.308594 C 40.742188 8.308594 40.742188 8.308594 40.683594 8.308594 C 39.621094 8.316406 38.605469 8.523438 37.625 8.9375 C 37.582031 8.953125 37.582031 8.953125 37.539062 8.972656 C 36.339844 9.484375 35.28125 10.257812 34.328125 11.144531 C 34.28125 11.1875 34.238281 11.226562 34.191406 11.269531 C 34.003906 11.4375 33.824219 11.609375 33.648438 11.789062 C 33.617188 11.816406 33.617188 11.816406 33.585938 11.847656 C 33.445312 11.988281 33.316406 12.132812 33.1875 12.28125 C 33.15625 12.316406 33.128906 12.347656 33.097656 12.382812 C 32.277344 13.335938 31.539062 14.347656 30.90625 15.4375 C 30.894531 15.460938 30.878906 15.484375 30.863281 15.507812 C 30.269531 16.523438 29.769531 17.578125 29.375 18.6875 C 29.367188 18.714844 29.355469 18.738281 29.347656 18.765625 C 29.09375 19.460938 28.894531 20.203125 28.8125 20.9375 C 28.808594 20.960938 28.808594 20.988281 28.804688 21.011719 C 28.726562 21.773438 28.691406 22.691406 29.09375 23.375 C 29.167969 23.457031 29.167969 23.457031 29.25 23.53125 C 29.269531 23.550781 29.289062 23.566406 29.308594 23.585938 C 30.054688 24.195312 31.332031 24.542969 32.28125 24.5 C 32.25 24.402344 32.21875 24.375 32.128906 24.324219 C 32.089844 24.304688 32.050781 24.289062 32.011719 24.269531 C 31.980469 24.257812 31.980469 24.257812 31.949219 24.242188 C 31.839844 24.195312 31.730469 24.148438 31.621094 24.101562 C 31.007812 23.847656 30.484375 23.46875 30.21875 22.84375 C 29.964844 22.21875 30.167969 21.472656 30.40625 20.875 C 30.90625 19.710938 31.664062 18.679688 32.464844 17.707031 C 32.507812 17.652344 32.550781 17.597656 32.597656 17.542969 C 32.867188 17.210938 33.148438 16.886719 33.4375 16.566406 C 33.5625 16.429688 33.683594 16.292969 33.800781 16.152344 C 33.976562 15.949219 34.152344 15.746094 34.335938 15.550781 C 34.429688 15.449219 34.519531 15.347656 34.605469 15.238281 C 34.738281 15.074219 34.878906 14.921875 35.027344 14.769531 C 35.183594 14.601562 35.328125 14.429688 35.46875 14.25 C 35.480469 14.238281 35.488281 14.230469 35.5 14.21875 C 35.507812 13.988281 35.488281 13.765625 35.464844 13.539062 C 35.457031 13.460938 35.453125 13.382812 35.445312 13.304688 C 35.433594 13.183594 35.421875 13.0625 35.410156 12.941406 C 35.289062 11.652344 35.289062 11.652344 35.503906 11.339844 C 35.609375 11.234375 35.710938 11.175781 35.84375 11.117188 C 35.878906 11.097656 35.878906 11.097656 35.914062 11.082031 C 36.351562 10.871094 36.957031 10.914062 37.417969 11.050781 C 37.777344 11.183594 38.089844 11.339844 38.40625 11.5625 C 38.699219 11.761719 38.96875 11.886719 39.316406 11.972656 C 39.335938 11.976562 39.355469 11.984375 39.375 11.988281 C 39.871094 12.101562 40.363281 12.105469 40.867188 12.101562 C 40.90625 12.101562 40.941406 12.101562 40.976562 12.101562 C 41.5 12.101562 42.011719 12.085938 42.53125 12 C 42.570312 11.992188 42.609375 11.988281 42.648438 11.980469 C 42.996094 11.921875 43.335938 11.847656 43.675781 11.765625 C 44.183594 11.644531 44.6875 11.53125 45.203125 11.472656 C 45.269531 11.464844 45.335938 11.457031 45.402344 11.449219 C 45.859375 11.394531 46.308594 11.367188 46.765625 11.367188 C 46.855469 11.367188 46.945312 11.367188 47.03125 11.367188 C 47.863281 11.359375 47.863281 11.359375 48.15625 11.5625 C 48.265625 11.675781 48.316406 11.792969 48.375 11.9375 C 48.390625 11.964844 48.410156 11.992188 48.425781 12.023438 C 48.507812 12.160156 48.503906 12.289062 48.503906 12.449219 C 48.503906 12.46875 48.503906 12.492188 48.503906 12.515625 C 48.503906 12.5625 48.503906 12.609375 48.503906 12.65625 C 48.503906 12.730469 48.503906 12.800781 48.503906 12.871094 C 48.503906 13.085938 48.5 13.300781 48.476562 13.515625 C 48.464844 13.707031 48.488281 13.847656 48.5625 14.023438 C 48.574219 14.050781 48.582031 14.078125 48.59375 14.105469 C 48.640625 14.230469 48.691406 14.351562 48.742188 14.472656 C 49.019531 15.113281 49.15625 15.78125 49.25 16.46875 C 49.253906 16.507812 49.261719 16.546875 49.265625 16.585938 C 49.34375 17.136719 49.402344 17.691406 49.4375 18.25 C 49.457031 18.207031 49.480469 18.167969 49.5 18.125 C 49.511719 18.125 49.519531 18.125 49.53125 18.125 C 49.535156 18.644531 49.523438 19.160156 49.503906 19.679688 C 49.503906 19.714844 49.5 19.75 49.5 19.785156 C 49.433594 21.390625 49.433594 21.390625 49.3125 21.9375 C 49.308594 21.960938 49.304688 21.984375 49.296875 22.007812 C 49.132812 22.777344 48.828125 23.5 48.496094 24.214844 C 47.800781 25.71875 47.800781 25.71875 47.25 27.28125 C 47.242188 27.308594 47.234375 27.332031 47.226562 27.359375 C 46.984375 28.175781 47.128906 28.925781 47.398438 29.722656 C 47.4375 29.835938 47.46875 29.953125 47.503906 30.066406 C 47.601562 30.386719 47.722656 30.699219 47.84375 31.011719 C 48.039062 31.535156 48.238281 32.058594 48.378906 32.601562 C 48.386719 32.628906 48.394531 32.65625 48.402344 32.6875 C 48.417969 32.746094 48.433594 32.804688 48.449219 32.859375 C 48.464844 32.925781 48.484375 32.988281 48.5 33.054688 C 48.527344 33.148438 48.550781 33.242188 48.574219 33.335938 C 48.589844 33.386719 48.601562 33.441406 48.617188 33.492188 C 48.867188 34.449219 49.066406 35.421875 49.183594 36.40625 C 49.203125 36.574219 49.226562 36.738281 49.253906 36.90625 C 49.308594 37.261719 49.34375 37.617188 49.375 37.972656 C 49.378906 38.011719 49.378906 38.011719 49.382812 38.050781 C 49.480469 39.023438 49.511719 39.996094 49.507812 40.976562 C 49.503906 41.085938 49.503906 41.199219 49.503906 41.3125 C 49.503906 42.191406 49.492188 43.070312 49.417969 43.945312 C 49.414062 43.976562 49.414062 44.007812 49.410156 44.039062 C 49.308594 45.195312 49.144531 46.355469 48.882812 47.488281 C 48.792969 47.882812 48.710938 48.28125 48.640625 48.679688 C 48.628906 48.730469 48.628906 48.730469 48.621094 48.78125 C 48.175781 50.929688 48.175781 50.929688 48.710938 52.980469 C 48.753906 53.039062 48.800781 53.085938 48.859375 53.132812 C 48.980469 53.246094 49.039062 53.378906 49.109375 53.53125 C 49.15625 53.625 49.210938 53.703125 49.273438 53.789062 C 49.453125 54.046875 49.511719 54.273438 49.480469 54.59375 C 49.429688 54.894531 49.246094 55.199219 49.0625 55.4375 C 49.050781 55.457031 49.035156 55.472656 49.023438 55.492188 C 48.613281 56.019531 47.921875 56.269531 47.3125 56.46875 C 47.277344 56.480469 47.277344 56.480469 47.242188 56.492188 C 46.488281 56.730469 45.640625 56.847656 44.851562 56.851562 C 44.8125 56.851562 44.773438 56.851562 44.734375 56.851562 C 44.457031 56.855469 44.207031 56.816406 43.9375 56.75 C 43.910156 56.742188 43.882812 56.738281 43.855469 56.730469 C 43.789062 56.714844 43.71875 56.695312 43.648438 56.679688 C 43.625 56.671875 43.601562 56.664062 43.574219 56.65625 C 43.40625 56.613281 43.242188 56.5625 43.078125 56.507812 C 41.476562 55.992188 40.332031 55.769531 38.78125 56.546875 C 37.808594 57.035156 36.90625 57.128906 35.835938 57.128906 C 35.78125 57.128906 35.726562 57.128906 35.675781 57.128906 C 35.5625 57.128906 35.453125 57.128906 35.339844 57.128906 C 35.203125 57.128906 35.0625 57.128906 34.921875 57.128906 C 33.949219 57.128906 32.976562 57.113281 32.007812 57.042969 C 31.894531 57.035156 31.78125 57.03125 31.667969 57.023438 C 30.425781 56.9375 30.425781 56.9375 29.90625 56.78125 C 29.847656 56.769531 29.789062 56.761719 29.734375 56.753906 C 29.511719 56.71875 29.304688 56.652344 29.09375 56.582031 C 29.0625 56.570312 29.0625 56.570312 29.03125 56.5625 C 28.582031 56.410156 28.152344 56.226562 27.71875 56.03125 C 27.675781 56.011719 27.632812 55.992188 27.585938 55.972656 C 26.214844 55.351562 24.921875 54.507812 23.75 53.5625 C 23.71875 53.539062 23.691406 53.515625 23.660156 53.492188 C 23.355469 53.242188 23.054688 52.992188 22.765625 52.726562 C 22.699219 52.667969 22.632812 52.609375 22.566406 52.550781 C 22.253906 52.277344 21.949219 51.984375 21.65625 51.6875 C 21.621094 51.65625 21.621094 51.65625 21.589844 51.625 C 21.46875 51.503906 21.351562 51.378906 21.238281 51.246094 C 21.160156 51.152344 21.074219 51.066406 20.988281 50.976562 C 20.84375 50.820312 20.703125 50.660156 20.570312 50.492188 C 20.492188 50.398438 20.414062 50.304688 20.332031 50.210938 C 20.167969 50.015625 20.007812 49.816406 19.855469 49.617188 C 19.816406 49.566406 19.777344 49.515625 19.738281 49.464844 C 19.507812 49.167969 19.285156 48.867188 19.0625 48.5625 C 19.042969 48.539062 19.027344 48.515625 19.007812 48.488281 C 18.957031 48.417969 18.90625 48.347656 18.851562 48.273438 C 18.839844 48.253906 18.824219 48.234375 18.808594 48.214844 C 18.519531 47.816406 18.246094 47.40625 17.976562 46.996094 C 17.960938 46.972656 17.945312 46.953125 17.929688 46.929688 C 17.675781 46.550781 17.429688 46.167969 17.1875 45.78125 C 17.171875 45.757812 17.15625 45.730469 17.140625 45.703125 C 15.652344 43.335938 14.296875 40.84375 13.144531 38.296875 C 13.089844 38.179688 13.035156 38.0625 12.980469 37.945312 C 11.867188 35.542969 10.886719 33.0625 10.09375 30.53125 C 10.0625 30.4375 10.03125 30.34375 10 30.25 C 9.910156 29.964844 9.824219 29.683594 9.75 29.394531 C 9.714844 29.269531 9.679688 29.140625 9.644531 29.015625 C 9.617188 28.914062 9.589844 28.816406 9.5625 28.71875 C 9.554688 28.691406 9.546875 28.664062 9.539062 28.640625 C 9.34375 27.929688 9.167969 27.222656 9.03125 26.5 C 9.019531 26.4375 9.007812 26.378906 8.996094 26.316406 C 8.875 25.6875 8.789062 25.058594 8.734375 24.417969 C 8.730469 24.378906 8.730469 24.378906 8.726562 24.34375 C 8.683594 23.796875 8.660156 23.25 8.640625 22.699219 C 8.636719 22.621094 8.632812 22.542969 8.628906 22.464844 C 8.617188 22.132812 8.605469 21.800781 8.597656 21.46875 C 8.59375 21.378906 8.589844 21.289062 8.585938 21.199219 C 8.574219 20.820312 8.566406 20.441406 8.5625 20.0625 C 8.5625 20.023438 8.5625 19.980469 8.5625 19.941406 C 8.558594 19.652344 8.554688 19.363281 8.554688 19.078125 C 8.554688 18.980469 8.554688 18.882812 8.554688 18.789062 C 8.535156 16.503906 9.070312 13.871094 10.6875 12.15625 C 10.71875 12.117188 10.753906 12.078125 10.785156 12.039062 C 11.859375 10.816406 13.417969 10.109375 15.03125 10 C 15.917969 9.960938 16.769531 10.046875 17.625 10.28125 C 17.671875 10.292969 17.671875 10.292969 17.71875 10.308594 C 18.75 10.59375 19.921875 11.042969 20.71875 11.78125 C 20.734375 11.796875 20.75 11.8125 20.769531 11.828125 C 21.164062 12.195312 21.433594 12.617188 21.6875 13.09375 C 21.703125 13.125 21.71875 13.152344 21.738281 13.183594 C 22.128906 13.90625 22.429688 14.648438 22.6875 15.429688 C 22.695312 15.453125 22.703125 15.480469 22.710938 15.507812 C 22.808594 15.808594 22.898438 16.113281 22.972656 16.421875 C 23 16.527344 23.027344 16.628906 23.0625 16.734375 C 23.292969 17.535156 23.402344 18.386719 23.46875 19.21875 C 23.472656 19.25 23.472656 19.28125 23.476562 19.3125 C 23.589844 20.785156 23.613281 22.265625 23.652344 23.742188 C 23.660156 24.085938 23.667969 24.429688 23.679688 24.773438 C 23.679688 24.800781 23.679688 24.828125 23.679688 24.851562 C 23.683594 24.90625 23.683594 24.957031 23.683594 25.007812 C 23.6875 25.152344 23.691406 25.300781 23.695312 25.445312 C 23.699219 25.5625 23.703125 25.675781 23.703125 25.789062 C 23.707031 25.820312 23.707031 25.820312 23.707031 25.855469 C 23.710938 26.097656 23.71875 26.34375 23.726562 26.589844 C 23.726562 26.609375 23.730469 26.632812 23.730469 26.65625 C 23.734375 26.765625 23.738281 26.871094 23.738281 26.976562 C 23.75 27.328125 23.753906 27.679688 23.753906 28.03125 C 23.75 28.089844 23.75 28.148438 23.75 28.207031 C 23.75 28.347656 23.75 28.484375 23.75 28.625 C 23.769531 28.625 23.792969 28.625 23.8125 28.625 C 23.816406 28.597656 23.820312 28.574219 23.820312 28.546875 C 23.847656 28.414062 23.894531 28.304688 23.949219 28.183594 C 23.960938 28.15625 23.972656 28.132812 23.980469 28.109375 C 24.015625 28.027344 24.050781 27.949219 24.089844 27.867188 C 24.113281 27.8125 24.136719 27.757812 24.160156 27.703125 C 24.210938 27.59375 24.257812 27.480469 24.308594 27.371094 C 24.367188 27.242188 24.421875 27.109375 24.480469 26.976562 C 24.78125 26.296875 25.105469 25.628906 25.4375 24.964844 C 25.46875 24.902344 25.5 24.839844 25.53125 24.777344 C 25.75 24.335938 25.980469 23.902344 26.21875 23.46875 C 26.242188 23.425781 26.265625 23.382812 26.292969 23.335938 C 26.332031 23.261719 26.375 23.1875 26.417969 23.109375 C 26.5 22.960938 26.582031 22.808594 26.664062 22.660156 C 26.707031 22.582031 26.75 22.503906 26.792969 22.425781 C 27.046875 21.96875 27.257812 21.484375 27.457031 21 C 27.464844 20.976562 27.476562 20.949219 27.484375 20.925781 C 27.640625 20.535156 27.671875 20.160156 27.574219 19.753906 C 27.566406 19.730469 27.5625 19.707031 27.554688 19.683594 C 27.492188 19.425781 27.410156 19.171875 27.324219 18.921875 C 27.316406 18.898438 27.308594 18.875 27.300781 18.847656 C 27.171875 18.46875 27.03125 18.101562 26.882812 17.730469 C 26.738281 17.382812 26.605469 17.027344 26.53125 16.65625 C 26.523438 16.625 26.523438 16.625 26.519531 16.59375 C 26.363281 15.835938 26.28125 14.5625 26.71875 13.890625 C 26.875 13.699219 27.007812 13.660156 27.25 13.625 C 27.429688 13.613281 27.613281 13.621094 27.792969 13.625 C 27.945312 13.628906 28.101562 13.628906 28.253906 13.628906 C 28.449219 13.632812 28.640625 13.632812 28.835938 13.640625 C 28.992188 13.644531 29.152344 13.644531 29.308594 13.644531 C 29.367188 13.644531 29.429688 13.648438 29.488281 13.648438 C 29.808594 13.667969 29.808594 13.667969 30.09375 13.542969 C 30.203125 13.425781 30.289062 13.292969 30.371094 13.152344 C 30.417969 13.074219 30.472656 13.007812 30.527344 12.9375 C 30.542969 12.914062 30.5625 12.894531 30.578125 12.871094 C 30.59375 12.847656 30.613281 12.828125 30.628906 12.804688 C 30.78125 12.613281 30.78125 12.613281 30.929688 12.421875 C 31.121094 12.167969 31.320312 11.925781 31.53125 11.6875 C 31.558594 11.65625 31.582031 11.628906 31.609375 11.597656 C 31.796875 11.390625 31.996094 11.191406 32.195312 10.992188 C 32.21875 10.964844 32.246094 10.9375 32.273438 10.910156 C 32.425781 10.757812 32.585938 10.609375 32.75 10.46875 C 32.800781 10.421875 32.851562 10.378906 32.898438 10.332031 C 33.0625 10.183594 33.234375 10.042969 33.40625 9.90625 C 33.441406 9.878906 33.476562 9.847656 33.511719 9.820312 C 33.789062 9.59375 34.074219 9.382812 34.367188 9.175781 C 34.433594 9.125 34.503906 9.078125 34.570312 9.027344 C 35.984375 8.015625 37.425781 7.246094 39.195312 7.246094 Z M 39.195312 7.246094 "/>
<path style=" stroke:none;fill-rule:nonzero;fill:rgb(62.352943%,51.764709%,43.921569%);fill-opacity:1;" d="M 38.226562 11.4375 C 38.289062 11.480469 38.347656 11.519531 38.40625 11.5625 C 38.699219 11.761719 38.96875 11.886719 39.316406 11.972656 C 39.335938 11.976562 39.355469 11.984375 39.375 11.988281 C 39.871094 12.101562 40.363281 12.105469 40.867188 12.101562 C 40.90625 12.101562 40.941406 12.101562 40.976562 12.101562 C 41.5 12.101562 42.011719 12.085938 42.53125 12 C 42.570312 11.992188 42.609375 11.988281 42.648438 11.980469 C 42.996094 11.921875 43.335938 11.847656 43.675781 11.765625 C 44.183594 11.644531 44.6875 11.53125 45.203125 11.472656 C 45.269531 11.464844 45.335938 11.457031 45.402344 11.449219 C 45.859375 11.394531 46.308594 11.367188 46.765625 11.367188 C 46.855469 11.367188 46.945312 11.367188 47.03125 11.367188 C 47.863281 11.359375 47.863281 11.359375 48.15625 11.5625 C 48.265625 11.675781 48.316406 11.792969 48.375 11.9375 C 48.398438 11.980469 48.398438 11.980469 48.425781 12.023438 C 48.507812 12.160156 48.503906 12.289062 48.503906 12.449219 C 48.503906 12.46875 48.503906 12.492188 48.503906 12.515625 C 48.503906 12.5625 48.503906 12.609375 48.503906 12.65625 C 48.503906 12.730469 48.503906 12.800781 48.503906 12.871094 C 48.503906 13.085938 48.5 13.300781 48.476562 13.515625 C 48.464844 13.707031 48.488281 13.847656 48.5625 14.023438 C 48.578125 14.066406 48.578125 14.066406 48.59375 14.105469 C 48.640625 14.230469 48.691406 14.351562 48.742188 14.472656 C 49.019531 15.113281 49.15625 15.78125 49.25 16.46875 C 49.253906 16.507812 49.261719 16.542969 49.265625 16.582031 C 49.300781 16.828125 49.332031 17.070312 49.359375 17.316406 C 49.375 17.433594 49.394531 17.542969 49.414062 17.65625 C 49.527344 18.375 49.242188 18.929688 48.9375 19.5625 C 48.917969 19.601562 48.898438 19.640625 48.882812 19.679688 C 48.703125 20.054688 48.5 20.417969 48.25 20.75 C 48.234375 20.773438 48.214844 20.792969 48.199219 20.816406 C 48.03125 21.035156 47.84375 21.226562 47.648438 21.417969 C 47.59375 21.472656 47.539062 21.527344 47.488281 21.582031 C 47.453125 21.617188 47.417969 21.648438 47.382812 21.683594 C 47.367188 21.699219 47.351562 21.714844 47.335938 21.734375 C 47.222656 21.84375 47.222656 21.84375 47.1875 21.84375 C 47.183594 21.667969 47.191406 21.496094 47.210938 21.320312 C 47.378906 19.6875 47.378906 19.6875 46.875 18.1875 C 46.800781 18.1875 46.800781 18.1875 46.71875 18.21875 C 46.636719 18.371094 46.589844 18.519531 46.585938 18.691406 C 46.570312 19.207031 46.503906 19.695312 46.34375 20.1875 C 46.335938 20.214844 46.328125 20.238281 46.316406 20.265625 C 45.917969 21.480469 45.332031 22.859375 44.140625 23.484375 C 43.90625 23.582031 43.714844 23.605469 43.460938 23.601562 C 43.425781 23.601562 43.394531 23.601562 43.359375 23.601562 C 42.355469 23.589844 41.433594 23.261719 40.53125 22.84375 C 40.5 22.828125 40.46875 22.816406 40.4375 22.800781 C 39.324219 22.285156 38.273438 21.664062 37.289062 20.929688 C 36.652344 20.4375 36.652344 20.4375 35.90625 20.15625 C 36.003906 20.628906 36.113281 21.09375 36.257812 21.550781 C 36.378906 21.9375 36.492188 22.324219 36.601562 22.714844 C 36.613281 22.769531 36.613281 22.769531 36.632812 22.828125 C 37.1875 24.84375 36.558594 26.335938 35.589844 28.101562 C 35.074219 29.039062 34.632812 30.007812 34.3125 31.03125 C 34.304688 31.058594 34.296875 31.082031 34.289062 31.109375 C 34.175781 31.460938 34.117188 31.820312 34.054688 32.179688 C 34.050781 32.203125 34.046875 32.226562 34.042969 32.25 C 33.914062 33.015625 33.894531 33.777344 33.898438 34.554688 C 33.898438 34.691406 33.898438 34.832031 33.898438 34.972656 C 33.898438 35.535156 33.902344 36.101562 33.933594 36.664062 C 33.9375 36.6875 33.9375 36.710938 33.9375 36.734375 C 33.960938 37.148438 34.003906 37.558594 34.0625 37.96875 C 34.070312 38.019531 34.074219 38.066406 34.082031 38.117188 C 34.179688 38.832031 34.375 39.53125 34.59375 40.21875 C 34.625 40.3125 34.652344 40.410156 34.683594 40.503906 C 34.765625 40.769531 34.859375 41.035156 34.953125 41.296875 C 34.96875 41.355469 34.988281 41.410156 35.007812 41.464844 C 35.121094 41.78125 35.234375 42.09375 35.347656 42.410156 C 36.632812 45.929688 36.632812 45.929688 36.226562 46.988281 C 36.144531 47.148438 36.054688 47.265625 35.878906 47.328125 C 35.242188 47.472656 34.546875 47.003906 34.03125 46.679688 C 33.925781 46.609375 33.824219 46.539062 33.71875 46.46875 C 33.691406 46.449219 33.691406 46.449219 33.660156 46.429688 C 32.925781 45.917969 32.234375 45.34375 31.582031 44.734375 C 31.519531 44.675781 31.457031 44.621094 31.394531 44.5625 C 31.179688 44.367188 30.972656 44.164062 30.769531 43.960938 C 30.746094 43.9375 30.746094 43.9375 30.722656 43.917969 C 30.566406 43.757812 30.410156 43.601562 30.265625 43.429688 C 30.195312 43.347656 30.125 43.273438 30.050781 43.195312 C 29.890625 43.019531 29.742188 42.839844 29.59375 42.65625 C 29.566406 42.621094 29.535156 42.585938 29.507812 42.550781 C 28.917969 41.828125 28.457031 41.035156 28.007812 40.21875 C 27.996094 40.195312 27.980469 40.171875 27.96875 40.148438 C 27.945312 40.105469 27.921875 40.0625 27.898438 40.019531 C 27.84375 39.914062 27.84375 39.914062 27.75 39.84375 C 27.742188 39.882812 27.734375 39.921875 27.726562 39.960938 C 27.695312 40.113281 27.644531 40.257812 27.589844 40.402344 C 27.164062 41.570312 27.117188 42.789062 27.117188 44.023438 C 27.117188 44.054688 27.117188 44.089844 27.117188 44.128906 C 27.117188 44.769531 27.148438 45.402344 27.207031 46.039062 C 27.21875 46.179688 27.230469 46.320312 27.238281 46.460938 C 27.332031 47.683594 27.53125 48.90625 27.847656 50.089844 C 28.175781 51.339844 28.175781 51.339844 28.15625 51.9375 C 27.96875 51.910156 27.847656 51.75 27.71875 51.625 C 27.695312 51.605469 27.671875 51.582031 27.648438 51.5625 C 26.59375 50.5625 25.894531 49.066406 25.25 47.78125 C 25.230469 47.746094 25.214844 47.710938 25.195312 47.671875 C 24.632812 46.542969 24.203125 45.351562 23.90625 44.125 C 23.898438 44.097656 23.890625 44.070312 23.886719 44.039062 C 23.710938 43.316406 23.652344 42.558594 23.652344 41.816406 C 23.652344 41.773438 23.652344 41.730469 23.652344 41.683594 C 23.648438 41.5625 23.648438 41.445312 23.648438 41.324219 C 23.648438 41.25 23.648438 41.171875 23.648438 41.097656 C 23.648438 40.859375 23.648438 40.621094 23.648438 40.382812 C 23.648438 40.136719 23.648438 39.890625 23.648438 39.644531 C 23.640625 37.121094 23.894531 34.769531 24.625 32.34375 C 24.632812 32.316406 24.640625 32.289062 24.648438 32.261719 C 25.5 29.394531 26.519531 26.523438 28.25 23.09375 C 28.375 23.195312 28.488281 23.300781 28.59375 23.421875 C 28.71875 23.5625 28.847656 23.695312 28.976562 23.828125 C 28.996094 23.847656 29.011719 23.867188 29.03125 23.886719 C 29.128906 23.984375 29.207031 24.054688 29.34375 24.09375 C 29.304688 23.910156 29.246094 23.761719 29.152344 23.597656 C 29.144531 23.574219 29.136719 23.554688 29.125 23.53125 C 29.136719 23.511719 29.144531 23.488281 29.15625 23.46875 C 29.1875 23.496094 29.1875 23.496094 29.21875 23.523438 C 30.023438 24.152344 31.261719 24.546875 32.28125 24.5 C 32.25 24.402344 32.21875 24.375 32.128906 24.324219 C 32.089844 24.304688 32.050781 24.289062 32.011719 24.273438 C 31.992188 24.261719 31.96875 24.253906 31.949219 24.242188 C 31.839844 24.195312 31.730469 24.148438 31.621094 24.101562 C 31.007812 23.847656 30.484375 23.46875 30.21875 22.84375 C 29.964844 22.21875 30.167969 21.472656 30.40625 20.875 C 30.90625 19.710938 31.664062 18.679688 32.464844 17.707031 C 32.507812 17.652344 32.550781 17.597656 32.597656 17.542969 C 32.867188 17.210938 33.148438 16.886719 33.4375 16.566406 C 33.5625 16.429688 33.683594 16.292969 33.800781 16.152344 C 33.976562 15.949219 34.152344 15.746094 34.335938 15.550781 C 34.429688 15.449219 34.519531 15.347656 34.605469 15.238281 C 34.738281 15.074219 34.878906 14.921875 35.027344 14.769531 C 35.183594 14.601562 35.328125 14.429688 35.46875 14.25 C 35.480469 14.238281 35.488281 14.230469 35.5 14.21875 C 35.507812 13.988281 35.488281 13.765625 35.464844 13.539062 C 35.457031 13.460938 35.453125 13.382812 35.445312 13.304688 C 35.433594 13.183594 35.421875 13.0625 35.410156 12.941406 C 35.289062 11.652344 35.289062 11.652344 35.503906 11.339844 C 35.609375 11.234375 35.710938 11.175781 35.84375 11.117188 C 35.867188 11.105469 35.890625 11.09375 35.914062 11.082031 C 36.628906 10.738281 37.597656 11.019531 38.226562 11.4375 Z M 38.226562 11.4375 "/>
<path style=" stroke:none;fill-rule:nonzero;fill:rgb(98.823529%,98.823529%,98.823529%);fill-opacity:1;" d="M 28.09375 23.375 C 28.234375 23.402344 28.308594 23.480469 28.40625 23.578125 C 28.566406 23.726562 28.726562 23.867188 28.894531 24 C 28.964844 24.058594 29.03125 24.121094 29.09375 24.1875 C 29.019531 24.441406 28.90625 24.675781 28.792969 24.910156 C 28.734375 25.039062 28.671875 25.164062 28.613281 25.289062 C 28.59375 25.328125 28.59375 25.328125 28.578125 25.367188 C 28.40625 25.722656 28.246094 26.082031 28.085938 26.4375 C 28.019531 26.578125 27.957031 26.71875 27.890625 26.859375 C 27.15625 28.457031 26.472656 30.144531 26.039062 31.851562 C 26.011719 31.964844 25.976562 32.074219 25.941406 32.1875 C 25.863281 32.441406 25.792969 32.699219 25.726562 32.960938 C 25.722656 32.984375 25.714844 33.011719 25.707031 33.039062 C 25.460938 34.003906 25.261719 34.980469 25.113281 35.964844 C 25.097656 36.078125 25.078125 36.191406 25.058594 36.304688 C 25.023438 36.535156 24.996094 36.765625 24.96875 37 C 24.964844 37.027344 24.960938 37.058594 24.957031 37.085938 C 24.847656 38.058594 24.796875 39.019531 24.800781 39.996094 C 24.800781 40.03125 24.800781 40.03125 24.800781 40.066406 C 24.804688 40.855469 24.808594 41.648438 24.882812 42.4375 C 24.886719 42.464844 24.886719 42.464844 24.886719 42.496094 C 24.957031 43.226562 25.046875 43.957031 25.203125 44.671875 C 25.222656 44.761719 25.238281 44.847656 25.253906 44.9375 C 25.320312 45.300781 25.394531 45.664062 25.484375 46.027344 C 25.492188 46.0625 25.5 46.097656 25.507812 46.132812 C 25.644531 46.6875 25.824219 47.234375 26 47.777344 C 26.03125 47.878906 26.0625 47.980469 26.097656 48.082031 C 26.199219 48.402344 26.300781 48.722656 26.410156 49.039062 C 26.460938 49.199219 26.511719 49.355469 26.558594 49.511719 C 26.585938 49.605469 26.613281 49.695312 26.644531 49.785156 C 26.660156 49.839844 26.679688 49.898438 26.695312 49.953125 C 26.707031 49.992188 26.707031 49.992188 26.722656 50.035156 C 26.757812 50.160156 26.792969 50.273438 26.78125 50.40625 C 26.65625 50.296875 26.578125 50.164062 26.492188 50.023438 C 26.480469 49.996094 26.464844 49.972656 26.449219 49.945312 C 26.417969 49.894531 26.386719 49.84375 26.355469 49.792969 C 26.316406 49.726562 26.277344 49.660156 26.238281 49.597656 C 25.203125 47.894531 24.375 46.0625 23.90625 44.125 C 23.898438 44.097656 23.890625 44.070312 23.886719 44.039062 C 23.710938 43.316406 23.652344 42.558594 23.652344 41.816406 C 23.652344 41.773438 23.652344 41.730469 23.652344 41.683594 C 23.648438 41.5625 23.648438 41.445312 23.648438 41.324219 C 23.648438 41.25 23.648438 41.171875 23.648438 41.097656 C 23.648438 40.859375 23.648438 40.621094 23.648438 40.382812 C 23.648438 40.136719 23.648438 39.890625 23.648438 39.644531 C 23.640625 37.121094 23.894531 34.769531 24.625 32.34375 C 24.632812 32.316406 24.640625 32.289062 24.648438 32.261719 C 25.507812 29.375 26.53125 26.488281 28.09375 23.375 Z M 28.09375 23.375 "/>
<path style=" stroke:none;fill-rule:nonzero;fill:rgb(27.058825%,20.784314%,18.431373%);fill-opacity:1;" d="M 47.058594 11.621094 C 47.492188 11.605469 48 11.597656 48.34375 11.90625 C 48.632812 12.265625 48.53125 13.003906 48.488281 13.449219 C 48.335938 14.550781 47.636719 15.71875 46.800781 16.4375 C 46.46875 16.6875 46.109375 16.882812 45.6875 16.84375 C 45.550781 16.8125 45.421875 16.769531 45.292969 16.722656 C 45.257812 16.710938 45.21875 16.699219 45.183594 16.6875 C 44.808594 16.554688 44.449219 16.394531 44.09375 16.21875 C 44.066406 16.207031 44.039062 16.191406 44.011719 16.179688 C 43.472656 15.914062 42.976562 15.59375 42.53125 15.1875 C 42.511719 15.167969 42.488281 15.148438 42.464844 15.128906 C 42.222656 14.898438 42.039062 14.617188 41.90625 14.3125 C 41.890625 14.28125 41.890625 14.28125 41.875 14.246094 C 41.769531 13.972656 41.773438 13.671875 41.871094 13.398438 C 42.128906 12.859375 42.664062 12.5625 43.199219 12.359375 C 44.070312 12.046875 44.976562 11.863281 45.890625 11.734375 C 45.917969 11.730469 45.945312 11.726562 45.976562 11.722656 C 46.335938 11.671875 46.695312 11.636719 47.058594 11.621094 Z M 47.058594 11.621094 "/>
<path style=" stroke:none;fill-rule:nonzero;fill:rgb(62.7451%,51.764709%,43.921569%);fill-opacity:1;" d="M 17.625 10.28125 C 17.65625 10.289062 17.6875 10.296875 17.71875 10.308594 C 18.75 10.59375 19.921875 11.042969 20.71875 11.78125 C 20.742188 11.804688 20.742188 11.804688 20.769531 11.828125 C 21.089844 12.125 21.328125 12.453125 21.550781 12.835938 C 21.566406 12.863281 21.566406 12.863281 21.585938 12.890625 C 21.609375 12.9375 21.632812 12.984375 21.65625 13.03125 C 21.644531 13.050781 21.636719 13.074219 21.625 13.09375 C 21.609375 13.070312 21.589844 13.046875 21.574219 13.023438 C 21.414062 12.804688 21.246094 12.601562 21.0625 12.40625 C 21.042969 12.382812 21.019531 12.359375 21 12.335938 C 19.808594 11.082031 17.742188 10.511719 16.082031 10.460938 C 14.925781 10.433594 13.867188 10.613281 12.84375 11.15625 C 12.8125 11.171875 12.8125 11.171875 12.78125 11.1875 C 12.222656 11.480469 11.726562 11.863281 11.28125 12.3125 C 11.253906 12.339844 11.226562 12.367188 11.195312 12.398438 C 10.847656 12.761719 10.5625 13.191406 10.3125 13.632812 C 10.28125 13.6875 10.25 13.738281 10.21875 13.792969 C 9.53125 15.003906 9.222656 16.476562 9.0625 17.84375 C 9.058594 17.875 9.054688 17.90625 9.050781 17.941406 C 8.929688 18.933594 8.902344 19.917969 8.898438 20.914062 C 8.898438 20.9375 8.898438 20.960938 8.898438 20.984375 C 8.898438 21.710938 8.910156 22.433594 8.976562 23.15625 C 8.976562 23.175781 8.976562 23.199219 8.980469 23.222656 C 9.0625 24.152344 9.167969 25.089844 9.355469 26.007812 C 9.378906 26.121094 9.402344 26.234375 9.425781 26.351562 C 9.4375 26.433594 9.453125 26.511719 9.46875 26.59375 C 9.488281 26.695312 9.507812 26.800781 9.527344 26.90625 C 9.605469 27.339844 9.710938 27.769531 9.816406 28.199219 C 9.84375 28.304688 9.867188 28.410156 9.890625 28.519531 C 9.988281 28.9375 10.101562 29.347656 10.226562 29.757812 C 10.253906 29.859375 10.285156 29.960938 10.3125 30.058594 C 10.378906 30.285156 10.449219 30.511719 10.519531 30.738281 C 10.546875 30.828125 10.574219 30.914062 10.601562 31.003906 C 10.730469 31.414062 10.867188 31.820312 11.007812 32.226562 C 11.027344 32.277344 11.027344 32.277344 11.042969 32.332031 C 11.566406 33.839844 12.164062 35.320312 12.8125 36.777344 C 12.847656 36.847656 12.878906 36.921875 12.910156 36.992188 C 13.199219 37.644531 13.5 38.292969 13.8125 38.933594 C 13.875 39.058594 13.933594 39.1875 13.992188 39.3125 C 14.175781 39.691406 14.359375 40.066406 14.546875 40.445312 C 14.597656 40.539062 14.644531 40.636719 14.691406 40.730469 C 14.882812 41.113281 15.078125 41.496094 15.28125 41.875 C 15.308594 41.929688 15.308594 41.929688 15.339844 41.984375 C 16.03125 43.277344 16.75 44.566406 17.546875 45.800781 C 17.597656 45.882812 17.652344 45.96875 17.707031 46.054688 C 18.125 46.714844 18.5625 47.363281 19.019531 48 C 19.046875 48.042969 19.078125 48.085938 19.109375 48.128906 C 19.558594 48.761719 20.03125 49.378906 20.527344 49.980469 C 20.570312 50.035156 20.613281 50.089844 20.660156 50.144531 C 20.949219 50.5 21.253906 50.847656 21.5625 51.1875 C 21.601562 51.230469 21.601562 51.230469 21.640625 51.273438 C 21.714844 51.351562 21.785156 51.433594 21.859375 51.511719 C 21.890625 51.546875 21.921875 51.582031 21.953125 51.617188 C 22.183594 51.863281 22.414062 52.105469 22.652344 52.34375 C 22.675781 52.367188 22.703125 52.394531 22.726562 52.417969 C 22.859375 52.550781 22.992188 52.675781 23.132812 52.796875 C 23.1875 52.84375 23.238281 52.894531 23.289062 52.949219 C 23.40625 53.066406 23.535156 53.167969 23.664062 53.273438 C 23.742188 53.339844 23.824219 53.410156 23.898438 53.480469 C 24.074219 53.636719 24.253906 53.78125 24.441406 53.921875 C 24.5 53.96875 24.558594 54.015625 24.617188 54.0625 C 25.1875 54.527344 25.816406 54.921875 26.4375 55.3125 C 26.417969 55.324219 26.394531 55.332031 26.375 55.34375 C 26.296875 55.308594 26.226562 55.269531 26.152344 55.226562 C 26.121094 55.207031 26.121094 55.207031 26.085938 55.1875 C 25.835938 55.042969 25.597656 54.886719 25.359375 54.726562 C 25.316406 54.695312 25.269531 54.664062 25.222656 54.632812 C 24.59375 54.210938 23.988281 53.765625 23.40625 53.28125 C 23.390625 53.269531 23.375 53.253906 23.359375 53.242188 C 23.15625 53.074219 22.960938 52.902344 22.765625 52.726562 C 22.699219 52.667969 22.632812 52.609375 22.566406 52.550781 C 22.253906 52.277344 21.949219 51.984375 21.65625 51.6875 C 21.621094 51.65625 21.621094 51.65625 21.589844 51.625 C 21.46875 51.503906 21.351562 51.378906 21.238281 51.246094 C 21.160156 51.152344 21.074219 51.066406 20.988281 50.976562 C 20.84375 50.820312 20.703125 50.660156 20.570312 50.492188 C 20.492188 50.398438 20.414062 50.304688 20.332031 50.210938 C 20.167969 50.015625 20.007812 49.816406 19.855469 49.617188 C 19.816406 49.566406 19.777344 49.515625 19.738281 49.464844 C 19.507812 49.167969 19.285156 48.867188 19.0625 48.5625 C 19.042969 48.539062 19.027344 48.515625 19.007812 48.488281 C 18.957031 48.417969 18.90625 48.347656 18.851562 48.273438 C 18.839844 48.253906 18.824219 48.234375 18.808594 48.214844 C 18.519531 47.816406 18.246094 47.40625 17.976562 46.996094 C 17.960938 46.972656 17.945312 46.953125 17.929688 46.929688 C 17.675781 46.550781 17.429688 46.167969 17.1875 45.78125 C 17.171875 45.757812 17.15625 45.730469 17.140625 45.703125 C 15.652344 43.335938 14.296875 40.84375 13.144531 38.296875 C 13.089844 38.179688 13.035156 38.0625 12.980469 37.945312 C 11.867188 35.542969 10.886719 33.0625 10.09375 30.53125 C 10.0625 30.4375 10.03125 30.34375 10 30.246094 C 9.910156 29.964844 9.824219 29.683594 9.75 29.394531 C 9.714844 29.269531 9.679688 29.140625 9.644531 29.011719 C 9.617188 28.914062 9.589844 28.816406 9.5625 28.71875 C 9.554688 28.691406 9.546875 28.664062 9.539062 28.640625 C 9.34375 27.929688 9.167969 27.222656 9.03125 26.5 C 9.019531 26.4375 9.007812 26.378906 8.996094 26.316406 C 8.875 25.6875 8.789062 25.058594 8.734375 24.417969 C 8.730469 24.378906 8.730469 24.378906 8.726562 24.34375 C 8.683594 23.796875 8.660156 23.25 8.640625 22.699219 C 8.636719 22.621094 8.632812 22.542969 8.628906 22.464844 C 8.617188 22.132812 8.605469 21.800781 8.597656 21.46875 C 8.59375 21.378906 8.589844 21.289062 8.585938 21.199219 C 8.574219 20.820312 8.566406 20.441406 8.5625 20.0625 C 8.5625 20.023438 8.5625 19.980469 8.5625 19.941406 C 8.558594 19.652344 8.554688 19.363281 8.554688 19.078125 C 8.554688 18.980469 8.554688 18.882812 8.554688 18.789062 C 8.535156 16.503906 9.070312 13.871094 10.6875 12.15625 C 10.71875 12.117188 10.753906 12.078125 10.785156 12.039062 C 12.492188 10.09375 15.207031 9.617188 17.625 10.28125 Z M 17.625 10.28125 "/>
<path style=" stroke:none;fill-rule:nonzero;fill:rgb(62.7451%,51.764709%,43.921569%);fill-opacity:1;" d="M 39.195312 7.246094 C 39.234375 7.246094 39.277344 7.246094 39.316406 7.246094 C 39.40625 7.246094 39.492188 7.246094 39.578125 7.246094 C 39.664062 7.246094 39.75 7.242188 39.839844 7.242188 C 41.503906 7.234375 42.902344 7.523438 44.164062 8.691406 C 44.21875 8.75 44.21875 8.75 44.21875 8.8125 C 44.039062 8.816406 43.867188 8.808594 43.6875 8.78125 C 43.707031 8.769531 43.730469 8.761719 43.75 8.75 C 43.75 8.730469 43.75 8.707031 43.75 8.6875 C 43.726562 8.679688 43.707031 8.671875 43.683594 8.664062 C 43.582031 8.621094 43.496094 8.566406 43.40625 8.507812 C 43.367188 8.488281 43.332031 8.464844 43.296875 8.441406 C 43.230469 8.402344 43.164062 8.359375 43.097656 8.316406 C 42.835938 8.160156 42.566406 8.046875 42.28125 7.9375 C 42.25 7.925781 42.21875 7.914062 42.183594 7.898438 C 42.003906 7.832031 41.820312 7.792969 41.632812 7.757812 C 41.613281 7.757812 41.589844 7.753906 41.570312 7.75 C 41.054688 7.667969 40.527344 7.679688 40.003906 7.683594 C 39.917969 7.683594 39.832031 7.679688 39.746094 7.679688 C 38.902344 7.671875 38.902344 7.671875 38.078125 7.835938 C 38.050781 7.84375 38.023438 7.851562 37.996094 7.859375 C 37.226562 8.09375 36.492188 8.484375 35.8125 8.90625 C 35.773438 8.929688 35.730469 8.957031 35.691406 8.980469 C 34.675781 9.601562 33.734375 10.332031 32.863281 11.140625 C 32.804688 11.191406 32.75 11.246094 32.691406 11.300781 C 32.4375 11.535156 32.195312 11.773438 31.96875 12.03125 C 31.941406 12.0625 31.914062 12.089844 31.886719 12.121094 C 31.671875 12.371094 31.476562 12.632812 31.28125 12.894531 C 31.152344 13.070312 31.019531 13.246094 30.886719 13.421875 C 30.863281 13.449219 30.84375 13.476562 30.820312 13.503906 C 30.710938 13.648438 30.710938 13.648438 30.65625 13.71875 C 30.640625 13.746094 30.621094 13.773438 30.605469 13.800781 C 30.53125 13.875 30.53125 13.875 30.429688 13.894531 C 30.386719 13.894531 30.347656 13.894531 30.304688 13.894531 C 30.28125 13.894531 30.261719 13.894531 30.238281 13.894531 C 30.164062 13.894531 30.089844 13.894531 30.011719 13.894531 C 29.960938 13.894531 29.910156 13.894531 29.855469 13.894531 C 29.71875 13.894531 29.578125 13.894531 29.441406 13.894531 C 29.222656 13.894531 29.003906 13.894531 28.785156 13.894531 C 28.707031 13.894531 28.632812 13.894531 28.554688 13.894531 C 28.304688 13.894531 28.058594 13.910156 27.808594 13.945312 C 27.785156 13.949219 27.757812 13.953125 27.734375 13.957031 C 27.523438 13.992188 27.347656 14.058594 27.195312 14.210938 C 26.914062 14.625 26.957031 15.15625 26.957031 15.632812 C 26.957031 15.664062 26.957031 15.695312 26.957031 15.726562 C 26.957031 16.214844 26.980469 16.679688 27.09375 17.15625 C 27.105469 17.199219 27.105469 17.199219 27.113281 17.246094 C 27.230469 17.765625 27.414062 18.25 27.617188 18.738281 C 27.863281 19.320312 27.980469 19.878906 27.980469 20.511719 C 27.980469 20.53125 27.980469 20.554688 27.980469 20.574219 C 27.980469 20.902344 27.953125 21.191406 27.84375 21.5 C 27.832031 21.539062 27.820312 21.578125 27.808594 21.617188 C 27.671875 22.074219 27.4375 22.472656 27.195312 22.882812 C 26.851562 23.453125 26.539062 24.039062 26.234375 24.628906 C 26.152344 24.785156 26.070312 24.941406 25.988281 25.097656 C 25.777344 25.496094 25.582031 25.902344 25.390625 26.3125 C 25.378906 26.332031 25.367188 26.355469 25.355469 26.378906 C 25.277344 26.542969 25.203125 26.710938 25.125 26.875 C 25.113281 26.898438 25.105469 26.917969 25.09375 26.941406 C 24.601562 28.003906 24.191406 29.082031 23.8125 30.1875 C 23.800781 30.1875 23.792969 30.1875 23.78125 30.1875 C 23.753906 29.667969 23.746094 29.148438 23.75 28.625 C 23.769531 28.625 23.792969 28.625 23.8125 28.625 C 23.816406 28.597656 23.820312 28.574219 23.820312 28.546875 C 23.847656 28.414062 23.894531 28.304688 23.949219 28.183594 C 23.960938 28.15625 23.972656 28.132812 23.980469 28.109375 C 24.015625 28.027344 24.050781 27.949219 24.089844 27.867188 C 24.113281 27.8125 24.136719 27.757812 24.160156 27.703125 C 24.210938 27.59375 24.257812 27.480469 24.308594 27.371094 C 24.367188 27.242188 24.421875 27.109375 24.480469 26.976562 C 24.78125 26.296875 25.105469 25.628906 25.4375 24.964844 C 25.46875 24.902344 25.5 24.839844 25.53125 24.777344 C 25.75 24.335938 25.980469 23.902344 26.21875 23.46875 C 26.242188 23.425781 26.265625 23.382812 26.292969 23.335938 C 26.332031 23.261719 26.375 23.1875 26.417969 23.109375 C 26.5 22.960938 26.582031 22.808594 26.664062 22.660156 C 26.707031 22.582031 26.75 22.503906 26.792969 22.425781 C 27.046875 21.96875 27.257812 21.484375 27.457031 21 C 27.464844 20.976562 27.476562 20.949219 27.484375 20.925781 C 27.640625 20.535156 27.671875 20.160156 27.574219 19.753906 C 27.566406 19.730469 27.5625 19.707031 27.554688 19.683594 C 27.492188 19.425781 27.410156 19.171875 27.324219 18.921875 C 27.3125 18.886719 27.3125 18.886719 27.300781 18.847656 C 27.171875 18.46875 27.03125 18.101562 26.882812 17.730469 C 26.738281 17.382812 26.605469 17.027344 26.53125 16.65625 C 26.527344 16.636719 26.523438 16.617188 26.519531 16.59375 C 26.363281 15.835938 26.28125 14.5625 26.71875 13.890625 C 26.875 13.699219 27.007812 13.660156 27.25 13.625 C 27.429688 13.613281 27.613281 13.621094 27.792969 13.625 C 27.945312 13.628906 28.101562 13.628906 28.253906 13.628906 C 28.449219 13.632812 28.640625 13.632812 28.835938 13.640625 C 28.992188 13.644531 29.152344 13.644531 29.308594 13.644531 C 29.367188 13.644531 29.429688 13.648438 29.488281 13.648438 C 29.808594 13.667969 29.808594 13.667969 30.09375 13.542969 C 30.203125 13.425781 30.289062 13.292969 30.371094 13.152344 C 30.417969 13.074219 30.472656 13.007812 30.527344 12.9375 C 30.542969 12.914062 30.5625 12.894531 30.578125 12.871094 C 30.605469 12.839844 30.605469 12.839844 30.628906 12.804688 C 30.78125 12.613281 30.78125 12.613281 30.929688 12.421875 C 31.121094 12.167969 31.320312 11.925781 31.53125 11.6875 C 31.558594 11.65625 31.582031 11.628906 31.609375 11.597656 C 31.796875 11.390625 31.996094 11.191406 32.195312 10.992188 C 32.21875 10.964844 32.246094 10.9375 32.273438 10.910156 C 32.425781 10.757812 32.585938 10.609375 32.75 10.46875 C 32.800781 10.421875 32.851562 10.378906 32.898438 10.332031 C 33.0625 10.183594 33.234375 10.042969 33.40625 9.90625 C 33.441406 9.878906 33.476562 9.847656 33.511719 9.820312 C 33.789062 9.59375 34.074219 9.382812 34.367188 9.175781 C 34.433594 9.125 34.503906 9.078125 34.570312 9.027344 C 35.984375 8.015625 37.425781 7.246094 39.195312 7.246094 Z M 39.195312 7.246094 "/>
<path style=" stroke:none;fill-rule:nonzero;fill:rgb(27.058825%,20.784314%,18.431373%);fill-opacity:1;" d="M 39.386719 12.265625 C 39.488281 12.316406 39.589844 12.367188 39.691406 12.421875 C 39.886719 12.519531 40.085938 12.617188 40.28125 12.71875 C 40.28125 12.738281 40.28125 12.761719 40.28125 12.78125 C 40.003906 12.875 39.726562 12.96875 39.449219 13.050781 C 38.359375 13.367188 37.367188 13.875 36.511719 14.625 C 35.726562 15.3125 35.726562 15.3125 35.46875 15.3125 C 35.484375 15.128906 35.5625 15 35.652344 14.847656 C 35.804688 14.582031 35.925781 14.363281 35.925781 14.050781 C 35.925781 14.023438 35.925781 13.996094 35.925781 13.964844 C 35.917969 13.660156 35.84375 13.371094 35.761719 13.074219 C 35.664062 12.699219 35.589844 12.171875 35.773438 11.8125 C 35.925781 11.574219 36.097656 11.445312 36.371094 11.355469 C 37.394531 11.171875 38.507812 11.820312 39.386719 12.265625 Z M 39.386719 12.265625 "/>
<path style=" stroke:none;fill-rule:nonzero;fill:rgb(98.823529%,98.823529%,98.823529%);fill-opacity:1;" d="M 46.96875 23.09375 C 46.925781 23.351562 46.847656 23.589844 46.761719 23.832031 C 46.75 23.863281 46.75 23.863281 46.738281 23.894531 C 46.476562 24.628906 46.183594 25.355469 45.871094 26.070312 C 45.859375 26.101562 45.84375 26.132812 45.832031 26.160156 C 45.644531 26.578125 45.644531 26.578125 45.53125 26.75 C 45.484375 26.765625 45.484375 26.765625 45.4375 26.78125 C 45.433594 26.652344 45.4375 26.53125 45.46875 26.40625 C 45.4375 26.421875 45.4375 26.421875 45.40625 26.4375 C 45.390625 25.980469 45.4375 25.539062 45.492188 25.085938 C 45.503906 24.992188 45.503906 24.992188 45.5 24.875 C 45.488281 24.90625 45.476562 24.9375 45.460938 24.972656 C 45.046875 26.039062 45.046875 26.039062 44.84375 26.507812 C 44.832031 26.535156 44.816406 26.566406 44.804688 26.597656 C 44.664062 26.914062 44.515625 27.21875 44.1875 27.375 C 44.039062 27.417969 43.890625 27.414062 43.738281 27.414062 C 43.695312 27.414062 43.695312 27.414062 43.648438 27.414062 C 43.484375 27.417969 43.355469 27.414062 43.21875 27.3125 C 42.816406 26.65625 42.769531 25.585938 42.78125 24.835938 C 42.78125 24.800781 42.78125 24.765625 42.78125 24.730469 C 42.78125 24.707031 42.78125 24.683594 42.78125 24.65625 C 42.820312 24.65625 42.863281 24.652344 42.902344 24.652344 C 43.183594 24.640625 43.457031 24.625 43.734375 24.578125 C 43.835938 24.5625 43.9375 24.550781 44.039062 24.539062 C 45.078125 24.425781 45.90625 24.015625 46.660156 23.300781 C 46.886719 23.09375 46.886719 23.09375 46.96875 23.09375 Z M 46.96875 23.09375 "/>
<path style=" stroke:none;fill-rule:nonzero;fill:rgb(62.7451%,51.764709%,43.921569%);fill-opacity:1;" d="M 47.40625 22.875 C 47.386719 23.351562 47.242188 23.800781 47.09375 24.25 C 47.082031 24.28125 47.074219 24.3125 47.0625 24.34375 C 46.207031 26.933594 46.207031 26.933594 45.5625 27.3125 C 45.476562 27.328125 45.476562 27.328125 45.40625 27.3125 C 45.296875 27.152344 45.339844 26.980469 45.375 26.796875 C 45.386719 26.75 45.394531 26.703125 45.40625 26.65625 C 45.417969 26.699219 45.425781 26.738281 45.4375 26.78125 C 45.566406 26.671875 45.625 26.546875 45.695312 26.398438 C 45.707031 26.367188 45.722656 26.339844 45.734375 26.3125 C 46.070312 25.585938 46.359375 24.835938 46.632812 24.085938 C 46.644531 24.058594 46.65625 24.03125 46.664062 24 C 46.835938 23.5625 46.835938 23.5625 46.953125 23.105469 C 46.96875 23.03125 46.96875 23.03125 47.027344 22.980469 C 47.050781 22.96875 47.078125 22.957031 47.101562 22.945312 C 47.136719 22.921875 47.136719 22.921875 47.175781 22.902344 C 47.257812 22.871094 47.320312 22.871094 47.40625 22.875 Z M 47.40625 22.875 "/>
<path style=" stroke:none;fill-rule:nonzero;fill:rgb(62.7451%,52.156866%,44.313726%);fill-opacity:1;" d="M 45.5 24.8125 C 45.511719 24.8125 45.519531 24.8125 45.53125 24.8125 C 45.519531 25.015625 45.507812 25.21875 45.484375 25.421875 C 45.480469 25.449219 45.476562 25.472656 45.476562 25.496094 C 45.46875 25.546875 45.464844 25.597656 45.457031 25.644531 C 45.441406 25.773438 45.4375 25.894531 45.445312 26.023438 C 45.480469 26.457031 45.335938 26.703125 45.0625 27.03125 C 45.046875 27.050781 45.03125 27.070312 45.015625 27.089844 C 44.921875 27.199219 44.824219 27.304688 44.71875 27.40625 C 44.6875 27.4375 44.6875 27.4375 44.652344 27.472656 C 44.425781 27.6875 44.148438 27.828125 43.832031 27.824219 C 43.582031 27.792969 43.429688 27.589844 43.28125 27.40625 C 43.296875 27.375 43.296875 27.375 43.3125 27.34375 C 43.34375 27.355469 43.375 27.363281 43.40625 27.375 C 43.511719 27.382812 43.617188 27.382812 43.726562 27.382812 C 43.753906 27.382812 43.78125 27.382812 43.8125 27.382812 C 44 27.386719 44.140625 27.363281 44.3125 27.28125 C 44.335938 27.257812 44.335938 27.257812 44.363281 27.230469 C 44.40625 27.1875 44.40625 27.1875 44.46875 27.1875 C 44.480469 27.164062 44.480469 27.164062 44.492188 27.136719 C 44.519531 27.082031 44.550781 27.027344 44.578125 26.972656 C 44.9375 26.277344 45.21875 25.542969 45.5 24.8125 Z M 45.5 24.8125 "/>
<path style=" stroke:none;fill-rule:nonzero;fill:rgb(58.431375%,49.411765%,43.529412%);fill-opacity:1;" d="M 42.75 24.5625 C 43.109375 24.5625 43.472656 24.5625 43.84375 24.5625 C 43.84375 24.574219 43.84375 24.582031 43.84375 24.59375 C 43.488281 24.660156 43.140625 24.664062 42.78125 24.65625 C 42.78125 24.707031 42.78125 24.757812 42.78125 24.8125 C 42.769531 24.8125 42.761719 24.8125 42.75 24.8125 C 42.75 24.730469 42.75 24.648438 42.75 24.5625 Z M 42.75 24.5625 "/>
<path style=" stroke:none;fill-rule:nonzero;fill:rgb(61.176473%,51.372552%,44.313726%);fill-opacity:1;" d="M 48.6875 53 C 48.828125 53.113281 48.9375 53.21875 49.03125 53.375 C 49.019531 53.394531 49.011719 53.417969 49 53.4375 C 48.6875 53.074219 48.6875 53.074219 48.6875 53 Z M 48.6875 53 "/>
<path style=" stroke:none;fill-rule:nonzero;fill:rgb(72.941178%,65.098041%,59.607846%);fill-opacity:1;" d="M 45.5 24.8125 C 45.511719 24.8125 45.519531 24.8125 45.53125 24.8125 C 45.519531 24.96875 45.511719 25.121094 45.5 25.28125 C 45.488281 25.28125 45.480469 25.28125 45.46875 25.28125 C 45.464844 25.257812 45.460938 25.234375 45.453125 25.210938 C 45.4375 25.121094 45.4375 25.121094 45.40625 25.03125 C 45.433594 24.957031 45.464844 24.882812 45.5 24.8125 Z M 45.5 24.8125 "/>
</g>
</svg>
