<?xml version="1.0" encoding="UTF-8"?>
<svg xmlns="http://www.w3.org/2000/svg" xmlns:xlink="http://www.w3.org/1999/xlink" width="px" height="64px" viewBox="0 0 85 64" version="1.1">
<g id="surface1">
<path style=" stroke:none;fill-rule:nonzero;fill:rgb(80.392158%,40.000001%,60.000002%);fill-opacity:1;" d="M 37.398438 -0.0117188 C 37.476562 -0.015625 37.558594 -0.015625 37.644531 -0.015625 C 37.8125 -0.015625 37.984375 -0.015625 38.15625 -0.015625 C 38.410156 -0.015625 38.667969 -0.0195312 38.921875 -0.0195312 C 42.929688 -0.0390625 47.433594 0.800781 50.535156 3.535156 C 50.621094 3.605469 50.621094 3.605469 50.707031 3.679688 C 52.042969 4.851562 52.917969 6.335938 53.324219 8.066406 C 53.335938 8.109375 53.347656 8.15625 53.355469 8.199219 C 53.710938 9.714844 53.667969 11.554688 53.324219 13.066406 C 53.3125 13.125 53.296875 13.1875 53.285156 13.246094 C 52.742188 15.632812 51.660156 17.84375 50.203125 19.800781 C 50.175781 19.835938 50.148438 19.875 50.121094 19.914062 C 49.796875 20.347656 49.460938 20.765625 49.09375 21.164062 C 48.96875 21.300781 48.847656 21.441406 48.730469 21.582031 C 48.453125 21.898438 48.160156 22.199219 47.863281 22.496094 C 47.804688 22.550781 47.75 22.609375 47.691406 22.664062 C 47.359375 23 47.023438 23.3125 46.648438 23.605469 C 46.46875 23.746094 46.296875 23.894531 46.125 24.046875 C 45.1875 24.828125 44.164062 25.480469 43.097656 26.066406 C 43.042969 26.097656 42.992188 26.125 42.9375 26.15625 C 39.164062 28.265625 34.511719 29.367188 30.214844 29.464844 C 30.15625 29.46875 30.097656 29.46875 30.039062 29.472656 C 26.875 29.539062 23.914062 29.078125 21.382812 27.066406 C 21.335938 27.027344 21.285156 26.988281 21.234375 26.949219 C 20.375 26.234375 19.632812 25.203125 19.492188 24.070312 C 19.53125 23.816406 19.59375 23.703125 19.789062 23.535156 C 19.972656 23.484375 19.972656 23.484375 20.1875 23.535156 C 20.441406 23.707031 20.652344 23.925781 20.859375 24.152344 C 22.328125 25.742188 24.796875 26.386719 26.894531 26.464844 C 30.582031 26.601562 34.414062 25.621094 37.753906 24.074219 C 37.90625 24.003906 38.058594 23.9375 38.214844 23.867188 C 39.882812 23.113281 41.484375 22.097656 42.898438 20.933594 C 42.933594 20.90625 42.96875 20.875 43.003906 20.847656 C 44.074219 19.964844 45.09375 19.027344 45.953125 17.933594 C 45.996094 17.882812 46.035156 17.832031 46.078125 17.78125 C 47.101562 16.550781 47.867188 15.164062 48.410156 13.667969 C 48.4375 13.589844 48.464844 13.511719 48.496094 13.433594 C 49.023438 11.859375 49.0625 10.117188 48.34375 8.601562 C 48.226562 8.386719 48.09375 8.191406 47.945312 8 C 47.910156 7.953125 47.878906 7.910156 47.84375 7.863281 C 47.53125 7.480469 47.15625 7.207031 46.75 6.933594 C 46.703125 6.898438 46.652344 6.863281 46.601562 6.828125 C 46.035156 6.457031 45.390625 6.230469 44.757812 6 C 44.710938 5.984375 44.667969 5.964844 44.617188 5.949219 C 41.894531 4.980469 38.617188 5.066406 35.792969 5.464844 C 35.726562 5.476562 35.726562 5.476562 35.660156 5.484375 C 29.921875 6.296875 24.5 8.601562 19.324219 11.601562 C 19.261719 11.636719 19.203125 11.671875 19.140625 11.707031 C 15.664062 13.730469 11.917969 16.160156 9.429688 19.398438 C 9.371094 19.472656 9.3125 19.542969 9.253906 19.617188 C 7.457031 21.855469 6.191406 24.613281 6.453125 27.550781 C 6.652344 29.25 7.378906 30.738281 8.433594 32.066406 C 8.484375 32.132812 8.535156 32.199219 8.589844 32.265625 C 9.003906 32.78125 9.464844 33.25 9.929688 33.714844 C 9.976562 33.765625 9.976562 33.765625 10.023438 33.816406 C 10.417969 34.210938 10.820312 34.585938 11.257812 34.933594 C 11.46875 35.105469 11.675781 35.285156 11.878906 35.460938 C 12.273438 35.804688 12.675781 36.125 13.09375 36.441406 C 13.332031 36.625 13.574219 36.8125 13.8125 37 C 14.160156 37.273438 14.507812 37.542969 14.859375 37.8125 C 15.558594 38.351562 16.253906 38.898438 16.933594 39.464844 C 16.96875 39.496094 17 39.523438 17.035156 39.550781 C 17.503906 39.941406 17.957031 40.34375 18.402344 40.757812 C 18.585938 40.925781 18.765625 41.085938 18.949219 41.25 C 19.210938 41.484375 19.4375 41.726562 19.65625 42 C 19.929688 41.914062 20.175781 41.8125 20.429688 41.671875 C 20.5 41.632812 20.570312 41.597656 20.644531 41.558594 C 20.753906 41.496094 20.753906 41.496094 20.867188 41.433594 C 20.945312 41.390625 21.023438 41.347656 21.101562 41.304688 C 21.578125 41.046875 22.054688 40.78125 22.527344 40.515625 C 22.933594 40.289062 23.34375 40.066406 23.753906 39.847656 C 24.355469 39.519531 24.949219 39.183594 25.546875 38.84375 C 25.949219 38.613281 26.359375 38.390625 26.773438 38.175781 C 26.875 38.121094 26.980469 38.066406 27.082031 38.011719 C 27.25 37.921875 27.421875 37.835938 27.589844 37.753906 C 28.066406 37.503906 28.347656 37.191406 28.65625 36.761719 C 28.917969 36.390625 29.234375 36.0625 29.550781 35.734375 C 29.609375 35.671875 29.671875 35.605469 29.734375 35.542969 C 30.136719 35.128906 30.554688 34.753906 31.011719 34.398438 C 31.046875 34.371094 31.085938 34.34375 31.121094 34.3125 C 32.558594 33.199219 34.238281 32.175781 36.125 32.332031 C 36.851562 32.4375 37.414062 32.738281 37.878906 33.3125 C 38.726562 34.5625 38.601562 36.246094 38.382812 37.667969 C 38.4375 37.632812 38.4375 37.632812 38.488281 37.597656 C 38.535156 37.566406 38.582031 37.535156 38.632812 37.503906 C 38.679688 37.472656 38.722656 37.445312 38.773438 37.414062 C 39.148438 37.203125 39.566406 37.21875 39.976562 37.3125 C 40.449219 37.457031 40.851562 37.621094 41.113281 38.054688 C 41.34375 38.578125 41.167969 39.128906 41.027344 39.65625 C 41.011719 39.710938 40.996094 39.769531 40.980469 39.828125 C 40.949219 39.949219 40.914062 40.070312 40.882812 40.195312 C 40.792969 40.535156 40.703125 40.871094 40.613281 41.210938 C 40.597656 41.285156 40.578125 41.359375 40.558594 41.433594 C 40.335938 42.273438 40.125 43.113281 39.914062 43.957031 C 39.871094 44.128906 39.828125 44.296875 39.785156 44.46875 C 39.566406 45.332031 39.359375 46.199219 39.1875 47.074219 C 39.171875 47.140625 39.160156 47.210938 39.144531 47.28125 C 38.992188 48.097656 38.925781 48.914062 39.046875 49.734375 C 39.089844 49.734375 39.132812 49.734375 39.179688 49.734375 C 40.386719 47.679688 41.363281 45.5 42.328125 43.324219 C 42.476562 42.988281 42.625 42.652344 42.777344 42.316406 C 43.34375 41.0625 43.902344 39.800781 44.453125 38.539062 C 44.753906 37.84375 45.058594 37.148438 45.367188 36.457031 C 45.726562 35.648438 46.082031 34.839844 46.433594 34.03125 C 46.472656 33.933594 46.515625 33.832031 46.558594 33.734375 C 46.992188 32.734375 47.316406 31.71875 47.578125 30.65625 C 47.609375 30.53125 47.644531 30.40625 47.675781 30.28125 C 47.695312 30.207031 47.710938 30.132812 47.730469 30.058594 C 47.851562 29.773438 48.039062 29.652344 48.308594 29.519531 C 48.757812 29.359375 49.199219 29.261719 49.671875 29.199219 C 49.726562 29.191406 49.78125 29.183594 49.839844 29.175781 C 50.769531 29.070312 51.992188 28.953125 52.804688 29.496094 C 53.082031 29.75 53.082031 29.75 53.125 29.933594 C 53.09375 30.4375 52.933594 30.886719 52.773438 31.363281 C 52.015625 33.667969 51.734375 36.257812 52.792969 38.535156 C 52.816406 38.589844 52.84375 38.644531 52.871094 38.699219 C 53.039062 39.070312 53.210938 39.433594 53.390625 39.800781 C 54.386719 38.601562 55.085938 37.050781 55.832031 35.683594 C 55.917969 35.523438 56.007812 35.363281 56.097656 35.203125 C 57.136719 33.316406 57.136719 33.316406 58.050781 31.367188 C 58.085938 31.289062 58.085938 31.289062 58.121094 31.207031 C 58.453125 30.40625 58.65625 29.558594 58.867188 28.71875 C 59.203125 27.410156 59.203125 27.410156 59.554688 27.105469 C 60.710938 26.527344 62.589844 26.367188 63.816406 26.734375 C 64.097656 26.863281 64.375 26.996094 64.570312 27.246094 C 64.714844 27.757812 64.421875 28.351562 64.261719 28.828125 C 63.527344 31.058594 63.191406 33.65625 64.214844 35.867188 C 64.242188 35.929688 64.273438 35.992188 64.300781 36.054688 C 64.566406 36.625 64.839844 37.195312 65.125 37.757812 C 65.160156 37.832031 65.199219 37.902344 65.234375 37.976562 C 65.269531 38.042969 65.304688 38.105469 65.335938 38.175781 C 65.410156 38.332031 65.410156 38.332031 65.410156 38.464844 C 65.457031 38.445312 65.503906 38.425781 65.554688 38.40625 C 67.433594 37.617188 69.285156 37.035156 71.320312 36.800781 C 71.375 36.792969 71.429688 36.789062 71.484375 36.78125 C 75.003906 36.414062 78.730469 37.125 81.558594 39.328125 C 83.394531 40.855469 84.746094 42.859375 84.984375 45.289062 C 85.089844 46.898438 84.746094 48.429688 83.695312 49.683594 C 82.910156 50.582031 81.789062 51.453125 80.5625 51.554688 C 80.351562 51.535156 80.351562 51.535156 80.222656 51.457031 C 80.109375 51.253906 80.097656 51.164062 80.152344 50.933594 C 80.332031 50.75 80.539062 50.609375 80.75 50.464844 C 81.902344 49.667969 82.710938 48.761719 83.046875 47.375 C 83.265625 46.019531 82.796875 44.632812 82.027344 43.53125 C 80.320312 41.300781 77.738281 40.25 75.027344 39.859375 C 72.300781 39.507812 69.433594 39.570312 66.84375 40.578125 C 66.605469 40.667969 66.605469 40.667969 66.40625 40.667969 C 66.425781 40.722656 66.425781 40.722656 66.445312 40.777344 C 66.964844 42.261719 67.449219 43.988281 66.871094 45.535156 C 66.847656 45.597656 66.824219 45.664062 66.800781 45.730469 C 66.078125 47.652344 64.21875 49.179688 62.421875 50.066406 C 59.527344 51.367188 59.527344 51.367188 58.308594 50.957031 C 57.746094 50.71875 57.410156 50.367188 57.175781 49.800781 C 56.742188 48.382812 57.304688 46.734375 57.964844 45.476562 C 58.523438 44.4375 59.210938 43.496094 60.011719 42.632812 C 60.148438 42.484375 60.277344 42.335938 60.410156 42.183594 C 60.742188 41.796875 61.105469 41.449219 61.492188 41.117188 C 61.652344 40.972656 61.804688 40.820312 61.957031 40.667969 C 61.9375 40.625 61.914062 40.582031 61.890625 40.539062 C 60.832031 38.472656 60.203125 36.394531 59.699219 34.132812 C 59.675781 34.179688 59.652344 34.226562 59.628906 34.273438 C 59.109375 35.289062 58.578125 36.289062 58.011719 37.28125 C 57.90625 37.46875 57.800781 37.65625 57.695312 37.847656 C 55.574219 41.675781 55.574219 41.675781 54.785156 42.464844 C 54.816406 42.855469 54.9375 43.195312 55.070312 43.558594 C 55.230469 43.996094 55.371094 44.429688 55.472656 44.882812 C 55.484375 44.925781 55.496094 44.972656 55.503906 45.019531 C 55.882812 46.730469 55.648438 48.503906 54.71875 50 C 54.574219 50.207031 54.417969 50.40625 54.253906 50.601562 C 54.21875 50.644531 54.183594 50.691406 54.144531 50.738281 C 52.636719 52.597656 49.925781 53.539062 47.632812 53.820312 C 46.753906 53.910156 45.777344 53.960938 45.019531 53.445312 C 44.75 53.214844 44.582031 52.949219 44.542969 52.589844 C 44.5 51.171875 45.898438 49.917969 46.757812 48.90625 C 46.945312 48.683594 47.128906 48.460938 47.308594 48.238281 C 47.539062 47.953125 47.773438 47.675781 48.011719 47.398438 C 48.351562 47.003906 48.683594 46.605469 49.007812 46.199219 C 49.070312 46.121094 49.136719 46.042969 49.199219 45.964844 C 49.644531 45.414062 50.066406 44.851562 50.46875 44.265625 C 50.546875 44.164062 50.546875 44.164062 50.625 44.0625 C 50.75 43.878906 50.75 43.878906 50.71875 43.707031 C 50.667969 43.535156 50.609375 43.390625 50.523438 43.234375 C 50.496094 43.175781 50.464844 43.121094 50.4375 43.0625 C 50.40625 43 50.371094 42.9375 50.339844 42.875 C 49.34375 40.902344 48.703125 38.902344 48.277344 36.734375 C 48.097656 37.089844 47.933594 37.445312 47.78125 37.816406 C 47.738281 37.921875 47.695312 38.03125 47.652344 38.140625 C 47.628906 38.195312 47.605469 38.253906 47.582031 38.3125 C 46.285156 41.492188 44.875 44.636719 43.269531 47.671875 C 43.148438 47.902344 43.027344 48.132812 42.910156 48.367188 C 42.441406 49.277344 41.945312 50.175781 41.4375 51.066406 C 41.359375 51.203125 41.28125 51.339844 41.207031 51.472656 C 41.140625 51.585938 41.078125 51.699219 41.011719 51.808594 C 40.949219 51.925781 40.886719 52.042969 40.824219 52.160156 C 40.226562 53.3125 39.171875 54.578125 37.917969 55 C 37.371094 55.125 36.824219 55.0625 36.339844 54.761719 C 35.515625 54.148438 35.261719 53.226562 35.101562 52.246094 C 35.035156 51.777344 35.039062 51.308594 35.042969 50.839844 C 35.046875 50.679688 35.046875 50.519531 35.046875 50.359375 C 35.050781 49.792969 35.070312 49.230469 35.128906 48.667969 C 35.109375 48.714844 35.089844 48.761719 35.070312 48.808594 C 32.964844 53.808594 32.964844 53.808594 31.875 55.132812 C 31.8125 55.210938 31.8125 55.210938 31.75 55.289062 C 31.265625 55.835938 30.539062 56.171875 29.820312 56.214844 C 28.976562 56.238281 28.222656 56.167969 27.558594 55.59375 C 26.070312 54.164062 25.464844 51.96875 25.101562 50 C 25.09375 49.953125 25.082031 49.90625 25.074219 49.855469 C 24.617188 47.296875 25.085938 44.144531 26.03125 41.734375 C 24.476562 42.582031 22.953125 43.464844 21.449219 44.398438 C 21.480469 44.464844 21.507812 44.53125 21.539062 44.601562 C 21.863281 45.339844 22.082031 46.078125 22.246094 46.867188 C 22.257812 46.917969 22.269531 46.964844 22.28125 47.019531 C 22.644531 48.75 22.589844 50.804688 22.246094 52.535156 C 22.234375 52.589844 22.222656 52.648438 22.210938 52.707031 C 21.707031 55.183594 20.640625 57.457031 18.929688 59.316406 C 18.808594 59.449219 18.691406 59.585938 18.578125 59.726562 C 17.667969 60.761719 16.523438 61.574219 15.339844 62.265625 C 15.296875 62.292969 15.253906 62.316406 15.210938 62.34375 C 12.464844 63.945312 9.089844 64.425781 6.015625 63.644531 C 5.566406 63.523438 5.199219 63.375 4.847656 63.066406 C 4.792969 63.023438 4.738281 62.976562 4.679688 62.929688 C 3.558594 61.976562 2.910156 60.441406 2.742188 58.992188 C 2.550781 56.367188 3.367188 53.867188 5.078125 51.875 C 5.828125 51.035156 6.617188 50.226562 7.503906 49.535156 C 7.582031 49.46875 7.660156 49.402344 7.738281 49.335938 C 8.351562 48.820312 8.988281 48.359375 9.652344 47.917969 C 9.839844 47.792969 10.027344 47.664062 10.214844 47.535156 C 11.046875 46.972656 11.882812 46.4375 12.75 45.933594 C 12.808594 45.898438 12.867188 45.863281 12.925781 45.832031 C 13.832031 45.304688 14.753906 44.8125 15.6875 44.332031 C 15.972656 44.183594 16.257812 44.03125 16.535156 43.867188 C 15.613281 42.96875 14.511719 42.257812 13.457031 41.523438 C 13.269531 41.394531 13.082031 41.261719 12.894531 41.128906 C 12.328125 40.730469 11.757812 40.335938 11.183594 39.941406 C 10.75 39.640625 10.316406 39.335938 9.886719 39.023438 C 9.75 38.925781 9.617188 38.828125 9.480469 38.730469 C 8.507812 38.035156 7.558594 37.304688 6.640625 36.535156 C 6.605469 36.503906 6.574219 36.476562 6.539062 36.449219 C 5.8125 35.839844 5.113281 35.210938 4.449219 34.535156 C 4.28125 34.367188 4.117188 34.199219 3.945312 34.03125 C 3.527344 33.621094 3.148438 33.195312 2.789062 32.734375 C 2.734375 32.667969 2.683594 32.597656 2.628906 32.53125 C 1.589844 31.210938 0.796875 29.796875 0.265625 28.199219 C 0.25 28.152344 0.234375 28.105469 0.21875 28.058594 C -0.226562 26.710938 -0.09375 25.152344 0.265625 23.800781 C 0.285156 23.730469 0.285156 23.730469 0.300781 23.65625 C 0.96875 20.980469 2.570312 18.554688 4.316406 16.464844 C 4.367188 16.40625 4.367188 16.40625 4.414062 16.347656 C 5.320312 15.257812 6.292969 14.167969 7.371094 13.25 C 7.535156 13.105469 7.695312 12.957031 7.855469 12.808594 C 8.152344 12.539062 8.453125 12.28125 8.761719 12.03125 C 8.910156 11.910156 9.054688 11.789062 9.203125 11.667969 C 10.273438 10.78125 11.398438 9.972656 12.550781 9.199219 C 12.601562 9.164062 12.652344 9.132812 12.707031 9.097656 C 15.519531 7.21875 18.5 5.585938 21.582031 4.199219 C 21.660156 4.164062 21.738281 4.128906 21.820312 4.09375 C 23.660156 3.269531 25.53125 2.53125 27.429688 1.867188 C 27.597656 1.808594 27.761719 1.75 27.925781 1.691406 C 30.90625 0.628906 34.234375 0 37.398438 -0.0117188 Z M 33.402344 37 C 33.351562 37.046875 33.300781 37.09375 33.25 37.140625 C 30.726562 39.539062 29.464844 43.761719 29.332031 47.140625 C 29.304688 48.347656 29.304688 49.980469 30.148438 50.933594 C 30.328125 51 30.386719 51.011719 30.566406 50.9375 C 31.113281 50.515625 31.429688 49.933594 31.742188 49.332031 C 31.765625 49.289062 31.789062 49.246094 31.8125 49.199219 C 32.4375 47.992188 32.902344 46.707031 33.390625 45.4375 C 33.503906 45.144531 33.621094 44.847656 33.738281 44.550781 C 34.300781 43.117188 34.816406 41.667969 35.285156 40.199219 C 35.328125 40.070312 35.367188 39.945312 35.410156 39.820312 C 35.65625 39.054688 35.882812 38.289062 36.058594 37.503906 C 36.078125 37.414062 36.078125 37.414062 36.101562 37.320312 C 36.261719 36.601562 36.261719 36.601562 36.105469 35.917969 C 35.957031 35.765625 35.824219 35.738281 35.617188 35.722656 C 34.746094 35.78125 34.003906 36.421875 33.402344 37 Z M 62.726562 42.878906 C 61.429688 44.179688 60.222656 46.003906 59.964844 47.867188 C 59.988281 48.085938 59.988281 48.085938 60.03125 48.265625 C 60.925781 48.175781 61.886719 47.46875 62.453125 46.808594 C 63.179688 45.875 63.503906 44.917969 63.511719 43.742188 C 63.515625 43.65625 63.515625 43.65625 63.515625 43.570312 C 63.511719 43.152344 63.421875 42.792969 63.285156 42.398438 C 63.097656 42.398438 62.851562 42.753906 62.726562 42.878906 Z M 18.148438 45.945312 C 18.09375 45.976562 18.09375 45.976562 18.035156 46.011719 C 17.90625 46.089844 17.78125 46.164062 17.65625 46.242188 C 17.613281 46.269531 17.570312 46.292969 17.523438 46.320312 C 15.601562 47.488281 13.746094 48.753906 12.019531 50.199219 C 11.980469 50.234375 11.941406 50.265625 11.898438 50.300781 C 10.050781 51.832031 8.367188 53.792969 8.035156 56.265625 C 7.964844 57.097656 7.960938 57.9375 8.507812 58.617188 C 9.054688 59.128906 9.722656 59.164062 10.429688 59.152344 C 12.589844 59.066406 14.664062 57.601562 16.121094 56.101562 C 16.433594 55.75 16.71875 55.375 17 55 C 17.042969 54.945312 17.085938 54.886719 17.128906 54.828125 C 18.019531 53.601562 18.597656 52.210938 18.925781 50.734375 C 18.941406 50.664062 18.957031 50.597656 18.972656 50.527344 C 19.285156 48.933594 19.097656 47.296875 18.726562 45.734375 C 18.472656 45.734375 18.367188 45.8125 18.148438 45.945312 Z M 51.929688 46.265625 C 51.808594 46.425781 51.691406 46.585938 51.574219 46.746094 C 51.253906 47.179688 50.921875 47.59375 50.574219 48 C 50.417969 48.183594 50.269531 48.367188 50.121094 48.554688 C 49.820312 48.921875 49.5 49.265625 49.171875 49.609375 C 48.886719 49.910156 48.613281 50.21875 48.34375 50.535156 C 48.082031 50.828125 48.082031 50.828125 47.964844 50.960938 C 47.871094 51.054688 47.871094 51.054688 47.878906 51.132812 C 48.441406 51.207031 48.90625 50.835938 49.339844 50.515625 C 49.710938 50.226562 50.0625 49.921875 50.402344 49.601562 C 50.453125 49.554688 50.503906 49.507812 50.554688 49.460938 C 51.273438 48.789062 51.960938 47.765625 52.003906 46.75 C 52.003906 46.589844 52.003906 46.429688 51.996094 46.265625 C 51.972656 46.265625 51.953125 46.265625 51.929688 46.265625 Z M 51.929688 46.265625 "/>
</g>
</svg>
