<?xml version="1.0" encoding="UTF-8"?>
<svg xmlns="http://www.w3.org/2000/svg" xmlns:xlink="http://www.w3.org/1999/xlink" width="px" height="64px" viewBox="0 0 64 64" version="1.1">
<g id="surface1">
<path style=" stroke:none;fill-rule:nonzero;fill:rgb(12.156863%,57.254905%,21.176471%);fill-opacity:1;" d="M 33 0.25 C 33.703125 0.582031 33.703125 0.582031 34.429688 1.007812 C 34.707031 1.167969 34.980469 1.328125 35.265625 1.492188 C 35.5625 1.664062 35.859375 1.839844 36.15625 2.015625 C 36.46875 2.195312 36.78125 2.378906 37.09375 2.558594 C 37.742188 2.933594 38.390625 3.3125 39.035156 3.691406 C 40.519531 4.554688 42.007812 5.402344 43.5 6.25 C 44.082031 6.582031 44.664062 6.914062 45.246094 7.246094 C 46.277344 7.835938 47.308594 8.425781 48.339844 9.011719 C 51.371094 10.742188 54.402344 12.476562 57.421875 14.234375 C 57.808594 14.457031 57.808594 14.457031 58.199219 14.6875 C 58.433594 14.824219 58.667969 14.960938 58.910156 15.101562 C 59.113281 15.21875 59.320312 15.339844 59.53125 15.464844 C 60 15.75 60 15.75 60.25 16 C 60.277344 16.410156 60.289062 16.824219 60.296875 17.234375 C 60.296875 17.503906 60.300781 17.769531 60.304688 18.046875 C 60.308594 18.488281 60.308594 18.488281 60.3125 18.941406 C 60.316406 19.25 60.320312 19.5625 60.324219 19.878906 C 60.355469 22.742188 60.375 25.601562 60.386719 28.460938 C 60.398438 30.574219 60.414062 32.6875 60.441406 34.800781 C 60.457031 36.289062 60.46875 37.773438 60.472656 39.261719 C 60.472656 40.148438 60.480469 41.035156 60.496094 41.921875 C 60.511719 42.914062 60.511719 43.90625 60.507812 44.894531 C 60.515625 45.191406 60.523438 45.484375 60.53125 45.785156 C 60.507812 47.734375 60.507812 47.734375 59.757812 48.507812 C 59.1875 48.894531 58.625 49.207031 58 49.5 C 57.742188 49.652344 57.484375 49.804688 57.21875 49.960938 C 56.988281 50.085938 56.753906 50.214844 56.515625 50.34375 C 56.25 50.488281 55.980469 50.636719 55.707031 50.789062 C 55.425781 50.941406 55.148438 51.09375 54.859375 51.25 C 54.253906 51.582031 53.652344 51.914062 53.046875 52.25 C 52.894531 52.332031 52.746094 52.417969 52.589844 52.503906 C 51.117188 53.316406 49.667969 54.164062 48.21875 55.015625 C 45.945312 56.351562 43.65625 57.652344 41.347656 58.929688 C 39.996094 59.683594 38.65625 60.449219 37.324219 61.238281 C 37.054688 61.402344 36.78125 61.5625 36.5 61.726562 C 35.980469 62.039062 35.464844 62.347656 34.945312 62.660156 C 34.714844 62.800781 34.480469 62.941406 34.238281 63.082031 C 33.933594 63.265625 33.933594 63.265625 33.621094 63.457031 C 32.886719 63.800781 32.3125 63.953125 31.5 64 C 30.851562 63.761719 30.851562 63.761719 30.195312 63.382812 C 29.828125 63.171875 29.828125 63.171875 29.453125 62.957031 C 29.058594 62.722656 29.058594 62.722656 28.65625 62.484375 C 28.378906 62.324219 28.105469 62.167969 27.820312 62.003906 C 26.960938 61.503906 26.105469 61.003906 25.25 60.5 C 24.742188 60.203125 24.234375 59.90625 23.726562 59.609375 C 22.984375 59.179688 22.246094 58.746094 21.507812 58.3125 C 19.726562 57.269531 17.929688 56.253906 16.125 55.25 C 13.296875 53.675781 10.5 52.054688 7.707031 50.414062 C 7.195312 50.113281 6.683594 49.816406 6.167969 49.515625 C 5.894531 49.359375 5.621094 49.199219 5.339844 49.039062 C 5.089844 48.894531 4.839844 48.75 4.582031 48.597656 C 4 48.25 4 48.25 3.75 48 C 3.722656 47.589844 3.710938 47.175781 3.703125 46.765625 C 3.703125 46.496094 3.699219 46.230469 3.695312 45.953125 C 3.691406 45.660156 3.6875 45.363281 3.6875 45.058594 C 3.683594 44.75 3.679688 44.4375 3.675781 44.121094 C 3.644531 41.257812 3.625 38.398438 3.613281 35.539062 C 3.601562 33.425781 3.585938 31.3125 3.558594 29.199219 C 3.542969 27.710938 3.53125 26.226562 3.527344 24.738281 C 3.527344 23.851562 3.519531 22.964844 3.503906 22.078125 C 3.488281 21.085938 3.488281 20.09375 3.492188 19.105469 C 3.484375 18.808594 3.476562 18.515625 3.46875 18.214844 C 3.492188 16.265625 3.492188 16.265625 4.242188 15.492188 C 4.8125 15.105469 5.375 14.792969 6 14.5 C 6.257812 14.347656 6.515625 14.195312 6.78125 14.039062 C 7.011719 13.914062 7.246094 13.785156 7.484375 13.65625 C 7.75 13.511719 8.019531 13.363281 8.292969 13.210938 C 8.574219 13.058594 8.851562 12.90625 9.140625 12.75 C 9.746094 12.417969 10.347656 12.085938 10.953125 11.75 C 11.179688 11.625 11.179688 11.625 11.410156 11.496094 C 12.882812 10.683594 14.332031 9.835938 15.78125 8.984375 C 18.054688 7.648438 20.34375 6.351562 22.648438 5.070312 C 25.285156 3.597656 27.890625 2.074219 30.492188 0.542969 C 31.46875 -0.0234375 31.878906 -0.0117188 33 0.25 Z M 41.722656 17.785156 C 41.140625 18.667969 41.105469 19.363281 41.113281 20.386719 C 41.109375 20.570312 41.109375 20.757812 41.105469 20.949219 C 41.097656 21.558594 41.097656 22.167969 41.097656 22.777344 C 41.09375 23.203125 41.089844 23.625 41.085938 24.050781 C 41.074219 25.164062 41.070312 26.277344 41.066406 27.394531 C 41.0625 28.53125 41.050781 29.667969 41.039062 30.808594 C 41.019531 33.039062 41.007812 35.269531 41 37.5 C 40.605469 37.070312 40.210938 36.640625 39.820312 36.207031 C 39.597656 35.96875 39.378906 35.726562 39.152344 35.480469 C 38.359375 34.59375 37.609375 33.671875 36.859375 32.742188 C 36.140625 31.867188 35.410156 31.003906 34.671875 30.140625 C 34.546875 29.992188 34.421875 29.84375 34.289062 29.691406 C 34.109375 29.480469 34.109375 29.480469 33.925781 29.265625 C 33.820312 29.144531 33.710938 29.019531 33.601562 28.890625 C 33.167969 28.410156 32.710938 27.957031 32.25 27.5 C 32.175781 28.824219 32.121094 30.148438 32.085938 31.472656 C 32.070312 31.921875 32.050781 32.371094 32.023438 32.820312 C 31.894531 35.058594 31.800781 36.957031 33.265625 38.765625 C 33.777344 39.324219 34.304688 39.851562 34.855469 40.367188 C 35.519531 41.011719 36.089844 41.726562 36.671875 42.4375 C 36.898438 42.703125 37.125 42.972656 37.351562 43.238281 C 37.769531 43.726562 38.179688 44.222656 38.585938 44.722656 C 39.972656 46.386719 41.230469 47.308594 43.410156 47.582031 C 45.019531 47.648438 46.09375 47.316406 47.328125 46.25 C 47.957031 45.503906 48.03125 44.875 48.035156 43.933594 C 48.039062 43.71875 48.039062 43.5 48.042969 43.277344 C 48.042969 43.039062 48.042969 42.800781 48.042969 42.554688 C 48.046875 42.304688 48.046875 42.054688 48.050781 41.796875 C 48.054688 40.964844 48.058594 40.132812 48.058594 39.300781 C 48.0625 39.015625 48.0625 38.734375 48.0625 38.441406 C 48.066406 36.9375 48.070312 35.433594 48.074219 33.929688 C 48.078125 32.378906 48.085938 30.828125 48.09375 29.273438 C 48.101562 28.082031 48.105469 26.886719 48.105469 25.695312 C 48.105469 25.121094 48.109375 24.550781 48.113281 23.976562 C 48.121094 23.175781 48.121094 22.375 48.117188 21.574219 C 48.121094 21.335938 48.125 21.101562 48.128906 20.859375 C 48.117188 19.359375 47.882812 18.476562 47 17.25 C 45.167969 15.960938 43.269531 16.214844 41.722656 17.785156 Z M 41.722656 17.785156 "/>
<path style=" stroke:none;fill-rule:nonzero;fill:rgb(10.980392%,49.803922%,18.82353%);fill-opacity:1;" d="M 32 0 C 32 8.746094 32 17.488281 32 26.5 C 31.078125 26.191406 30.875 25.851562 30.28125 25.09375 C 29.191406 23.730469 28.066406 22.402344 26.917969 21.089844 C 26.34375 20.4375 25.777344 19.78125 25.234375 19.101562 C 24.03125 17.601562 22.4375 16.699219 20.503906 16.429688 C 18.953125 16.359375 17.933594 16.742188 16.75 17.75 C 16.226562 18.53125 16.1875 18.707031 16.183594 19.597656 C 16.183594 19.933594 16.183594 19.933594 16.179688 20.277344 C 16.179688 20.523438 16.179688 20.769531 16.179688 21.019531 C 16.179688 21.28125 16.179688 21.539062 16.175781 21.804688 C 16.175781 22.664062 16.175781 23.523438 16.175781 24.378906 C 16.175781 24.976562 16.171875 25.570312 16.171875 26.167969 C 16.167969 27.417969 16.167969 28.667969 16.171875 29.917969 C 16.171875 31.519531 16.167969 33.121094 16.164062 34.722656 C 16.160156 35.953125 16.160156 37.183594 16.160156 38.414062 C 16.160156 39.003906 16.15625 39.597656 16.15625 40.1875 C 16.152344 41.011719 16.152344 41.839844 16.15625 42.664062 C 16.152344 43.03125 16.152344 43.03125 16.152344 43.40625 C 16.160156 44.640625 16.179688 45.507812 17 46.5 C 17.8125 47.183594 18.316406 47.476562 19.375 47.609375 C 20.5625 47.460938 21.390625 47.144531 22.203125 46.25 C 22.804688 45.238281 22.789062 44.371094 22.800781 43.214844 C 22.804688 43.035156 22.804688 42.855469 22.808594 42.667969 C 22.816406 42.074219 22.824219 41.476562 22.828125 40.878906 C 22.835938 40.464844 22.839844 40.050781 22.84375 39.640625 C 22.859375 38.550781 22.871094 37.460938 22.882812 36.371094 C 22.894531 35.261719 22.910156 34.152344 22.921875 33.039062 C 22.949219 30.859375 22.976562 28.679688 23 26.5 C 24.371094 27.867188 24.371094 27.867188 25.003906 28.59375 C 25.136719 28.746094 25.265625 28.898438 25.402344 29.054688 C 25.535156 29.210938 25.671875 29.367188 25.8125 29.53125 C 25.957031 29.695312 26.097656 29.863281 26.246094 30.03125 C 27.246094 31.195312 28.238281 32.359375 29.179688 33.570312 C 29.722656 34.253906 29.722656 34.253906 30.339844 34.761719 C 31.734375 36.082031 32.132812 37.136719 32.238281 39.019531 C 32.269531 40.40625 32.25 41.789062 32.21875 43.175781 C 32.214844 43.777344 32.210938 44.378906 32.210938 44.980469 C 32.203125 46.554688 32.179688 48.128906 32.15625 49.703125 C 32.132812 51.316406 32.121094 52.925781 32.109375 54.535156 C 32.085938 57.691406 32.046875 60.84375 32 64 C 31.011719 63.679688 30.152344 63.339844 29.261719 62.808594 C 29.027344 62.671875 28.792969 62.53125 28.554688 62.390625 C 28.304688 62.242188 28.054688 62.089844 27.796875 61.9375 C 25.671875 60.679688 23.535156 59.449219 21.375 58.25 C 19.070312 56.96875 16.785156 55.652344 14.511719 54.316406 C 12.398438 53.078125 10.261719 51.878906 8.113281 50.699219 C 7.871094 50.5625 7.628906 50.429688 7.375 50.289062 C 7.058594 50.113281 7.058594 50.113281 6.734375 49.9375 C 6.371094 49.71875 6.371094 49.71875 6 49.5 C 5.816406 49.414062 5.632812 49.328125 5.445312 49.238281 C 4.53125 48.746094 3.871094 48.375 3.539062 47.355469 C 3.457031 46.535156 3.445312 45.742188 3.457031 44.914062 C 3.453125 44.605469 3.449219 44.296875 3.445312 43.976562 C 3.4375 43.128906 3.441406 42.28125 3.449219 41.4375 C 3.453125 40.546875 3.449219 39.660156 3.445312 38.769531 C 3.441406 37.28125 3.445312 35.789062 3.457031 34.296875 C 3.46875 32.574219 3.464844 30.855469 3.453125 29.132812 C 3.441406 27.652344 3.441406 26.171875 3.445312 24.6875 C 3.449219 23.804688 3.449219 22.921875 3.441406 22.039062 C 3.4375 21.054688 3.445312 20.070312 3.457031 19.082031 C 3.453125 18.792969 3.449219 18.5 3.445312 18.199219 C 3.492188 16.265625 3.492188 16.265625 4.242188 15.492188 C 4.8125 15.105469 5.378906 14.796875 6 14.5 C 6.257812 14.347656 6.515625 14.195312 6.78125 14.039062 C 7.011719 13.914062 7.246094 13.785156 7.484375 13.65625 C 7.75 13.511719 8.019531 13.363281 8.292969 13.210938 C 8.574219 13.058594 8.851562 12.90625 9.140625 12.75 C 9.746094 12.417969 10.347656 12.085938 10.953125 11.75 C 11.179688 11.625 11.179688 11.625 11.410156 11.496094 C 12.882812 10.683594 14.332031 9.835938 15.78125 8.984375 C 18.054688 7.648438 20.34375 6.351562 22.648438 5.070312 C 25.285156 3.597656 27.890625 2.074219 30.492188 0.542969 C 31.433594 0 31.433594 0 32 0 Z M 32 0 "/>
<path style=" stroke:none;fill-rule:nonzero;fill:rgb(86.666667%,86.666667%,86.666667%);fill-opacity:1;" d="M 23.09375 16.90625 C 24.910156 17.859375 26.113281 19.660156 27.375 21.230469 C 28.214844 22.265625 29.085938 23.277344 29.960938 24.285156 C 31.542969 26.121094 32.289062 27.15625 32.273438 29.652344 C 32.273438 29.859375 32.273438 30.070312 32.273438 30.289062 C 32.273438 30.957031 32.269531 31.628906 32.265625 32.296875 C 32.265625 32.75 32.261719 33.207031 32.261719 33.660156 C 32.257812 34.773438 32.253906 35.886719 32.25 37 C 32.085938 37 31.921875 37 31.75 37 C 31.417969 36.632812 31.101562 36.25 30.796875 35.859375 C 29.847656 34.671875 28.875 33.519531 27.875 32.375 C 26.277344 30.542969 24.703125 28.699219 23.25 26.75 C 23.25 26.976562 23.246094 27.199219 23.246094 27.433594 C 23.230469 29.558594 23.214844 31.683594 23.191406 33.8125 C 23.179688 34.902344 23.171875 35.996094 23.164062 37.089844 C 23.15625 38.144531 23.148438 39.199219 23.132812 40.253906 C 23.128906 40.65625 23.128906 41.058594 23.125 41.460938 C 23.125 42.027344 23.117188 42.589844 23.109375 43.15625 C 23.105469 43.476562 23.101562 43.796875 23.101562 44.125 C 22.953125 45.398438 22.5625 46.210938 21.625 47.078125 C 20.578125 47.785156 19.742188 47.855469 18.5 47.75 C 17.34375 47.105469 16.421875 46.519531 16 45.25 C 15.976562 44.886719 15.964844 44.519531 15.960938 44.15625 C 15.960938 43.929688 15.957031 43.707031 15.953125 43.476562 C 15.953125 43.230469 15.953125 42.984375 15.953125 42.734375 C 15.949219 42.472656 15.949219 42.214844 15.945312 41.949219 C 15.9375 41.09375 15.933594 40.234375 15.929688 39.378906 C 15.929688 39.085938 15.929688 38.792969 15.925781 38.492188 C 15.921875 36.941406 15.917969 35.394531 15.914062 33.847656 C 15.910156 32.246094 15.898438 30.648438 15.882812 29.046875 C 15.875 27.816406 15.875 26.589844 15.871094 25.359375 C 15.871094 24.769531 15.867188 24.179688 15.859375 23.589844 C 15.851562 22.765625 15.851562 21.9375 15.855469 21.113281 C 15.851562 20.871094 15.847656 20.625 15.839844 20.375 C 15.851562 19.269531 15.882812 18.496094 16.589844 17.617188 C 18.585938 15.75 20.679688 15.941406 23.09375 16.90625 Z M 23.09375 16.90625 "/>
<path style=" stroke:none;fill-rule:nonzero;fill:rgb(12.156863%,56.862748%,21.176471%);fill-opacity:1;" d="M 47.5 19.25 C 47.582031 19.25 47.664062 19.25 47.75 19.25 C 47.75 27.746094 47.75 36.246094 47.75 45 C 47.667969 45 47.585938 45 47.5 45 C 47.5 36.503906 47.5 28.003906 47.5 19.25 Z M 47.5 19.25 "/>
<path style=" stroke:none;fill-rule:nonzero;fill:rgb(12.156863%,56.862748%,21.176471%);fill-opacity:1;" d="M 42.75 47 C 43.492188 47 44.234375 47 45 47 C 45 47.082031 45 47.164062 45 47.25 C 44.257812 47.25 43.515625 47.25 42.75 47.25 C 42.75 47.167969 42.75 47.085938 42.75 47 Z M 42.75 47 "/>
<path style=" stroke:none;fill-rule:nonzero;fill:rgb(12.156863%,56.862748%,21.176471%);fill-opacity:1;" d="M 43.5 16.75 C 44.160156 16.75 44.820312 16.75 45.5 16.75 C 45.5 16.832031 45.5 16.914062 45.5 17 C 44.839844 17 44.179688 17 43.5 17 C 43.5 16.917969 43.5 16.835938 43.5 16.75 Z M 43.5 16.75 "/>
<path style=" stroke:none;fill-rule:nonzero;fill:rgb(12.156863%,56.862748%,21.176471%);fill-opacity:1;" d="M 45.25 46.75 C 46 47 46 47 46 47 Z M 45.25 46.75 "/>
<path style=" stroke:none;fill-rule:nonzero;fill:rgb(12.156863%,56.862748%,21.176471%);fill-opacity:1;" d="M 41.75 46.75 C 42.5 47 42.5 47 42.5 47 Z M 41.75 46.75 "/>
<path style=" stroke:none;fill-rule:nonzero;fill:rgb(12.156863%,56.862748%,21.176471%);fill-opacity:1;" d="M 46.5 17.5 C 46.664062 17.5 46.828125 17.5 47 17.5 C 46.917969 17.664062 46.835938 17.828125 46.75 18 C 46.667969 17.835938 46.585938 17.671875 46.5 17.5 Z M 46.5 17.5 "/>
<path style=" stroke:none;fill-rule:nonzero;fill:rgb(12.54902%,56.862748%,21.176471%);fill-opacity:1;" d="M 33.75 63.25 C 34.25 63.5 34.25 63.5 34.25 63.5 Z M 33.75 63.25 "/>
<path style=" stroke:none;fill-rule:nonzero;fill:rgb(10.588235%,48.235294%,17.647059%);fill-opacity:1;" d="M 29.75 63.25 C 30.25 63.5 30.25 63.5 30.25 63.5 Z M 29.75 63.25 "/>
<path style=" stroke:none;fill-rule:nonzero;fill:rgb(12.54902%,56.862748%,21.176471%);fill-opacity:1;" d="M 34.25 63 C 34.75 63.25 34.75 63.25 34.75 63.25 Z M 34.25 63 "/>
<path style=" stroke:none;fill-rule:nonzero;fill:rgb(10.588235%,49.803922%,18.431373%);fill-opacity:1;" d="M 29.25 63 C 29.75 63.25 29.75 63.25 29.75 63.25 Z M 29.25 63 "/>
<path style=" stroke:none;fill-rule:nonzero;fill:rgb(12.54902%,56.862748%,21.176471%);fill-opacity:1;" d="M 35.5 62.25 C 36 62.5 36 62.5 36 62.5 Z M 35.5 62.25 "/>
<path style=" stroke:none;fill-rule:nonzero;fill:rgb(10.588235%,48.235294%,17.647059%);fill-opacity:1;" d="M 28 62.25 C 28.5 62.5 28.5 62.5 28.5 62.5 Z M 28 62.25 "/>
<path style=" stroke:none;fill-rule:nonzero;fill:rgb(12.54902%,56.862748%,21.176471%);fill-opacity:1;" d="M 36 62 C 36.5 62.25 36.5 62.25 36.5 62.25 Z M 36 62 "/>
<path style=" stroke:none;fill-rule:nonzero;fill:rgb(10.588235%,49.803922%,18.431373%);fill-opacity:1;" d="M 27.5 62 C 28 62.25 28 62.25 28 62.25 Z M 27.5 62 "/>
<path style=" stroke:none;fill-rule:nonzero;fill:rgb(12.54902%,56.862748%,21.176471%);fill-opacity:1;" d="M 37.25 61.25 C 37.75 61.5 37.75 61.5 37.75 61.5 Z M 37.25 61.25 "/>
<path style=" stroke:none;fill-rule:nonzero;fill:rgb(10.588235%,48.235294%,17.647059%);fill-opacity:1;" d="M 26.25 61.25 C 26.75 61.5 26.75 61.5 26.75 61.5 Z M 26.25 61.25 "/>
<path style=" stroke:none;fill-rule:nonzero;fill:rgb(12.54902%,56.862748%,21.176471%);fill-opacity:1;" d="M 37.75 61 C 38.25 61.25 38.25 61.25 38.25 61.25 Z M 37.75 61 "/>
<path style=" stroke:none;fill-rule:nonzero;fill:rgb(10.588235%,49.803922%,18.431373%);fill-opacity:1;" d="M 25.75 61 C 26.25 61.25 26.25 61.25 26.25 61.25 Z M 25.75 61 "/>
<path style=" stroke:none;fill-rule:nonzero;fill:rgb(12.54902%,56.862748%,21.176471%);fill-opacity:1;" d="M 39 60.25 C 39.5 60.5 39.5 60.5 39.5 60.5 Z M 39 60.25 "/>
<path style=" stroke:none;fill-rule:nonzero;fill:rgb(10.588235%,48.235294%,17.647059%);fill-opacity:1;" d="M 24.5 60.25 C 25 60.5 25 60.5 25 60.5 Z M 24.5 60.25 "/>
<path style=" stroke:none;fill-rule:nonzero;fill:rgb(12.54902%,56.862748%,21.176471%);fill-opacity:1;" d="M 39.5 60 C 40 60.25 40 60.25 40 60.25 Z M 39.5 60 "/>
<path style=" stroke:none;fill-rule:nonzero;fill:rgb(10.588235%,49.803922%,18.431373%);fill-opacity:1;" d="M 24 60 C 24.5 60.25 24.5 60.25 24.5 60.25 Z M 24 60 "/>
<path style=" stroke:none;fill-rule:nonzero;fill:rgb(12.54902%,56.862748%,21.176471%);fill-opacity:1;" d="M 40.75 59.25 C 41.25 59.5 41.25 59.5 41.25 59.5 Z M 40.75 59.25 "/>
<path style=" stroke:none;fill-rule:nonzero;fill:rgb(10.588235%,48.235294%,17.647059%);fill-opacity:1;" d="M 22.75 59.25 C 23.25 59.5 23.25 59.5 23.25 59.5 Z M 22.75 59.25 "/>
<path style=" stroke:none;fill-rule:nonzero;fill:rgb(12.54902%,56.862748%,21.176471%);fill-opacity:1;" d="M 41.25 59 C 41.75 59.25 41.75 59.25 41.75 59.25 Z M 41.25 59 "/>
<path style=" stroke:none;fill-rule:nonzero;fill:rgb(10.588235%,49.803922%,18.431373%);fill-opacity:1;" d="M 22.25 59 C 22.75 59.25 22.75 59.25 22.75 59.25 Z M 22.25 59 "/>
<path style=" stroke:none;fill-rule:nonzero;fill:rgb(12.54902%,56.862748%,21.176471%);fill-opacity:1;" d="M 42.5 58.25 C 43 58.5 43 58.5 43 58.5 Z M 42.5 58.25 "/>
<path style=" stroke:none;fill-rule:nonzero;fill:rgb(10.588235%,48.235294%,17.647059%);fill-opacity:1;" d="M 21 58.25 C 21.5 58.5 21.5 58.5 21.5 58.5 Z M 21 58.25 "/>
<path style=" stroke:none;fill-rule:nonzero;fill:rgb(12.54902%,56.862748%,21.176471%);fill-opacity:1;" d="M 43 58 C 43.5 58.25 43.5 58.25 43.5 58.25 Z M 43 58 "/>
<path style=" stroke:none;fill-rule:nonzero;fill:rgb(10.588235%,49.803922%,18.431373%);fill-opacity:1;" d="M 20.5 58 C 21 58.25 21 58.25 21 58.25 Z M 20.5 58 "/>
<path style=" stroke:none;fill-rule:nonzero;fill:rgb(12.54902%,56.862748%,21.176471%);fill-opacity:1;" d="M 44.25 57.25 C 44.75 57.5 44.75 57.5 44.75 57.5 Z M 44.25 57.25 "/>
<path style=" stroke:none;fill-rule:nonzero;fill:rgb(10.588235%,48.235294%,17.647059%);fill-opacity:1;" d="M 19.25 57.25 C 19.75 57.5 19.75 57.5 19.75 57.5 Z M 19.25 57.25 "/>
<path style=" stroke:none;fill-rule:nonzero;fill:rgb(12.54902%,56.862748%,21.176471%);fill-opacity:1;" d="M 44.75 57 C 45.25 57.25 45.25 57.25 45.25 57.25 Z M 44.75 57 "/>
<path style=" stroke:none;fill-rule:nonzero;fill:rgb(10.588235%,49.803922%,18.431373%);fill-opacity:1;" d="M 18.75 57 C 19.25 57.25 19.25 57.25 19.25 57.25 Z M 18.75 57 "/>
<path style=" stroke:none;fill-rule:nonzero;fill:rgb(12.54902%,56.862748%,21.176471%);fill-opacity:1;" d="M 46 56.25 C 46.5 56.5 46.5 56.5 46.5 56.5 Z M 46 56.25 "/>
<path style=" stroke:none;fill-rule:nonzero;fill:rgb(10.588235%,48.235294%,17.647059%);fill-opacity:1;" d="M 17.5 56.25 C 18 56.5 18 56.5 18 56.5 Z M 17.5 56.25 "/>
<path style=" stroke:none;fill-rule:nonzero;fill:rgb(12.54902%,56.862748%,21.176471%);fill-opacity:1;" d="M 46.5 56 C 47 56.25 47 56.25 47 56.25 Z M 46.5 56 "/>
<path style=" stroke:none;fill-rule:nonzero;fill:rgb(10.588235%,49.803922%,18.431373%);fill-opacity:1;" d="M 17 56 C 17.5 56.25 17.5 56.25 17.5 56.25 Z M 17 56 "/>
<path style=" stroke:none;fill-rule:nonzero;fill:rgb(12.54902%,56.862748%,21.176471%);fill-opacity:1;" d="M 47.75 55.25 C 48.25 55.5 48.25 55.5 48.25 55.5 Z M 47.75 55.25 "/>
<path style=" stroke:none;fill-rule:nonzero;fill:rgb(10.588235%,48.235294%,17.647059%);fill-opacity:1;" d="M 15.75 55.25 C 16.25 55.5 16.25 55.5 16.25 55.5 Z M 15.75 55.25 "/>
<path style=" stroke:none;fill-rule:nonzero;fill:rgb(12.54902%,56.862748%,21.176471%);fill-opacity:1;" d="M 48.25 55 C 48.75 55.25 48.75 55.25 48.75 55.25 Z M 48.25 55 "/>
<path style=" stroke:none;fill-rule:nonzero;fill:rgb(10.588235%,49.803922%,18.431373%);fill-opacity:1;" d="M 15.25 55 C 15.75 55.25 15.75 55.25 15.75 55.25 Z M 15.25 55 "/>
<path style=" stroke:none;fill-rule:nonzero;fill:rgb(12.54902%,56.862748%,21.176471%);fill-opacity:1;" d="M 49.5 54.25 C 50 54.5 50 54.5 50 54.5 Z M 49.5 54.25 "/>
<path style=" stroke:none;fill-rule:nonzero;fill:rgb(10.588235%,48.235294%,17.647059%);fill-opacity:1;" d="M 14 54.25 C 14.5 54.5 14.5 54.5 14.5 54.5 Z M 14 54.25 "/>
<path style=" stroke:none;fill-rule:nonzero;fill:rgb(12.54902%,56.862748%,21.176471%);fill-opacity:1;" d="M 50 54 C 50.5 54.25 50.5 54.25 50.5 54.25 Z M 50 54 "/>
<path style=" stroke:none;fill-rule:nonzero;fill:rgb(10.588235%,49.803922%,18.431373%);fill-opacity:1;" d="M 13.5 54 C 14 54.25 14 54.25 14 54.25 Z M 13.5 54 "/>
<path style=" stroke:none;fill-rule:nonzero;fill:rgb(12.54902%,56.862748%,21.176471%);fill-opacity:1;" d="M 51.25 53.25 C 51.75 53.5 51.75 53.5 51.75 53.5 Z M 51.25 53.25 "/>
<path style=" stroke:none;fill-rule:nonzero;fill:rgb(10.588235%,48.235294%,17.647059%);fill-opacity:1;" d="M 12.25 53.25 C 12.75 53.5 12.75 53.5 12.75 53.5 Z M 12.25 53.25 "/>
<path style=" stroke:none;fill-rule:nonzero;fill:rgb(12.54902%,56.862748%,21.176471%);fill-opacity:1;" d="M 51.75 53 C 52.25 53.25 52.25 53.25 52.25 53.25 Z M 51.75 53 "/>
<path style=" stroke:none;fill-rule:nonzero;fill:rgb(10.588235%,49.803922%,18.431373%);fill-opacity:1;" d="M 11.75 53 C 12.25 53.25 12.25 53.25 12.25 53.25 Z M 11.75 53 "/>
<path style=" stroke:none;fill-rule:nonzero;fill:rgb(12.54902%,56.862748%,21.176471%);fill-opacity:1;" d="M 53 52.25 C 53.5 52.5 53.5 52.5 53.5 52.5 Z M 53 52.25 "/>
<path style=" stroke:none;fill-rule:nonzero;fill:rgb(10.588235%,48.235294%,17.647059%);fill-opacity:1;" d="M 10.5 52.25 C 11 52.5 11 52.5 11 52.5 Z M 10.5 52.25 "/>
<path style=" stroke:none;fill-rule:nonzero;fill:rgb(12.54902%,56.862748%,21.176471%);fill-opacity:1;" d="M 53.5 52 C 54 52.25 54 52.25 54 52.25 Z M 53.5 52 "/>
<path style=" stroke:none;fill-rule:nonzero;fill:rgb(10.588235%,49.803922%,18.431373%);fill-opacity:1;" d="M 10 52 C 10.5 52.25 10.5 52.25 10.5 52.25 Z M 10 52 "/>
<path style=" stroke:none;fill-rule:nonzero;fill:rgb(12.54902%,56.862748%,21.176471%);fill-opacity:1;" d="M 54.75 51.25 C 55.25 51.5 55.25 51.5 55.25 51.5 Z M 54.75 51.25 "/>
<path style=" stroke:none;fill-rule:nonzero;fill:rgb(10.588235%,48.235294%,17.647059%);fill-opacity:1;" d="M 8.75 51.25 C 9.25 51.5 9.25 51.5 9.25 51.5 Z M 8.75 51.25 "/>
<path style=" stroke:none;fill-rule:nonzero;fill:rgb(12.54902%,56.862748%,21.176471%);fill-opacity:1;" d="M 55.25 51 C 55.75 51.25 55.75 51.25 55.75 51.25 Z M 55.25 51 "/>
<path style=" stroke:none;fill-rule:nonzero;fill:rgb(10.588235%,49.803922%,18.431373%);fill-opacity:1;" d="M 8.25 51 C 8.75 51.25 8.75 51.25 8.75 51.25 Z M 8.25 51 "/>
<path style=" stroke:none;fill-rule:nonzero;fill:rgb(12.54902%,56.862748%,21.176471%);fill-opacity:1;" d="M 56.5 50.25 C 57 50.5 57 50.5 57 50.5 Z M 56.5 50.25 "/>
<path style=" stroke:none;fill-rule:nonzero;fill:rgb(10.588235%,48.235294%,17.647059%);fill-opacity:1;" d="M 7 50.25 C 7.5 50.5 7.5 50.5 7.5 50.5 Z M 7 50.25 "/>
<path style=" stroke:none;fill-rule:nonzero;fill:rgb(12.54902%,56.862748%,21.176471%);fill-opacity:1;" d="M 57 50 C 57.5 50.25 57.5 50.25 57.5 50.25 Z M 57 50 "/>
<path style=" stroke:none;fill-rule:nonzero;fill:rgb(10.588235%,49.803922%,18.431373%);fill-opacity:1;" d="M 6.5 50 C 7 50.25 7 50.25 7 50.25 Z M 6.5 50 "/>
<path style=" stroke:none;fill-rule:nonzero;fill:rgb(12.54902%,56.862748%,21.176471%);fill-opacity:1;" d="M 58.25 49.25 C 58.75 49.5 58.75 49.5 58.75 49.5 Z M 58.25 49.25 "/>
<path style=" stroke:none;fill-rule:nonzero;fill:rgb(10.588235%,48.235294%,17.647059%);fill-opacity:1;" d="M 5.25 49.25 C 5.75 49.5 5.75 49.5 5.75 49.5 Z M 5.25 49.25 "/>
<path style=" stroke:none;fill-rule:nonzero;fill:rgb(12.54902%,56.862748%,21.176471%);fill-opacity:1;" d="M 58.75 49 C 59.25 49.25 59.25 49.25 59.25 49.25 Z M 58.75 49 "/>
<path style=" stroke:none;fill-rule:nonzero;fill:rgb(10.588235%,49.803922%,18.431373%);fill-opacity:1;" d="M 4.75 49 C 5.25 49.25 5.25 49.25 5.25 49.25 Z M 4.75 49 "/>
<path style=" stroke:none;fill-rule:nonzero;fill:rgb(12.156863%,56.862748%,21.176471%);fill-opacity:1;" d="M 46 46.5 C 46.5 46.75 46.5 46.75 46.5 46.75 Z M 46 46.5 "/>
<path style=" stroke:none;fill-rule:nonzero;fill:rgb(12.54902%,57.254905%,21.176471%);fill-opacity:1;" d="M 41.25 46.5 C 41.75 46.75 41.75 46.75 41.75 46.75 Z M 41.25 46.5 "/>
<path style=" stroke:none;fill-rule:nonzero;fill:rgb(12.156863%,56.862748%,21.176471%);fill-opacity:1;" d="M 40.75 46.25 C 41.25 46.5 41.25 46.5 41.25 46.5 Z M 40.75 46.25 "/>
<path style=" stroke:none;fill-rule:nonzero;fill:rgb(12.156863%,57.254905%,21.176471%);fill-opacity:1;" d="M 40.25 46 C 40.75 46.25 40.75 46.25 40.75 46.25 Z M 40.25 46 "/>
<path style=" stroke:none;fill-rule:nonzero;fill:rgb(12.156863%,57.254905%,21.176471%);fill-opacity:1;" d="M 45.75 17 C 46.25 17.25 46.25 17.25 46.25 17.25 Z M 45.75 17 "/>
<path style=" stroke:none;fill-rule:nonzero;fill:rgb(12.156863%,56.862748%,21.176471%);fill-opacity:1;" d="M 58.75 14.75 C 59.25 15 59.25 15 59.25 15 Z M 58.75 14.75 "/>
<path style=" stroke:none;fill-rule:nonzero;fill:rgb(10.588235%,49.803922%,18.431373%);fill-opacity:1;" d="M 4.75 14.75 C 5.25 15 5.25 15 5.25 15 Z M 4.75 14.75 "/>
<path style=" stroke:none;fill-rule:nonzero;fill:rgb(12.156863%,56.862748%,21.176471%);fill-opacity:1;" d="M 58.25 14.5 C 58.75 14.75 58.75 14.75 58.75 14.75 Z M 58.25 14.5 "/>
<path style=" stroke:none;fill-rule:nonzero;fill:rgb(10.196079%,48.235294%,17.647059%);fill-opacity:1;" d="M 5.25 14.5 C 5.75 14.75 5.75 14.75 5.75 14.75 Z M 5.25 14.5 "/>
<path style=" stroke:none;fill-rule:nonzero;fill:rgb(12.156863%,56.862748%,21.176471%);fill-opacity:1;" d="M 57 13.75 C 57.5 14 57.5 14 57.5 14 Z M 57 13.75 "/>
<path style=" stroke:none;fill-rule:nonzero;fill:rgb(10.588235%,49.803922%,18.431373%);fill-opacity:1;" d="M 6.5 13.75 C 7 14 7 14 7 14 Z M 6.5 13.75 "/>
<path style=" stroke:none;fill-rule:nonzero;fill:rgb(12.156863%,56.862748%,21.176471%);fill-opacity:1;" d="M 56.5 13.5 C 57 13.75 57 13.75 57 13.75 Z M 56.5 13.5 "/>
<path style=" stroke:none;fill-rule:nonzero;fill:rgb(10.196079%,48.235294%,17.647059%);fill-opacity:1;" d="M 7 13.5 C 7.5 13.75 7.5 13.75 7.5 13.75 Z M 7 13.5 "/>
<path style=" stroke:none;fill-rule:nonzero;fill:rgb(12.156863%,56.862748%,21.176471%);fill-opacity:1;" d="M 55.25 12.75 C 55.75 13 55.75 13 55.75 13 Z M 55.25 12.75 "/>
<path style=" stroke:none;fill-rule:nonzero;fill:rgb(10.588235%,49.803922%,18.431373%);fill-opacity:1;" d="M 8.25 12.75 C 8.75 13 8.75 13 8.75 13 Z M 8.25 12.75 "/>
<path style=" stroke:none;fill-rule:nonzero;fill:rgb(12.156863%,56.862748%,21.176471%);fill-opacity:1;" d="M 54.75 12.5 C 55.25 12.75 55.25 12.75 55.25 12.75 Z M 54.75 12.5 "/>
<path style=" stroke:none;fill-rule:nonzero;fill:rgb(10.196079%,48.235294%,17.647059%);fill-opacity:1;" d="M 8.75 12.5 C 9.25 12.75 9.25 12.75 9.25 12.75 Z M 8.75 12.5 "/>
<path style=" stroke:none;fill-rule:nonzero;fill:rgb(12.156863%,56.862748%,21.176471%);fill-opacity:1;" d="M 53.5 11.75 C 54 12 54 12 54 12 Z M 53.5 11.75 "/>
<path style=" stroke:none;fill-rule:nonzero;fill:rgb(10.588235%,49.803922%,18.431373%);fill-opacity:1;" d="M 10 11.75 C 10.5 12 10.5 12 10.5 12 Z M 10 11.75 "/>
<path style=" stroke:none;fill-rule:nonzero;fill:rgb(12.156863%,56.862748%,21.176471%);fill-opacity:1;" d="M 53 11.5 C 53.5 11.75 53.5 11.75 53.5 11.75 Z M 53 11.5 "/>
<path style=" stroke:none;fill-rule:nonzero;fill:rgb(10.196079%,48.235294%,17.647059%);fill-opacity:1;" d="M 10.5 11.5 C 11 11.75 11 11.75 11 11.75 Z M 10.5 11.5 "/>
<path style=" stroke:none;fill-rule:nonzero;fill:rgb(12.156863%,56.862748%,21.176471%);fill-opacity:1;" d="M 51.75 10.75 C 52.25 11 52.25 11 52.25 11 Z M 51.75 10.75 "/>
<path style=" stroke:none;fill-rule:nonzero;fill:rgb(10.588235%,49.803922%,18.431373%);fill-opacity:1;" d="M 11.75 10.75 C 12.25 11 12.25 11 12.25 11 Z M 11.75 10.75 "/>
<path style=" stroke:none;fill-rule:nonzero;fill:rgb(12.156863%,56.862748%,21.176471%);fill-opacity:1;" d="M 51.25 10.5 C 51.75 10.75 51.75 10.75 51.75 10.75 Z M 51.25 10.5 "/>
<path style=" stroke:none;fill-rule:nonzero;fill:rgb(10.196079%,48.235294%,17.647059%);fill-opacity:1;" d="M 12.25 10.5 C 12.75 10.75 12.75 10.75 12.75 10.75 Z M 12.25 10.5 "/>
<path style=" stroke:none;fill-rule:nonzero;fill:rgb(12.156863%,56.862748%,21.176471%);fill-opacity:1;" d="M 50 9.75 C 50.5 10 50.5 10 50.5 10 Z M 50 9.75 "/>
<path style=" stroke:none;fill-rule:nonzero;fill:rgb(10.588235%,49.803922%,18.431373%);fill-opacity:1;" d="M 13.5 9.75 C 14 10 14 10 14 10 Z M 13.5 9.75 "/>
<path style=" stroke:none;fill-rule:nonzero;fill:rgb(12.156863%,56.862748%,21.176471%);fill-opacity:1;" d="M 49.5 9.5 C 50 9.75 50 9.75 50 9.75 Z M 49.5 9.5 "/>
<path style=" stroke:none;fill-rule:nonzero;fill:rgb(10.196079%,48.235294%,17.647059%);fill-opacity:1;" d="M 14 9.5 C 14.5 9.75 14.5 9.75 14.5 9.75 Z M 14 9.5 "/>
<path style=" stroke:none;fill-rule:nonzero;fill:rgb(12.156863%,56.862748%,21.176471%);fill-opacity:1;" d="M 48.25 8.75 C 48.75 9 48.75 9 48.75 9 Z M 48.25 8.75 "/>
<path style=" stroke:none;fill-rule:nonzero;fill:rgb(10.588235%,49.803922%,18.431373%);fill-opacity:1;" d="M 15.25 8.75 C 15.75 9 15.75 9 15.75 9 Z M 15.25 8.75 "/>
<path style=" stroke:none;fill-rule:nonzero;fill:rgb(12.156863%,56.862748%,21.176471%);fill-opacity:1;" d="M 47.75 8.5 C 48.25 8.75 48.25 8.75 48.25 8.75 Z M 47.75 8.5 "/>
<path style=" stroke:none;fill-rule:nonzero;fill:rgb(10.196079%,48.235294%,17.647059%);fill-opacity:1;" d="M 15.75 8.5 C 16.25 8.75 16.25 8.75 16.25 8.75 Z M 15.75 8.5 "/>
<path style=" stroke:none;fill-rule:nonzero;fill:rgb(12.156863%,56.862748%,21.176471%);fill-opacity:1;" d="M 46.5 7.75 C 47 8 47 8 47 8 Z M 46.5 7.75 "/>
<path style=" stroke:none;fill-rule:nonzero;fill:rgb(10.588235%,49.803922%,18.431373%);fill-opacity:1;" d="M 17 7.75 C 17.5 8 17.5 8 17.5 8 Z M 17 7.75 "/>
<path style=" stroke:none;fill-rule:nonzero;fill:rgb(12.156863%,56.862748%,21.176471%);fill-opacity:1;" d="M 46 7.5 C 46.5 7.75 46.5 7.75 46.5 7.75 Z M 46 7.5 "/>
<path style=" stroke:none;fill-rule:nonzero;fill:rgb(10.196079%,48.235294%,17.647059%);fill-opacity:1;" d="M 17.5 7.5 C 18 7.75 18 7.75 18 7.75 Z M 17.5 7.5 "/>
<path style=" stroke:none;fill-rule:nonzero;fill:rgb(12.156863%,56.862748%,21.176471%);fill-opacity:1;" d="M 44.75 6.75 C 45.25 7 45.25 7 45.25 7 Z M 44.75 6.75 "/>
<path style=" stroke:none;fill-rule:nonzero;fill:rgb(10.588235%,49.803922%,18.431373%);fill-opacity:1;" d="M 18.75 6.75 C 19.25 7 19.25 7 19.25 7 Z M 18.75 6.75 "/>
<path style=" stroke:none;fill-rule:nonzero;fill:rgb(12.156863%,56.862748%,21.176471%);fill-opacity:1;" d="M 44.25 6.5 C 44.75 6.75 44.75 6.75 44.75 6.75 Z M 44.25 6.5 "/>
<path style=" stroke:none;fill-rule:nonzero;fill:rgb(10.196079%,48.235294%,17.647059%);fill-opacity:1;" d="M 19.25 6.5 C 19.75 6.75 19.75 6.75 19.75 6.75 Z M 19.25 6.5 "/>
<path style=" stroke:none;fill-rule:nonzero;fill:rgb(12.156863%,56.862748%,21.176471%);fill-opacity:1;" d="M 43 5.75 C 43.5 6 43.5 6 43.5 6 Z M 43 5.75 "/>
<path style=" stroke:none;fill-rule:nonzero;fill:rgb(10.588235%,49.803922%,18.431373%);fill-opacity:1;" d="M 20.5 5.75 C 21 6 21 6 21 6 Z M 20.5 5.75 "/>
<path style=" stroke:none;fill-rule:nonzero;fill:rgb(12.156863%,56.862748%,21.176471%);fill-opacity:1;" d="M 42.5 5.5 C 43 5.75 43 5.75 43 5.75 Z M 42.5 5.5 "/>
<path style=" stroke:none;fill-rule:nonzero;fill:rgb(10.196079%,48.235294%,17.647059%);fill-opacity:1;" d="M 21 5.5 C 21.5 5.75 21.5 5.75 21.5 5.75 Z M 21 5.5 "/>
<path style=" stroke:none;fill-rule:nonzero;fill:rgb(12.156863%,56.862748%,21.176471%);fill-opacity:1;" d="M 41.25 4.75 C 41.75 5 41.75 5 41.75 5 Z M 41.25 4.75 "/>
<path style=" stroke:none;fill-rule:nonzero;fill:rgb(10.588235%,49.803922%,18.431373%);fill-opacity:1;" d="M 22.25 4.75 C 22.75 5 22.75 5 22.75 5 Z M 22.25 4.75 "/>
<path style=" stroke:none;fill-rule:nonzero;fill:rgb(12.156863%,56.862748%,21.176471%);fill-opacity:1;" d="M 40.75 4.5 C 41.25 4.75 41.25 4.75 41.25 4.75 Z M 40.75 4.5 "/>
<path style=" stroke:none;fill-rule:nonzero;fill:rgb(10.196079%,48.235294%,17.647059%);fill-opacity:1;" d="M 22.75 4.5 C 23.25 4.75 23.25 4.75 23.25 4.75 Z M 22.75 4.5 "/>
<path style=" stroke:none;fill-rule:nonzero;fill:rgb(12.156863%,56.862748%,21.176471%);fill-opacity:1;" d="M 39.5 3.75 C 40 4 40 4 40 4 Z M 39.5 3.75 "/>
<path style=" stroke:none;fill-rule:nonzero;fill:rgb(10.588235%,49.803922%,18.431373%);fill-opacity:1;" d="M 24 3.75 C 24.5 4 24.5 4 24.5 4 Z M 24 3.75 "/>
<path style=" stroke:none;fill-rule:nonzero;fill:rgb(12.156863%,56.862748%,21.176471%);fill-opacity:1;" d="M 39 3.5 C 39.5 3.75 39.5 3.75 39.5 3.75 Z M 39 3.5 "/>
<path style=" stroke:none;fill-rule:nonzero;fill:rgb(10.196079%,48.235294%,17.647059%);fill-opacity:1;" d="M 24.5 3.5 C 25 3.75 25 3.75 25 3.75 Z M 24.5 3.5 "/>
<path style=" stroke:none;fill-rule:nonzero;fill:rgb(12.156863%,56.862748%,21.176471%);fill-opacity:1;" d="M 37.75 2.75 C 38.25 3 38.25 3 38.25 3 Z M 37.75 2.75 "/>
<path style=" stroke:none;fill-rule:nonzero;fill:rgb(10.588235%,49.803922%,18.431373%);fill-opacity:1;" d="M 25.75 2.75 C 26.25 3 26.25 3 26.25 3 Z M 25.75 2.75 "/>
<path style=" stroke:none;fill-rule:nonzero;fill:rgb(12.156863%,56.862748%,21.176471%);fill-opacity:1;" d="M 37.25 2.5 C 37.75 2.75 37.75 2.75 37.75 2.75 Z M 37.25 2.5 "/>
<path style=" stroke:none;fill-rule:nonzero;fill:rgb(10.196079%,48.235294%,17.647059%);fill-opacity:1;" d="M 26.25 2.5 C 26.75 2.75 26.75 2.75 26.75 2.75 Z M 26.25 2.5 "/>
<path style=" stroke:none;fill-rule:nonzero;fill:rgb(12.156863%,56.862748%,21.176471%);fill-opacity:1;" d="M 36 1.75 C 36.5 2 36.5 2 36.5 2 Z M 36 1.75 "/>
<path style=" stroke:none;fill-rule:nonzero;fill:rgb(10.588235%,49.803922%,18.431373%);fill-opacity:1;" d="M 27.5 1.75 C 28 2 28 2 28 2 Z M 27.5 1.75 "/>
<path style=" stroke:none;fill-rule:nonzero;fill:rgb(12.156863%,56.862748%,21.176471%);fill-opacity:1;" d="M 35.5 1.5 C 36 1.75 36 1.75 36 1.75 Z M 35.5 1.5 "/>
<path style=" stroke:none;fill-rule:nonzero;fill:rgb(10.196079%,48.235294%,17.647059%);fill-opacity:1;" d="M 28 1.5 C 28.5 1.75 28.5 1.75 28.5 1.75 Z M 28 1.5 "/>
<path style=" stroke:none;fill-rule:nonzero;fill:rgb(12.156863%,56.862748%,21.176471%);fill-opacity:1;" d="M 34.25 0.75 C 34.75 1 34.75 1 34.75 1 Z M 34.25 0.75 "/>
<path style=" stroke:none;fill-rule:nonzero;fill:rgb(10.588235%,49.803922%,18.431373%);fill-opacity:1;" d="M 29.25 0.75 C 29.75 1 29.75 1 29.75 1 Z M 29.25 0.75 "/>
<path style=" stroke:none;fill-rule:nonzero;fill:rgb(12.156863%,56.862748%,21.176471%);fill-opacity:1;" d="M 33.75 0.5 C 34.25 0.75 34.25 0.75 34.25 0.75 Z M 33.75 0.5 "/>
<path style=" stroke:none;fill-rule:nonzero;fill:rgb(10.196079%,48.235294%,17.647059%);fill-opacity:1;" d="M 29.75 0.5 C 30.25 0.75 30.25 0.75 30.25 0.75 Z M 29.75 0.5 "/>
</g>
</svg>
