<?xml version="1.0" encoding="UTF-8"?>
<svg xmlns="http://www.w3.org/2000/svg" xmlns:xlink="http://www.w3.org/1999/xlink" width="px" height="64px" viewBox="0 0 64 64" version="1.1">
<g id="surface1">
<path style=" stroke:none;fill-rule:nonzero;fill:rgb(19.607843%,19.607843%,19.607843%);fill-opacity:1;" d="M 31.964844 0.855469 C 32.0625 0.855469 32.164062 0.855469 32.265625 0.855469 C 33.6875 0.859375 35.074219 0.890625 36.480469 1.121094 C 36.570312 1.132812 36.660156 1.148438 36.75 1.160156 C 42.949219 2.121094 48.636719 4.910156 53.226562 9.164062 C 53.410156 9.332031 53.59375 9.492188 53.785156 9.65625 C 54.046875 9.882812 54.273438 10.132812 54.5 10.398438 C 54.640625 10.5625 54.792969 10.714844 54.949219 10.863281 C 55.261719 11.175781 55.539062 11.503906 55.8125 11.847656 C 56 12.078125 56.1875 12.300781 56.378906 12.523438 C 59.808594 16.644531 61.960938 21.839844 62.820312 27.105469 C 62.832031 27.179688 62.84375 27.25 62.855469 27.328125 C 63.09375 28.871094 63.148438 30.40625 63.144531 31.964844 C 63.144531 32.113281 63.144531 32.113281 63.144531 32.265625 C 63.140625 33.6875 63.109375 35.074219 62.878906 36.480469 C 62.867188 36.570312 62.851562 36.660156 62.839844 36.75 C 61.878906 42.949219 59.089844 48.636719 54.835938 53.226562 C 54.667969 53.410156 54.507812 53.59375 54.34375 53.785156 C 54.117188 54.046875 53.867188 54.273438 53.601562 54.5 C 53.4375 54.640625 53.285156 54.792969 53.136719 54.949219 C 52.824219 55.261719 52.496094 55.539062 52.152344 55.8125 C 51.921875 56 51.699219 56.1875 51.476562 56.378906 C 47.355469 59.808594 42.160156 61.960938 36.894531 62.820312 C 36.820312 62.832031 36.75 62.84375 36.671875 62.855469 C 35.128906 63.09375 33.59375 63.148438 32.035156 63.144531 C 31.9375 63.144531 31.835938 63.144531 31.734375 63.144531 C 30.3125 63.140625 28.925781 63.109375 27.519531 62.878906 C 27.429688 62.867188 27.339844 62.851562 27.25 62.839844 C 21.050781 61.878906 15.363281 59.089844 10.773438 54.835938 C 10.589844 54.667969 10.40625 54.507812 10.214844 54.34375 C 9.953125 54.117188 9.726562 53.867188 9.5 53.601562 C 9.359375 53.4375 9.207031 53.285156 9.050781 53.136719 C 8.738281 52.824219 8.460938 52.496094 8.1875 52.152344 C 8 51.921875 7.8125 51.699219 7.621094 51.476562 C 4.191406 47.355469 2.039062 42.160156 1.179688 36.894531 C 1.167969 36.820312 1.15625 36.75 1.144531 36.671875 C 0.90625 35.128906 0.851562 33.59375 0.855469 32.035156 C 0.855469 31.9375 0.855469 31.835938 0.855469 31.734375 C 0.859375 30.3125 0.890625 28.925781 1.121094 27.519531 C 1.132812 27.429688 1.148438 27.339844 1.160156 27.25 C 2.121094 21.050781 4.910156 15.363281 9.164062 10.773438 C 9.332031 10.589844 9.492188 10.40625 9.65625 10.214844 C 9.882812 9.953125 10.132812 9.726562 10.398438 9.5 C 10.5625 9.359375 10.714844 9.207031 10.863281 9.050781 C 11.175781 8.738281 11.503906 8.460938 11.847656 8.1875 C 12.078125 8 12.300781 7.8125 12.523438 7.621094 C 16.644531 4.191406 21.839844 2.039062 27.105469 1.179688 C 27.179688 1.167969 27.25 1.15625 27.328125 1.144531 C 28.871094 0.90625 30.40625 0.851562 31.964844 0.855469 Z M 31.964844 0.855469 "/>
<path style=" stroke:none;fill-rule:nonzero;fill:rgb(20%,20%,20%);fill-opacity:1;" d="M 27.613281 27.335938 C 28.433594 28.007812 28.878906 28.792969 29.039062 29.839844 C 29.152344 31.1875 28.910156 32.28125 28.175781 33.425781 C 27.523438 34.078125 26.792969 34.328125 25.886719 34.355469 C 25.003906 34.332031 24.40625 34.09375 23.773438 33.476562 C 23.503906 33.171875 23.339844 32.863281 23.199219 32.480469 C 23.160156 32.382812 23.160156 32.382812 23.125 32.28125 C 22.734375 31.050781 22.828125 29.570312 23.359375 28.398438 C 23.726562 27.738281 24.324219 27.203125 25.039062 26.960938 C 25.914062 26.75 26.867188 26.808594 27.613281 27.335938 Z M 27.613281 27.335938 "/>
<path style=" stroke:none;fill-rule:nonzero;fill:rgb(98.039216%,98.039216%,98.039216%);fill-opacity:1;" d="M 40.628906 26.859375 C 41.464844 27.472656 41.878906 28.296875 42.160156 29.28125 C 42.160156 29.753906 42.160156 30.230469 42.160156 30.71875 C 39.96875 30.71875 37.777344 30.71875 35.519531 30.71875 C 35.789062 32.441406 35.789062 32.441406 36.835938 33.746094 C 37.640625 34.246094 38.410156 34.355469 39.351562 34.203125 C 40.070312 34.011719 40.628906 33.636719 41.015625 33 C 41.195312 32.652344 41.320312 32.292969 41.441406 31.921875 C 41.652344 31.921875 41.863281 31.921875 42.078125 31.921875 C 42.066406 32.660156 41.683594 33.445312 41.195312 33.996094 C 40.25 34.835938 39.121094 34.925781 37.921875 34.878906 C 37.113281 34.808594 36.367188 34.375 35.820312 33.785156 C 34.921875 32.617188 34.757812 31.183594 34.914062 29.765625 C 35.085938 28.738281 35.511719 27.730469 36.320312 27.039062 C 37.628906 26.132812 39.246094 26.007812 40.628906 26.859375 Z M 40.628906 26.859375 "/>
<path style=" stroke:none;fill-rule:nonzero;fill:rgb(98.039216%,98.039216%,98.039216%);fill-opacity:1;" d="M 12.230469 26.859375 C 13.0625 27.472656 13.480469 28.296875 13.761719 29.28125 C 13.761719 29.753906 13.761719 30.230469 13.761719 30.71875 C 11.570312 30.71875 9.378906 30.71875 7.121094 30.71875 C 7.390625 32.441406 7.390625 32.441406 8.4375 33.746094 C 9.242188 34.246094 10.011719 34.355469 10.949219 34.203125 C 11.667969 34.011719 12.226562 33.636719 12.617188 33 C 12.792969 32.652344 12.921875 32.292969 13.039062 31.921875 C 13.25 31.921875 13.460938 31.921875 13.679688 31.921875 C 13.664062 32.660156 13.285156 33.445312 12.796875 33.996094 C 11.851562 34.835938 10.722656 34.925781 9.519531 34.878906 C 8.710938 34.808594 7.96875 34.375 7.421875 33.785156 C 6.523438 32.617188 6.355469 31.183594 6.515625 29.765625 C 6.683594 28.738281 7.113281 27.730469 7.921875 27.039062 C 9.230469 26.132812 10.84375 26.007812 12.230469 26.859375 Z M 12.230469 26.859375 "/>
<path style=" stroke:none;fill-rule:nonzero;fill:rgb(97.647059%,97.647059%,97.647059%);fill-opacity:1;" d="M 27.550781 26.613281 C 28.492188 27.101562 29.074219 27.8125 29.441406 28.800781 C 29.871094 30.246094 29.8125 31.847656 29.121094 33.199219 C 28.613281 34.039062 27.894531 34.5625 26.953125 34.820312 C 25.972656 35.011719 24.886719 34.960938 24.015625 34.445312 C 23.597656 34.148438 23.269531 33.820312 23.039062 33.359375 C 23.011719 34.785156 22.988281 36.210938 22.960938 37.679688 C 22.75 37.679688 22.539062 37.679688 22.320312 37.679688 C 22.320312 33.984375 22.320312 30.289062 22.320312 26.480469 C 22.53125 26.480469 22.742188 26.480469 22.960938 26.480469 C 22.988281 27.007812 23.011719 27.535156 23.039062 28.078125 C 23.171875 27.867188 23.304688 27.65625 23.441406 27.441406 C 24.390625 26.191406 26.191406 25.996094 27.550781 26.613281 Z M 23.699219 27.894531 C 23.390625 28.261719 23.253906 28.664062 23.121094 29.121094 C 23.089844 29.203125 23.0625 29.285156 23.035156 29.371094 C 22.75 30.554688 22.859375 32.070312 23.5 33.121094 C 23.972656 33.746094 24.503906 34.15625 25.28125 34.320312 C 26.210938 34.417969 27.054688 34.296875 27.828125 33.75 C 28.539062 33.144531 28.921875 32.191406 29.039062 31.28125 C 29.132812 29.976562 28.949219 28.808594 28.113281 27.761719 C 27.617188 27.21875 26.972656 26.914062 26.242188 26.863281 C 25.152344 26.847656 24.457031 27.109375 23.699219 27.894531 Z M 23.699219 27.894531 "/>
<path style=" stroke:none;fill-rule:nonzero;fill:rgb(20%,20%,20%);fill-opacity:1;" d="M 40.34375 27.398438 C 40.96875 27.886719 41.40625 28.65625 41.519531 29.441406 C 41.519531 29.675781 41.519531 29.914062 41.519531 30.160156 C 39.566406 30.160156 37.613281 30.160156 35.601562 30.160156 C 35.601562 29.285156 35.820312 28.511719 36.398438 27.835938 C 37.535156 26.730469 38.980469 26.519531 40.34375 27.398438 Z M 40.34375 27.398438 "/>
<path style=" stroke:none;fill-rule:nonzero;fill:rgb(20%,20%,20%);fill-opacity:1;" d="M 11.941406 27.398438 C 12.570312 27.886719 13.003906 28.65625 13.121094 29.441406 C 13.121094 29.675781 13.121094 29.914062 13.121094 30.160156 C 11.167969 30.160156 9.210938 30.160156 7.199219 30.160156 C 7.199219 29.285156 7.421875 28.511719 8 27.835938 C 9.132812 26.730469 10.578125 26.519531 11.941406 27.398438 Z M 11.941406 27.398438 "/>
<path style=" stroke:none;fill-rule:nonzero;fill:rgb(97.254902%,97.254902%,97.254902%);fill-opacity:1;" d="M 56.328125 26.839844 C 56.792969 27.210938 57.160156 27.648438 57.28125 28.238281 C 57.296875 28.480469 57.296875 28.71875 57.28125 28.960938 C 57.070312 28.960938 56.859375 28.960938 56.640625 28.960938 C 56.632812 28.902344 56.625 28.84375 56.617188 28.785156 C 56.527344 28.214844 56.402344 27.855469 56 27.429688 C 55.175781 26.917969 54.199219 26.808594 53.257812 27.019531 C 52.71875 27.199219 52.320312 27.4375 52 27.921875 C 51.941406 28.328125 51.90625 28.761719 52.085938 29.140625 C 52.628906 29.820312 53.492188 29.945312 54.300781 30.121094 C 56.753906 30.652344 56.753906 30.652344 57.269531 31.449219 C 57.597656 32.007812 57.609375 32.664062 57.484375 33.296875 C 57.246094 33.929688 56.738281 34.351562 56.144531 34.640625 C 55.015625 35.042969 53.574219 35.078125 52.480469 34.558594 C 52.238281 34.421875 52.039062 34.269531 51.839844 34.078125 C 51.789062 34.03125 51.738281 33.984375 51.6875 33.9375 C 51.238281 33.472656 50.945312 32.882812 50.941406 32.226562 C 50.945312 32.152344 50.953125 32.078125 50.960938 32 C 51.171875 32 51.382812 32 51.601562 32 C 51.617188 32.066406 51.632812 32.132812 51.648438 32.203125 C 51.84375 32.941406 52.105469 33.472656 52.765625 33.890625 C 53.660156 34.359375 54.660156 34.355469 55.625 34.078125 C 56.101562 33.90625 56.515625 33.6875 56.75 33.210938 C 56.886719 32.742188 56.867188 32.265625 56.699219 31.808594 C 55.910156 31.058594 54.738281 30.875 53.703125 30.683594 C 52.867188 30.519531 52.09375 30.261719 51.519531 29.601562 C 51.1875 29.089844 51.226562 28.511719 51.28125 27.921875 C 51.382812 27.488281 51.625 27.113281 51.988281 26.855469 C 53.242188 26.105469 55.09375 26.003906 56.328125 26.839844 Z M 56.328125 26.839844 "/>
<path style=" stroke:none;fill-rule:nonzero;fill:rgb(97.254902%,97.254902%,97.254902%);fill-opacity:1;" d="M 48.648438 26.839844 C 49.113281 27.210938 49.480469 27.648438 49.601562 28.238281 C 49.617188 28.480469 49.613281 28.71875 49.601562 28.960938 C 49.390625 28.960938 49.175781 28.960938 48.960938 28.960938 C 48.953125 28.902344 48.945312 28.84375 48.9375 28.785156 C 48.847656 28.214844 48.722656 27.855469 48.320312 27.429688 C 47.496094 26.917969 46.519531 26.808594 45.578125 27.019531 C 45.035156 27.199219 44.640625 27.4375 44.320312 27.921875 C 44.261719 28.328125 44.226562 28.761719 44.40625 29.140625 C 44.949219 29.820312 45.8125 29.945312 46.621094 30.121094 C 49.074219 30.652344 49.074219 30.652344 49.589844 31.449219 C 49.917969 32.007812 49.929688 32.664062 49.804688 33.296875 C 49.566406 33.929688 49.058594 34.351562 48.464844 34.640625 C 47.335938 35.042969 45.894531 35.078125 44.800781 34.558594 C 44.558594 34.421875 44.359375 34.269531 44.160156 34.078125 C 44.109375 34.03125 44.058594 33.984375 44.007812 33.9375 C 43.554688 33.472656 43.265625 32.882812 43.261719 32.226562 C 43.265625 32.152344 43.273438 32.078125 43.28125 32 C 43.492188 32 43.703125 32 43.921875 32 C 43.9375 32.066406 43.953125 32.132812 43.96875 32.203125 C 44.164062 32.941406 44.425781 33.472656 45.085938 33.890625 C 45.980469 34.359375 46.980469 34.355469 47.945312 34.078125 C 48.421875 33.90625 48.835938 33.6875 49.070312 33.210938 C 49.207031 32.742188 49.1875 32.265625 49.019531 31.808594 C 48.230469 31.058594 47.058594 30.875 46.023438 30.683594 C 45.183594 30.519531 44.414062 30.261719 43.839844 29.601562 C 43.507812 29.089844 43.546875 28.511719 43.601562 27.921875 C 43.703125 27.488281 43.945312 27.113281 44.308594 26.855469 C 45.5625 26.105469 47.410156 26.003906 48.648438 26.839844 Z M 48.648438 26.839844 "/>
<path style=" stroke:none;fill-rule:nonzero;fill:rgb(97.254902%,97.254902%,97.254902%);fill-opacity:1;" d="M 14.320312 26.480469 C 14.625 26.433594 14.894531 26.421875 15.199219 26.480469 C 15.472656 26.6875 15.640625 26.949219 15.828125 27.230469 C 15.882812 27.304688 15.9375 27.378906 15.992188 27.457031 C 16.101562 27.613281 16.210938 27.769531 16.320312 27.929688 C 16.472656 28.148438 16.628906 28.367188 16.789062 28.582031 C 17.160156 29.082031 17.160156 29.082031 17.328125 29.320312 C 17.363281 29.367188 17.398438 29.417969 17.4375 29.46875 C 17.519531 29.601562 17.519531 29.601562 17.601562 29.839844 C 17.941406 29.515625 18.226562 29.164062 18.515625 28.789062 C 18.5625 28.726562 18.613281 28.667969 18.660156 28.601562 C 18.925781 28.265625 19.175781 27.921875 19.414062 27.566406 C 19.460938 27.496094 19.511719 27.429688 19.558594 27.355469 C 19.652344 27.222656 19.742188 27.085938 19.828125 26.949219 C 20.136719 26.5 20.136719 26.5 20.453125 26.4375 C 20.652344 26.4375 20.839844 26.449219 21.039062 26.480469 C 20.886719 26.800781 20.683594 27.074219 20.46875 27.355469 C 20.429688 27.410156 20.386719 27.464844 20.34375 27.519531 C 20.09375 27.855469 19.839844 28.1875 19.585938 28.519531 C 19.53125 28.59375 19.472656 28.667969 19.414062 28.742188 C 19.304688 28.886719 19.191406 29.035156 19.082031 29.179688 C 18.980469 29.3125 18.878906 29.445312 18.777344 29.578125 C 18.691406 29.695312 18.601562 29.808594 18.507812 29.921875 C 18.378906 30.078125 18.378906 30.078125 18.238281 30.320312 C 18.289062 30.71875 18.652344 31.0625 18.898438 31.371094 C 19.453125 32.070312 19.984375 32.789062 20.515625 33.507812 C 20.753906 33.832031 20.996094 34.15625 21.242188 34.476562 C 21.359375 34.640625 21.359375 34.640625 21.359375 34.71875 C 20.617188 34.820312 20.617188 34.820312 20.320312 34.601562 C 20.175781 34.425781 20.054688 34.246094 19.933594 34.054688 C 19.839844 33.914062 19.746094 33.777344 19.652344 33.636719 C 19.578125 33.527344 19.578125 33.527344 19.507812 33.417969 C 19.269531 33.066406 19.015625 32.730469 18.761719 32.390625 C 18.410156 31.921875 18.078125 31.449219 17.761719 30.960938 C 17.429688 31.261719 17.179688 31.621094 16.921875 31.980469 C 16.820312 32.117188 16.71875 32.253906 16.621094 32.390625 C 16.542969 32.492188 16.542969 32.492188 16.46875 32.597656 C 16.246094 32.898438 16.023438 33.195312 15.800781 33.496094 C 15.761719 33.542969 15.726562 33.59375 15.6875 33.644531 C 15.613281 33.742188 15.542969 33.835938 15.46875 33.933594 C 15.390625 34.039062 15.316406 34.148438 15.242188 34.257812 C 14.933594 34.707031 14.933594 34.707031 14.65625 34.78125 C 14.589844 34.773438 14.519531 34.769531 14.449219 34.761719 C 14.378906 34.753906 14.308594 34.75 14.238281 34.742188 C 14.1875 34.734375 14.132812 34.726562 14.078125 34.71875 C 14.316406 34.277344 14.597656 33.894531 14.910156 33.5 C 15.367188 32.917969 15.8125 32.328125 16.25 31.730469 C 16.558594 31.308594 16.875 30.890625 17.199219 30.480469 C 17.09375 30.253906 16.976562 30.0625 16.824219 29.867188 C 16.78125 29.8125 16.742188 29.757812 16.695312 29.703125 C 16.652344 29.644531 16.605469 29.585938 16.558594 29.523438 C 16.488281 29.433594 16.488281 29.433594 16.417969 29.339844 C 16.324219 29.21875 16.230469 29.097656 16.132812 28.972656 C 16.015625 28.820312 15.898438 28.667969 15.78125 28.515625 C 15.75 28.472656 15.714844 28.429688 15.679688 28.386719 C 15.648438 28.34375 15.617188 28.304688 15.585938 28.261719 C 15.382812 27.996094 15.179688 27.734375 14.976562 27.472656 C 14.9375 27.425781 14.902344 27.378906 14.863281 27.328125 C 14.792969 27.238281 14.722656 27.148438 14.652344 27.058594 C 14.5 26.863281 14.398438 26.714844 14.320312 26.480469 Z M 14.320312 26.480469 "/>
<path style=" stroke:none;fill-rule:nonzero;fill:rgb(98.823529%,98.823529%,98.823529%);fill-opacity:1;" d="M 31.039062 26.480469 C 31.25 26.480469 31.460938 26.480469 31.679688 26.480469 C 31.707031 27.007812 31.734375 27.535156 31.761719 28.078125 C 31.867188 27.921875 31.972656 27.761719 32.078125 27.601562 C 32.605469 26.949219 33.332031 26.578125 34.160156 26.480469 C 34.402344 26.46875 34.636719 26.472656 34.878906 26.480469 C 34.878906 26.691406 34.878906 26.902344 34.878906 27.121094 C 34.816406 27.121094 34.753906 27.121094 34.6875 27.121094 C 33.863281 27.148438 33.191406 27.375 32.570312 27.929688 C 32.007812 28.546875 31.753906 29.296875 31.742188 30.117188 C 31.742188 30.21875 31.742188 30.320312 31.738281 30.425781 C 31.738281 30.535156 31.734375 30.648438 31.734375 30.757812 C 31.734375 30.875 31.730469 30.988281 31.730469 31.101562 C 31.726562 31.402344 31.722656 31.703125 31.71875 32 C 31.714844 32.308594 31.707031 32.613281 31.703125 32.917969 C 31.695312 33.519531 31.6875 34.121094 31.679688 34.71875 C 31.46875 34.71875 31.257812 34.71875 31.039062 34.71875 C 31.039062 32 31.039062 29.28125 31.039062 26.480469 Z M 31.039062 26.480469 "/>
</g>
</svg>
