<?xml version="1.0" encoding="UTF-8"?>
<svg xmlns="http://www.w3.org/2000/svg" xmlns:xlink="http://www.w3.org/1999/xlink" width="px" height="64px" viewBox="0 0 64 64" version="1.1">
<g id="surface1">
<path style=" stroke:none;fill-rule:nonzero;fill:rgb(54.901963%,44.705883%,99.607843%);fill-opacity:1;" d="M 46.351562 0.34375 C 46.546875 0.519531 46.667969 0.703125 46.695312 0.972656 C 46.691406 1.085938 46.667969 1.191406 46.640625 1.304688 C 46.632812 1.328125 46.628906 1.351562 46.621094 1.375 C 46.558594 1.636719 46.484375 1.894531 46.410156 2.15625 C 46.394531 2.207031 46.378906 2.261719 46.363281 2.316406 C 46.332031 2.429688 46.296875 2.546875 46.265625 2.664062 C 46.210938 2.847656 46.160156 3.035156 46.105469 3.21875 C 46.039062 3.449219 45.976562 3.675781 45.910156 3.90625 C 45.726562 4.550781 45.542969 5.191406 45.359375 5.832031 C 45.335938 5.925781 45.308594 6.023438 45.28125 6.117188 C 44.898438 7.460938 44.515625 8.808594 44.132812 10.15625 C 44.15625 10.152344 44.179688 10.144531 44.203125 10.140625 C 44.5 10.066406 44.796875 10.011719 45.097656 9.957031 C 45.15625 9.945312 45.210938 9.933594 45.269531 9.925781 C 45.425781 9.894531 45.578125 9.867188 45.734375 9.839844 C 45.902344 9.808594 46.070312 9.777344 46.238281 9.746094 C 46.570312 9.683594 46.902344 9.621094 47.234375 9.558594 C 47.625 9.488281 48.015625 9.417969 48.40625 9.34375 C 49.160156 9.203125 49.917969 9.066406 50.671875 8.925781 C 51.34375 8.800781 52.011719 8.675781 52.679688 8.554688 C 52.894531 8.515625 53.109375 8.472656 53.328125 8.433594 C 53.351562 8.429688 53.375 8.425781 53.398438 8.421875 C 54.269531 8.257812 55.140625 8.097656 56.011719 7.9375 C 56.105469 7.921875 56.195312 7.902344 56.289062 7.886719 C 56.820312 7.789062 57.355469 7.691406 57.886719 7.589844 C 57.929688 7.582031 57.96875 7.574219 58.011719 7.566406 C 58.03125 7.5625 58.050781 7.558594 58.074219 7.554688 C 58.214844 7.53125 58.355469 7.503906 58.492188 7.480469 C 58.570312 7.464844 58.648438 7.449219 58.722656 7.4375 C 58.761719 7.429688 58.796875 7.421875 58.835938 7.414062 C 59.105469 7.367188 59.375 7.316406 59.648438 7.265625 C 59.804688 7.238281 59.964844 7.207031 60.121094 7.179688 C 60.183594 7.167969 60.246094 7.15625 60.308594 7.144531 C 60.378906 7.128906 60.445312 7.117188 60.515625 7.105469 C 61.023438 7.011719 61.480469 7.027344 61.921875 7.320312 C 62.28125 7.585938 62.523438 7.945312 62.59375 8.394531 C 62.660156 8.953125 62.453125 9.386719 62.183594 9.867188 C 62.164062 9.902344 62.144531 9.9375 62.125 9.976562 C 62.082031 10.050781 62.039062 10.128906 61.996094 10.203125 C 61.921875 10.335938 61.847656 10.472656 61.773438 10.609375 C 61.738281 10.671875 61.703125 10.734375 61.667969 10.800781 C 61.535156 11.039062 61.402344 11.277344 61.273438 11.519531 C 61.113281 11.808594 60.953125 12.097656 60.792969 12.382812 C 60.644531 12.648438 60.5 12.914062 60.355469 13.179688 C 60.171875 13.515625 59.988281 13.851562 59.804688 14.183594 C 59.714844 14.347656 59.625 14.507812 59.535156 14.671875 C 59.425781 14.867188 59.320312 15.0625 59.210938 15.253906 C 59.023438 15.59375 58.839844 15.929688 58.65625 16.269531 C 58.496094 16.558594 58.335938 16.847656 58.175781 17.132812 C 58.027344 17.398438 57.882812 17.664062 57.738281 17.929688 C 57.554688 18.265625 57.371094 18.601562 57.183594 18.933594 C 57.09375 19.097656 57.007812 19.257812 56.917969 19.421875 C 56.808594 19.617188 56.703125 19.8125 56.59375 20.003906 C 56.40625 20.34375 56.222656 20.679688 56.035156 21.019531 C 55.878906 21.308594 55.71875 21.597656 55.558594 21.882812 C 55.410156 22.148438 55.265625 22.414062 55.121094 22.679688 C 54.9375 23.015625 54.753906 23.351562 54.566406 23.683594 C 54.476562 23.847656 54.386719 24.007812 54.296875 24.171875 C 54.191406 24.367188 54.082031 24.5625 53.976562 24.753906 C 53.789062 25.09375 53.605469 25.429688 53.417969 25.769531 C 53.261719 26.058594 53.101562 26.347656 52.941406 26.632812 C 52.792969 26.898438 52.648438 27.164062 52.5 27.429688 C 52.320312 27.765625 52.132812 28.101562 51.949219 28.433594 C 51.859375 28.597656 51.769531 28.757812 51.679688 28.921875 C 51.574219 29.117188 51.464844 29.3125 51.359375 29.503906 C 51.171875 29.84375 50.984375 30.179688 50.800781 30.519531 C 50.644531 30.808594 50.484375 31.097656 50.324219 31.382812 C 50.175781 31.648438 50.027344 31.914062 49.882812 32.179688 C 49.699219 32.515625 49.515625 32.851562 49.332031 33.183594 C 49.242188 33.347656 49.152344 33.507812 49.0625 33.671875 C 48.957031 33.867188 48.847656 34.0625 48.742188 34.253906 C 48.554688 34.59375 48.367188 34.929688 48.183594 35.269531 C 48.023438 35.558594 47.867188 35.847656 47.703125 36.132812 C 47.558594 36.398438 47.410156 36.664062 47.265625 36.929688 C 47.082031 37.265625 46.898438 37.601562 46.714844 37.933594 C 46.625 38.097656 46.535156 38.257812 46.445312 38.421875 C 46.335938 38.617188 46.230469 38.8125 46.121094 39.003906 C 45.9375 39.34375 45.75 39.679688 45.566406 40.019531 C 45.40625 40.308594 45.246094 40.597656 45.085938 40.882812 C 44.9375 41.148438 44.792969 41.414062 44.648438 41.679688 C 44.464844 42.015625 44.28125 42.351562 44.097656 42.683594 C 44.007812 42.847656 43.917969 43.007812 43.828125 43.171875 C 43.789062 43.238281 43.753906 43.300781 43.71875 43.367188 C 43.703125 43.398438 43.683594 43.429688 43.664062 43.464844 C 43.503906 43.757812 43.503906 43.757812 43.449219 43.855469 C 43.414062 43.921875 43.378906 43.984375 43.339844 44.050781 C 43.253906 44.214844 43.164062 44.375 43.074219 44.535156 C 42.886719 44.875 42.699219 45.210938 42.515625 45.550781 C 42.359375 45.839844 42.199219 46.128906 42.039062 46.414062 C 41.890625 46.679688 41.746094 46.945312 41.597656 47.210938 C 41.414062 47.546875 41.230469 47.882812 41.046875 48.214844 C 40.957031 48.378906 40.867188 48.539062 40.777344 48.703125 C 40.671875 48.898438 40.5625 49.09375 40.457031 49.285156 C 40.269531 49.625 40.082031 49.960938 39.898438 50.300781 C 39.738281 50.589844 39.582031 50.878906 39.417969 51.164062 C 39.273438 51.429688 39.125 51.695312 38.980469 51.960938 C 38.796875 52.296875 38.613281 52.632812 38.429688 52.964844 C 38.339844 53.128906 38.25 53.289062 38.160156 53.453125 C 38.050781 53.648438 37.945312 53.84375 37.835938 54.035156 C 37.652344 54.375 37.464844 54.710938 37.28125 55.050781 C 37.121094 55.339844 36.960938 55.628906 36.800781 55.914062 C 36.652344 56.179688 36.507812 56.445312 36.363281 56.710938 C 36.179688 57.046875 35.996094 57.382812 35.8125 57.714844 C 35.722656 57.878906 35.632812 58.039062 35.542969 58.203125 C 35.433594 58.398438 35.328125 58.59375 35.21875 58.785156 C 35.03125 59.125 34.847656 59.460938 34.664062 59.800781 C 34.503906 60.09375 34.34375 60.382812 34.179688 60.671875 C 34.09375 60.824219 34.011719 60.976562 33.929688 61.132812 C 33.59375 61.753906 33.59375 61.753906 33.355469 61.96875 C 33.335938 61.988281 33.3125 62.007812 33.292969 62.03125 C 32.984375 62.304688 32.554688 62.402344 32.152344 62.375 C 31.703125 62.320312 31.335938 62.109375 31.042969 61.765625 C 30.925781 61.613281 30.839844 61.445312 30.75 61.28125 C 30.726562 61.238281 30.707031 61.199219 30.683594 61.160156 C 30.640625 61.082031 30.597656 61.003906 30.550781 60.925781 C 30.480469 60.796875 30.410156 60.667969 30.339844 60.539062 C 30.304688 60.480469 30.273438 60.421875 30.242188 60.367188 C 30.050781 60.019531 29.855469 59.675781 29.660156 59.332031 C 29.566406 59.164062 29.476562 59 29.382812 58.835938 C 29.332031 58.746094 29.28125 58.652344 29.226562 58.5625 C 29.207031 58.527344 29.1875 58.488281 29.167969 58.453125 C 29.15625 58.433594 29.144531 58.417969 29.136719 58.398438 C 29.042969 58.234375 29.042969 58.234375 29.011719 58.179688 C 28.992188 58.144531 28.972656 58.105469 28.949219 58.070312 C 28.898438 57.980469 28.847656 57.886719 28.796875 57.796875 C 28.703125 57.632812 28.609375 57.46875 28.519531 57.300781 C 28.464844 57.210938 28.414062 57.117188 28.363281 57.023438 C 28.351562 57.007812 28.339844 56.988281 28.332031 56.96875 C 28.1875 56.710938 28.042969 56.453125 27.898438 56.195312 C 27.742188 55.910156 27.582031 55.625 27.417969 55.34375 C 27.269531 55.089844 27.128906 54.832031 26.988281 54.574219 C 26.863281 54.347656 26.738281 54.128906 26.609375 53.90625 C 26.445312 53.621094 26.285156 53.332031 26.125 53.042969 C 26.003906 52.820312 25.878906 52.597656 25.75 52.378906 C 25.574219 52.078125 25.410156 51.777344 25.242188 51.472656 C 25.097656 51.207031 24.949219 50.945312 24.800781 50.683594 C 24.652344 50.429688 24.511719 50.175781 24.371094 49.917969 C 24.246094 49.695312 24.121094 49.472656 23.996094 49.253906 C 23.820312 48.953125 23.652344 48.652344 23.488281 48.347656 C 23.34375 48.082031 23.195312 47.820312 23.042969 47.558594 C 22.914062 47.339844 22.792969 47.113281 22.667969 46.890625 C 22.527344 46.632812 22.382812 46.378906 22.238281 46.125 C 22.074219 45.84375 21.914062 45.554688 21.757812 45.269531 C 21.621094 45.023438 21.484375 44.78125 21.347656 44.539062 C 21.335938 44.519531 21.328125 44.5 21.316406 44.480469 C 21.265625 44.390625 21.210938 44.296875 21.160156 44.203125 C 21.066406 44.039062 20.972656 43.875 20.882812 43.710938 C 20.832031 43.621094 20.777344 43.527344 20.726562 43.4375 C 20.707031 43.402344 20.6875 43.363281 20.667969 43.328125 C 20.65625 43.308594 20.644531 43.292969 20.636719 43.273438 C 20.542969 43.109375 20.542969 43.109375 20.511719 43.054688 C 20.492188 43.019531 20.472656 42.980469 20.449219 42.945312 C 20.398438 42.855469 20.347656 42.761719 20.296875 42.671875 C 20.203125 42.507812 20.109375 42.34375 20.019531 42.175781 C 19.964844 42.085938 19.914062 41.992188 19.863281 41.898438 C 19.851562 41.882812 19.839844 41.863281 19.832031 41.84375 C 19.683594 41.585938 19.542969 41.328125 19.398438 41.070312 C 19.242188 40.785156 19.082031 40.5 18.917969 40.21875 C 18.769531 39.964844 18.628906 39.707031 18.488281 39.449219 C 18.363281 39.222656 18.238281 39.003906 18.109375 38.78125 C 17.945312 38.5 17.785156 38.210938 17.628906 37.925781 C 17.492188 37.679688 17.359375 37.4375 17.21875 37.195312 C 17.210938 37.175781 17.199219 37.15625 17.1875 37.136719 C 17.136719 37.046875 17.085938 36.953125 17.03125 36.859375 C 16.941406 36.695312 16.847656 36.53125 16.753906 36.367188 C 16.703125 36.277344 16.652344 36.183594 16.601562 36.09375 C 16.578125 36.058594 16.558594 36.019531 16.539062 35.984375 C 16.527344 35.964844 16.519531 35.949219 16.507812 35.929688 C 16.414062 35.765625 16.414062 35.765625 16.386719 35.710938 C 16.363281 35.675781 16.34375 35.636719 16.324219 35.601562 C 16.273438 35.511719 16.222656 35.417969 16.167969 35.328125 C 16.078125 35.164062 15.984375 35 15.890625 34.832031 C 15.839844 34.742188 15.785156 34.648438 15.734375 34.554688 C 15.722656 34.539062 15.714844 34.519531 15.703125 34.5 C 15.558594 34.242188 15.414062 33.984375 15.273438 33.726562 C 15.117188 33.441406 14.953125 33.15625 14.792969 32.875 C 14.644531 32.621094 14.5 32.363281 14.359375 32.105469 C 14.238281 31.878906 14.109375 31.660156 13.984375 31.4375 C 13.816406 31.152344 13.65625 30.863281 13.496094 30.574219 C 13.375 30.351562 13.25 30.128906 13.121094 29.910156 C 12.949219 29.609375 12.78125 29.308594 12.617188 29.003906 C 12.472656 28.738281 12.324219 28.476562 12.171875 28.214844 C 12.023438 27.960938 11.882812 27.707031 11.742188 27.449219 C 11.621094 27.226562 11.492188 27.003906 11.367188 26.785156 C 11.191406 26.484375 11.027344 26.183594 10.859375 25.878906 C 10.714844 25.613281 10.566406 25.351562 10.417969 25.089844 C 10.289062 24.871094 10.164062 24.644531 10.039062 24.421875 C 9.898438 24.164062 9.757812 23.910156 9.609375 23.65625 C 9.445312 23.375 9.285156 23.085938 9.128906 22.800781 C 8.992188 22.554688 8.855469 22.3125 8.71875 22.070312 C 8.710938 22.050781 8.699219 22.03125 8.6875 22.011719 C 8.636719 21.921875 8.585938 21.828125 8.53125 21.734375 C 8.4375 21.570312 8.347656 21.40625 8.253906 21.242188 C 8.203125 21.152344 8.152344 21.058594 8.101562 20.96875 C 8.078125 20.933594 8.058594 20.894531 8.039062 20.859375 C 8.027344 20.839844 8.019531 20.824219 8.007812 20.804688 C 7.914062 20.640625 7.914062 20.640625 7.882812 20.585938 C 7.863281 20.550781 7.84375 20.511719 7.824219 20.476562 C 7.773438 20.386719 7.71875 20.292969 7.667969 20.203125 C 7.574219 20.039062 7.484375 19.875 7.390625 19.707031 C 7.339844 19.617188 7.285156 19.523438 7.234375 19.429688 C 7.222656 19.414062 7.214844 19.394531 7.203125 19.375 C 7.058594 19.117188 6.914062 18.859375 6.773438 18.601562 C 6.613281 18.316406 6.453125 18.03125 6.289062 17.75 C 6.144531 17.496094 6 17.238281 5.859375 16.980469 C 5.734375 16.753906 5.609375 16.535156 5.480469 16.3125 C 5.316406 16.027344 5.15625 15.738281 4.996094 15.449219 C 4.875 15.226562 4.75 15.003906 4.621094 14.785156 C 4.449219 14.484375 4.28125 14.183594 4.113281 13.878906 C 3.972656 13.613281 3.820312 13.351562 3.671875 13.089844 C 3.523438 12.835938 3.382812 12.582031 3.242188 12.324219 C 3.117188 12.101562 2.992188 11.878906 2.867188 11.660156 C 2.691406 11.359375 2.523438 11.058594 2.359375 10.753906 C 2.230469 10.511719 2.09375 10.277344 1.957031 10.039062 C 1.835938 9.832031 1.71875 9.621094 1.609375 9.402344 C 1.59375 9.375 1.59375 9.375 1.582031 9.34375 C 1.378906 8.925781 1.382812 8.535156 1.507812 8.09375 C 1.664062 7.683594 1.9375 7.367188 2.332031 7.179688 C 2.839844 6.96875 3.390625 7.054688 3.914062 7.15625 C 3.972656 7.167969 4.027344 7.175781 4.082031 7.1875 C 4.234375 7.214844 4.386719 7.242188 4.539062 7.269531 C 4.703125 7.300781 4.867188 7.332031 5.03125 7.359375 C 5.3125 7.414062 5.597656 7.464844 5.878906 7.515625 C 6.292969 7.59375 6.707031 7.667969 7.121094 7.746094 C 7.3125 7.78125 7.507812 7.816406 7.699219 7.851562 C 7.757812 7.863281 7.757812 7.863281 7.816406 7.871094 C 8.09375 7.921875 8.367188 7.972656 8.644531 8.023438 C 9.65625 8.210938 10.667969 8.394531 11.679688 8.578125 C 11.710938 8.585938 11.746094 8.589844 11.777344 8.597656 C 12.105469 8.65625 12.433594 8.714844 12.761719 8.773438 C 13.183594 8.851562 13.605469 8.929688 14.027344 9.003906 C 14.058594 9.011719 14.09375 9.015625 14.125 9.023438 C 14.257812 9.046875 14.386719 9.070312 14.515625 9.09375 C 14.84375 9.152344 15.171875 9.210938 15.5 9.269531 C 15.597656 9.289062 15.699219 9.308594 15.800781 9.324219 C 16.339844 9.421875 16.878906 9.519531 17.417969 9.617188 C 18.050781 9.734375 18.683594 9.847656 19.316406 9.964844 C 19.703125 10.035156 20.09375 10.105469 20.484375 10.175781 C 20.75 10.222656 21.011719 10.269531 21.277344 10.320312 C 21.429688 10.347656 21.582031 10.375 21.734375 10.402344 C 22.902344 10.613281 22.902344 10.613281 23.46875 10.71875 C 23.503906 10.613281 23.507812 10.527344 23.515625 10.414062 C 23.515625 10.394531 23.515625 10.375 23.519531 10.351562 C 23.523438 10.28125 23.527344 10.207031 23.53125 10.136719 C 23.535156 10.085938 23.535156 10.035156 23.539062 9.980469 C 23.546875 9.871094 23.550781 9.761719 23.558594 9.648438 C 23.566406 9.472656 23.578125 9.296875 23.585938 9.121094 C 23.613281 8.6875 23.636719 8.25 23.664062 7.8125 C 23.679688 7.476562 23.699219 7.136719 23.71875 6.800781 C 23.730469 6.625 23.738281 6.449219 23.75 6.277344 C 23.753906 6.167969 23.761719 6.058594 23.769531 5.949219 C 23.769531 5.898438 23.773438 5.851562 23.777344 5.800781 C 23.828125 4.890625 23.828125 4.890625 24.054688 4.65625 C 24.265625 4.492188 24.476562 4.429688 24.734375 4.378906 C 24.769531 4.371094 24.804688 4.367188 24.84375 4.359375 C 24.941406 4.339844 25.042969 4.320312 25.140625 4.300781 C 25.25 4.277344 25.355469 4.257812 25.464844 4.234375 C 25.648438 4.199219 25.835938 4.164062 26.019531 4.128906 C 26.289062 4.074219 26.5625 4.019531 26.832031 3.96875 C 27.242188 3.886719 27.652344 3.804688 28.0625 3.726562 C 28.628906 3.613281 29.195312 3.503906 29.761719 3.390625 C 29.800781 3.382812 29.84375 3.375 29.882812 3.367188 C 30.046875 3.332031 30.210938 3.300781 30.375 3.269531 C 30.664062 3.210938 30.953125 3.152344 31.242188 3.097656 C 31.285156 3.085938 31.328125 3.078125 31.371094 3.070312 C 31.390625 3.066406 31.414062 3.0625 31.433594 3.058594 C 31.457031 3.054688 31.476562 3.050781 31.5 3.046875 C 31.53125 3.039062 31.53125 3.039062 31.5625 3.03125 C 32.394531 2.867188 33.226562 2.703125 34.058594 2.535156 C 34.097656 2.527344 34.097656 2.527344 34.140625 2.519531 C 34.511719 2.445312 34.886719 2.371094 35.261719 2.296875 C 35.714844 2.207031 36.167969 2.117188 36.621094 2.027344 C 36.648438 2.019531 36.671875 2.015625 36.699219 2.011719 C 37.449219 1.859375 38.199219 1.710938 38.949219 1.5625 C 38.992188 1.554688 39.035156 1.546875 39.082031 1.539062 C 39.484375 1.457031 39.886719 1.378906 40.289062 1.296875 C 40.515625 1.253906 40.738281 1.207031 40.964844 1.164062 C 40.996094 1.160156 40.996094 1.160156 41.023438 1.152344 C 41.625 1.035156 42.222656 0.914062 42.824219 0.792969 C 42.980469 0.761719 43.132812 0.730469 43.289062 0.699219 C 43.324219 0.691406 43.324219 0.691406 43.355469 0.683594 C 43.445312 0.667969 43.53125 0.648438 43.617188 0.632812 C 43.867188 0.582031 44.117188 0.53125 44.371094 0.480469 C 44.542969 0.445312 44.714844 0.410156 44.886719 0.375 C 44.957031 0.363281 45.027344 0.347656 45.097656 0.332031 C 45.195312 0.3125 45.289062 0.292969 45.386719 0.273438 C 45.414062 0.269531 45.441406 0.261719 45.46875 0.257812 C 45.773438 0.199219 46.078125 0.171875 46.351562 0.34375 Z M 46.351562 0.34375 "/>
<path style=" stroke:none;fill-rule:nonzero;fill:rgb(99.607843%,78.823531%,13.333334%);fill-opacity:1;" d="M 46.351562 0.34375 C 46.546875 0.519531 46.667969 0.703125 46.695312 0.972656 C 46.691406 1.085938 46.667969 1.191406 46.640625 1.304688 C 46.632812 1.328125 46.628906 1.351562 46.621094 1.375 C 46.558594 1.636719 46.484375 1.894531 46.410156 2.15625 C 46.394531 2.207031 46.378906 2.261719 46.363281 2.316406 C 46.332031 2.429688 46.296875 2.546875 46.265625 2.664062 C 46.210938 2.847656 46.160156 3.035156 46.105469 3.21875 C 46.039062 3.449219 45.976562 3.675781 45.910156 3.90625 C 45.734375 4.515625 45.5625 5.128906 45.386719 5.738281 C 45.34375 5.894531 45.296875 6.054688 45.253906 6.210938 C 45.0625 6.882812 44.871094 7.550781 44.683594 8.222656 C 44.664062 8.289062 44.644531 8.351562 44.628906 8.414062 C 44.550781 8.6875 44.472656 8.960938 44.398438 9.234375 C 44.367188 9.34375 44.335938 9.453125 44.304688 9.5625 C 44.289062 9.613281 44.273438 9.664062 44.261719 9.714844 C 44.191406 9.957031 44.125 10.199219 44.042969 10.4375 C 43.925781 10.796875 43.820312 11.160156 43.726562 11.527344 C 43.664062 11.769531 43.59375 12.011719 43.519531 12.25 C 43.433594 12.519531 43.359375 12.789062 43.289062 13.0625 C 43.21875 13.335938 43.140625 13.605469 43.058594 13.875 C 42.941406 14.25 42.839844 14.632812 42.738281 15.011719 C 42.722656 15.082031 42.703125 15.148438 42.683594 15.21875 C 42.617188 15.453125 42.65625 15.667969 42.773438 15.878906 C 42.902344 16.046875 43.042969 16.15625 43.242188 16.21875 C 43.457031 16.238281 43.65625 16.203125 43.867188 16.15625 C 43.933594 16.144531 44.003906 16.128906 44.070312 16.113281 C 44.128906 16.101562 44.128906 16.101562 44.1875 16.089844 C 44.453125 16.035156 44.714844 15.980469 44.976562 15.929688 C 45.007812 15.921875 45.035156 15.914062 45.066406 15.910156 C 45.535156 15.8125 46 15.722656 46.46875 15.636719 C 46.867188 15.5625 47.261719 15.484375 47.652344 15.40625 C 48.027344 15.328125 48.402344 15.257812 48.777344 15.1875 C 49.011719 15.144531 49.011719 15.144531 49.25 15.097656 C 49.269531 15.09375 49.289062 15.089844 49.308594 15.085938 C 49.367188 15.074219 49.421875 15.0625 49.480469 15.050781 C 49.746094 15.003906 50.003906 14.984375 50.234375 15.140625 C 50.417969 15.289062 50.546875 15.460938 50.582031 15.703125 C 50.605469 16.144531 50.304688 16.585938 50.113281 16.96875 C 50.082031 17.03125 50.050781 17.09375 50.023438 17.15625 C 49.9375 17.324219 49.855469 17.492188 49.773438 17.664062 C 49.683594 17.839844 49.597656 18.015625 49.507812 18.195312 C 49.363281 18.492188 49.214844 18.792969 49.066406 19.089844 C 48.917969 19.394531 48.765625 19.699219 48.617188 20.007812 C 48.605469 20.027344 48.597656 20.042969 48.585938 20.0625 C 48.578125 20.082031 48.570312 20.101562 48.558594 20.121094 C 48.378906 20.488281 48.199219 20.855469 48.015625 21.222656 C 47.964844 21.328125 47.914062 21.433594 47.859375 21.539062 C 47.777344 21.703125 47.695312 21.871094 47.613281 22.035156 C 47.585938 22.097656 47.554688 22.15625 47.527344 22.21875 C 47.484375 22.300781 47.441406 22.382812 47.402344 22.46875 C 47.390625 22.492188 47.378906 22.515625 47.367188 22.539062 C 47.292969 22.6875 47.21875 22.835938 47.140625 22.984375 C 46.96875 23.3125 46.804688 23.640625 46.640625 23.972656 C 46.613281 24.027344 46.585938 24.085938 46.554688 24.144531 C 46.480469 24.300781 46.402344 24.457031 46.324219 24.613281 C 46.242188 24.78125 46.160156 24.953125 46.074219 25.121094 C 45.929688 25.414062 45.785156 25.707031 45.640625 26 C 45.433594 26.425781 45.222656 26.847656 45.015625 27.273438 C 44.917969 27.472656 44.820312 27.671875 44.722656 27.867188 C 44.710938 27.886719 44.703125 27.90625 44.691406 27.929688 C 44.460938 28.398438 44.230469 28.871094 43.996094 29.34375 C 43.988281 29.363281 43.976562 29.382812 43.964844 29.40625 C 43.8125 29.71875 43.65625 30.03125 43.503906 30.34375 C 43.339844 30.675781 43.175781 31.011719 43.011719 31.34375 C 43 31.367188 42.988281 31.386719 42.980469 31.40625 C 42.746094 31.878906 42.515625 32.347656 42.285156 32.820312 C 42.273438 32.839844 42.265625 32.859375 42.253906 32.878906 C 42.15625 33.078125 42.058594 33.273438 41.960938 33.472656 C 41.753906 33.894531 41.546875 34.320312 41.335938 34.742188 C 41.183594 35.050781 41.03125 35.363281 40.878906 35.671875 C 40.796875 35.835938 40.714844 36.003906 40.632812 36.171875 C 40.558594 36.324219 40.480469 36.476562 40.40625 36.632812 C 40.378906 36.6875 40.351562 36.742188 40.324219 36.796875 C 40.179688 37.09375 40.027344 37.390625 39.875 37.683594 C 39.738281 37.949219 39.609375 38.214844 39.476562 38.480469 C 39.449219 38.535156 39.421875 38.589844 39.398438 38.644531 C 39.339844 38.761719 39.28125 38.882812 39.222656 39 C 39.128906 39.191406 39.03125 39.386719 38.9375 39.578125 C 38.816406 39.820312 38.699219 40.066406 38.578125 40.308594 C 38.351562 40.769531 38.125 41.230469 37.898438 41.6875 C 37.863281 41.765625 37.824219 41.839844 37.789062 41.914062 C 37.722656 42.046875 37.65625 42.183594 37.589844 42.316406 C 37.378906 42.746094 37.167969 43.175781 36.957031 43.609375 C 36.945312 43.628906 36.9375 43.648438 36.925781 43.667969 C 36.613281 44.304688 36.300781 44.941406 35.984375 45.582031 C 35.664062 46.238281 35.339844 46.894531 35.015625 47.550781 C 34.808594 47.976562 34.601562 48.398438 34.390625 48.820312 C 34.257812 49.097656 34.121094 49.375 33.984375 49.652344 C 33.90625 49.808594 33.828125 49.96875 33.75 50.128906 C 33.675781 50.277344 33.605469 50.421875 33.53125 50.570312 C 33.507812 50.621094 33.480469 50.671875 33.457031 50.726562 C 33.320312 51 33.179688 51.265625 33.011719 51.523438 C 32.988281 51.554688 32.988281 51.554688 32.96875 51.589844 C 32.8125 51.820312 32.648438 52.035156 32.371094 52.09375 C 32.121094 52.128906 31.894531 52.074219 31.691406 51.921875 C 31.539062 51.78125 31.429688 51.609375 31.40625 51.398438 C 31.40625 51.191406 31.4375 50.996094 31.480469 50.792969 C 31.488281 50.753906 31.496094 50.71875 31.503906 50.683594 C 31.523438 50.585938 31.542969 50.488281 31.566406 50.390625 C 31.585938 50.285156 31.609375 50.179688 31.628906 50.070312 C 31.667969 49.886719 31.707031 49.703125 31.742188 49.519531 C 31.804688 49.230469 31.863281 48.9375 31.925781 48.648438 C 31.945312 48.546875 31.964844 48.445312 31.984375 48.347656 C 31.992188 48.320312 31.996094 48.296875 32 48.269531 C 32.039062 48.089844 32.074219 47.910156 32.113281 47.730469 C 32.316406 46.742188 32.519531 45.753906 32.71875 44.765625 C 32.78125 44.472656 32.839844 44.179688 32.898438 43.890625 C 33.15625 42.632812 33.15625 42.632812 33.40625 41.371094 C 33.453125 41.125 33.503906 40.878906 33.558594 40.632812 C 33.621094 40.332031 33.679688 40.035156 33.738281 39.734375 C 33.800781 39.429688 33.859375 39.128906 33.925781 38.828125 C 33.949219 38.707031 33.976562 38.589844 34 38.46875 C 34.007812 38.449219 34.011719 38.429688 34.015625 38.40625 C 34.046875 38.265625 34.074219 38.125 34.105469 37.984375 C 34.113281 37.9375 34.125 37.890625 34.132812 37.84375 C 34.253906 37.34375 34.253906 37.34375 34.128906 36.867188 C 34.117188 36.847656 34.105469 36.832031 34.09375 36.8125 C 34.078125 36.785156 34.0625 36.757812 34.042969 36.726562 C 33.882812 36.570312 33.703125 36.492188 33.476562 36.476562 C 33.257812 36.488281 33.0625 36.558594 32.855469 36.632812 C 32.710938 36.6875 32.5625 36.730469 32.414062 36.773438 C 32.144531 36.851562 31.875 36.929688 31.609375 37.011719 C 31.566406 37.027344 31.519531 37.039062 31.476562 37.054688 C 31.25 37.121094 31.027344 37.191406 30.804688 37.269531 C 30.621094 37.332031 30.441406 37.386719 30.257812 37.4375 C 30.035156 37.5 30.035156 37.5 29.820312 37.570312 C 29.539062 37.667969 29.28125 37.71875 29 37.59375 C 28.808594 37.480469 28.664062 37.324219 28.597656 37.105469 C 28.53125 36.796875 28.605469 36.484375 28.671875 36.1875 C 28.683594 36.140625 28.691406 36.09375 28.703125 36.046875 C 28.722656 35.945312 28.742188 35.84375 28.765625 35.746094 C 28.8125 35.519531 28.859375 35.296875 28.90625 35.070312 C 28.917969 35.019531 28.925781 34.964844 28.9375 34.910156 C 29.023438 34.507812 29.101562 34.105469 29.183594 33.703125 C 29.1875 33.679688 29.191406 33.65625 29.195312 33.628906 C 29.246094 33.386719 29.292969 33.148438 29.339844 32.90625 C 29.359375 32.792969 29.382812 32.675781 29.40625 32.5625 C 29.410156 32.542969 29.414062 32.519531 29.417969 32.496094 C 29.480469 32.1875 29.542969 31.882812 29.609375 31.574219 C 29.65625 31.363281 29.699219 31.152344 29.734375 30.9375 C 29.789062 30.652344 29.847656 30.367188 29.910156 30.082031 C 29.957031 29.859375 30 29.636719 30.042969 29.414062 C 30.101562 29.085938 30.171875 28.757812 30.246094 28.429688 C 30.253906 28.398438 30.261719 28.363281 30.269531 28.332031 C 30.273438 28.300781 30.28125 28.273438 30.289062 28.242188 C 30.351562 27.9375 30.386719 27.664062 30.234375 27.382812 C 30.113281 27.21875 29.949219 27.101562 29.75 27.0625 C 29.421875 27.027344 29.105469 27.125 28.792969 27.203125 C 28.703125 27.226562 28.613281 27.25 28.523438 27.269531 C 28.464844 27.285156 28.402344 27.300781 28.34375 27.3125 C 28.089844 27.375 27.832031 27.433594 27.578125 27.488281 C 27.226562 27.566406 26.878906 27.648438 26.53125 27.734375 C 26.199219 27.816406 25.867188 27.894531 25.53125 27.964844 C 25.230469 28.03125 24.933594 28.101562 24.632812 28.175781 C 23.199219 28.535156 23.199219 28.535156 22.90625 28.355469 C 22.726562 28.214844 22.585938 28.042969 22.542969 27.8125 C 22.527344 27.402344 22.558594 26.988281 22.582031 26.578125 C 22.585938 26.507812 22.589844 26.4375 22.59375 26.367188 C 22.601562 26.21875 22.609375 26.070312 22.617188 25.921875 C 22.628906 25.734375 22.640625 25.546875 22.648438 25.359375 C 22.691406 24.625 22.734375 23.890625 22.785156 23.160156 C 22.816406 22.730469 22.839844 22.300781 22.863281 21.871094 C 22.871094 21.683594 22.878906 21.496094 22.890625 21.308594 C 22.890625 21.265625 22.894531 21.226562 22.894531 21.1875 C 22.917969 20.710938 22.945312 20.234375 22.972656 19.757812 C 22.976562 19.6875 22.980469 19.621094 22.984375 19.554688 C 23.007812 19.132812 23.035156 18.707031 23.070312 18.285156 C 23.105469 17.835938 23.125 17.382812 23.148438 16.933594 C 23.164062 16.675781 23.175781 16.421875 23.1875 16.164062 C 23.191406 16.125 23.191406 16.125 23.191406 16.085938 C 23.222656 15.527344 23.253906 14.96875 23.285156 14.410156 C 23.289062 14.339844 23.292969 14.269531 23.296875 14.203125 C 23.304688 14.074219 23.3125 13.945312 23.320312 13.816406 C 23.320312 13.777344 23.324219 13.742188 23.328125 13.703125 C 23.335938 13.558594 23.34375 13.414062 23.359375 13.269531 C 23.386719 13.0625 23.394531 12.855469 23.40625 12.644531 C 23.410156 12.597656 23.410156 12.554688 23.414062 12.507812 C 23.421875 12.410156 23.425781 12.3125 23.429688 12.214844 C 23.4375 12.09375 23.445312 11.96875 23.453125 11.847656 C 23.457031 11.75 23.464844 11.65625 23.46875 11.558594 C 23.472656 11.515625 23.476562 11.46875 23.476562 11.425781 C 23.480469 11.359375 23.484375 11.296875 23.488281 11.234375 C 23.492188 11.179688 23.492188 11.179688 23.496094 11.125 C 23.5 11.027344 23.5 10.929688 23.5 10.832031 C 23.496094 10.585938 23.511719 10.347656 23.527344 10.105469 C 23.53125 10.050781 23.53125 10 23.535156 9.949219 C 23.542969 9.8125 23.550781 9.671875 23.558594 9.535156 C 23.566406 9.417969 23.574219 9.300781 23.578125 9.183594 C 23.597656 8.910156 23.613281 8.636719 23.628906 8.363281 C 23.644531 8.082031 23.660156 7.796875 23.675781 7.515625 C 23.691406 7.273438 23.703125 7.03125 23.71875 6.789062 C 23.726562 6.644531 23.734375 6.5 23.742188 6.351562 C 23.75 6.21875 23.757812 6.082031 23.769531 5.945312 C 23.769531 5.894531 23.773438 5.84375 23.777344 5.796875 C 23.828125 4.890625 23.828125 4.890625 24.054688 4.65625 C 24.265625 4.492188 24.476562 4.429688 24.734375 4.378906 C 24.769531 4.371094 24.804688 4.367188 24.84375 4.359375 C 24.941406 4.339844 25.042969 4.320312 25.140625 4.300781 C 25.25 4.277344 25.355469 4.257812 25.464844 4.234375 C 25.648438 4.199219 25.835938 4.164062 26.019531 4.128906 C 26.289062 4.074219 26.5625 4.019531 26.832031 3.96875 C 27.242188 3.886719 27.652344 3.804688 28.0625 3.726562 C 28.628906 3.613281 29.195312 3.503906 29.761719 3.390625 C 29.800781 3.382812 29.84375 3.375 29.882812 3.367188 C 30.046875 3.332031 30.210938 3.300781 30.375 3.269531 C 30.664062 3.210938 30.953125 3.152344 31.242188 3.097656 C 31.285156 3.085938 31.328125 3.078125 31.371094 3.070312 C 31.390625 3.066406 31.414062 3.0625 31.433594 3.058594 C 31.457031 3.054688 31.476562 3.050781 31.5 3.046875 C 31.519531 3.042969 31.539062 3.039062 31.5625 3.03125 C 32.394531 2.867188 33.226562 2.703125 34.058594 2.535156 C 34.097656 2.527344 34.097656 2.527344 34.140625 2.519531 C 34.511719 2.445312 34.886719 2.371094 35.261719 2.296875 C 35.714844 2.207031 36.167969 2.117188 36.621094 2.027344 C 36.648438 2.019531 36.671875 2.015625 36.699219 2.011719 C 37.449219 1.859375 38.199219 1.710938 38.949219 1.5625 C 38.992188 1.554688 39.035156 1.546875 39.082031 1.539062 C 39.484375 1.457031 39.886719 1.378906 40.289062 1.296875 C 40.515625 1.253906 40.738281 1.207031 40.964844 1.164062 C 40.996094 1.160156 40.996094 1.160156 41.023438 1.152344 C 41.625 1.035156 42.222656 0.914062 42.824219 0.792969 C 42.980469 0.761719 43.132812 0.730469 43.289062 0.699219 C 43.324219 0.691406 43.324219 0.691406 43.355469 0.683594 C 43.445312 0.667969 43.53125 0.648438 43.617188 0.632812 C 43.867188 0.582031 44.117188 0.53125 44.371094 0.480469 C 44.542969 0.445312 44.714844 0.410156 44.886719 0.375 C 44.957031 0.363281 45.027344 0.347656 45.097656 0.332031 C 45.195312 0.3125 45.289062 0.292969 45.386719 0.273438 C 45.414062 0.269531 45.441406 0.261719 45.46875 0.257812 C 45.773438 0.199219 46.078125 0.171875 46.351562 0.34375 Z M 46.351562 0.34375 "/>
</g>
</svg>
