<?xml version="1.0" encoding="UTF-8"?>
<svg xmlns="http://www.w3.org/2000/svg" xmlns:xlink="http://www.w3.org/1999/xlink" width="px" height="64px" viewBox="0 0 117 64" version="1.1">
<g id="surface1">
<path style=" stroke:none;fill-rule:nonzero;fill:rgb(81.176472%,0.392157%,10.196079%);fill-opacity:1;" d="M 63.070312 0.6875 C 63.1875 0.734375 63.304688 0.78125 63.425781 0.832031 C 63.699219 0.960938 63.953125 1.101562 64.210938 1.257812 C 64.382812 1.359375 64.382812 1.359375 64.558594 1.464844 C 65.203125 1.859375 65.203125 1.859375 65.46875 2.0625 C 65.46875 2.136719 65.46875 2.210938 65.46875 2.289062 C 65.535156 2.296875 65.597656 2.304688 65.664062 2.3125 C 66.039062 2.445312 66.226562 2.683594 66.5 2.976562 C 66.632812 3.105469 66.632812 3.105469 66.769531 3.234375 C 69.53125 6.132812 70.316406 10.101562 70.726562 13.945312 C 70.902344 15.460938 71.285156 17.167969 72.476562 18.195312 C 72.554688 18.257812 72.632812 18.320312 72.714844 18.386719 C 72.777344 18.4375 72.835938 18.492188 72.898438 18.546875 C 72.898438 18.621094 72.898438 18.699219 72.898438 18.777344 C 72.972656 18.804688 73.050781 18.832031 73.132812 18.863281 C 73.46875 19.003906 73.46875 19.003906 73.796875 19.210938 C 75.558594 20.21875 77.652344 20.3125 79.625 20.457031 C 83.882812 20.765625 88.097656 21.457031 91.121094 24.816406 C 93.210938 27.292969 93.984375 29.964844 93.777344 33.175781 C 93.613281 35.105469 92.886719 37.085938 91.632812 38.582031 C 91.523438 38.621094 91.410156 38.660156 91.292969 38.699219 C 91.253906 38.816406 91.253906 38.816406 91.214844 38.941406 C 90.980469 39.449219 90.578125 39.726562 90.148438 40.070312 C 90.054688 40.148438 89.964844 40.226562 89.867188 40.304688 C 87.5625 42.199219 84.386719 43.199219 81.417969 43.324219 C 81.25 43.328125 81.082031 43.335938 80.917969 43.34375 C 80.832031 43.347656 80.742188 43.351562 80.65625 43.359375 C 77.683594 43.5 74.957031 43.699219 72.667969 45.796875 C 72.351562 46.15625 72.101562 46.523438 71.867188 46.941406 C 71.816406 47.027344 71.765625 47.113281 71.714844 47.199219 C 71.011719 48.539062 70.789062 50.207031 70.609375 51.691406 C 70.324219 54.09375 69.726562 56.328125 68.441406 58.390625 C 68.359375 58.535156 68.277344 58.679688 68.199219 58.828125 C 67.957031 59.238281 67.703125 59.617188 67.414062 59.992188 C 67.335938 59.992188 67.261719 59.992188 67.183594 59.992188 C 67.175781 60.054688 67.167969 60.121094 67.164062 60.1875 C 67.027344 60.570312 66.796875 60.75 66.5 61.023438 C 66.4375 61.078125 66.378906 61.132812 66.320312 61.1875 C 65.875 61.582031 65.410156 61.917969 64.910156 62.238281 C 64.71875 62.367188 64.527344 62.5 64.339844 62.632812 C 61.996094 64.089844 58.980469 64.4375 56.300781 63.867188 C 55.226562 63.597656 54.195312 63.195312 53.242188 62.625 C 53.15625 62.574219 53.066406 62.519531 52.976562 62.464844 C 52.027344 61.863281 51.042969 61.148438 50.386719 60.222656 C 50.386719 60.144531 50.386719 60.070312 50.386719 59.992188 C 50.285156 59.953125 50.285156 59.953125 50.183594 59.910156 C 49.878906 59.734375 49.75 59.554688 49.558594 59.261719 C 49.5 59.175781 49.441406 59.085938 49.378906 58.996094 C 49.246094 58.734375 49.246094 58.734375 49.246094 58.277344 C 49.167969 58.277344 49.09375 58.277344 49.015625 58.277344 C 48.820312 57.820312 48.632812 57.359375 48.445312 56.902344 C 48.410156 56.820312 48.375 56.738281 48.339844 56.652344 C 47.40625 54.238281 47.769531 51.085938 48.789062 48.773438 C 48.898438 48.617188 49.011719 48.464844 49.132812 48.316406 C 49.207031 48.125 49.285156 47.933594 49.359375 47.742188 C 49.488281 47.535156 49.621094 47.332031 49.757812 47.132812 C 49.828125 47.03125 49.898438 46.933594 49.96875 46.828125 C 50.0625 46.714844 50.0625 46.714844 50.160156 46.597656 C 50.234375 46.597656 50.308594 46.597656 50.386719 46.597656 C 50.398438 46.5 50.398438 46.5 50.410156 46.402344 C 50.542969 46.023438 50.773438 45.839844 51.074219 45.566406 C 51.132812 45.511719 51.191406 45.457031 51.253906 45.402344 C 51.765625 44.941406 52.324219 44.566406 52.902344 44.191406 C 53.011719 44.117188 53.121094 44.039062 53.238281 43.957031 C 55.980469 42.21875 59.183594 41.96875 62.332031 41.730469 C 64.582031 41.5625 66.644531 41.375 68.554688 40.070312 C 68.628906 40.070312 68.707031 40.070312 68.78125 40.070312 C 68.78125 39.996094 68.78125 39.921875 68.78125 39.84375 C 68.847656 39.816406 68.914062 39.792969 68.980469 39.765625 C 69.976562 39.183594 70.640625 37.691406 70.953125 36.636719 C 71.125 35.957031 71.21875 35.269531 71.296875 34.574219 C 71.308594 34.492188 71.316406 34.410156 71.328125 34.324219 C 71.628906 31.804688 71.421875 28.226562 70.078125 26.015625 C 69.925781 25.761719 69.925781 25.761719 69.925781 25.417969 C 69.851562 25.417969 69.773438 25.417969 69.695312 25.417969 C 69.578125 25.269531 69.46875 25.113281 69.363281 24.957031 C 68.945312 24.398438 68.464844 24.042969 67.886719 23.65625 C 67.804688 23.59375 67.722656 23.535156 67.640625 23.46875 C 67.640625 23.394531 67.640625 23.320312 67.640625 23.242188 C 67.570312 23.21875 67.5 23.199219 67.425781 23.179688 C 67.28125 23.136719 67.28125 23.136719 67.132812 23.089844 C 66.976562 23.042969 66.976562 23.042969 66.8125 22.996094 C 66.550781 22.914062 66.292969 22.824219 66.035156 22.726562 C 64.496094 22.214844 62.867188 22.148438 61.257812 22.085938 C 60.078125 22.039062 58.96875 21.90625 57.8125 21.636719 C 57.636719 21.597656 57.636719 21.597656 57.453125 21.558594 C 54.796875 20.949219 52.109375 19.84375 50.386719 17.632812 C 50.296875 17.523438 50.296875 17.523438 50.207031 17.414062 C 49.414062 16.445312 48.699219 15.332031 48.394531 14.101562 C 48.335938 13.847656 48.335938 13.847656 48.21875 13.597656 C 48.058594 13.164062 48.019531 12.738281 47.972656 12.277344 C 47.964844 12.191406 47.953125 12.105469 47.945312 12.015625 C 47.617188 8.945312 48.410156 6.175781 50.335938 3.765625 C 50.667969 3.375 51.015625 3.066406 51.414062 2.746094 C 51.480469 2.65625 51.546875 2.566406 51.617188 2.476562 C 51.664062 2.414062 51.710938 2.351562 51.757812 2.289062 C 51.871094 2.289062 51.984375 2.289062 52.101562 2.289062 C 52.101562 2.214844 52.101562 2.140625 52.101562 2.0625 C 52.925781 1.417969 53.882812 0.964844 54.84375 0.574219 C 54.972656 0.515625 55.101562 0.460938 55.234375 0.402344 C 57.582031 -0.511719 60.78125 -0.253906 63.070312 0.6875 Z M 63.070312 0.6875 "/>
<path style=" stroke:none;fill-rule:nonzero;fill:rgb(0%,0%,0%);fill-opacity:1;" d="M 41.246094 22.554688 C 41.34375 22.617188 41.34375 22.617188 41.441406 22.683594 C 41.660156 22.832031 41.878906 22.984375 42.097656 23.132812 C 42.167969 23.183594 42.238281 23.230469 42.308594 23.28125 C 42.679688 23.546875 42.886719 23.75 43.074219 24.15625 C 43.226562 24.234375 43.378906 24.3125 43.53125 24.386719 C 45.546875 26.476562 46.476562 29.261719 46.449219 32.125 C 46.363281 34.613281 45.53125 36.761719 43.988281 38.699219 C 43.914062 38.796875 43.835938 38.894531 43.761719 38.996094 C 43.421875 39.40625 43.023438 39.730469 42.617188 40.070312 C 42.535156 40.144531 42.453125 40.21875 42.367188 40.292969 C 40.246094 42.121094 37.363281 42.773438 34.621094 42.589844 C 32.453125 42.351562 30.503906 41.546875 28.792969 40.1875 C 28.753906 40.074219 28.71875 39.960938 28.679688 39.84375 C 28.613281 39.8125 28.550781 39.78125 28.484375 39.75 C 28.101562 39.550781 27.808594 39.261719 27.535156 38.925781 C 27.535156 38.851562 27.535156 38.777344 27.535156 38.699219 C 27.460938 38.699219 27.386719 38.699219 27.308594 38.699219 C 25.191406 36.265625 24.867188 33.191406 25.050781 30.113281 C 25.21875 28.632812 25.78125 27.210938 26.621094 25.988281 C 26.675781 25.914062 26.726562 25.835938 26.78125 25.757812 C 27.683594 24.5 28.777344 23.273438 30.164062 22.554688 C 30.253906 22.5 30.339844 22.449219 30.433594 22.394531 C 33.597656 20.546875 38.15625 20.492188 41.246094 22.554688 Z M 41.246094 22.554688 "/>
<path style=" stroke:none;fill-rule:nonzero;fill:rgb(0%,0%,0%);fill-opacity:1;" d="M 17.242188 44.574219 C 17.519531 44.824219 17.789062 45.078125 18.054688 45.339844 C 18.152344 45.429688 18.25 45.523438 18.351562 45.617188 C 20.632812 48.082031 21.425781 50.773438 21.3125 54.070312 C 21.234375 55.816406 20.609375 57.339844 19.765625 58.847656 C 19.691406 58.847656 19.617188 58.847656 19.539062 58.847656 C 19.5 59.035156 19.460938 59.226562 19.421875 59.421875 C 19.347656 59.421875 19.273438 59.421875 19.195312 59.421875 C 19.171875 59.5 19.144531 59.582031 19.121094 59.664062 C 18.929688 60.070312 18.664062 60.347656 18.34375 60.660156 C 18.285156 60.71875 18.222656 60.777344 18.160156 60.839844 C 17.597656 61.386719 16.992188 61.847656 16.339844 62.28125 C 16.261719 62.335938 16.1875 62.390625 16.109375 62.445312 C 14.773438 63.351562 13.023438 63.789062 11.425781 63.886719 C 11.308594 63.894531 11.195312 63.898438 11.074219 63.90625 C 8.804688 63.980469 6.585938 63.414062 4.683594 62.167969 C 4.609375 62.121094 4.539062 62.078125 4.460938 62.03125 C 4.304688 61.929688 4.148438 61.820312 4 61.710938 C 4 61.632812 4 61.558594 4 61.480469 C 3.9375 61.457031 3.875 61.429688 3.808594 61.402344 C 3.460938 61.207031 3.199219 60.9375 2.921875 60.652344 C 2.816406 60.542969 2.707031 60.4375 2.601562 60.328125 C 2.058594 59.757812 1.640625 59.210938 1.300781 58.496094 C 1.046875 57.960938 1.046875 57.960938 0.75 57.449219 C 0.0078125 56.128906 -0.101562 54.617188 -0.078125 53.136719 C -0.078125 53.046875 -0.078125 52.957031 -0.078125 52.867188 C -0.0664062 51.210938 0.140625 49.75 1.027344 48.316406 C 1.078125 48.191406 1.128906 48.066406 1.179688 47.9375 C 1.390625 47.425781 1.714844 47.027344 2.054688 46.597656 C 2.128906 46.503906 2.203125 46.40625 2.277344 46.308594 C 2.730469 45.722656 3.179688 45.214844 3.769531 44.765625 C 3.847656 44.765625 3.921875 44.765625 4 44.765625 C 4.054688 44.59375 4.054688 44.59375 4.113281 44.421875 C 4.417969 44.183594 4.761719 44 5.097656 43.808594 C 5.195312 43.75 5.296875 43.695312 5.398438 43.636719 C 9.050781 41.601562 13.953125 41.9375 17.242188 44.574219 Z M 17.242188 44.574219 "/>
<path style=" stroke:none;fill-rule:nonzero;fill:rgb(0%,0%,0%);fill-opacity:1;" d="M 113 44.535156 C 113 44.613281 113 44.6875 113 44.765625 C 113.078125 44.785156 113.15625 44.804688 113.238281 44.824219 C 113.648438 45.035156 113.863281 45.296875 114.15625 45.648438 C 114.378906 45.917969 114.613281 46.175781 114.851562 46.433594 C 115.210938 46.84375 115.5 47.253906 115.742188 47.742188 C 115.796875 47.835938 115.847656 47.929688 115.902344 48.027344 C 116.78125 49.667969 117.105469 51.269531 117.078125 53.109375 C 117.078125 53.199219 117.078125 53.289062 117.078125 53.382812 C 117.0625 54.796875 116.933594 56.070312 116.3125 57.359375 C 116.28125 57.433594 116.246094 57.503906 116.210938 57.578125 C 115.738281 58.558594 115.175781 59.4375 114.4375 60.230469 C 114.382812 60.285156 114.332031 60.34375 114.277344 60.402344 C 114.117188 60.574219 113.960938 60.742188 113.800781 60.910156 C 113.648438 61.070312 113.648438 61.070312 113.488281 61.238281 C 113.230469 61.480469 113.230469 61.480469 113 61.480469 C 113 61.558594 113 61.632812 113 61.710938 C 112.777344 61.875 112.550781 62.023438 112.316406 62.167969 C 112.191406 62.25 112.191406 62.25 112.066406 62.332031 C 109.527344 63.945312 106.511719 64.1875 103.625 63.566406 C 102.554688 63.316406 101.554688 62.933594 100.660156 62.28125 C 100.546875 62.199219 100.433594 62.117188 100.316406 62.03125 C 98.132812 60.417969 98.132812 60.417969 97.804688 59.421875 C 97.730469 59.421875 97.652344 59.421875 97.578125 59.421875 C 97.539062 59.230469 97.5 59.042969 97.460938 58.847656 C 97.386719 58.847656 97.3125 58.847656 97.234375 58.847656 C 95.757812 56.15625 95.183594 53.113281 95.976562 50.082031 C 96.410156 48.613281 97.210938 47.335938 98.148438 46.140625 C 98.222656 46.042969 98.292969 45.945312 98.371094 45.84375 C 98.601562 45.570312 98.832031 45.371094 99.117188 45.160156 C 99.378906 44.964844 99.617188 44.78125 99.84375 44.542969 C 103.207031 41.34375 109.570312 41.699219 113 44.535156 Z M 113 44.535156 "/>
</g>
</svg>
