<?xml version="1.0" encoding="UTF-8"?>
<svg xmlns="http://www.w3.org/2000/svg" xmlns:xlink="http://www.w3.org/1999/xlink" width="64px" height="64px" viewBox="0 0 64 64" version="1.1">
<g id="surface1">
<path style=" stroke:none;fill-rule:nonzero;fill:rgb(71.764708%,10.980392%,10.980392%);fill-opacity:1;" d="M 29.375 3.875 C 29.378906 3.953125 29.382812 4.03125 29.386719 4.113281 C 29.570312 7.261719 29.964844 10.597656 31.515625 13.40625 C 31.625 13.625 31.625 13.625 31.625 13.875 C 31.769531 13.890625 31.910156 13.910156 32.058594 13.925781 C 38.863281 14.773438 45.664062 16.273438 51.375 20.25 C 51.445312 20.300781 51.515625 20.347656 51.589844 20.398438 C 53.722656 21.898438 56.015625 23.78125 57.25 26.125 C 57.25 26.25 57.25 26.371094 57.25 26.5 C 57.183594 26.507812 57.113281 26.519531 57.046875 26.527344 C 50.617188 27.390625 44.28125 28.492188 38 30.125 C 38.019531 30.238281 38.035156 30.355469 38.054688 30.472656 C 38.125 30.902344 38.191406 31.335938 38.261719 31.765625 C 38.289062 31.949219 38.320312 32.136719 38.347656 32.320312 C 38.390625 32.589844 38.433594 32.859375 38.476562 33.128906 C 38.5 33.289062 38.527344 33.449219 38.554688 33.617188 C 38.699219 34.617188 38.769531 35.609375 38.773438 36.621094 C 38.777344 36.738281 38.777344 36.851562 38.777344 36.96875 C 38.78125 37.339844 38.78125 37.707031 38.78125 38.078125 C 38.78125 38.203125 38.78125 38.332031 38.78125 38.460938 C 38.78125 40.335938 38.71875 42.152344 38.375 44 C 38.355469 44.117188 38.332031 44.238281 38.3125 44.359375 C 37.671875 47.972656 36.472656 51.398438 34.796875 54.65625 C 34.730469 54.785156 34.664062 54.914062 34.597656 55.042969 C 34.40625 55.410156 34.203125 55.765625 34 56.125 C 33.9375 56.246094 33.875 56.367188 33.808594 56.492188 C 33.328125 57.308594 33.328125 57.308594 32.804688 57.476562 C 32.410156 57.511719 32.039062 57.503906 31.640625 57.476562 C 31.421875 57.46875 31.421875 57.46875 31.195312 57.460938 C 30.714844 57.441406 30.230469 57.410156 29.75 57.375 C 29.582031 57.363281 29.417969 57.351562 29.25 57.34375 C 22.628906 56.90625 14.082031 55.769531 9.328125 50.648438 C 8.34375 49.511719 7.824219 48.074219 7.894531 46.570312 C 8.234375 43.558594 10.328125 41.359375 12.542969 39.484375 C 13.167969 38.957031 13.746094 38.390625 14.320312 37.808594 C 14.667969 37.457031 15.015625 37.117188 15.390625 36.796875 C 16.382812 35.949219 17.28125 34.996094 18.125 34 C 18.226562 33.886719 18.328125 33.773438 18.429688 33.65625 C 21.339844 30.363281 22.761719 27.042969 22.5 22.625 C 22.152344 18.652344 20.066406 16.070312 17.441406 13.300781 C 16.652344 12.441406 15.886719 11.527344 15.839844 10.3125 C 15.929688 9.515625 16.34375 8.855469 16.914062 8.304688 C 19.878906 5.957031 25.558594 3.875 29.375 3.875 Z M 25.9375 6.132812 C 25.789062 6.171875 25.636719 6.210938 25.484375 6.25 C 24.535156 6.503906 23.597656 6.78125 22.671875 7.101562 C 22.566406 7.136719 22.460938 7.175781 22.355469 7.210938 C 21.832031 7.363281 21.832031 7.363281 21.5 7.75 C 22.199219 7.886719 22.894531 8.027344 23.59375 8.164062 C 23.832031 8.210938 24.066406 8.257812 24.304688 8.304688 C 25.65625 8.574219 27.003906 8.820312 28.375 9 C 28.25 7.925781 28.128906 6.855469 28 5.75 C 27.28125 5.75 26.632812 5.953125 25.9375 6.132812 Z M 18.328125 9.15625 C 18.230469 9.230469 18.128906 9.308594 18.027344 9.382812 C 17.753906 9.621094 17.550781 9.808594 17.375 10.125 C 17.402344 10.5 17.441406 10.691406 17.710938 10.960938 C 18.441406 11.429688 19.144531 11.707031 19.984375 11.929688 C 20.101562 11.964844 20.21875 11.996094 20.339844 12.03125 C 20.980469 12.230469 20.980469 12.230469 21.625 12.125 C 21.539062 12.027344 21.457031 11.929688 21.367188 11.832031 C 20.660156 11.011719 20 10.179688 19.386719 9.289062 C 19.261719 9.109375 19.128906 8.929688 19 8.75 C 18.746094 8.75 18.519531 9.007812 18.328125 9.15625 Z M 21.125 9.125 C 21.875 10.433594 22.976562 11.527344 24 12.625 C 24.957031 12.191406 25.835938 11.730469 26.671875 11.085938 C 26.777344 11.003906 26.777344 11.003906 26.886719 10.921875 C 27.054688 10.789062 27.214844 10.644531 27.375 10.5 C 27.375 10.417969 27.375 10.335938 27.375 10.25 C 26.523438 10.089844 25.675781 9.929688 24.824219 9.769531 C 24.535156 9.714844 24.246094 9.660156 23.957031 9.605469 C 23.542969 9.527344 23.128906 9.449219 22.710938 9.371094 C 22.582031 9.347656 22.453125 9.320312 22.316406 9.296875 C 22.136719 9.261719 22.136719 9.261719 21.953125 9.226562 C 21.847656 9.207031 21.742188 9.1875 21.632812 9.167969 C 21.378906 9.117188 21.378906 9.117188 21.125 9.125 Z M 28.75 11.125 C 28.683594 11.1875 28.617188 11.25 28.546875 11.3125 C 27.863281 11.9375 27.148438 12.484375 26.375 13 C 26.777344 13.230469 27.121094 13.304688 27.578125 13.355469 C 27.714844 13.371094 27.847656 13.386719 27.984375 13.40625 C 28.195312 13.429688 28.195312 13.429688 28.40625 13.453125 C 28.546875 13.46875 28.6875 13.488281 28.832031 13.503906 C 29.179688 13.546875 29.527344 13.585938 29.875 13.625 C 29.734375 13.230469 29.59375 12.839844 29.453125 12.445312 C 29.414062 12.332031 29.375 12.222656 29.332031 12.105469 C 29.273438 11.945312 29.273438 11.945312 29.214844 11.78125 C 29.179688 11.683594 29.144531 11.585938 29.109375 11.480469 C 29.019531 11.226562 29.019531 11.226562 28.75 11.125 Z M 19.75 13.375 C 20.050781 13.871094 20.382812 14.273438 20.78125 14.695312 C 21.546875 15.527344 22.136719 16.480469 22.625 17.5 C 23.046875 17.316406 23.332031 17.074219 23.664062 16.757812 C 24.472656 16.015625 25.359375 15.386719 26.25 14.75 C 26.1875 14.625 26.1875 14.625 26.125 14.5 C 25.820312 14.429688 25.523438 14.371094 25.210938 14.324219 C 25.121094 14.308594 25.027344 14.292969 24.929688 14.277344 C 24.632812 14.230469 24.332031 14.179688 24.03125 14.132812 C 23.640625 14.070312 23.25 14.007812 22.859375 13.941406 C 22.765625 13.925781 22.671875 13.910156 22.574219 13.894531 C 21.851562 13.773438 21.144531 13.621094 20.4375 13.445312 C 20.117188 13.363281 20.117188 13.363281 19.75 13.375 Z M 30.125 15.125 C 30.160156 15.28125 30.195312 15.441406 30.234375 15.601562 C 30.484375 16.730469 30.664062 17.84375 30.75 19 C 31.261719 18.820312 31.667969 18.566406 32.117188 18.265625 C 33.320312 17.46875 34.601562 16.804688 35.875 16.125 C 35.875 16.082031 35.875 16.042969 35.875 16 C 35.238281 15.894531 34.597656 15.789062 33.960938 15.6875 C 33.742188 15.652344 33.527344 15.617188 33.3125 15.578125 C 32.996094 15.527344 32.683594 15.476562 32.371094 15.425781 C 32.277344 15.410156 32.179688 15.394531 32.082031 15.378906 C 31.429688 15.273438 30.78125 15.195312 30.125 15.125 Z M 28.375 15.125 C 27.207031 15.792969 26.140625 16.488281 25.125 17.375 C 24.949219 17.523438 24.777344 17.671875 24.601562 17.820312 C 24.484375 17.921875 24.371094 18.019531 24.25 18.125 C 24.65625 18.347656 25.050781 18.46875 25.496094 18.582031 C 25.644531 18.621094 25.789062 18.65625 25.9375 18.695312 C 26.089844 18.734375 26.242188 18.773438 26.398438 18.8125 C 26.546875 18.851562 26.695312 18.890625 26.851562 18.929688 C 27.648438 19.132812 28.445312 19.328125 29.25 19.5 C 29.355469 17.175781 29.355469 17.175781 28.375 15.125 Z M 38.75 16.625 C 38.722656 16.707031 38.699219 16.789062 38.671875 16.875 C 37.746094 19.742188 37.746094 19.742188 37.128906 20.976562 C 36.980469 21.238281 36.980469 21.238281 37 21.5 C 37.636719 21.292969 38.265625 21.074219 38.894531 20.84375 C 40.691406 20.1875 42.496094 19.597656 44.339844 19.082031 C 44.6875 18.980469 45.03125 18.871094 45.375 18.75 C 44.21875 17.976562 42.710938 17.59375 41.382812 17.210938 C 41.277344 17.179688 41.171875 17.152344 41.066406 17.121094 C 40.300781 16.90625 39.53125 16.753906 38.75 16.625 Z M 35.632812 17.78125 C 35.511719 17.847656 35.386719 17.914062 35.261719 17.984375 C 34.421875 18.449219 33.59375 18.933594 32.78125 19.445312 C 32.679688 19.507812 32.582031 19.570312 32.476562 19.632812 C 32.382812 19.695312 32.292969 19.753906 32.195312 19.8125 C 32.117188 19.863281 32.035156 19.914062 31.953125 19.96875 C 31.714844 20.136719 31.714844 20.136719 31.5 20.5 C 31.578125 20.535156 31.660156 20.570312 31.742188 20.609375 C 32.101562 20.773438 32.464844 20.9375 32.828125 21.101562 C 32.953125 21.15625 33.078125 21.214844 33.207031 21.273438 C 33.808594 21.546875 34.410156 21.820312 35 22.125 C 35.53125 21.097656 36.042969 20.0625 36.484375 18.992188 C 36.539062 18.863281 36.539062 18.863281 36.59375 18.730469 C 36.804688 18.203125 36.976562 17.675781 37.125 17.125 C 36.597656 17.125 36.085938 17.53125 35.632812 17.78125 Z M 23.5 19.5 C 23.515625 19.589844 23.53125 19.679688 23.546875 19.769531 C 23.710938 20.730469 23.839844 21.6875 23.953125 22.65625 C 23.96875 22.796875 23.988281 22.941406 24.003906 23.085938 C 24.042969 23.433594 24.085938 23.777344 24.125 24.125 C 24.542969 23.925781 24.832031 23.703125 25.171875 23.382812 C 25.761719 22.839844 26.375 22.347656 27.011719 21.863281 C 27.457031 21.519531 27.859375 21.15625 28.25 20.75 C 26.679688 20.257812 25.113281 19.832031 23.5 19.5 Z M 48 20 C 47.933594 20.132812 47.867188 20.261719 47.796875 20.398438 C 46.527344 22.871094 44.914062 25.011719 43.125 27.125 C 43.664062 27.289062 44.109375 27.183594 44.652344 27.070312 C 44.863281 27.027344 45.074219 26.984375 45.289062 26.945312 C 45.402344 26.921875 45.511719 26.898438 45.628906 26.875 C 47.609375 26.476562 49.589844 26.121094 51.585938 25.820312 C 51.742188 25.796875 51.742188 25.796875 51.898438 25.773438 C 52.808594 25.636719 53.714844 25.503906 54.625 25.375 C 54.363281 24.800781 53.96875 24.425781 53.523438 23.984375 C 53.4375 23.902344 53.355469 23.816406 53.269531 23.730469 C 52.519531 23 51.734375 22.351562 50.875 21.75 C 50.796875 21.695312 50.71875 21.640625 50.636719 21.585938 C 50.394531 21.414062 50.144531 21.246094 49.898438 21.078125 C 49.824219 21.027344 49.75 20.976562 49.671875 20.925781 C 49.132812 20.570312 48.582031 20.28125 48 20 Z M 36.875 23.125 C 37.292969 23.5625 37.722656 23.929688 38.210938 24.28125 C 39.3125 25.097656 40.292969 26.019531 41.25 27 C 43.117188 25.148438 44.613281 23.101562 46 20.875 C 46.113281 20.699219 46.113281 20.699219 46.226562 20.515625 C 46.394531 20.265625 46.394531 20.265625 46.375 20 C 43.371094 20 39.597656 21.957031 36.875 23.125 Z M 30.375 21.625 C 30.347656 21.734375 30.316406 21.839844 30.289062 21.949219 C 30.03125 22.886719 29.734375 23.78125 29.367188 24.679688 C 29.234375 24.980469 29.234375 24.980469 29.25 25.25 C 29.738281 25.0625 30.199219 24.84375 30.660156 24.601562 C 30.734375 24.5625 30.808594 24.527344 30.882812 24.488281 C 31.035156 24.40625 31.191406 24.328125 31.34375 24.246094 C 31.578125 24.125 31.8125 24.003906 32.046875 23.882812 C 32.851562 23.46875 32.851562 23.46875 33.625 23 C 33.199219 22.792969 32.777344 22.585938 32.351562 22.382812 C 32.230469 22.324219 32.113281 22.265625 31.988281 22.207031 C 31.871094 22.148438 31.753906 22.09375 31.636719 22.035156 C 31.527344 21.984375 31.421875 21.933594 31.3125 21.878906 C 31 21.75 30.707031 21.679688 30.375 21.625 Z M 27.601562 23.21875 C 27.511719 23.292969 27.425781 23.363281 27.332031 23.4375 C 26.460938 24.152344 25.601562 24.886719 24.75 25.625 C 25.082031 25.957031 25.464844 26.089844 25.890625 26.265625 C 25.972656 26.300781 26.054688 26.335938 26.140625 26.371094 C 26.34375 26.457031 26.546875 26.539062 26.75 26.625 C 27.292969 25.921875 27.675781 25.160156 28.039062 24.351562 C 28.082031 24.253906 28.125 24.160156 28.171875 24.058594 C 28.398438 23.539062 28.5625 23.070312 28.625 22.5 C 28.296875 22.5 27.859375 23.007812 27.601562 23.21875 Z M 35.5 24.125 C 35.417969 24.265625 35.332031 24.402344 35.246094 24.546875 C 34.199219 26.285156 33.089844 27.960938 31.847656 29.566406 C 31.65625 29.832031 31.515625 30.082031 31.375 30.375 C 32.160156 30.207031 32.933594 30.011719 33.707031 29.792969 C 33.820312 29.761719 33.929688 29.730469 34.046875 29.699219 C 34.402344 29.597656 34.761719 29.5 35.117188 29.398438 C 35.351562 29.332031 35.585938 29.265625 35.820312 29.199219 C 36.167969 29.105469 36.515625 29.007812 36.863281 28.910156 C 37.949219 28.605469 39.039062 28.300781 40.125 28 C 40.003906 27.859375 39.886719 27.71875 39.765625 27.582031 C 39.699219 27.503906 39.632812 27.425781 39.5625 27.34375 C 38.421875 26.019531 37.027344 24.96875 35.5 24.125 Z M 33.125 24.875 C 31.429688 25.742188 29.753906 26.636719 28.125 27.625 C 28.171875 27.6875 28.222656 27.753906 28.273438 27.816406 C 29.363281 29.261719 29.363281 29.261719 29.625 30 C 30.121094 29.527344 30.535156 29.027344 30.945312 28.476562 C 31.007812 28.390625 31.074219 28.304688 31.136719 28.21875 C 31.882812 27.214844 32.566406 26.171875 33.25 25.125 C 33.1875 25 33.1875 25 33.125 24.875 Z M 23.875 27 C 23.667969 27.660156 23.460938 28.320312 23.25 29 C 23.792969 28.785156 24.1875 28.558594 24.664062 28.234375 C 24.863281 28.097656 24.863281 28.097656 25.070312 27.960938 C 25.167969 27.890625 25.269531 27.820312 25.375 27.75 C 25.085938 27.414062 24.835938 27.292969 24.414062 27.164062 C 24.234375 27.109375 24.058594 27.054688 23.875 27 Z M 27 28.875 C 26.828125 29.085938 26.664062 29.304688 26.507812 29.523438 C 25.585938 30.789062 24.546875 31.960938 23.5 33.125 C 23.757812 33.289062 23.757812 33.289062 24.082031 33.144531 C 24.289062 33.058594 24.289062 33.058594 24.5 32.976562 C 24.730469 32.882812 24.730469 32.882812 24.960938 32.789062 C 25.121094 32.726562 25.285156 32.660156 25.445312 32.59375 C 26.414062 32.203125 27.378906 31.816406 28.375 31.5 C 28.464844 30.660156 28.183594 30.085938 27.75 29.375 C 27.503906 29.054688 27.503906 29.054688 27.25 28.875 C 27.167969 28.875 27.085938 28.875 27 28.875 Z M 35.324219 30.71875 C 35.085938 30.785156 35.085938 30.785156 34.847656 30.855469 C 34.683594 30.902344 34.515625 30.953125 34.351562 31 C 34.183594 31.046875 34.019531 31.097656 33.851562 31.144531 C 33.441406 31.261719 33.035156 31.382812 32.625 31.5 C 32.957031 31.902344 33.378906 32.070312 33.847656 32.265625 C 33.929688 32.300781 34.011719 32.339844 34.097656 32.375 C 34.269531 32.449219 34.441406 32.523438 34.617188 32.597656 C 34.882812 32.710938 35.148438 32.824219 35.414062 32.941406 C 35.582031 33.011719 35.75 33.085938 35.917969 33.15625 C 35.996094 33.191406 36.078125 33.226562 36.160156 33.261719 C 36.566406 33.441406 36.566406 33.441406 37 33.5 C 36.933594 32.476562 36.730469 31.496094 36.5 30.5 C 36.066406 30.5 35.738281 30.597656 35.324219 30.71875 Z M 22.585938 31.335938 C 22.515625 31.390625 22.445312 31.445312 22.371094 31.5 C 21.648438 32.0625 21.066406 32.675781 20.523438 33.414062 C 20.445312 33.515625 20.445312 33.515625 20.371094 33.621094 C 20.246094 33.789062 20.121094 33.957031 20 34.125 C 20.4375 34.125 20.472656 34.074219 20.777344 33.785156 C 20.855469 33.714844 20.933594 33.640625 21.011719 33.566406 C 21.09375 33.488281 21.175781 33.410156 21.257812 33.328125 C 21.339844 33.25 21.425781 33.167969 21.511719 33.089844 C 21.757812 32.851562 22.003906 32.613281 22.25 32.375 C 22.351562 32.277344 22.351562 32.277344 22.457031 32.175781 C 23.167969 31.546875 23.167969 31.546875 23.625 30.75 C 23.199219 30.75 22.910156 31.082031 22.585938 31.335938 Z M 31 32.625 C 30.800781 33.597656 30.617188 34.570312 30.4375 35.546875 C 30.410156 35.691406 30.382812 35.832031 30.355469 35.980469 C 30.1875 36.902344 30.027344 37.824219 29.875 38.75 C 32.066406 37.605469 34.167969 36.332031 36.25 35 C 35.914062 34.589844 35.46875 34.417969 34.992188 34.214844 C 34.90625 34.175781 34.820312 34.140625 34.734375 34.101562 C 34.550781 34.019531 34.367188 33.941406 34.1875 33.863281 C 33.910156 33.742188 33.632812 33.621094 33.355469 33.5 C 33.179688 33.421875 33 33.347656 32.820312 33.269531 C 32.742188 33.234375 32.660156 33.199219 32.574219 33.160156 C 32.054688 32.9375 31.542969 32.769531 31 32.625 Z M 28.558594 32.863281 C 28.421875 32.910156 28.285156 32.960938 28.140625 33.011719 C 27.996094 33.066406 27.851562 33.117188 27.703125 33.171875 C 27.488281 33.25 27.488281 33.25 27.265625 33.328125 C 26.429688 33.625 26.429688 33.625 25.625 34 C 26.101562 35.617188 26.96875 37.128906 28.25 38.25 C 28.332031 38.25 28.414062 38.25 28.5 38.25 C 28.625 37.671875 28.746094 37.089844 28.867188 36.507812 C 28.910156 36.3125 28.949219 36.117188 28.992188 35.917969 C 29.226562 34.824219 29.441406 33.746094 29.5 32.625 C 29.152344 32.625 28.886719 32.746094 28.558594 32.863281 Z M 24 34.625 C 23.8125 35.1875 23.625 35.746094 23.445312 36.308594 C 22.746094 38.445312 21.777344 40.457031 20.546875 42.339844 C 20.355469 42.605469 20.355469 42.605469 20.375 42.875 C 21.199219 42.636719 22.011719 42.375 22.8125 42.070312 C 22.921875 42.027344 23.03125 41.988281 23.144531 41.945312 C 24.710938 41.335938 26.246094 40.625 27.75 39.875 C 27.566406 39.4375 27.320312 39.179688 26.976562 38.859375 C 25.953125 37.851562 25.328125 36.710938 24.710938 35.429688 C 24.511719 35 24.511719 35 24.25 34.625 C 24.167969 34.625 24.085938 34.625 24 34.625 Z M 20.128906 36.496094 C 19.90625 36.609375 19.679688 36.714844 19.453125 36.820312 C 18.722656 37.171875 18.347656 37.453125 18.074219 38.230469 C 18.050781 38.320312 18.023438 38.410156 18 38.5 C 17.976562 38.578125 17.957031 38.65625 17.933594 38.734375 C 17.632812 40.066406 17.835938 41.519531 18.375 42.75 C 18.816406 42.601562 18.851562 42.519531 19.078125 42.136719 C 19.140625 42.035156 19.203125 41.933594 19.265625 41.828125 C 19.328125 41.714844 19.394531 41.605469 19.460938 41.492188 C 19.527344 41.378906 19.59375 41.265625 19.664062 41.148438 C 21.25 38.519531 21.25 38.519531 22.125 35.625 C 21.476562 35.625 20.707031 36.199219 20.128906 36.496094 Z M 36.09375 36.710938 C 35.226562 37.28125 34.347656 37.824219 33.453125 38.351562 C 33.34375 38.417969 33.230469 38.484375 33.117188 38.550781 C 32.335938 39.007812 31.546875 39.445312 30.75 39.875 C 32.339844 40.9375 34.660156 41.402344 36.554688 41.382812 C 36.6875 41.382812 36.816406 41.378906 36.953125 41.378906 C 37.101562 41.378906 37.101562 41.378906 37.25 41.375 C 37.355469 40.289062 37.386719 39.207031 37.390625 38.117188 C 37.390625 37.992188 37.390625 37.867188 37.390625 37.738281 C 37.390625 37.621094 37.390625 37.5 37.390625 37.378906 C 37.390625 37.21875 37.390625 37.21875 37.390625 37.058594 C 37.375 36.734375 37.320312 36.4375 37.25 36.125 C 36.804688 36.125 36.453125 36.46875 36.09375 36.710938 Z M 11.824219 42.167969 C 11.476562 42.53125 11.15625 42.917969 10.84375 43.3125 C 10.785156 43.386719 10.726562 43.460938 10.667969 43.535156 C 10.390625 43.894531 10.214844 44.183594 10.125 44.625 C 11.640625 44.679688 13.101562 44.632812 14.601562 44.398438 C 14.804688 44.367188 14.804688 44.367188 15.007812 44.335938 C 15.789062 44.207031 16.507812 44.019531 17.25 43.75 C 17.207031 43.625 17.164062 43.496094 17.117188 43.367188 C 17.058594 43.199219 17.003906 43.027344 16.945312 42.859375 C 16.917969 42.777344 16.886719 42.691406 16.859375 42.609375 C 16.542969 41.671875 16.484375 40.8125 16.492188 39.828125 C 16.492188 39.710938 16.492188 39.597656 16.492188 39.476562 C 16.496094 39.191406 16.496094 38.910156 16.5 38.625 C 15.195312 38.625 12.742188 41.253906 11.824219 42.167969 Z M 29.25 40.75 C 29.21875 40.835938 29.1875 40.921875 29.152344 41.007812 C 28.390625 43.042969 27.597656 45.058594 26.625 47 C 27.460938 46.75 28.222656 46.414062 29 46.023438 C 29.117188 45.964844 29.234375 45.90625 29.355469 45.847656 C 29.597656 45.722656 29.84375 45.601562 30.089844 45.476562 C 30.457031 45.289062 30.828125 45.105469 31.195312 44.921875 C 32.488281 44.277344 33.757812 43.613281 35 42.875 C 35 42.792969 35 42.710938 35 42.625 C 34.84375 42.597656 34.683594 42.570312 34.523438 42.542969 C 32.621094 42.195312 30.972656 41.628906 29.25 40.75 Z M 26.535156 41.957031 C 26.4375 42 26.339844 42.046875 26.242188 42.09375 C 26.136719 42.140625 26.03125 42.191406 25.921875 42.242188 C 24.941406 42.691406 23.949219 43.097656 22.9375 43.476562 C 22.757812 43.542969 22.757812 43.542969 22.570312 43.613281 C 21.816406 43.890625 21.058594 44.144531 20.289062 44.382812 C 19.980469 44.472656 19.980469 44.472656 19.875 44.75 C 21.3125 45.902344 22.871094 46.898438 24.625 47.5 C 25.234375 46.488281 25.78125 45.457031 26.289062 44.390625 C 26.339844 44.28125 26.394531 44.171875 26.449219 44.058594 C 27.019531 42.945312 27.019531 42.945312 27.25 41.75 C 26.953125 41.75 26.800781 41.828125 26.535156 41.957031 Z M 36.128906 43.832031 C 35.929688 43.9375 35.929688 43.9375 35.730469 44.046875 C 35.585938 44.125 35.445312 44.203125 35.296875 44.28125 C 34.996094 44.445312 34.695312 44.605469 34.398438 44.765625 C 34.28125 44.828125 34.28125 44.828125 34.167969 44.890625 C 31.890625 46.117188 29.585938 47.265625 27.25 48.375 C 27.355469 48.65625 27.355469 48.65625 27.671875 48.726562 C 27.800781 48.761719 27.929688 48.792969 28.066406 48.828125 C 28.28125 48.882812 28.28125 48.882812 28.503906 48.9375 C 28.738281 48.996094 28.738281 48.996094 28.976562 49.054688 C 29.136719 49.09375 29.292969 49.132812 29.457031 49.171875 C 31.375 49.636719 33.277344 49.914062 35.25 50 C 35.765625 48.558594 36.210938 47.117188 36.554688 45.625 C 36.585938 45.484375 36.621094 45.347656 36.652344 45.203125 C 36.78125 44.621094 36.894531 44.097656 36.875 43.5 C 36.613281 43.5 36.347656 43.710938 36.128906 43.832031 Z M 18.5 45.5 C 18.3125 45.710938 18.132812 45.925781 17.953125 46.140625 C 17.898438 46.207031 17.84375 46.273438 17.785156 46.34375 C 17.367188 46.847656 16.964844 47.363281 16.5625 47.882812 C 16.042969 48.554688 15.496094 49.183594 14.910156 49.800781 C 14.574219 50.183594 14.289062 50.582031 14 51 C 17.011719 50.644531 20.269531 49.992188 23 48.625 C 23 48.542969 23 48.460938 23 48.375 C 22.910156 48.324219 22.910156 48.324219 22.816406 48.277344 C 21.304688 47.464844 19.9375 46.605469 18.625 45.5 C 18.582031 45.5 18.542969 45.5 18.5 45.5 Z M 15.503906 45.578125 C 15.410156 45.59375 15.3125 45.609375 15.21875 45.628906 C 15.023438 45.660156 14.828125 45.695312 14.636719 45.730469 C 13.402344 45.945312 12.171875 46.023438 10.921875 46.070312 C 10.714844 46.078125 10.714844 46.078125 10.503906 46.085938 C 10.171875 46.101562 9.835938 46.113281 9.5 46.125 C 9.167969 46.792969 9.390625 47.628906 9.613281 48.300781 C 10.070312 49.378906 10.855469 50.148438 11.75 50.875 C 12.824219 50.417969 13.609375 49.265625 14.320312 48.375 C 14.742188 47.855469 15.179688 47.351562 15.617188 46.847656 C 16.222656 46.242188 16.222656 46.242188 16.5 45.5 C 16.136719 45.5 15.851562 45.515625 15.503906 45.578125 Z M 25.25 49.375 C 25.152344 49.503906 25.054688 49.632812 24.957031 49.769531 C 23.933594 51.140625 22.902344 52.484375 21.75 53.75 C 22.164062 53.886719 22.335938 53.863281 22.757812 53.785156 C 22.953125 53.75 22.953125 53.75 23.15625 53.714844 C 23.296875 53.6875 23.4375 53.660156 23.585938 53.632812 C 23.734375 53.605469 23.882812 53.578125 24.035156 53.546875 C 26.878906 52.996094 29.664062 52.277344 32.375 51.25 C 32.375 51.207031 32.375 51.167969 32.375 51.125 C 32.289062 51.109375 32.207031 51.09375 32.117188 51.078125 C 30.207031 50.738281 28.355469 50.320312 26.5 49.75 C 26.265625 49.679688 26.035156 49.609375 25.800781 49.539062 C 25.644531 49.492188 25.644531 49.492188 25.480469 49.445312 C 25.40625 49.421875 25.328125 49.398438 25.25 49.375 Z M 21.671875 50.566406 C 20.308594 51.046875 18.949219 51.472656 17.539062 51.796875 C 17.410156 51.828125 17.28125 51.855469 17.144531 51.886719 C 16.226562 52.089844 15.304688 52.242188 14.375 52.375 C 15.367188 53.035156 16.574219 53.417969 17.695312 53.804688 C 17.789062 53.839844 17.886719 53.871094 17.984375 53.90625 C 18.675781 54.140625 18.675781 54.140625 19.375 54 C 20.53125 53.136719 22.0625 51.722656 22.625 50.375 C 22.242188 50.375 22.027344 50.4375 21.671875 50.566406 Z M 33.5 52.242188 C 30.316406 53.519531 27.015625 54.453125 23.625 55 C 23.960938 55.335938 24.195312 55.320312 24.667969 55.378906 C 24.828125 55.402344 24.988281 55.421875 25.15625 55.445312 C 25.242188 55.453125 25.328125 55.464844 25.414062 55.476562 C 25.667969 55.507812 25.917969 55.539062 26.171875 55.574219 C 27.738281 55.773438 29.265625 55.894531 30.84375 55.882812 C 30.992188 55.882812 31.140625 55.882812 31.292969 55.882812 C 31.652344 55.878906 32.015625 55.878906 32.375 55.875 C 32.617188 55.464844 32.855469 55.050781 33.09375 54.640625 C 33.160156 54.527344 33.226562 54.410156 33.296875 54.292969 C 33.726562 53.550781 34.082031 52.804688 34.375 52 C 34.039062 52 33.808594 52.117188 33.5 52.242188 Z M 33.5 52.242188 "/>
<path style=" stroke:none;fill-rule:nonzero;fill:rgb(81.176472%,84.313726%,85.882354%);fill-opacity:1;" d="M 37.875 30.125 C 38.136719 31.039062 38.3125 31.953125 38.453125 32.890625 C 38.46875 32.992188 38.484375 33.097656 38.5 33.203125 C 38.664062 34.34375 38.769531 35.46875 38.773438 36.621094 C 38.777344 36.738281 38.777344 36.851562 38.777344 36.96875 C 38.78125 37.339844 38.78125 37.707031 38.78125 38.078125 C 38.78125 38.203125 38.78125 38.332031 38.78125 38.460938 C 38.78125 40.335938 38.71875 42.152344 38.375 44 C 38.355469 44.117188 38.332031 44.238281 38.3125 44.359375 C 37.671875 47.972656 36.472656 51.398438 34.796875 54.65625 C 34.730469 54.785156 34.664062 54.914062 34.597656 55.042969 C 34.40625 55.410156 34.203125 55.765625 34 56.125 C 33.9375 56.246094 33.875 56.367188 33.808594 56.492188 C 33.328125 57.308594 33.328125 57.308594 32.804688 57.476562 C 32.410156 57.511719 32.039062 57.503906 31.640625 57.476562 C 31.421875 57.46875 31.421875 57.46875 31.195312 57.460938 C 30.714844 57.441406 30.230469 57.410156 29.75 57.375 C 29.582031 57.363281 29.417969 57.351562 29.25 57.34375 C 22.628906 56.90625 14.082031 55.769531 9.328125 50.648438 C 8.34375 49.511719 7.824219 48.074219 7.894531 46.570312 C 8.089844 44.820312 8.832031 43.503906 9.875 42.125 C 9.972656 41.996094 10.070312 41.863281 10.171875 41.730469 C 10.535156 41.335938 10.835938 41.164062 11.320312 40.9375 C 11.496094 40.851562 11.675781 40.769531 11.851562 40.683594 C 11.953125 40.636719 12.054688 40.589844 12.15625 40.539062 C 12.78125 40.242188 13.398438 39.929688 14.019531 39.621094 C 14.171875 39.546875 14.328125 39.46875 14.480469 39.394531 C 15.480469 38.894531 16.472656 38.382812 17.433594 37.8125 C 17.78125 37.609375 17.964844 37.5 18.375 37.5 C 18.347656 37.582031 18.320312 37.664062 18.292969 37.75 C 17.808594 39.402344 17.835938 41.113281 18.375 42.75 C 18.894531 42.296875 19.195312 41.746094 19.53125 41.15625 C 19.589844 41.050781 19.652344 40.945312 19.714844 40.835938 C 20.652344 39.183594 21.539062 37.476562 22.105469 35.65625 C 22.296875 35.285156 22.492188 35.195312 22.867188 35.023438 C 22.976562 34.972656 23.085938 34.917969 23.199219 34.863281 C 23.5 34.75 23.5 34.75 23.875 34.75 C 23.804688 35.507812 23.644531 36.175781 23.390625 36.890625 C 23.332031 37.050781 23.332031 37.050781 23.277344 37.214844 C 22.546875 39.210938 21.507812 41.082031 20.375 42.875 C 22.246094 42.179688 24.082031 41.441406 25.898438 40.617188 C 26.03125 40.554688 26.164062 40.496094 26.304688 40.433594 C 26.417969 40.378906 26.535156 40.328125 26.65625 40.269531 C 27.015625 40.117188 27.378906 39.992188 27.75 39.875 C 27.628906 39.734375 27.503906 39.59375 27.382812 39.453125 C 27.300781 39.359375 27.222656 39.269531 27.140625 39.171875 C 26.964844 38.976562 26.789062 38.785156 26.605469 38.601562 C 25.503906 37.457031 24.660156 36.039062 24.25 34.5 C 24.410156 34.414062 24.566406 34.332031 24.726562 34.25 C 24.816406 34.203125 24.902344 34.15625 24.996094 34.109375 C 25.25 34 25.25 34 25.625 34 C 25.710938 34.203125 25.710938 34.203125 25.800781 34.40625 C 26.449219 35.882812 27.179688 37.265625 28.5 38.25 C 28.515625 38.097656 28.527344 37.941406 28.542969 37.785156 C 28.625 37.042969 28.777344 36.316406 28.929688 35.585938 C 28.984375 35.320312 29.039062 35.054688 29.09375 34.789062 C 29.121094 34.660156 29.148438 34.53125 29.175781 34.398438 C 29.273438 33.871094 29.339844 33.335938 29.402344 32.804688 C 29.5 32.5 29.5 32.5 29.765625 32.304688 C 30.089844 32.164062 30.40625 32.082031 30.75 32 C 30.867188 31.960938 30.984375 31.925781 31.109375 31.882812 C 32.179688 31.546875 32.9375 31.679688 33.960938 32.144531 C 34.046875 32.183594 34.136719 32.222656 34.226562 32.261719 C 34.503906 32.382812 34.777344 32.507812 35.054688 32.632812 C 35.242188 32.714844 35.433594 32.800781 35.621094 32.882812 C 36.082031 33.089844 36.539062 33.292969 37 33.5 C 36.984375 33.425781 36.96875 33.355469 36.953125 33.28125 C 36.886719 32.949219 36.816406 32.621094 36.75 32.289062 C 36.726562 32.175781 36.703125 32.0625 36.679688 31.945312 C 36.65625 31.832031 36.632812 31.722656 36.609375 31.609375 C 36.589844 31.507812 36.566406 31.40625 36.546875 31.300781 C 36.5 30.988281 36.492188 30.691406 36.5 30.375 C 36.980469 30.148438 37.347656 30.113281 37.875 30.125 Z M 31 32.625 C 30.800781 33.597656 30.617188 34.570312 30.4375 35.546875 C 30.410156 35.691406 30.382812 35.832031 30.355469 35.980469 C 30.1875 36.902344 30.027344 37.824219 29.875 38.75 C 32.066406 37.605469 34.167969 36.332031 36.25 35 C 35.914062 34.589844 35.46875 34.417969 34.992188 34.214844 C 34.90625 34.175781 34.820312 34.140625 34.734375 34.101562 C 34.550781 34.019531 34.367188 33.941406 34.1875 33.863281 C 33.910156 33.742188 33.632812 33.621094 33.355469 33.5 C 33.179688 33.421875 33 33.347656 32.820312 33.269531 C 32.742188 33.234375 32.660156 33.199219 32.574219 33.160156 C 32.054688 32.9375 31.542969 32.769531 31 32.625 Z M 36.09375 36.710938 C 35.226562 37.28125 34.347656 37.824219 33.453125 38.351562 C 33.34375 38.417969 33.230469 38.484375 33.117188 38.550781 C 32.335938 39.007812 31.546875 39.445312 30.75 39.875 C 32.339844 40.9375 34.660156 41.402344 36.554688 41.382812 C 36.6875 41.382812 36.816406 41.378906 36.953125 41.378906 C 37.101562 41.378906 37.101562 41.378906 37.25 41.375 C 37.355469 40.289062 37.386719 39.207031 37.390625 38.117188 C 37.390625 37.992188 37.390625 37.867188 37.390625 37.738281 C 37.390625 37.621094 37.390625 37.5 37.390625 37.378906 C 37.390625 37.21875 37.390625 37.21875 37.390625 37.058594 C 37.375 36.734375 37.320312 36.4375 37.25 36.125 C 36.804688 36.125 36.453125 36.46875 36.09375 36.710938 Z M 11.824219 42.167969 C 11.476562 42.53125 11.15625 42.917969 10.84375 43.3125 C 10.785156 43.386719 10.726562 43.460938 10.667969 43.535156 C 10.390625 43.894531 10.214844 44.183594 10.125 44.625 C 11.640625 44.679688 13.101562 44.632812 14.601562 44.398438 C 14.804688 44.367188 14.804688 44.367188 15.007812 44.335938 C 15.789062 44.207031 16.507812 44.019531 17.25 43.75 C 17.207031 43.625 17.164062 43.496094 17.117188 43.367188 C 17.058594 43.199219 17.003906 43.027344 16.945312 42.859375 C 16.917969 42.777344 16.886719 42.691406 16.859375 42.609375 C 16.542969 41.671875 16.484375 40.8125 16.492188 39.828125 C 16.492188 39.710938 16.492188 39.597656 16.492188 39.476562 C 16.496094 39.191406 16.496094 38.910156 16.5 38.625 C 15.195312 38.625 12.742188 41.253906 11.824219 42.167969 Z M 29.25 40.75 C 29.21875 40.835938 29.1875 40.921875 29.152344 41.007812 C 28.390625 43.042969 27.597656 45.058594 26.625 47 C 27.460938 46.75 28.222656 46.414062 29 46.023438 C 29.117188 45.964844 29.234375 45.90625 29.355469 45.847656 C 29.597656 45.722656 29.84375 45.601562 30.089844 45.476562 C 30.457031 45.289062 30.828125 45.105469 31.195312 44.921875 C 32.488281 44.277344 33.757812 43.613281 35 42.875 C 35 42.792969 35 42.710938 35 42.625 C 34.84375 42.597656 34.683594 42.570312 34.523438 42.542969 C 32.621094 42.195312 30.972656 41.628906 29.25 40.75 Z M 26.535156 41.957031 C 26.4375 42 26.339844 42.046875 26.242188 42.09375 C 26.136719 42.140625 26.03125 42.191406 25.921875 42.242188 C 24.941406 42.691406 23.949219 43.097656 22.9375 43.476562 C 22.757812 43.542969 22.757812 43.542969 22.570312 43.613281 C 21.816406 43.890625 21.058594 44.144531 20.289062 44.382812 C 19.980469 44.472656 19.980469 44.472656 19.875 44.75 C 21.3125 45.902344 22.871094 46.898438 24.625 47.5 C 25.234375 46.488281 25.78125 45.457031 26.289062 44.390625 C 26.339844 44.28125 26.394531 44.171875 26.449219 44.058594 C 27.019531 42.945312 27.019531 42.945312 27.25 41.75 C 26.953125 41.75 26.800781 41.828125 26.535156 41.957031 Z M 36.128906 43.828125 C 35.929688 43.9375 35.929688 43.9375 35.730469 44.046875 C 35.585938 44.125 35.445312 44.203125 35.296875 44.28125 C 34.996094 44.445312 34.695312 44.605469 34.398438 44.765625 C 34.28125 44.828125 34.28125 44.828125 34.167969 44.890625 C 31.890625 46.117188 29.585938 47.265625 27.25 48.375 C 27.355469 48.65625 27.355469 48.65625 27.671875 48.726562 C 27.800781 48.761719 27.929688 48.792969 28.066406 48.828125 C 28.28125 48.882812 28.28125 48.882812 28.503906 48.9375 C 28.738281 48.996094 28.738281 48.996094 28.976562 49.054688 C 29.136719 49.09375 29.292969 49.132812 29.457031 49.171875 C 31.375 49.636719 33.277344 49.914062 35.25 50 C 35.765625 48.558594 36.210938 47.117188 36.554688 45.625 C 36.585938 45.484375 36.621094 45.347656 36.652344 45.203125 C 36.78125 44.621094 36.894531 44.097656 36.875 43.5 C 36.613281 43.5 36.347656 43.710938 36.128906 43.828125 Z M 18.5 45.5 C 18.3125 45.710938 18.132812 45.925781 17.953125 46.140625 C 17.898438 46.207031 17.84375 46.273438 17.785156 46.34375 C 17.367188 46.847656 16.964844 47.363281 16.5625 47.882812 C 16.042969 48.554688 15.496094 49.183594 14.910156 49.800781 C 14.574219 50.183594 14.289062 50.582031 14 51 C 17.011719 50.644531 20.269531 49.992188 23 48.625 C 23 48.542969 23 48.460938 23 48.375 C 22.910156 48.324219 22.910156 48.324219 22.816406 48.277344 C 21.304688 47.464844 19.9375 46.605469 18.625 45.5 C 18.582031 45.5 18.542969 45.5 18.5 45.5 Z M 15.503906 45.578125 C 15.410156 45.59375 15.3125 45.609375 15.21875 45.628906 C 15.023438 45.660156 14.828125 45.695312 14.636719 45.730469 C 13.402344 45.945312 12.171875 46.023438 10.921875 46.070312 C 10.714844 46.078125 10.714844 46.078125 10.503906 46.085938 C 10.171875 46.101562 9.835938 46.113281 9.5 46.125 C 9.167969 46.792969 9.390625 47.628906 9.613281 48.304688 C 10.070312 49.378906 10.855469 50.148438 11.75 50.875 C 12.824219 50.417969 13.609375 49.265625 14.320312 48.375 C 14.742188 47.855469 15.179688 47.351562 15.617188 46.847656 C 16.222656 46.242188 16.222656 46.242188 16.5 45.5 C 16.136719 45.5 15.851562 45.515625 15.503906 45.578125 Z M 25.25 49.375 C 25.152344 49.503906 25.054688 49.632812 24.957031 49.769531 C 23.933594 51.140625 22.902344 52.484375 21.75 53.75 C 22.164062 53.886719 22.335938 53.863281 22.757812 53.785156 C 22.953125 53.75 22.953125 53.75 23.15625 53.714844 C 23.296875 53.6875 23.4375 53.660156 23.585938 53.632812 C 23.734375 53.605469 23.882812 53.578125 24.035156 53.546875 C 26.878906 52.996094 29.664062 52.277344 32.375 51.25 C 32.375 51.207031 32.375 51.167969 32.375 51.125 C 32.289062 51.109375 32.207031 51.09375 32.117188 51.078125 C 30.207031 50.738281 28.355469 50.320312 26.5 49.75 C 26.265625 49.679688 26.035156 49.609375 25.800781 49.539062 C 25.644531 49.492188 25.644531 49.492188 25.480469 49.445312 C 25.40625 49.421875 25.328125 49.398438 25.25 49.375 Z M 21.671875 50.566406 C 20.308594 51.046875 18.949219 51.472656 17.539062 51.796875 C 17.410156 51.828125 17.28125 51.855469 17.144531 51.886719 C 16.226562 52.089844 15.304688 52.242188 14.375 52.375 C 15.367188 53.035156 16.574219 53.417969 17.695312 53.804688 C 17.789062 53.839844 17.886719 53.871094 17.984375 53.90625 C 18.675781 54.140625 18.675781 54.140625 19.375 54 C 20.53125 53.136719 22.0625 51.722656 22.625 50.375 C 22.242188 50.375 22.027344 50.4375 21.671875 50.566406 Z M 33.5 52.242188 C 30.316406 53.519531 27.015625 54.453125 23.625 55 C 23.960938 55.335938 24.195312 55.320312 24.667969 55.378906 C 24.828125 55.402344 24.988281 55.421875 25.15625 55.445312 C 25.242188 55.453125 25.328125 55.464844 25.414062 55.476562 C 25.667969 55.507812 25.917969 55.539062 26.171875 55.574219 C 27.738281 55.773438 29.265625 55.894531 30.84375 55.882812 C 30.992188 55.882812 31.140625 55.882812 31.292969 55.882812 C 31.652344 55.878906 32.015625 55.878906 32.375 55.875 C 32.617188 55.464844 32.855469 55.050781 33.09375 54.640625 C 33.160156 54.527344 33.226562 54.410156 33.296875 54.292969 C 33.726562 53.550781 34.082031 52.804688 34.375 52 C 34.039062 52 33.808594 52.117188 33.5 52.242188 Z M 33.5 52.242188 "/>
<path style=" stroke:none;fill-rule:nonzero;fill:rgb(80.784315%,84.313726%,85.882354%);fill-opacity:1;" d="M 29.375 3.875 C 29.378906 3.953125 29.382812 4.03125 29.386719 4.113281 C 29.570312 7.261719 29.964844 10.597656 31.515625 13.40625 C 31.625 13.625 31.625 13.625 31.625 13.875 C 30.410156 13.917969 30.410156 13.917969 29.875 13.625 C 29.375 12.941406 29.148438 12.039062 28.875 11.25 C 28.792969 11.3125 28.792969 11.3125 28.710938 11.375 C 28.535156 11.503906 28.363281 11.632812 28.1875 11.757812 C 27.863281 12 27.863281 12 27.554688 12.308594 C 27.027344 12.78125 26.582031 13.160156 25.851562 13.15625 C 25.367188 13.117188 24.894531 13.03125 24.417969 12.933594 C 24.125 12.875 23.835938 12.835938 23.539062 12.796875 C 23.351562 12.769531 23.164062 12.746094 22.976562 12.71875 C 22.890625 12.707031 22.804688 12.699219 22.71875 12.6875 C 21.5625 12.496094 20.945312 11.574219 20.289062 10.6875 C 20.21875 10.597656 20.148438 10.503906 20.078125 10.410156 C 19.703125 9.910156 19.34375 9.402344 19 8.875 C 18.820312 8.988281 18.640625 9.101562 18.460938 9.21875 C 18.3125 9.316406 18.3125 9.316406 18.15625 9.414062 C 17.867188 9.628906 17.683594 9.816406 17.5 10.125 C 17.527344 10.523438 17.527344 10.523438 17.625 10.875 C 17.167969 10.6875 16.914062 10.421875 16.59375 10.046875 C 16.503906 9.945312 16.417969 9.84375 16.328125 9.738281 C 16.261719 9.660156 16.195312 9.582031 16.125 9.5 C 16.832031 7.957031 18.410156 7.289062 19.875 6.625 C 20.011719 6.5625 20.152344 6.5 20.292969 6.433594 C 22.839844 5.355469 26.539062 3.875 29.375 3.875 Z M 25.9375 6.132812 C 25.789062 6.171875 25.636719 6.210938 25.484375 6.25 C 24.535156 6.503906 23.597656 6.78125 22.671875 7.101562 C 22.566406 7.136719 22.460938 7.175781 22.355469 7.210938 C 21.832031 7.363281 21.832031 7.363281 21.5 7.75 C 22.199219 7.886719 22.894531 8.027344 23.59375 8.164062 C 23.832031 8.210938 24.066406 8.257812 24.304688 8.304688 C 25.65625 8.574219 27.003906 8.820312 28.375 9 C 28.25 7.925781 28.128906 6.855469 28 5.75 C 27.28125 5.75 26.632812 5.953125 25.9375 6.132812 Z M 21.125 9.125 C 21.875 10.433594 22.976562 11.527344 24 12.625 C 24.957031 12.191406 25.835938 11.730469 26.671875 11.085938 C 26.777344 11.003906 26.777344 11.003906 26.886719 10.921875 C 27.054688 10.789062 27.214844 10.644531 27.375 10.5 C 27.375 10.417969 27.375 10.335938 27.375 10.25 C 26.523438 10.089844 25.675781 9.929688 24.824219 9.769531 C 24.535156 9.714844 24.246094 9.660156 23.957031 9.605469 C 23.542969 9.527344 23.128906 9.449219 22.710938 9.371094 C 22.582031 9.347656 22.453125 9.320312 22.316406 9.296875 C 22.136719 9.261719 22.136719 9.261719 21.953125 9.226562 C 21.847656 9.207031 21.742188 9.1875 21.632812 9.167969 C 21.378906 9.117188 21.378906 9.117188 21.125 9.125 Z M 21.125 9.125 "/>
<path style=" stroke:none;fill-rule:nonzero;fill:rgb(73.725492%,21.176471%,21.176471%);fill-opacity:1;" d="M 12.375 39.625 C 12.375 40.199219 12.007812 40.476562 11.625 40.875 C 11.292969 41.167969 11.054688 41.277344 10.625 41.375 C 11.160156 40.722656 11.726562 40.167969 12.375 39.625 Z M 12.375 39.625 "/>
</g>
</svg>
