<?xml version="1.0" encoding="UTF-8"?>
<svg xmlns="http://www.w3.org/2000/svg" xmlns:xlink="http://www.w3.org/1999/xlink" width="px" height="64px" viewBox="0 0 80 64" version="1.1">
<g id="surface1">
<path style=" stroke:none;fill-rule:nonzero;fill:rgb(48.627451%,6.666667%,96.862745%);fill-opacity:1;" d="M 17.417969 -0.0273438 C 17.667969 -0.0273438 17.917969 -0.0273438 18.167969 -0.0273438 C 18.605469 -0.0273438 19.042969 -0.0273438 19.476562 -0.0273438 C 20.128906 -0.0273438 20.777344 -0.0273438 21.425781 -0.0273438 C 22.585938 -0.03125 23.746094 -0.03125 24.90625 -0.03125 C 25.921875 -0.0273438 26.9375 -0.0273438 27.953125 -0.03125 C 28.089844 -0.03125 28.226562 -0.03125 28.359375 -0.03125 C 28.566406 -0.03125 28.773438 -0.03125 28.976562 -0.03125 C 30.886719 -0.03125 32.796875 -0.03125 34.703125 -0.03125 C 34.8125 -0.03125 34.8125 -0.03125 34.921875 -0.03125 C 35.507812 -0.03125 36.089844 -0.03125 36.675781 -0.03125 C 38.953125 -0.0273438 41.230469 -0.03125 43.507812 -0.03125 C 46.070312 -0.03125 48.632812 -0.0351562 51.191406 -0.0351562 C 51.464844 -0.0351562 51.738281 -0.0351562 52.011719 -0.03125 C 52.078125 -0.03125 52.148438 -0.03125 52.214844 -0.03125 C 53.230469 -0.03125 54.246094 -0.0351562 55.257812 -0.0351562 C 56.414062 -0.0351562 57.566406 -0.0351562 58.722656 -0.0351562 C 59.367188 -0.0351562 60.011719 -0.0351562 60.65625 -0.0351562 C 61.089844 -0.0351562 61.519531 -0.0351562 61.953125 -0.0351562 C 62.195312 -0.0351562 62.441406 -0.0351562 62.6875 -0.0351562 C 64.855469 -0.0429688 66.824219 0.355469 68.464844 1.871094 C 68.5 1.902344 68.535156 1.9375 68.570312 1.96875 C 70.109375 3.402344 71.105469 5.375 71.222656 7.496094 C 71.234375 7.785156 71.234375 8.074219 71.234375 8.363281 C 71.234375 8.554688 71.234375 8.746094 71.234375 8.941406 C 71.238281 9.351562 71.238281 9.761719 71.238281 10.171875 C 71.238281 10.710938 71.238281 11.25 71.242188 11.789062 C 71.242188 11.855469 71.242188 11.917969 71.242188 11.988281 C 71.25 12.960938 71.289062 13.929688 71.359375 14.898438 C 71.363281 14.984375 71.363281 14.984375 71.371094 15.070312 C 71.6875 19.308594 72.410156 24.542969 75.535156 27.6875 C 75.589844 27.742188 75.644531 27.800781 75.703125 27.859375 C 75.757812 27.910156 75.8125 27.964844 75.867188 28.019531 C 75.910156 28.0625 75.953125 28.105469 75.996094 28.148438 C 77.027344 29.121094 78.304688 29.558594 79.667969 29.828125 C 79.777344 29.847656 79.886719 29.871094 80 29.894531 C 80 31.261719 80 32.628906 80 34.039062 C 79.273438 34.207031 79.273438 34.207031 78.535156 34.375 C 76.199219 35.160156 74.734375 36.855469 73.660156 39.003906 C 72.386719 41.59375 71.835938 44.511719 71.515625 47.363281 C 71.511719 47.410156 71.507812 47.453125 71.5 47.5 C 71.460938 47.851562 71.429688 48.203125 71.398438 48.550781 C 71.394531 48.617188 71.386719 48.679688 71.382812 48.75 C 71.285156 49.859375 71.253906 50.960938 71.246094 52.074219 C 71.246094 52.140625 71.246094 52.207031 71.246094 52.277344 C 71.242188 52.898438 71.238281 53.523438 71.234375 54.144531 C 71.234375 54.488281 71.234375 54.835938 71.230469 55.179688 C 71.230469 55.308594 71.230469 55.4375 71.230469 55.566406 C 71.230469 56.570312 71.160156 57.550781 70.828125 58.507812 C 70.8125 58.554688 70.796875 58.605469 70.777344 58.65625 C 70.433594 59.617188 69.925781 60.480469 69.265625 61.257812 C 69.222656 61.3125 69.179688 61.367188 69.132812 61.421875 C 68.234375 62.488281 66.933594 63.269531 65.617188 63.683594 C 65.566406 63.699219 65.511719 63.714844 65.460938 63.730469 C 64.359375 64.058594 63.210938 64.019531 62.074219 64.015625 C 61.832031 64.015625 61.585938 64.015625 61.339844 64.019531 C 60.914062 64.019531 60.488281 64.019531 60.058594 64.019531 C 59.425781 64.015625 58.789062 64.015625 58.152344 64.019531 C 57.019531 64.019531 55.882812 64.019531 54.746094 64.019531 C 53.753906 64.019531 52.761719 64.019531 51.765625 64.019531 C 51.667969 64.019531 51.667969 64.019531 51.566406 64.019531 C 51.300781 64.019531 51.03125 64.019531 50.765625 64.019531 C 48.253906 64.019531 45.742188 64.019531 43.230469 64.015625 C 41.003906 64.015625 38.773438 64.015625 36.542969 64.015625 C 34.039062 64.019531 31.53125 64.019531 29.027344 64.019531 C 28.757812 64.019531 28.492188 64.019531 28.222656 64.019531 C 28.160156 64.019531 28.09375 64.019531 28.023438 64.019531 C 27.03125 64.019531 26.039062 64.019531 25.046875 64.019531 C 23.917969 64.019531 22.789062 64.019531 21.660156 64.019531 C 21.027344 64.015625 20.394531 64.015625 19.765625 64.019531 C 19.34375 64.019531 18.921875 64.019531 18.5 64.015625 C 18.257812 64.015625 18.019531 64.015625 17.777344 64.015625 C 15.175781 64.023438 12.984375 63.519531 11.074219 61.625 C 10.714844 61.261719 10.394531 60.898438 10.132812 60.457031 C 10.089844 60.382812 10.046875 60.3125 10 60.238281 C 9.261719 59.003906 8.792969 57.632812 8.789062 56.183594 C 8.789062 56.125 8.789062 56.066406 8.789062 56.007812 C 8.789062 55.882812 8.789062 55.757812 8.785156 55.632812 C 8.785156 55.433594 8.785156 55.230469 8.78125 55.03125 C 8.777344 54.457031 8.777344 53.886719 8.773438 53.316406 C 8.765625 51.859375 8.75 50.410156 8.640625 48.960938 C 8.636719 48.90625 8.632812 48.855469 8.628906 48.800781 C 8.296875 44.570312 7.5625 39.617188 4.601562 36.378906 C 4.542969 36.316406 4.484375 36.253906 4.425781 36.1875 C 3.21875 34.902344 1.695312 34.378906 0 34.039062 C 0 32.671875 0 31.304688 0 29.894531 C 0.660156 29.761719 0.660156 29.761719 1.332031 29.625 C 2.347656 29.292969 3.191406 28.855469 4 28.15625 C 4.046875 28.117188 4.089844 28.082031 4.136719 28.042969 C 7.410156 25.335938 8.15625 19.871094 8.550781 15.925781 C 8.554688 15.871094 8.5625 15.8125 8.566406 15.757812 C 8.582031 15.59375 8.597656 15.429688 8.613281 15.269531 C 8.617188 15.222656 8.621094 15.175781 8.628906 15.128906 C 8.714844 14.171875 8.742188 13.21875 8.746094 12.257812 C 8.746094 12.058594 8.75 11.855469 8.75 11.652344 C 8.753906 11.078125 8.757812 10.503906 8.761719 9.933594 C 8.761719 9.578125 8.765625 9.226562 8.765625 8.871094 C 8.769531 8.738281 8.769531 8.605469 8.769531 8.472656 C 8.769531 7.402344 8.859375 6.390625 9.210938 5.375 C 9.234375 5.316406 9.253906 5.257812 9.273438 5.195312 C 9.964844 3.246094 11.414062 1.621094 13.269531 0.714844 C 14.65625 0.0625 15.910156 -0.03125 17.417969 -0.0273438 Z M 17.417969 -0.0273438 "/>
<path style=" stroke:none;fill-rule:nonzero;fill:rgb(96.862745%,94.117647%,99.215686%);fill-opacity:1;" d="M 27.734375 14.914062 C 43.773438 14.914062 43.773438 14.914062 45.285156 15.300781 C 45.351562 15.320312 45.417969 15.335938 45.488281 15.355469 C 46.035156 15.5 46.550781 15.675781 47.066406 15.917969 C 47.132812 15.945312 47.132812 15.945312 47.199219 15.976562 C 47.800781 16.257812 48.347656 16.566406 48.867188 16.988281 C 48.902344 17.015625 48.9375 17.042969 48.972656 17.070312 C 50.570312 18.355469 51.472656 19.992188 51.867188 22.003906 C 51.882812 22.078125 51.882812 22.078125 51.902344 22.15625 C 52.238281 24.046875 51.710938 26.121094 50.660156 27.699219 C 49.527344 29.261719 47.984375 30.480469 46.066406 30.898438 C 46.066406 30.917969 46.066406 30.941406 46.066406 30.964844 C 46.136719 30.976562 46.207031 30.992188 46.28125 31.003906 C 48.179688 31.394531 49.851562 32.078125 51.265625 33.4375 C 51.316406 33.484375 51.367188 33.53125 51.421875 33.578125 C 52.664062 34.757812 53.3125 36.390625 53.601562 38.050781 C 53.613281 38.113281 53.621094 38.175781 53.636719 38.242188 C 53.964844 40.4375 53.394531 42.988281 52.089844 44.789062 C 51.933594 45 51.769531 45.207031 51.601562 45.410156 C 51.554688 45.464844 51.511719 45.519531 51.464844 45.578125 C 51.203125 45.890625 50.914062 46.15625 50.601562 46.410156 C 50.535156 46.464844 50.464844 46.519531 50.398438 46.578125 C 49.226562 47.5 47.890625 48.070312 46.464844 48.484375 C 46.40625 48.503906 46.347656 48.519531 46.285156 48.539062 C 45.84375 48.664062 45.398438 48.753906 44.945312 48.828125 C 44.878906 48.839844 44.816406 48.851562 44.75 48.863281 C 39.152344 49.792969 33.40625 49.019531 27.734375 49.019531 C 27.734375 37.765625 27.734375 26.507812 27.734375 14.914062 Z M 27.734375 14.914062 "/>
<path style=" stroke:none;fill-rule:nonzero;fill:rgb(47.058824%,6.666667%,94.509804%);fill-opacity:1;" d="M 33.265625 33.570312 C 34.652344 33.570312 36.039062 33.566406 37.464844 33.5625 C 38.121094 33.5625 38.121094 33.5625 38.789062 33.558594 C 39.324219 33.558594 39.324219 33.558594 39.578125 33.558594 C 39.75 33.558594 39.925781 33.558594 40.097656 33.558594 C 41.980469 33.550781 41.980469 33.550781 42.867188 33.707031 C 42.925781 33.714844 42.988281 33.726562 43.050781 33.738281 C 43.191406 33.761719 43.328125 33.789062 43.464844 33.824219 C 43.539062 33.839844 43.539062 33.839844 43.617188 33.855469 C 44.847656 34.152344 45.90625 34.671875 46.800781 35.578125 C 46.839844 35.617188 46.878906 35.652344 46.921875 35.691406 C 47.796875 36.59375 48.042969 37.976562 48.027344 39.183594 C 47.980469 40.617188 47.535156 41.90625 46.484375 42.90625 C 46.304688 43.058594 46.125 43.199219 45.933594 43.335938 C 45.882812 43.371094 45.832031 43.40625 45.78125 43.445312 C 43.980469 44.625 41.636719 44.636719 39.570312 44.625 C 39.40625 44.625 39.242188 44.625 39.082031 44.625 C 38.488281 44.625 37.894531 44.621094 37.300781 44.617188 C 35.96875 44.613281 34.636719 44.609375 33.265625 44.605469 C 33.265625 40.964844 33.265625 37.324219 33.265625 33.570312 Z M 33.265625 33.570312 "/>
<path style=" stroke:none;fill-rule:nonzero;fill:rgb(48.627451%,7.058824%,94.901961%);fill-opacity:1;" d="M 33.265625 19.328125 C 34.5 19.324219 35.734375 19.324219 37.007812 19.324219 C 37.398438 19.324219 37.785156 19.320312 38.183594 19.320312 C 38.664062 19.320312 38.664062 19.320312 38.886719 19.320312 C 39.042969 19.320312 39.199219 19.320312 39.351562 19.320312 C 41.578125 19.316406 41.578125 19.316406 42.390625 19.507812 C 42.464844 19.523438 42.464844 19.523438 42.542969 19.542969 C 43.8125 19.851562 45.027344 20.421875 45.753906 21.566406 C 46.425781 22.699219 46.613281 24.105469 46.320312 25.390625 C 46.285156 25.511719 46.242188 25.628906 46.199219 25.746094 C 46.175781 25.8125 46.152344 25.878906 46.128906 25.945312 C 45.640625 27.21875 44.792969 28.011719 43.589844 28.601562 C 43.257812 28.742188 42.917969 28.855469 42.574219 28.964844 C 42.5 28.988281 42.5 28.988281 42.425781 29.015625 C 41.234375 29.375 39.988281 29.386719 38.753906 29.378906 C 38.613281 29.378906 38.472656 29.378906 38.332031 29.378906 C 37.8125 29.375 37.296875 29.375 36.777344 29.371094 C 35.621094 29.367188 34.460938 29.363281 33.265625 29.359375 C 33.265625 26.046875 33.265625 22.738281 33.265625 19.328125 Z M 33.265625 19.328125 "/>
<path style=" stroke:none;fill-rule:nonzero;fill:rgb(99.607843%,99.607843%,99.607843%);fill-opacity:1;" d="M 33.132812 33.371094 C 34.4375 33.367188 35.742188 33.367188 37.082031 33.363281 C 37.699219 33.359375 37.699219 33.359375 38.332031 33.359375 C 38.832031 33.359375 38.832031 33.359375 39.070312 33.359375 C 39.234375 33.359375 39.398438 33.359375 39.5625 33.355469 C 39.808594 33.355469 40.058594 33.355469 40.308594 33.355469 C 40.417969 33.355469 40.417969 33.355469 40.53125 33.355469 C 40.597656 33.355469 40.664062 33.355469 40.734375 33.355469 C 40.792969 33.355469 40.851562 33.355469 40.910156 33.355469 C 41.066406 33.371094 41.066406 33.371094 41.332031 33.503906 C 38.671875 33.503906 36.007812 33.503906 33.265625 33.503906 C 33.265625 37.167969 33.265625 40.832031 33.265625 44.605469 C 36.28125 44.585938 39.292969 44.5625 42.398438 44.539062 C 42.101562 44.839844 41.453125 44.746094 41.050781 44.75 C 40.972656 44.746094 40.894531 44.746094 40.816406 44.746094 C 40.730469 44.746094 40.644531 44.746094 40.558594 44.746094 C 40.332031 44.746094 40.105469 44.746094 39.875 44.746094 C 39.664062 44.746094 39.449219 44.746094 39.234375 44.746094 C 38.609375 44.746094 37.988281 44.746094 37.363281 44.742188 C 35.96875 44.742188 34.570312 44.742188 33.132812 44.738281 C 33.132812 40.988281 33.132812 37.238281 33.132812 33.371094 Z M 33.132812 33.371094 "/>
<path style=" stroke:none;fill-rule:nonzero;fill:rgb(91.764706%,86.666667%,98.431373%);fill-opacity:1;" d="M 53.464844 38.320312 C 53.511719 38.320312 53.554688 38.320312 53.601562 38.320312 C 53.75 38.625 53.679688 39.046875 53.679688 39.382812 C 53.679688 39.46875 53.679688 39.554688 53.683594 39.644531 C 53.683594 39.726562 53.683594 39.808594 53.683594 39.894531 C 53.683594 39.972656 53.683594 40.046875 53.683594 40.125 C 53.667969 40.320312 53.632812 40.429688 53.535156 40.59375 C 53.511719 40.59375 53.488281 40.59375 53.464844 40.59375 C 53.464844 39.84375 53.464844 39.09375 53.464844 38.320312 Z M 53.464844 38.320312 "/>
<path style=" stroke:none;fill-rule:nonzero;fill:rgb(98.823529%,98.431373%,99.607843%);fill-opacity:1;" d="M 51.800781 22.9375 C 51.84375 22.9375 51.886719 22.9375 51.933594 22.9375 C 51.945312 23.621094 51.945312 24.273438 51.800781 24.945312 C 51.757812 24.945312 51.710938 24.945312 51.667969 24.945312 C 51.671875 24.890625 51.675781 24.835938 51.679688 24.777344 C 51.722656 24.164062 51.761719 23.550781 51.800781 22.9375 Z M 51.800781 22.9375 "/>
<path style=" stroke:none;fill-rule:nonzero;fill:rgb(94.117647%,90.588236%,98.823529%);fill-opacity:1;" d="M 52.933594 36.179688 C 53 36.203125 53.066406 36.222656 53.132812 36.246094 C 53.210938 36.425781 53.210938 36.425781 53.277344 36.644531 C 53.3125 36.753906 53.3125 36.753906 53.347656 36.863281 C 53.398438 37.050781 53.398438 37.050781 53.398438 37.183594 C 53.335938 37.160156 53.269531 37.140625 53.199219 37.117188 C 53.121094 36.9375 53.121094 36.9375 53.054688 36.71875 C 53.03125 36.648438 53.007812 36.574219 52.984375 36.5 C 52.933594 36.3125 52.933594 36.3125 52.933594 36.179688 Z M 52.933594 36.179688 "/>
<path style=" stroke:none;fill-rule:nonzero;fill:rgb(93.725491%,89.803922%,98.039216%);fill-opacity:1;" d="M 45.734375 30.898438 C 46.085938 30.960938 46.4375 31.027344 46.800781 31.097656 C 46.757812 31.140625 46.710938 31.183594 46.667969 31.230469 C 46.464844 31.230469 46.464844 31.230469 46.226562 31.207031 C 46.144531 31.199219 46.066406 31.191406 45.984375 31.183594 C 45.925781 31.175781 45.863281 31.171875 45.800781 31.164062 C 45.777344 31.074219 45.757812 30.988281 45.734375 30.898438 Z M 45.734375 30.898438 "/>
<path style=" stroke:none;fill-rule:nonzero;fill:rgb(99.215686%,98.431373%,99.607843%);fill-opacity:1;" d="M 45.535156 27.152344 C 45.535156 27.351562 45.535156 27.351562 45.386719 27.519531 C 45.324219 27.578125 45.265625 27.636719 45.199219 27.699219 C 45.136719 27.757812 45.078125 27.820312 45.011719 27.882812 C 44.964844 27.925781 44.917969 27.972656 44.867188 28.019531 C 44.824219 28 44.777344 27.976562 44.734375 27.953125 C 44.816406 27.859375 44.898438 27.761719 44.984375 27.664062 C 45.03125 27.613281 45.074219 27.558594 45.125 27.503906 C 45.253906 27.367188 45.378906 27.257812 45.535156 27.152344 Z M 45.535156 27.152344 "/>
<path style=" stroke:none;fill-rule:nonzero;fill:rgb(94.117647%,90.196079%,98.823529%);fill-opacity:1;" d="M 43.199219 28.824219 C 43.132812 28.957031 43.132812 28.957031 42.953125 29.035156 C 42.71875 29.09375 42.566406 29.082031 42.332031 29.023438 C 42.894531 28.722656 42.894531 28.722656 43.199219 28.824219 Z M 43.199219 28.824219 "/>
<path style=" stroke:none;fill-rule:nonzero;fill:rgb(94.117647%,90.196079%,98.823529%);fill-opacity:1;" d="M 43.398438 44.40625 C 43.167969 44.558594 43.070312 44.5625 42.800781 44.539062 C 42.757812 44.496094 42.710938 44.449219 42.667969 44.40625 C 43.160156 44.320312 43.160156 44.320312 43.398438 44.40625 Z M 43.398438 44.40625 "/>
<path style=" stroke:none;fill-rule:nonzero;fill:rgb(94.117647%,90.588236%,98.823529%);fill-opacity:1;" d="M 47.800781 40.859375 C 47.867188 40.996094 47.867188 40.996094 47.816406 41.167969 C 47.734375 41.328125 47.734375 41.328125 47.535156 41.394531 C 47.574219 41.238281 47.617188 41.082031 47.667969 40.929688 C 47.710938 40.90625 47.753906 40.882812 47.800781 40.859375 Z M 47.800781 40.859375 "/>
<path style=" stroke:none;fill-rule:nonzero;fill:rgb(94.117647%,90.588236%,98.431373%);fill-opacity:1;" d="M 43 33.570312 C 43.199219 33.605469 43.199219 33.605469 43.398438 33.636719 C 43.398438 33.703125 43.398438 33.769531 43.398438 33.839844 C 43.222656 33.816406 43.046875 33.796875 42.867188 33.773438 C 42.910156 33.707031 42.953125 33.640625 43 33.570312 Z M 43 33.570312 "/>
</g>
</svg>
