<?xml version="1.0" encoding="UTF-8"?>
<svg xmlns="http://www.w3.org/2000/svg" xmlns:xlink="http://www.w3.org/1999/xlink" width="64px" height="64px" viewBox="0 0 64 64" version="1.1">
<g id="surface1">
<path style=" stroke:none;fill-rule:nonzero;fill:rgb(40.392157%,73.725492%,26.666668%);fill-opacity:1;" d="M 19.003906 -0.0117188 C 19.097656 -0.0117188 19.191406 -0.0117188 19.289062 -0.0117188 C 19.390625 -0.0117188 19.492188 -0.0117188 19.597656 -0.0117188 C 19.707031 -0.0117188 19.816406 -0.0117188 19.929688 -0.0117188 C 20.230469 -0.015625 20.535156 -0.015625 20.839844 -0.015625 C 21.164062 -0.015625 21.488281 -0.015625 21.816406 -0.015625 C 22.605469 -0.0234375 23.394531 -0.0234375 24.183594 -0.0234375 C 24.554688 -0.0234375 24.929688 -0.0234375 25.300781 -0.0234375 C 26.535156 -0.0234375 27.773438 -0.0234375 29.011719 -0.0234375 C 29.332031 -0.0234375 29.652344 -0.0234375 29.972656 -0.0234375 C 30.089844 -0.0234375 30.089844 -0.0234375 30.214844 -0.0234375 C 31.503906 -0.0273438 32.796875 -0.0273438 34.089844 -0.03125 C 35.410156 -0.03125 36.738281 -0.0351562 38.0625 -0.0351562 C 38.808594 -0.0351562 39.554688 -0.0351562 40.296875 -0.0390625 C 40.929688 -0.0390625 41.566406 -0.0390625 42.199219 -0.0390625 C 42.519531 -0.0390625 42.84375 -0.0390625 43.167969 -0.0390625 C 43.464844 -0.0429688 43.761719 -0.0429688 44.058594 -0.0390625 C 44.164062 -0.0390625 44.269531 -0.0429688 44.375 -0.0429688 C 46.382812 -0.0585938 48.222656 0.941406 49.671875 2.445312 C 50.164062 3.007812 50.535156 3.648438 50.882812 4.332031 C 50.925781 4.417969 50.972656 4.503906 51.019531 4.59375 C 51.113281 4.777344 51.203125 4.957031 51.300781 5.140625 C 51.480469 5.5 51.667969 5.859375 51.855469 6.21875 C 51.996094 6.492188 52.136719 6.765625 52.277344 7.035156 C 52.558594 7.578125 52.839844 8.125 53.125 8.667969 C 53.214844 8.847656 53.308594 9.027344 53.402344 9.207031 C 53.445312 9.296875 53.492188 9.386719 53.542969 9.476562 C 57.328125 16.792969 57.328125 16.792969 57.46875 17.058594 C 57.558594 17.242188 57.65625 17.421875 57.746094 17.601562 C 57.980469 18.058594 58.21875 18.511719 58.449219 18.964844 C 58.90625 19.839844 59.355469 20.710938 59.8125 21.582031 C 60.316406 22.542969 60.816406 23.507812 61.316406 24.472656 C 61.507812 24.847656 61.699219 25.21875 61.894531 25.59375 C 61.988281 25.777344 62.085938 25.960938 62.179688 26.148438 C 62.390625 26.550781 62.601562 26.960938 62.820312 27.363281 C 63.976562 29.511719 64.316406 31.882812 63.773438 34.332031 C 63.507812 35.453125 62.960938 36.417969 62.433594 37.40625 C 62.164062 37.90625 61.90625 38.410156 61.644531 38.917969 C 61.554688 39.097656 61.457031 39.277344 61.367188 39.457031 C 61.175781 39.820312 60.988281 40.183594 60.804688 40.546875 C 60.351562 41.417969 59.898438 42.289062 59.445312 43.15625 C 59.0625 43.878906 58.691406 44.601562 58.316406 45.332031 C 57.90625 46.148438 57.484375 46.949219 57.0625 47.753906 C 56.601562 48.632812 56.148438 49.511719 55.695312 50.398438 C 55.457031 50.84375 55.226562 51.296875 54.988281 51.75 C 54.898438 51.929688 54.804688 52.109375 54.710938 52.292969 C 54.148438 53.375 53.589844 54.457031 53.027344 55.542969 C 52.980469 55.632812 52.9375 55.71875 52.886719 55.808594 C 52.796875 55.992188 52.699219 56.171875 52.609375 56.351562 C 52.371094 56.808594 52.132812 57.273438 51.894531 57.726562 C 51.621094 58.265625 51.34375 58.800781 51.066406 59.332031 C 51.027344 59.410156 50.984375 59.484375 50.945312 59.558594 C 49.820312 61.714844 48.164062 63.226562 45.980469 63.878906 C 45.410156 64.023438 44.859375 64.023438 44.28125 64.023438 C 44.171875 64.023438 44.058594 64.023438 43.949219 64.023438 C 43.648438 64.023438 43.34375 64.023438 43.046875 64.023438 C 42.71875 64.023438 42.390625 64.023438 42.066406 64.027344 C 41.425781 64.027344 40.789062 64.027344 40.148438 64.027344 C 39.628906 64.027344 39.109375 64.027344 38.589844 64.027344 C 37.117188 64.03125 35.640625 64.03125 34.164062 64.03125 C 34.046875 64.03125 34.046875 64.03125 33.925781 64.03125 C 33.84375 64.03125 33.765625 64.03125 33.683594 64.03125 C 32.394531 64.03125 31.105469 64.03125 29.820312 64.035156 C 28.492188 64.039062 27.167969 64.039062 25.84375 64.039062 C 25.101562 64.039062 24.359375 64.039062 23.617188 64.039062 C 22.980469 64.042969 22.351562 64.042969 21.71875 64.042969 C 21.398438 64.039062 21.074219 64.039062 20.75 64.042969 C 20.453125 64.042969 20.160156 64.042969 19.863281 64.042969 C 19.757812 64.042969 19.652344 64.042969 19.546875 64.042969 C 17.632812 64.058594 15.839844 63.164062 14.460938 61.699219 C 13.917969 61.101562 13.484375 60.496094 13.113281 59.75 C 13.066406 59.664062 13.023438 59.578125 12.980469 59.488281 C 12.886719 59.308594 12.792969 59.125 12.699219 58.941406 C 12.519531 58.582031 12.332031 58.222656 12.144531 57.863281 C 12.003906 57.589844 11.863281 57.320312 11.722656 57.046875 C 11.441406 56.503906 11.160156 55.960938 10.875 55.417969 C 10.597656 54.875 10.316406 54.328125 10.035156 53.785156 C 9.585938 52.914062 9.132812 52.042969 8.675781 51.175781 C 8.269531 50.40625 7.875 49.628906 7.476562 48.851562 C 7.089844 48.089844 6.695312 47.332031 6.296875 46.578125 C 5.839844 45.699219 5.378906 44.820312 4.925781 43.941406 C 4.695312 43.488281 4.457031 43.035156 4.226562 42.582031 C 4.128906 42.402344 4.039062 42.222656 3.945312 42.042969 C 3.898438 41.953125 3.851562 41.863281 3.804688 41.773438 C 3.59375 41.363281 3.59375 41.363281 3.382812 40.957031 C 3.339844 40.867188 3.292969 40.78125 3.242188 40.691406 C 3.152344 40.507812 3.054688 40.328125 2.964844 40.148438 C 2.679688 39.597656 2.394531 39.046875 2.109375 38.5 C 2.015625 38.316406 1.921875 38.132812 1.828125 37.953125 C 1.609375 37.527344 1.386719 37.101562 1.164062 36.691406 C 0.351562 35.15625 -0.03125 33.785156 -0.0273438 31.988281 C -0.0273438 31.933594 -0.0273438 31.875 -0.0273438 31.816406 C -0.0234375 30.917969 0.03125 30.101562 0.300781 29.25 C 0.339844 29.113281 0.339844 29.113281 0.378906 28.976562 C 0.703125 28.046875 1.195312 27.207031 1.652344 26.351562 C 1.886719 25.910156 2.121094 25.460938 2.351562 25.011719 C 2.445312 24.828125 2.539062 24.648438 2.632812 24.464844 C 2.726562 24.28125 2.820312 24.097656 2.914062 23.917969 C 3.460938 22.863281 4.003906 21.808594 4.554688 20.761719 C 4.9375 20.039062 5.308594 19.308594 5.683594 18.582031 C 6.09375 17.773438 6.515625 16.964844 6.9375 16.160156 C 7.398438 15.285156 7.851562 14.402344 8.304688 13.523438 C 8.542969 13.070312 8.773438 12.617188 9.011719 12.167969 C 9.101562 11.984375 9.195312 11.804688 9.289062 11.625 C 10.128906 10 10.128906 10 10.972656 8.375 C 11.019531 8.285156 11.0625 8.195312 11.113281 8.101562 C 11.203125 7.925781 11.300781 7.746094 11.390625 7.558594 C 11.628906 7.101562 11.871094 6.640625 12.105469 6.179688 C 13.632812 3.207031 13.632812 3.207031 14.355469 2.417969 C 14.410156 2.351562 14.46875 2.289062 14.527344 2.222656 C 15 1.726562 15.511719 1.351562 16.074219 1 C 16.183594 0.933594 16.183594 0.933594 16.296875 0.863281 C 17.113281 0.375 18.070312 -0.0078125 19.003906 -0.0117188 Z M 29.707031 11.761719 C 29.355469 12.347656 29.285156 12.914062 29.289062 13.601562 C 29.289062 13.679688 29.289062 13.753906 29.289062 13.832031 C 29.285156 14.085938 29.285156 14.339844 29.285156 14.59375 C 29.285156 14.773438 29.285156 14.957031 29.285156 15.136719 C 29.285156 15.632812 29.285156 16.125 29.28125 16.617188 C 29.28125 16.925781 29.28125 17.234375 29.28125 17.542969 C 29.28125 18.675781 29.28125 19.804688 29.28125 20.941406 C 29.28125 21.886719 29.277344 22.832031 29.277344 23.777344 C 29.273438 24.640625 29.273438 25.5 29.273438 26.363281 C 29.273438 26.875 29.273438 27.390625 29.269531 27.90625 C 29.269531 28.386719 29.269531 28.871094 29.269531 29.351562 C 29.269531 29.53125 29.269531 29.710938 29.269531 29.886719 C 29.265625 31.046875 29.289062 32.039062 30.054688 32.917969 C 30.8125 33.613281 31.492188 33.75 32.445312 33.667969 C 32.703125 33.597656 32.902344 33.492188 33.125 33.332031 C 33.171875 33.296875 33.226562 33.261719 33.277344 33.226562 C 33.855469 32.792969 34.203125 32.160156 34.390625 31.417969 C 34.421875 31.15625 34.421875 30.898438 34.421875 30.632812 C 34.421875 30.558594 34.421875 30.476562 34.421875 30.402344 C 34.421875 30.148438 34.421875 29.898438 34.421875 29.640625 C 34.421875 29.457031 34.421875 29.273438 34.421875 29.09375 C 34.425781 28.597656 34.425781 28.101562 34.425781 27.601562 C 34.425781 27.195312 34.425781 26.78125 34.425781 26.367188 C 34.425781 25.332031 34.425781 24.300781 34.425781 23.273438 C 34.425781 22.375 34.425781 21.476562 34.425781 20.585938 C 34.429688 19.664062 34.429688 18.742188 34.429688 17.824219 C 34.429688 17.308594 34.429688 16.789062 34.429688 16.273438 C 34.433594 15.789062 34.433594 15.304688 34.429688 14.816406 C 34.429688 14.640625 34.429688 14.460938 34.429688 14.285156 C 34.433594 14.042969 34.429688 13.796875 34.429688 13.554688 C 34.429688 13.484375 34.433594 13.414062 34.433594 13.34375 C 34.421875 12.484375 34.113281 11.867188 33.589844 11.261719 C 33.097656 10.742188 32.53125 10.5 31.859375 10.464844 C 30.941406 10.503906 30.269531 10.964844 29.707031 11.761719 Z M 19.3125 17.03125 C 18.796875 17.609375 18.3125 18.203125 17.882812 18.863281 C 17.796875 19 17.703125 19.136719 17.609375 19.273438 C 14.929688 23.242188 13.820312 28.515625 14.429688 33.417969 C 14.910156 36.808594 16.066406 40.210938 18.066406 42.867188 C 18.164062 43 18.265625 43.132812 18.359375 43.265625 C 19.167969 44.371094 20.074219 45.378906 21.105469 46.226562 C 21.230469 46.332031 21.359375 46.441406 21.480469 46.550781 C 22.730469 47.636719 24.164062 48.472656 25.644531 49.082031 C 25.703125 49.109375 25.765625 49.132812 25.824219 49.160156 C 29.605469 50.746094 33.804688 50.71875 37.609375 49.25 C 37.65625 49.226562 37.703125 49.210938 37.753906 49.195312 C 38.539062 48.890625 39.269531 48.515625 40 48.082031 C 40.054688 48.050781 40.105469 48.023438 40.160156 47.988281 C 42.277344 46.761719 44.246094 44.964844 45.683594 42.832031 C 45.71875 42.78125 45.753906 42.726562 45.789062 42.679688 C 48.601562 38.589844 49.871094 33.410156 49.304688 28.296875 C 48.8125 24.289062 47.3125 20.511719 44.824219 17.558594 C 44.667969 17.371094 44.519531 17.179688 44.371094 16.984375 C 43.902344 16.386719 43.34375 15.890625 42.796875 15.390625 C 42.726562 15.328125 42.726562 15.328125 42.65625 15.261719 C 41.984375 14.664062 41.382812 14.429688 40.523438 14.5 C 39.917969 14.628906 39.417969 14.984375 39.042969 15.527344 C 38.691406 16.128906 38.5625 16.785156 38.65625 17.5 C 38.90625 18.488281 39.40625 18.960938 40.101562 19.574219 C 40.828125 20.222656 41.488281 20.933594 42.054688 21.761719 C 42.117188 21.851562 42.117188 21.851562 42.179688 21.949219 C 43.269531 23.574219 44.019531 25.390625 44.472656 27.351562 C 44.484375 27.417969 44.5 27.476562 44.519531 27.542969 C 44.742188 28.59375 44.8125 29.648438 44.808594 30.722656 C 44.808594 30.808594 44.808594 30.808594 44.804688 30.898438 C 44.804688 31.867188 44.746094 32.804688 44.558594 33.75 C 44.550781 33.816406 44.535156 33.878906 44.523438 33.945312 C 43.785156 37.664062 41.746094 40.886719 38.890625 42.960938 C 37.308594 44.074219 35.5625 44.753906 33.71875 45.082031 C 33.589844 45.101562 33.589844 45.101562 33.449219 45.132812 C 30.019531 45.578125 26.546875 44.523438 23.824219 42.160156 C 23.46875 41.84375 23.128906 41.515625 22.804688 41.167969 C 22.746094 41.101562 22.6875 41.046875 22.625 40.984375 C 20.605469 38.84375 19.429688 35.863281 18.988281 32.832031 C 18.976562 32.734375 18.960938 32.636719 18.945312 32.535156 C 18.886719 31.976562 18.898438 31.414062 18.898438 30.851562 C 18.898438 30.792969 18.898438 30.726562 18.898438 30.667969 C 18.898438 29.675781 18.945312 28.71875 19.140625 27.75 C 19.152344 27.683594 19.164062 27.621094 19.179688 27.554688 C 19.710938 24.875 20.910156 22.582031 22.582031 20.582031 C 22.628906 20.523438 22.683594 20.460938 22.734375 20.398438 C 23.0625 20.015625 23.410156 19.691406 23.789062 19.371094 C 24.175781 19.039062 24.5 18.726562 24.746094 18.25 C 24.816406 18.121094 24.816406 18.121094 24.886719 17.988281 C 25.085938 17.414062 25.058594 16.660156 24.855469 16.09375 C 24.53125 15.417969 24.042969 14.839844 23.375 14.601562 C 21.675781 14.152344 20.410156 15.820312 19.3125 17.03125 Z M 19.3125 17.03125 "/>
</g>
</svg>
