<?xml version="1.0" encoding="UTF-8"?>
<svg xmlns="http://www.w3.org/2000/svg" xmlns:xlink="http://www.w3.org/1999/xlink" width="px" height="64px" viewBox="0 0 80 64" version="1.1">
<g id="surface1">
<path style=" stroke:none;fill-rule:nonzero;fill:rgb(0%,69.01961%,100%);fill-opacity:1;" d="M 0 34.910156 L 0 0.0078125 L 30 17.457031 L 30 29.089844 L 10 17.457031 L 10 40.726562 Z M 0 34.910156 "/>
<path style=" stroke:none;fill-rule:nonzero;fill:rgb(0%,50.588238%,79.607844%);fill-opacity:1;" d="M 30 17.457031 L 60 0.0078125 L 60 34.910156 L 40 46.542969 L 30 40.726562 L 50 29.089844 L 50 17.457031 L 30 29.089844 Z M 30 17.457031 "/>
<path style=" stroke:none;fill-rule:nonzero;fill:rgb(0%,69.01961%,100%);fill-opacity:1;" d="M 30 40.726562 L 30 52.359375 L 50 63.992188 L 50 52.359375 Z M 30 40.726562 "/>
<path style=" stroke:none;fill-rule:nonzero;fill:rgb(0%,50.588238%,79.607844%);fill-opacity:1;" d="M 50 63.992188 L 80 46.542969 L 80 23.273438 L 70 29.089844 L 70 40.726562 L 50 52.359375 Z M 70 17.457031 L 70 5.824219 L 80 0.0078125 L 80 11.640625 Z M 70 17.457031 "/>
</g>
</svg>
